<?xml version="1.0" encoding="utf-8"?>
<!-- Generator: Adobe Illustrator 21.1.0, SVG Export Plug-In . SVG Version: 6.00 Build 0)  -->
<svg version="1.1" id="Layer_1" xmlns="http://www.w3.org/2000/svg" xmlns:xlink="http://www.w3.org/1999/xlink" x="0px" y="0px"
	 viewBox="0 0 624 400" style="enable-background:new 0 0 624 400;" xml:space="preserve">
<style type="text/css">
	.st0{fill:#F17871;}
	.st1{fill:#FFFFFF;}
	.st2{fill:#0A345A;}
	.st3{fill:#DADBDC;}
	.st4{fill:#F1584F;}
	.st5{fill:#004564;}
	.st6{fill:#019DC3;}
	.st7{fill:#00ACD5;}
	.st8{fill:#DBDBDB;}
	.st9{fill:#1A7C57;}
	.st10{fill:#1F865F;}
	.st11{fill:#1E835E;}
	.st12{fill:#FBF49D;}
	.st13{fill:#249067;}
	.st14{fill:#1C825D;}
	.st15{fill:#2A9E71;}
	.st16{fill:#208C64;}
	.st17{fill:#E6E7E8;}
	.st18{fill:#E7E194;}
	.st19{fill:#2E3B52;}
	.st20{fill:#10141F;}
	.st21{fill:#E0E0E0;}
	.st22{fill:#1F2838;}
	.st23{fill:#FFEF7F;}
	.st24{fill:#EBEBEB;}
	.st25{fill:#0085B1;}
	.st26{fill:#FFF845;}
	.st27{fill:#414350;}
	.st28{fill:#343640;}
	.st29{fill:#BDBDBD;}
	.st30{fill:#E6E6E6;}
	.st31{fill:#CCCCCC;}
	.st32{fill:#DEDFE0;}
	.st33{fill:#F8ED3C;}
	.st34{fill:#E3DB3B;}
	.st35{fill:#63435D;}
	.st36{fill:#B79694;}
	.st37{fill:#FCC9A1;}
	.st38{fill:#F8A693;}
	.st39{fill:#CE7381;}
	.st40{fill:#A55C68;}
	.st41{fill:#8F4F5A;}
	.st42{opacity:0.6;}
	.st43{fill:#BAB7F7;}
	.st44{opacity:0.5;}
	.st45{fill:#FF7D55;}
	.st46{opacity:0.3;}
	.st47{fill:#3F4751;}
	.st48{opacity:0.4;}
	.st49{fill:#CE8FFF;}
	.st50{fill:#8C83DD;}
	.st51{fill:#FF7261;}
	.st52{fill:#667784;}
	.st53{fill:#FF6464;}
	.st54{fill:#CFE240;}
	.st55{fill:#E56C69;}
	.st56{fill:#D856D2;}
	.st57{fill:#FFC022;}
	.st58{fill:#A8A8CC;}
	.st59{fill:#5D5D68;}
	.st60{fill:#B1CC40;}
	.st61{fill:#FFAB24;}
</style>
<g>
	<g>
		<rect x="38.7" y="163.1" class="st0" width="62" height="81"/>
		<g>
			<path class="st1" d="M103.5,246.9H35.9v-86.7h67.6V246.9z M41.5,241.3h56.4v-75.4H41.5V241.3z"/>
		</g>
		<g>
			<polygon class="st2" points="54.7,163.4 53.4,162.8 68.3,131.9 82.4,162.8 81.1,163.4 68.3,135.2 			"/>
		</g>
	</g>
	<g>
		<path class="st1" d="M618.8,145.2h-70v-1.8H619C619,144,618.9,144.6,618.8,145.2z"/>
		<path class="st1" d="M619,142.4h-70.2v-1.8h70C618.9,141.2,619,141.8,619,142.4z"/>
		<path class="st1" d="M617.9,148h-69.1v-1.8h69.7C618.4,146.9,618.1,147.5,617.9,148z"/>
		<path class="st1" d="M618.5,139.5h-69.7v-1.8h69.1C618.1,138.3,618.4,138.9,618.5,139.5z"/>
		<path class="st1" d="M616.1,150.9h-67.3v-1.8h68.5C617,149.7,616.6,150.3,616.1,150.9z"/>
		<path class="st1" d="M606.6,155.3h-57.8v-3.4h66.3C612.9,154,609.9,155.3,606.6,155.3z"/>
		<path class="st1" d="M548.8,130.5h57.8c3.3,0,6.3,1.3,8.5,3.4h-66.3V130.5z"/>
		<path class="st1" d="M616.1,134.9c0.5,0.6,0.9,1.1,1.2,1.8h-68.5v-1.8H616.1z"/>
		<path class="st3" d="M548.8,133.9h66.3c0.4,0.3,0.7,0.7,1,1.1h-67.3L548.8,133.9L548.8,133.9z"/>
		<path class="st3" d="M617.9,137.8h-69.1v-1.1h68.5C617.5,137,617.7,137.4,617.9,137.8z"/>
		<path class="st3" d="M618.8,140.6h-70v-1.1h69.7C618.6,139.9,618.7,140.2,618.8,140.6z"/>
		<path class="st3" d="M619,142.9c0,0.2,0,0.4,0,0.5h-70.2v-1.1H619C619,142.6,619,142.7,619,142.9z"/>
		<path class="st3" d="M618.5,146.3h-69.7v-1.1h70C618.7,145.6,618.6,145.9,618.5,146.3z"/>
		<path class="st3" d="M617.3,149.1h-68.5V148h69.1C617.7,148.4,617.5,148.8,617.3,149.1z"/>
		<path class="st3" d="M615.1,151.9h-66.3v-1.1h67.3C615.8,151.3,615.4,151.6,615.1,151.9z"/>
		<g>
			<path class="st4" d="M545.6,156.7h61c7.6,0,13.8-6.2,13.8-13.8c0-7.6-6.2-13.8-13.8-13.8h-61c-0.8,0-1.4,0.6-1.4,1.4
				s0.6,1.4,1.4,1.4h61c6.1,0,11,4.9,11,11c0,6.1-4.9,11-11,11h-61c-0.8,0-1.4,0.6-1.4,1.4S544.8,156.7,545.6,156.7z"/>
		</g>
	</g>
	<g>
		<path class="st1" d="M618.8,117.6h-70v-1.8H619C619,116.4,618.9,117,618.8,117.6z"/>
		<path class="st1" d="M619,114.7h-70.2v-1.8h70C618.9,113.5,619,114.1,619,114.7z"/>
		<path class="st1" d="M617.9,120.4h-69.1v-1.8h69.7C618.4,119.2,618.1,119.8,617.9,120.4z"/>
		<path class="st1" d="M618.5,111.9h-69.7v-1.8h69.1C618.1,110.7,618.4,111.3,618.5,111.9z"/>
		<path class="st1" d="M616.1,123.2h-67.3v-1.8h68.5C617,122.1,616.6,122.7,616.1,123.2z"/>
		<path class="st1" d="M606.6,127.7h-57.8v-3.4h66.3C612.9,126.4,609.9,127.7,606.6,127.7z"/>
		<path class="st1" d="M548.8,102.8h57.8c3.3,0,6.3,1.3,8.5,3.4h-66.3V102.8z"/>
		<path class="st1" d="M616.1,107.3c0.5,0.6,0.9,1.1,1.2,1.8h-68.5v-1.8H616.1z"/>
		<path class="st3" d="M548.8,106.2h66.3c0.4,0.3,0.7,0.7,1,1.1h-67.3L548.8,106.2L548.8,106.2z"/>
		<path class="st3" d="M617.9,110.1h-69.1V109h68.5C617.5,109.4,617.7,109.7,617.9,110.1z"/>
		<path class="st3" d="M618.8,112.9h-70v-1.1h69.7C618.6,112.2,618.7,112.6,618.8,112.9z"/>
		<path class="st3" d="M619,115.3c0,0.2,0,0.4,0,0.5h-70.2v-1.1H619C619,114.9,619,115.1,619,115.3z"/>
		<path class="st3" d="M618.5,118.6h-69.7v-1.1h70C618.7,117.9,618.6,118.3,618.5,118.6z"/>
		<path class="st3" d="M617.3,121.5h-68.5v-1.1h69.1C617.7,120.8,617.5,121.1,617.3,121.5z"/>
		<path class="st3" d="M615.1,124.3h-66.3v-1.1h67.3C615.8,123.6,615.4,124,615.1,124.3z"/>
		<g>
			<path class="st5" d="M545.6,129.1h61c7.6,0,13.8-6.2,13.8-13.8c0-7.6-6.2-13.8-13.8-13.8h-61c-0.8,0-1.4,0.6-1.4,1.4
				c0,0.8,0.6,1.4,1.4,1.4h61c6.1,0,11,4.9,11,11s-4.9,11-11,11h-61c-0.8,0-1.4,0.6-1.4,1.4C544.2,128.4,544.8,129.1,545.6,129.1z"
				/>
		</g>
	</g>
	<g>
		<path class="st6" d="M505.6,63.8v85.8c0,0,0.2,3.2,3.2,3.2h27c-0.4,2.7-2.7,4.8-5.5,4.8h-22.7c-3.1,0-5.5-2.5-5.5-5.5V69
			C502.1,66.6,503.5,64.6,505.6,63.8z"/>
		<path class="st7" d="M505.6,149.7V63.8c0.6-0.3,1.3-0.4,2.1-0.4h22.7c3.1,0,5.5,2.5,5.5,5.5V152c0,0.3,0,0.5-0.1,0.8h-27
			C505.7,152.8,505.6,149.7,505.6,149.7z"/>
		<rect x="508.1" y="74.8" class="st1" width="22.2" height="7.6"/>
		<rect x="508.1" y="87.1" class="st1" width="22.2" height="7.6"/>
		<rect x="508.1" y="99.3" class="st1" width="22.2" height="7.6"/>
	</g>
	<rect x="3.2" y="371.9" class="st1" width="615.8" height="13"/>
	<rect x="3.2" y="384.9" class="st8" width="615.8" height="6.1"/>
	<g>
		<path class="st9" d="M23.4,196.7c0,0,6.9,8,9,18.5l-1.6,1.6l-1.6,1.6c-1.8-0.4-3.5-0.9-5.1-1.4c-7.4-7.8-13.2-17.1-16.5-27.4
			C10.6,188.4,16.1,188.5,23.4,196.7z"/>
		<path class="st10" d="M5.1,190.9c0,0,0.9-0.9,2.6-1.5c3.3,10.3,9.1,19.6,16.5,27.4c-7.8-2.8-13.3-7.6-13.3-7.6
			C-1.9,197.7,5.1,190.9,5.1,190.9z"/>
		<polygon class="st11" points="10.4,196.7 8.7,195.7 10.4,194.8 11.3,193.1 12.3,194.8 14,195.7 12.3,196.7 11.3,198.4 		"/>
		<polygon class="st11" points="19.6,200 18.2,199.2 19.6,198.5 20.4,197 21.2,198.5 22.6,199.2 21.2,200 20.4,201.5 		"/>
		<polygon class="st11" points="16.2,208.1 14.1,206.9 16.2,205.8 17.3,203.8 18.4,205.8 20.5,206.9 18.4,208.1 17.3,210.1 		"/>
		<polygon class="st12" points="11.3,193.8 10.6,195 9.3,195.7 10.6,196.4 11.3,197.7 12,196.4 13.3,195.7 12,195 		"/>
		<polygon class="st12" points="20.4,197.7 19.8,198.7 18.9,199.2 19.8,199.8 20.4,200.8 20.9,199.8 21.9,199.2 20.9,198.7 		"/>
		<polygon class="st12" points="17.3,204.4 16.4,206 14.8,206.9 16.4,207.8 17.3,209.4 18.2,207.8 19.8,206.9 18.2,206 		"/>
		<path class="st9" d="M84,221.6c0,0-6.9,8-9,18.5l1.6,1.6l1.6,1.6c1.8-0.4,3.5-0.9,5.1-1.4c7.4-7.8,13.2-17.1,16.5-27.4
			C96.8,213.4,91.3,213.5,84,221.6z"/>
		<path class="st10" d="M102.3,215.9c0,0-0.9-0.9-2.6-1.5c-3.3,10.3-9.1,19.6-16.5,27.4c7.8-2.8,13.3-7.6,13.3-7.6
			C109.3,222.7,102.3,215.9,102.3,215.9z"/>
		<polygon class="st11" points="97,221.7 98.7,220.7 97,219.8 96.1,218.1 95.1,219.8 93.4,220.7 95.1,221.7 96.1,223.4 		"/>
		<polygon class="st11" points="87.8,225 89.2,224.2 87.8,223.5 87,222 86.2,223.5 84.8,224.2 86.2,225 87,226.5 		"/>
		<polygon class="st11" points="91.2,233.1 93.3,231.9 91.2,230.8 90.1,228.8 89,230.8 86.9,231.9 89,233.1 90.1,235.1 		"/>
		<polygon class="st12" points="96.1,218.8 96.8,220 98,220.7 96.8,221.4 96.1,222.7 95.4,221.4 94.1,220.7 95.4,220 		"/>
		<polygon class="st12" points="87,222.7 87.5,223.7 88.5,224.2 87.5,224.8 87,225.8 86.5,224.8 85.5,224.2 86.5,223.7 		"/>
		<polygon class="st12" points="90.1,229.4 91,231 92.6,231.9 91,232.8 90.1,234.4 89.2,232.8 87.6,231.9 89.2,231 		"/>
		<path class="st13" d="M105.1,243.6c11.4-1.7,15.4,5.7,15.4,5.7l0,0c0,0,7.8,13.8-17.2,26c0,0-13.6,6.3-29.5,5.9
			C79.6,265.6,90.1,251.1,105.1,243.6z"/>
		<path class="st14" d="M89.3,250.1c6.4-4,11.6-5.8,15.8-6.5c-15,7.4-25.5,22-31.3,37.7c-1.1,0-2.2-0.1-3.3-0.2l-1.7-3.2l0,0
			l-1.7-3.2C75,259.4,89.3,250.1,89.3,250.1z"/>
		<path class="st9" d="M23.9,236.3c0,0,6.9,8,9,18.5l-1.6,1.6l-1.6,1.6c-1.8-0.4-3.5-0.9-5.1-1.4c-7.4-7.8-13.2-17.1-16.5-27.4
			C11.1,228,16.6,228.1,23.9,236.3z"/>
		<path class="st10" d="M5.6,230.5c0,0,0.9-0.9,2.6-1.5c3.3,10.3,9.1,19.6,16.5,27.4c-7.8-2.8-13.3-7.6-13.3-7.6
			C-1.4,237.4,5.6,230.5,5.6,230.5z"/>
		<path class="st15" d="M37.7,192.5c7.7-7.9,16.3-7.8,16.4-7.8h0c0.1,0,31.1-0.4,28.3,54.3c0,0-2.4,33.4-21.2,61.8h-0.8
			c-13.5-18.2-21.6-39.5-26.8-62C29.9,223.1,31.5,206.9,37.7,192.5z"/>
		<path class="st16" d="M37.7,192.5c-6.3,14.4-7.9,30.6-4.2,46.2c5.2,22.6,13.3,43.9,26.8,62h-6.2h0H47
			C28.2,272.5,25.8,239,25.8,239C24.5,213.1,30.8,199.6,37.7,192.5z"/>
		<polygon class="st11" points="62.4,282 61.2,279.9 59.1,278.7 61.2,277.5 62.4,275.4 63.5,277.5 65.7,278.7 63.5,279.9 		"/>
		<path class="st11" d="M46.2,280.3l-1.6,2.9l-1.6-2.9l-2.9-1.6l2.9-1.6l1.6-2.9l1.6,2.9l0.2,0.1c0.4,0.8,0.7,1.5,1.1,2.3
			L46.2,280.3z"/>
		<path class="st11" d="M47.5,279.5c-0.4-0.8-0.7-1.5-1.1-2.3l2.6,1.4L47.5,279.5z"/>
		<polygon class="st11" points="58.1,258 55.3,256.4 58.1,254.8 59.7,251.9 61.3,254.8 64.2,256.4 61.3,258 59.7,260.9 		"/>
		<polygon class="st11" points="70.4,244.5 68.1,243.3 70.4,242 71.6,239.8 72.9,242 75.1,243.3 72.9,244.5 71.6,246.7 		"/>
		<polygon class="st11" points="40.4,242.7 38.1,241.4 40.4,240.1 41.7,237.8 43,240.1 45.3,241.4 43,242.7 41.7,245 		"/>
		<polygon class="st11" points="90.8,258.5 88.9,256.6 91.5,256.1 93.4,254.2 94,256.8 95.9,258.6 93.3,259.2 91.4,261.1 		"/>
		<polygon class="st11" points="10.9,236.3 9.2,235.4 10.9,234.4 11.8,232.7 12.7,234.4 14.5,235.4 12.7,236.3 11.8,238 		"/>
		<polygon class="st11" points="20.1,239.7 18.7,238.9 20.1,238.1 20.9,236.7 21.7,238.1 23.1,238.9 21.7,239.7 20.9,241.1 		"/>
		<polygon class="st11" points="84.5,274.3 83.1,272.9 85,272.5 86.4,271.1 86.9,273 88.3,274.4 86.3,274.8 84.9,276.2 		"/>
		<polygon class="st11" points="100.2,272.5 98.8,271.1 100.7,270.7 102.1,269.3 102.5,271.2 103.9,272.6 102,273 100.6,274.4 		"/>
		<polygon class="st11" points="16.7,247.7 14.6,246.6 16.7,245.4 17.8,243.4 18.9,245.4 21,246.6 18.9,247.7 17.8,249.7 		"/>
		<polygon class="st11" points="35.2,221.4 32.3,219.8 35.2,218.2 36.7,215.3 38.3,218.2 41.2,219.8 38.3,221.4 36.7,224.2 		"/>
		<polygon class="st11" points="52.9,193.1 50.5,191.9 52.9,190.6 54.1,188.3 55.4,190.6 57.7,191.9 55.4,193.1 54.1,195.4 		"/>
		<polygon class="st11" points="109.4,254.1 107.6,252.3 110.1,251.7 112,249.9 112.6,252.4 114.4,254.3 111.9,254.8 110,256.7 		
			"/>
		<polygon class="st11" points="58.1,215.6 55.3,214 58.1,212.5 59.7,209.6 61.3,212.5 64.2,214 61.3,215.6 59.7,218.5 		"/>
		<polygon class="st12" points="62.4,281.3 61.4,279.6 59.7,278.7 61.4,277.8 62.4,276 63.3,277.8 65,278.7 63.3,279.6 		"/>
		<path class="st12" d="M46,280l-1.3,2.5l-1.3-2.5l-2.5-1.3l2.5-1.3l1.3-2.5l1.3,2.5l0.7,0.4c0.2,0.5,0.5,1,0.7,1.5L46,280z"/>
		<path class="st12" d="M47.4,279.3c-0.2-0.5-0.5-1-0.7-1.5l1.7,1L47.4,279.3z"/>
		<polygon class="st12" points="59.7,252.6 58.4,255.1 55.9,256.4 58.4,257.7 59.7,260.2 61.1,257.7 63.5,256.4 61.1,255.1 		"/>
		<polygon class="st12" points="71.6,240.4 70.6,242.3 68.8,243.3 70.6,244.3 71.6,246.1 72.6,244.3 74.5,243.3 72.6,242.3 		"/>
		<polygon class="st12" points="41.7,238.5 40.7,240.4 38.8,241.4 40.7,242.4 41.7,244.3 42.7,242.4 44.6,241.4 42.7,240.4 		"/>
		<polygon class="st12" points="93.2,254.8 91.7,256.3 89.6,256.8 91.1,258.3 91.6,260.4 93.1,258.9 95.2,258.4 93.7,256.9 		"/>
		<polygon class="st12" points="11.8,233.4 11.1,234.7 9.8,235.4 11.1,236.1 11.8,237.4 12.5,236.1 13.8,235.4 12.5,234.7 		"/>
		<polygon class="st12" points="20.9,237.4 20.3,238.3 19.3,238.9 20.3,239.4 20.9,240.4 21.4,239.4 22.4,238.9 21.4,238.3 		"/>
		<polygon class="st12" points="86.2,271.7 85.2,272.8 83.7,273.1 84.8,274.1 85.1,275.6 86.2,274.5 87.6,274.2 86.6,273.2 		"/>
		<polygon class="st12" points="101.9,269.9 100.9,271 99.4,271.3 100.5,272.3 100.8,273.8 101.8,272.7 103.3,272.4 102.2,271.4 		
			"/>
		<polygon class="st12" points="17.8,244.1 16.9,245.7 15.3,246.6 16.9,247.5 17.8,249.1 18.7,247.5 20.3,246.6 18.7,245.7 		"/>
		<polygon class="st12" points="36.7,216 35.4,218.5 32.9,219.8 35.4,221.1 36.7,223.6 38.1,221.1 40.5,219.8 38.1,218.5 		"/>
		<polygon class="st12" points="54.1,189 53.1,190.8 51.2,191.9 53.1,192.9 54.1,194.8 55.1,192.9 57,191.9 55.1,190.8 		"/>
		<polygon class="st12" points="111.8,250.5 110.3,252 108.2,252.5 109.7,254 110.2,256.1 111.7,254.6 113.8,254.1 112.3,252.6 		
			"/>
		<polygon class="st12" points="59.7,210.2 58.4,212.7 55.9,214 58.4,215.4 59.7,217.8 61.1,215.4 63.5,214 61.1,212.7 		"/>
		<path class="st1" d="M30,296.3c0.8-0.2,1.6-0.3,2.5-0.3h42.8c5.4,0,9.4,4.4,8.8,9.8l-0.1,1.2H31.1L30,296.3z"/>
		<path class="st17" d="M30,296.3l1.1,10.6h-7.3l-0.1-1.2C23.2,301.2,25.9,297.4,30,296.3z"/>
		<path class="st1" d="M36.7,359.7L33,324.8h49.2l-3.9,39.6c-0.1,0.7-0.2,1.3-0.4,2H48.4C37,366.7,36.7,359.7,36.7,359.7z"/>
		<path class="st17" d="M36.7,359.7c0,0,0.3,7,11.7,6.7h29.4c-1.4,4.4-5.7,7.8-10.4,7.8H40.3c-5.4,0-10.2-4.4-10.8-9.8l-3.9-39.6H33
			L36.7,359.7z"/>
		<polygon class="st18" points="33,324.8 25.6,324.8 23.8,306.9 31.1,306.9 		"/>
		<polygon class="st12" points="31.1,306.9 84,306.9 82.2,324.8 33,324.8 		"/>
	</g>
	<path class="st19" d="M68.1,7.6c-28.9,0-52.3,23.5-52.3,52.3c0,28.9,23.5,52.3,52.3,52.3c28.9,0,52.3-23.5,52.3-52.3
		C120.5,31.1,97,7.6,68.1,7.6z M68.1,107.7c-26.3,0-47.8-21.4-47.8-47.8c0-26.3,21.4-47.8,47.8-47.8c26.3,0,47.8,21.4,47.8,47.8
		S94.5,107.7,68.1,107.7z"/>
	<path class="st20" d="M68.1,12.2c-26.3,0-47.8,21.4-47.8,47.8s21.4,47.8,47.8,47.8c26.3,0,47.8-21.4,47.8-47.8S94.5,12.2,68.1,12.2
		z"/>
	<path class="st21" d="M82.6,16.7c15.5,7.2,26.2,23,26.2,41.4c0,25.2-20.2,45.6-45.1,45.6c-4.9,0-9.6-0.8-14.1-2.3
		c5.7,2.7,12.1,4.2,18.9,4.2c24.9,0,45.1-20.4,45.1-45.6C113.7,39.7,100.7,22.6,82.6,16.7z"/>
	<path class="st1" d="M108.9,58c0-18.3-10.7-34.2-26.2-41.4c-4.4-1.5-9.2-2.3-14.1-2.3c-24.9,0-45.1,20.4-45.1,45.6
		c0,18.3,10.7,34.2,26.2,41.4c4.4,1.5,9.2,2.3,14.1,2.3C88.7,103.6,108.9,83.2,108.9,58z"/>
	<g>
		<g>
			<rect x="65.8" y="90" class="st22" width="4.7" height="10.7"/>
		</g>
	</g>
	<g>
		<g>
			
				<rect x="86" y="84.8" transform="matrix(0.8109 -0.5852 0.5852 0.8109 -36.4616 68.3401)" class="st22" width="3.1" height="11.6"/>
		</g>
	</g>
	<g>
		<g>
			
				<rect x="99.3" y="70.1" transform="matrix(0.5497 -0.8354 0.8354 0.5497 -18.5732 118.7521)" class="st22" width="3.1" height="13.1"/>
		</g>
	</g>
	<g>
		<g>
			<rect x="99.5" y="58.5" class="st22" width="11.1" height="4.7"/>
		</g>
	</g>
	<g>
		<g>
			<polygon class="st22" points="96.2,45.7 94.6,43.1 103.1,37.6 104.8,40.2 			"/>
		</g>
	</g>
	<g>
		<g>
			
				<rect x="81.9" y="27" transform="matrix(0.5499 -0.8352 0.8352 0.5499 15.2208 85.2694)" class="st22" width="9.6" height="3.1"/>
		</g>
	</g>
	<g>
		<g>
			<polygon class="st22" points="47.5,96.2 44.9,94.4 51.8,84.9 54.3,86.8 			"/>
		</g>
	</g>
	<g>
		<g>
			<polygon class="st22" points="31.7,81.5 30,78.9 40.9,71.7 42.6,74.3 			"/>
		</g>
	</g>
	<g>
		<g>
			<rect x="26.5" y="58.5" class="st22" width="11.1" height="4.7"/>
		</g>
	</g>
	<g>
		<g>
			<polygon class="st22" points="40.9,45.7 32.3,40.2 34,37.6 42.6,43.1 			"/>
		</g>
	</g>
	<g>
		<g>
			<polygon class="st22" points="51.7,33.4 46.5,25.4 49.1,23.7 54.3,31.6 			"/>
		</g>
	</g>
	<g>
		<g>
			<rect x="65" y="19.1" class="st22" width="4.7" height="9.4"/>
		</g>
	</g>
	<g>
		<g>
			<polygon class="st22" points="57.3,75.9 54.9,73.8 66.2,60.1 58.8,32.9 61.9,32 69.7,60.8 			"/>
		</g>
	</g>
	<g>
		<g>
			<circle class="st22" cx="68" cy="60.2" r="4.2"/>
		</g>
	</g>
	<rect x="395.3" y="156.2" class="st23" width="225.1" height="15"/>
	<rect x="412.6" y="171.1" class="st1" width="190.6" height="13"/>
	<rect x="421.1" y="184.2" class="st1" width="15.2" height="29.1"/>
	<rect x="579.5" y="184.2" class="st1" width="15.2" height="29.1"/>
	<rect x="412.6" y="171.1" class="st3" width="190.6" height="2.5"/>
	<rect x="421.1" y="184.2" class="st3" width="15.2" height="2.5"/>
	<rect x="579.5" y="184.2" class="st3" width="15.2" height="2.5"/>
	<g>
		<g>
			<path class="st1" d="M506.7,346.4c0-8.5,6.9-15.4,15.4-15.4c8.5,0,15.4,6.9,15.4,15.4c0,8.5-6.9,15.4-15.4,15.4
				C513.6,361.8,506.7,354.9,506.7,346.4z M510.1,346.4c0,6.6,5.4,12,12,12c6.6,0,12-5.4,12-12c0-6.6-5.4-12-12-12
				C515.5,334.5,510.1,339.8,510.1,346.4z"/>
		</g>
		<path class="st24" d="M543,369.1h24.5c0.9-0.3,1.7-0.6,2.5-1c-9.1,0-18.4-3.1-25.8-7.9c-12.7-6.7-17-22.7-14.7-36.4h-9.8v11.9
			C519.6,351,529.3,364.1,543,369.1z"/>
		<path class="st1" d="M590.9,335.6v-11.9h-61.4c-2.2,13.8,2,29.7,14.7,36.4c7.4,4.8,16.7,7.9,25.8,7.9
			C582.3,362.4,590.9,350,590.9,335.6z"/>
		<rect x="561.6" y="328.8" class="st25" width="14.9" height="16.3"/>
		<rect x="565.2" y="330.8" class="st26" width="8.1" height="11.4"/>
		<g>
			<rect x="569" y="323.7" width="0.6" height="5"/>
		</g>
		<path class="st24" d="M574.4,370.5c0,0.8-0.6,1.4-1.4,1.4h-35.8c-0.8,0-1.4-0.6-1.4-1.4l0,0c0-0.8,0.6-1.4,1.4-1.4H573
			C573.8,369.1,574.4,369.7,574.4,370.5L574.4,370.5z"/>
	</g>
	<g>
		<path class="st27" d="M479.9,77H139.6c-6,0-10.9,4.9-10.9,10.9v219h362.1V88C490.8,81.9,485.9,77,479.9,77z"/>
		<path class="st28" d="M136.9,307V88c0-1.5,1.2-2.7,2.7-2.7h340.2c1.5,0,2.7,1.2,2.7,2.7v219H136.9z"/>
		<rect x="143.7" y="92.9" class="st1" width="332" height="200.1"/>
		<polygon class="st29" points="255.2,379.5 311.1,379.5 367.1,379.5 371.9,376 250.3,376 		"/>
		<path class="st30" d="M268.9,367.2c0,0-0.7,6.2-8.6,7.3l-10,1.5h121.6l-10-1.5c-7.9-1.1-8.6-7.3-8.6-7.3l-1.3-12l-81.6-1.8
			L268.9,367.2z"/>
		<polygon class="st31" points="270.4,353.4 352,355.2 350.8,343.4 271.5,343.4 		"/>
		<path class="st1" d="M128.7,307v25.5c0,6,4.9,10.9,10.9,10.9h131.8h79.3h129.1c6,0,10.9-4.9,10.9-10.9V307H128.7z"/>
		<path class="st28" d="M329.4,325.5c0,2.2-1.8,4-4,4h-28.6c-2.2,0-4-1.8-4-4l0,0c0-2.2,1.8-4,4-4h28.6
			C327.6,321.6,329.4,323.4,329.4,325.5L329.4,325.5z"/>
	</g>
	<polygon class="st32" points="414.4,343.5 416.6,318.7 424.3,343.5 	"/>
	<g>
		<path class="st33" d="M416.6,318.7c0,0,0.3,22.2,5,44.1l45.5-1.9c0,0-7.7-30.8-8-43.9L416.6,318.7z"/>
		<polygon class="st34" points="420.7,322.5 455.9,320.9 456.4,326.1 421.2,328 		"/>
		<polygon class="st34" points="421.6,333.8 456.3,332.2 456.8,334.3 421.8,335.9 		"/>
		<polygon class="st34" points="422.3,338.9 457,337.3 457.5,339.4 422.5,341 		"/>
	</g>
	<path class="st35" d="M539.2,243.2c0,0-0.1,0.3-0.2,0.9c-0.2,0.6-0.4,1.4-0.7,2.4c-0.3,1-0.7,2.3-1.1,3.7c-0.4,1.4-0.8,3-1,4.7
		c-0.3,1.7-0.4,3.4-0.3,5.1c0.1,1.7,0.5,3.3,1.2,4.9c0.7,1.5,1.7,3,3.1,4.4c0.3,0.4,0.7,0.7,1,1c0.4,0.3,0.7,0.7,1.1,1l0.6,0.5
		l0.6,0.5l0.7,0.5l0.7,0.6c1,0.8,2,1.7,3,2.6c1,0.9,2,1.9,2.9,3c0.9,1.1,1.8,2.3,2.5,3.6c0.4,0.6,0.7,1.3,1,2
		c0.3,0.7,0.5,1.4,0.7,2.2c0.4,1.4,0.5,2.9,0.6,4.4c0,0.4,0,0.7-0.1,1.1l0,0.6l-0.1,0.4c0,0.3-0.1,0.5-0.1,0.8
		c-0.1,0.3-0.1,0.7-0.2,1l-0.1,0.5l-0.1,0.4c-0.1,0.3-0.2,0.6-0.3,0.9c-0.2,0.6-0.4,1.1-0.6,1.6c-0.5,1-1,2-1.6,2.9
		c-1.1,1.8-2.4,3.2-3.7,4.3c-1.3,1.1-2.5,1.8-3.6,2.3c-0.3,0.1-0.5,0.2-0.8,0.3c-0.2,0.1-0.5,0.2-0.7,0.2c-0.4,0.1-0.8,0.2-1.1,0.3
		c-0.6,0.1-0.9,0.1-0.9,0.1s0.2-0.2,0.7-0.6c0.2-0.2,0.5-0.5,0.7-0.8c0.3-0.3,0.6-0.7,0.9-1.1c0.6-0.8,1.3-1.8,1.9-3.1
		c0.6-1.2,1.2-2.7,1.5-4.2c0.2-0.8,0.4-1.6,0.5-2.4c0-0.4,0.1-0.8,0.1-1.3c0-0.2,0-0.4,0-0.6l0-0.3l0-0.3c0-0.2,0-0.4,0-0.6
		c0-0.3,0-0.5,0-0.8l0-0.4c0,0.1,0-0.1,0,0.1l0,0l0,0l0-0.1l0-0.1c0-0.2-0.1-0.4-0.1-0.6c-0.2-0.8-0.4-1.5-0.7-2.2
		c-0.1-0.4-0.4-0.7-0.6-1.1c-0.2-0.4-0.4-0.7-0.7-1.1c-0.5-0.7-1.1-1.4-1.8-2.1c-0.7-0.7-1.5-1.4-2.3-2.1c-0.8-0.7-1.7-1.4-2.6-2.1
		l-1.5-1.2c-0.5-0.4-1.1-0.9-1.6-1.4c-1-0.9-2-2-2.9-3.1c-1.8-2.2-3.3-4.9-4.1-7.7c-0.8-2.8-0.8-5.7-0.3-8.2
		c0.5-2.5,1.3-4.6,2.3-6.4c1-1.8,2-3.3,3-4.5c1-1.2,1.9-2.2,2.7-3c0.4-0.4,0.8-0.7,1.1-1c0.3-0.3,0.6-0.5,0.8-0.7
		C538.9,243.4,539.2,243.2,539.2,243.2z"/>
	<path class="st35" d="M567.4,249.1c0,0,0,0.2-0.1,0.7c-0.1,0.4-0.2,1.1-0.4,1.9c-0.1,0.4-0.2,0.8-0.3,1.3c-0.1,0.5-0.2,1-0.3,1.5
		c-0.2,1-0.4,2.2-0.5,3.4c-0.1,0.6-0.1,1.2-0.1,1.8c0,0.6,0,1.2,0.1,1.7c0.2,1.1,0.4,2.1,1,3c0.5,0.9,1.2,1.8,2.1,2.7
		c0.2,0.2,0.5,0.4,0.7,0.7c0.3,0.2,0.5,0.5,0.8,0.7c0.3,0.2,0.6,0.4,0.8,0.7l0.2,0.2l0.3,0.2l0.5,0.4c0.8,0.6,1.5,1.2,2.3,1.9
		c0.7,0.7,1.5,1.5,2.2,2.3c1.4,1.7,2.6,3.8,3.1,6.1c0.3,1.1,0.4,2.3,0.4,3.5c0,0.3,0,0.6-0.1,0.8l0,0.5l-0.1,0.3
		c0,0.2-0.1,0.4-0.1,0.6c-0.1,0.3-0.1,0.5-0.2,0.8l-0.1,0.4l-0.1,0.3c-0.1,0.2-0.2,0.4-0.2,0.7c-0.2,0.4-0.3,0.8-0.5,1.2
		c-0.4,0.8-0.8,1.5-1.3,2.2c-0.9,1.3-2,2.3-3,3.1c-1,0.8-2,1.2-2.8,1.5c-0.2,0.1-0.4,0.1-0.6,0.2c-0.2,0.1-0.4,0.1-0.5,0.1
		c-0.3,0.1-0.6,0.1-0.8,0.1c-0.5,0-0.7,0-0.7,0s0.2-0.2,0.4-0.5c0.1-0.2,0.3-0.4,0.5-0.6c0.2-0.2,0.4-0.5,0.6-0.8
		c0.4-0.6,0.8-1.4,1.1-2.3c0.3-0.9,0.6-1.9,0.8-3c0.1-0.6,0.2-1.1,0.2-1.7c0-0.3,0-0.6,0-0.9c0-0.1,0-0.3,0-0.4l0-0.2l0-0.2
		c0-0.1,0-0.2,0-0.3c0-0.2,0-0.4-0.1-0.6l0-0.3l0,0c0,0.3,0,0.1,0,0.1l0,0l0,0l0-0.1l-0.1-0.4c-0.2-0.5-0.3-0.9-0.6-1.3
		c-0.1-0.2-0.3-0.4-0.4-0.6c-0.2-0.2-0.3-0.4-0.5-0.6c-0.3-0.4-0.7-0.9-1.2-1.3c-0.4-0.5-1-0.9-1.5-1.4c-0.6-0.5-1.2-1-1.8-1.5
		l-0.5-0.4l-0.2-0.2l-0.3-0.3c-0.4-0.3-0.8-0.7-1.2-1c-0.4-0.3-0.8-0.8-1.1-1.1c-0.4-0.4-0.7-0.8-1.1-1.2c-1.4-1.7-2.5-3.8-3.1-6
		c-0.1-0.6-0.3-1.1-0.3-1.7c-0.1-0.6-0.1-1.1-0.1-1.6c0-0.5,0-1.1,0.1-1.6c0-0.5,0.1-1,0.2-1.5c0.2-1,0.5-1.8,0.8-2.6
		c0.2-0.4,0.4-0.8,0.5-1.1c0.2-0.4,0.3-0.7,0.6-1c0.8-1.3,1.6-2.4,2.4-3.2c0.8-0.9,1.5-1.6,2.2-2.1c0.3-0.3,0.6-0.5,0.9-0.7
		c0.3-0.2,0.5-0.4,0.7-0.5C567.2,249.3,567.4,249.1,567.4,249.1z"/>
</g>
<ellipse class="st36" cx="311.5" cy="269.6" rx="18" ry="2.5"/>
<ellipse class="st36" cx="415.8" cy="268.8" rx="18.3" ry="2.6"/>
<ellipse class="st36" cx="222.5" cy="270.6" rx="16.9" ry="2.4"/>
<g>
	<g>
		<path class="st37" d="M307.6,227.9c-2.9-1.3-5.9-2.5-9.1-3.4c0,0.2,0,0.3,0.1,0.5c0.6,1.8,3.3,5.5,7.2,8.8c3.4,3,6.9,4.9,9.8,5.5
			c0-0.9-0.2-1.8-0.5-2.8C313.7,232.8,311,229.3,307.6,227.9z"/>
		<path class="st38" d="M322,238.7c0.3-0.2,0.4-0.5,0.4-1.3c0.1-0.8,0.1-1.7,0.8-2.6c0.7-0.9,1.6-1.4,2.4-1.6c-0.5-1-1-1.9-1.6-2.7
			c-1-1.5-2.2-2.9-3.5-4.1c-0.6-0.6-1.3-1.2-2-1.7c-3.8-2.9-8.4-4.7-13.5-5c-1.6,0.5-5.3,2-6.3,4c-0.2,0.3-0.2,0.6-0.2,1
			c3.1,0.9,6.1,2.1,9.1,3.4c3.4,1.4,6.1,4.9,7.6,8.6c0.3,0.9,0.5,1.8,0.5,2.8c0.7,0.1,1.4,0.2,2,0.2
			C320.5,239.4,321.6,239,322,238.7z"/>
		<path class="st38" d="M296.7,222.4c0.5-1,1.4-1.8,2.4-2.6c-3,0.5-5.8,1.6-8.4,3.1c1.9,0.1,3.7,0.4,5.6,0.8
			C296.3,223.4,296.4,222.9,296.7,222.4z"/>
		<path class="st38" d="M319.5,263.5l1.9-1.7c0,0,0-0.1-0.1-0.1c4-4.1,6.6-9.7,7-15.8c0-0.5,0-1,0-1.5c0-1.2-0.1-2.5-0.3-3.7
			c-0.3-1.8-0.7-3.6-1.4-5.3c-0.5,0-1.1,0.2-1.5,0.8c-0.2,0.3-0.3,0.7-0.3,1.4c-0.1,0.9-0.1,2.1-1.3,3c-1.1,0.8-2.8,1.2-5.8,1.3
			c-0.1,0-0.1,0-0.2,0c-0.7,0-1.3-0.1-2-0.2c-0.4,2.3-1.4,4.6-2.1,6.8c-0.4,0.9-0.2,1.8-0.2,2.7c-0.2,0.4-0.4,0.7-0.5,1.1
			c-0.7,4,0.9,7.2,3.6,9.7c0.8,0.7,1.7,1.4,2.6,1.9c0.2-0.1,0.3-0.3,0.5-0.4C319.5,263.5,319.5,263.5,319.5,263.5z"/>
		<path class="st37" d="M312.6,252.2c0.2-0.4,0.4-0.7,0.5-1.1c0-0.9-0.2-1.8,0.2-2.7c0.7-2.2,1.7-4.5,2.1-6.8
			c-8.3-1.5-17.7-11.7-19.1-15.9c-0.2-0.6-0.3-1.2-0.2-1.9c-1.8-0.4-3.7-0.7-5.6-0.8c-0.7,0.4-1.4,0.9-2.1,1.4
			c-0.7,0.5-1.4,1.1-2,1.7c-1.6,1.5-3,3.2-4.2,5.1c-1.8,2.9-3.1,6.2-3.5,9.7c0,0,0.1-0.1,0.1-0.1c2.8-2.2,6.6-1.3,6.7-1.2l0.1,0
			l0.1,0.1c0.4,0.2,9.8,5,12.1,12.1c1.4,4.4,0.5,6.9-0.6,8.2c-1.4,1.8-3.9,2.7-7.1,2.5c-1-0.1-1.3,0.3-1.3,0.4
			c-0.2,0.4-0.3,1-0.2,1.7c2.7,2,5.9,3.4,9.3,4.2c1.7,0.4,3.5,0.6,5.3,0.6c5.8,0,11.2-2,15.4-5.4c-0.9-0.5-1.8-1.1-2.6-1.9
			C313.5,259.4,311.9,256.2,312.6,252.2z"/>
		<path class="st37" d="M285.1,241.8c-0.6-0.1-3-0.5-4.6,0.8c-1,0.8-1.6,2.2-1.7,4.1c0,0.4,0.1,0.7,0.1,1.1c0.8,5.4,3.3,10.3,6.9,14
			c0,0.1-0.1,0.1-0.1,0.1l0.8,0.6c0,0,0.1,0.1,0.1,0.1c0.1-0.4,0.3-0.8,0.5-1.2c0.5-0.7,1.5-1.5,3.4-1.4c2.4,0.2,4.2-0.4,5.1-1.6
			c1-1.3,1.1-3.4,0.2-6C294,246.7,286.1,242.4,285.1,241.8z"/>
		<path class="st39" d="M286,239.6l-0.1-0.1l-0.1,0c-0.2,0-4-1-6.7,1.2c0,0-0.1,0.1-0.1,0.1c-0.2,1.1-0.2,2.3-0.2,3.4
			c0,0.7,0,1.4,0.1,2.1c0,0.1,0,0.1,0,0.2c0.1-1.9,0.7-3.3,1.7-4.1c1.6-1.3,4.1-0.9,4.6-0.8c1.1,0.6,9,4.9,10.8,10.6
			c0.9,2.7,0.8,4.8-0.2,6c-0.9,1.2-2.7,1.7-5.1,1.6c-1.9-0.1-2.9,0.7-3.4,1.4c-0.2,0.4-0.4,0.8-0.5,1.2c0.7,0.6,1.4,1.3,2.2,1.8
			c-0.1-0.7,0-1.3,0.2-1.7c0.1-0.1,0.3-0.4,1.3-0.4c3.2,0.2,5.7-0.7,7.1-2.5c1-1.3,2-3.8,0.6-8.2C295.8,244.6,286.4,239.8,286,239.6
			z"/>
		<path class="st39" d="M315.7,239.3c-2.9-0.6-6.3-2.5-9.8-5.5c-3.9-3.4-6.6-7.1-7.2-8.8c-0.1-0.2-0.1-0.3-0.1-0.5
			c-0.8-0.2-1.5-0.4-2.3-0.6c-0.1,0.6,0,1.2,0.2,1.9c1.4,4.3,10.7,14.4,19.1,15.9C315.6,240.9,315.7,240.1,315.7,239.3z"/>
		<path class="st40" d="M298.8,223.5c1-1.9,4.7-3.5,6.3-4c-0.5,0-1,0-1.6,0c-0.6,0-1.2,0-1.9,0.1c-0.9,0.1-1.7,0.2-2.5,0.3
			c-1,0.7-1.9,1.6-2.4,2.6c-0.2,0.5-0.4,0.9-0.5,1.4c0.8,0.2,1.5,0.4,2.3,0.6C298.5,224.2,298.6,223.8,298.8,223.5z"/>
		<path class="st40" d="M317.7,241.8c2.9-0.1,4.7-0.5,5.8-1.3c1.2-0.9,1.3-2.1,1.3-3c0-0.6,0.1-1.1,0.3-1.4c0.4-0.6,1-0.8,1.5-0.8
			c-0.3-0.8-0.6-1.5-1-2.2c-0.9,0.2-1.7,0.7-2.4,1.6c-0.7,0.9-0.7,1.9-0.8,2.6c-0.1,0.8-0.1,1.1-0.4,1.3c-0.4,0.3-1.5,0.7-4.4,0.8
			c-0.6,0-1.3-0.1-2-0.2c0,0.8-0.1,1.6-0.2,2.4c0.7,0.1,1.4,0.2,2,0.2C317.6,241.8,317.6,241.8,317.7,241.8z"/>
	</g>
	<g>
		<path class="st40" d="M340.2,227.1H339c-0.4,0-0.8-0.4-0.8-0.8c0-0.4,0.4-0.8,0.8-0.8h1.2c0.4,0,0.8,0.4,0.8,0.8
			C341,226.8,340.6,227.1,340.2,227.1z M333.3,227.1h-4.7c-0.4,0-0.8-0.4-0.8-0.8c0-0.4,0.4-0.8,0.8-0.8h4.7c0.4,0,0.8,0.4,0.8,0.8
			C334.1,226.8,333.7,227.1,333.3,227.1z M326.2,227.1h-5.8c-0.4,0-0.8-0.4-0.8-0.8c0-0.4,0.4-0.8,0.8-0.8h5.8
			c0.4,0,0.8,0.4,0.8,0.8C327.1,226.8,326.7,227.1,326.2,227.1z M315.8,227.1h-2.3c-0.4,0-0.8-0.4-0.8-0.8c0-0.4,0.4-0.8,0.8-0.8
			h2.3c0.4,0,0.8,0.4,0.8,0.8C316.6,226.8,316.3,227.1,315.8,227.1z"/>
	</g>
	<g>
		<path class="st39" d="M342.2,250.4h-0.4c-0.1,0-0.1,0-0.2,0c-0.1,0-0.1,0-0.2,0h-6.1c-0.4,0-0.8-0.4-0.8-0.8
			c0-0.4,0.4-0.8,0.8-0.8h6.1c0.1,0,0.1,0,0.2,0c0.1,0,0.1,0,0.2,0h0.4c0.4,0,0.8,0.4,0.8,0.8C343,250,342.6,250.4,342.2,250.4z
			 M330.9,250.4h-0.4c-0.4,0-0.8-0.4-0.8-0.8c0-0.4,0.4-0.8,0.8-0.8h0.4c0.4,0,0.8,0.4,0.8,0.8C331.7,250,331.3,250.4,330.9,250.4z
			 M324.4,250.4h-4.5c-0.1,0-0.1,0-0.2,0c-0.1,0-0.1,0-0.2,0h-6.1c-0.4,0-0.8-0.4-0.8-0.8c0-0.4,0.4-0.8,0.8-0.8h6.1
			c0.1,0,0.1,0,0.2,0c0.1,0,0.1,0,0.2,0h4.5c0.4,0,0.8,0.4,0.8,0.8C325.2,250,324.8,250.4,324.4,250.4z M308.9,250.4h-0.4
			c-0.4,0-0.8-0.4-0.8-0.8c0-0.4,0.4-0.8,0.8-0.8h0.4c0.4,0,0.8,0.4,0.8,0.8C309.7,250,309.3,250.4,308.9,250.4z"/>
	</g>
	<g>
		<path class="st40" d="M333.8,230.3h-1.2c-0.4,0-0.8-0.4-0.8-0.8c0-0.4,0.4-0.8,0.8-0.8h1.2c0.4,0,0.8,0.4,0.8,0.8
			C334.6,230,334.2,230.3,333.8,230.3z M326.8,230.3h-4.7c-0.4,0-0.8-0.4-0.8-0.8c0-0.4,0.4-0.8,0.8-0.8h4.7c0.4,0,0.8,0.4,0.8,0.8
			C327.6,230,327.3,230.3,326.8,230.3z M319.8,230.3H314c-0.4,0-0.8-0.4-0.8-0.8c0-0.4,0.4-0.8,0.8-0.8h5.8c0.4,0,0.8,0.4,0.8,0.8
			C320.6,230,320.2,230.3,319.8,230.3z M309.4,230.3H307c-0.4,0-0.8-0.4-0.8-0.8c0-0.4,0.4-0.8,0.8-0.8h2.3c0.4,0,0.8,0.4,0.8,0.8
			C310.2,230,309.8,230.3,309.4,230.3z"/>
	</g>
</g>
<g>
	<path class="st41" d="M222,257.4c-0.1-0.1-0.3-0.2-0.4-0.3c-0.3,0.2-0.5,0.4-0.8,0.6c0.9,0.7,1.8,1.3,2.7,1.9
		c0.3-0.3,0.5-0.5,0.8-0.8C223.5,258.4,222.7,257.9,222,257.4z"/>
	<path class="st40" d="M224.2,258.9c-0.3,0.3-0.5,0.5-0.8,0.8c0.5,0.4,1.1,0.8,1.6,1.2c0.3-0.2,0.7-0.4,1-0.6
		C225.4,259.8,224.8,259.4,224.2,258.9z"/>
	<path class="st40" d="M230.2,265c0.3-0.3,0.5-0.5,0.8-0.8c-0.9-0.7-1.9-1.4-2.8-2.1c-0.3,0.2-0.6,0.4-0.9,0.7
		C228.5,263.6,229.4,264.3,230.2,265z"/>
	<path class="st41" d="M225,260.9c0.9,0.6,1.7,1.3,2.4,1.8c0.3-0.2,0.6-0.4,0.9-0.7c-0.8-0.6-1.5-1.2-2.3-1.8
		C225.7,260.5,225.3,260.7,225,260.9z"/>
	<path class="st40" d="M217.8,255.6c1,0.7,2,1.4,3,2.1c0.3-0.2,0.5-0.4,0.8-0.6c-1-0.7-2-1.4-3-2.1
		C218.3,255.2,218.1,255.4,217.8,255.6z"/>
	<path class="st40" d="M226.8,252.8c-1.6,1.5-3.4,3-5.2,4.4c0.1,0.1,0.3,0.2,0.4,0.3c0.7,0.5,1.5,1,2.2,1.5c1.4-1.4,2.7-2.7,4.1-4.1
		C227.8,254.2,227.3,253.5,226.8,252.8z"/>
	<path class="st39" d="M228.3,254.9c-1.4,1.4-2.7,2.7-4.1,4.1c0.6,0.4,1.2,0.9,1.8,1.3c1.4-0.9,2.8-2,4.1-3
		C229.5,256.5,228.9,255.7,228.3,254.9z"/>
	<path class="st39" d="M231.1,264.2c0.9-0.8,1.8-1.6,2.6-2.4c-0.6-0.7-1.3-1.6-2-2.5c-1.1,0.9-2.2,1.9-3.4,2.7
		C229.2,262.8,230.1,263.5,231.1,264.2z"/>
	<path class="st40" d="M226,260.3c0.8,0.6,1.5,1.2,2.3,1.8c1.2-0.9,2.3-1.8,3.4-2.7c-0.5-0.7-1.1-1.4-1.6-2.1
		C228.8,258.3,227.4,259.3,226,260.3z"/>
	<path class="st39" d="M218.6,255c1,0.8,2,1.5,3,2.1c1.8-1.4,3.5-2.8,5.2-4.4c-0.8-1.1-1.6-2.2-2.4-3.3
		C222.6,251.4,220.7,253.3,218.6,255z"/>
	<path class="st38" d="M232.4,265.2c-0.4-0.3-0.9-0.6-1.3-1c-0.3,0.3-0.6,0.5-0.8,0.8c2.1,1.8,3.3,3,3.1,3.4c-0.8,1.6,0,3.2,0.7,4.2
		c0.3,0.5,1,0.5,1.4,0.1l2.9-2.9l2.9-2.9c0.4-0.4,0.4-1.1-0.1-1.4c0,0,0,0,0,0C238.3,266.7,235,267,232.4,265.2z"/>
	<path class="st37" d="M237,264.7c-0.4,0.2-1.6-0.9-3.3-2.9c-0.9,0.8-1.8,1.6-2.6,2.4c0.4,0.3,0.9,0.6,1.3,1
		c2.6,1.8,5.9,1.5,8.7,0.2C240.2,264.7,238.5,263.9,237,264.7z"/>
	<path class="st38" d="M208.1,243.6c-1.7-2.5-3.3-5.5-6.3-6.8c-1.3-0.8-2.5,1.7-3.1,1.5c-7.5-4.4-14.6-12.9-13.5-22.2
		c-0.1,0.1-0.2,0.2-0.3,0.3c-4.5,4.5-5.7,9.3-0.2,15c3.2,3.4,20.1,14.9,33,24.2c0.3-0.2,0.5-0.4,0.8-0.6
		C214.5,251.8,211.2,247.9,208.1,243.6z"/>
	<path class="st37" d="M224.4,249.5c-9.3-13-20.9-30.1-24.4-33.3c-5.6-5.3-10.3-4.3-14.7-0.1c-1.1,9.2,6,17.8,13.5,22.2
		c0.5,0.3,1.7-2.3,3.1-1.5c2.9,1.3,4.5,4.3,6.3,6.8c3.1,4.3,6.4,8.2,10.4,11.4C220.7,253.3,222.6,251.4,224.4,249.5z"/>
</g>
<g>
	<path class="st40" d="M432.4,262.6c-0.6,0.6-2.2-0.6-2.8-1.7c-0.6-1.7,1.5-3.5,0.7-4.4c-1.3-1.9-3.2-3-5.1-4.1l-5.8,12.9
		c0,0-5.1,4.2,6.7,3.3c4.9-0.4,8.2-4.1,10.3-8.5C434.9,259,433.7,261.3,432.4,262.6z"/>
	<path class="st39" d="M439.9,244c-0.6-3.7-5.1-5-7.1-5s-2,0.8-2,0.8l-5.6,12.5c1.9,1.1,3.8,2.3,5.1,4.1c0.7,0.9-1.3,2.8-0.7,4.4
		c0.6,1.1,2.2,2.2,2.8,1.7c1.3-1.3,2.5-3.6,4.1-2.5C439.5,253.9,440.3,246.2,439.9,244z"/>
	<path class="st40" d="M384.3,240.3c-0.3,0.9-0.5,1.9-0.7,2.8c1.3,0.4,2.6,0.9,3.9,1.3c0.3-0.9,0.6-1.8,1-2.7
		C387.1,241.3,385.7,240.8,384.3,240.3z"/>
	<path class="st37" d="M386.9,253.3c-0.5-2.8-0.2-5.9,0.6-8.8c-1.3-0.4-2.6-0.9-3.9-1.3c-0.8,3.6-1.3,7.2-1.3,10.3
		C383.9,253.3,385.4,253.3,386.9,253.3z"/>
	<path class="st40" d="M382.3,253.5c0,0.7,0.1,1.3,0.1,2c1.6-0.1,3.3-0.2,4.9-0.1c-0.2-0.7-0.4-1.3-0.5-2
		C385.4,253.3,383.9,253.3,382.3,253.5z"/>
	<path class="st37" d="M382.5,255.5c0.5,4.3,2.3,7.6,6.2,8.3c2.7,0.5,5.4,0.8,7.9,1c0.1-1.1,0-2.2-0.7-3.2c-1.8-2.8-6.8-1.8-7.7-4
		c-0.3-0.7-0.6-1.4-0.8-2.1C385.7,255.3,384.1,255.3,382.5,255.5z"/>
	<path class="st37" d="M391.9,236.2c-1.8-0.8-3.5-1.6-5.3-2.4c-0.8,2-1.6,4.2-2.3,6.5c1.4,0.4,2.8,0.9,4.1,1.4
		C389.3,239.8,390.5,237.9,391.9,236.2z"/>
	<path class="st40" d="M393.5,234.5c-2-0.9-4-1.9-6-2.7c-0.3,0.7-0.6,1.4-0.9,2.1c1.8,0.8,3.5,1.6,5.3,2.4
		C392.4,235.6,393,235.1,393.5,234.5z"/>
	<path class="st37" d="M399,231c2-0.9,2.4-3.1,2-5.2c-2.7-1.1-5.3-1.8-7.2-1.6c-1.8,0.2-4.1,3.3-6.2,7.7c2,0.8,4,1.8,6,2.7
		C395.1,233,396.9,231.8,399,231z"/>
	<path class="st39" d="M410.9,232.8c1.3,1.7,4.6,3.1,5.1,0.9c1.3-5.3-4.8-8.1-9.7-9c0.9,2,4.1,4.6,6.9,7.5c0,0-2.7-1.8-6.3-3.7
		C408.5,229.7,409.8,231.1,410.9,232.8z"/>
	<path class="st39" d="M413.9,241.4c-7.8,1.8-10.2,11.6-8.2,19c-0.1-4.2,1.9-8.4,4.7-12.2c2.8-3.9,7.5-4.6,11.2-7
		c1.5-1,2.2-2.7,2.2-4.5C421.5,239.3,417.5,240.7,413.9,241.4z"/>
	<path class="st39" d="M401,237.4c-2.6-0.7-5-1.8-7.5-2.9c-0.6,0.5-1.1,1.1-1.6,1.7c2.5,1.1,5,2.2,7.6,3c1.1,0.4,2.8,0.7,3.1-0.6
		C402.6,238.1,401.7,237.6,401,237.4z"/>
	<path class="st39" d="M401,257.6c0.4-0.2-0.4-1.3-0.9-1.5c-4.4-1.7-8.7-2.7-13.2-2.8c0.1,0.7,0.3,1.4,0.5,2
		c2.8,0.1,5.5,0.5,8.2,1.4C397.5,257.2,399.3,258,401,257.6z"/>
	<path class="st38" d="M420.6,228c-1.8-2.2-4.2-3.9-7-4.6c-2.5-0.8-5,0.3-7.5,0.5c0,0.3,0.1,0.5,0.2,0.8c4.9,0.9,11,3.7,9.7,9
		c-0.6,2.2-3.9,0.7-5.1-0.9c-1.1-1.7-2.5-3.1-4-4.2c-1.9-1-3.9-2-6-2.8c0.4,2.2,0,4.4-2,5.2c-2,0.8-3.9,2.1-5.4,3.5
		c2.4,1.1,4.8,2.2,7.5,2.9c0.7,0.2,1.7,0.7,1.7,1.3c-0.4,1.3-2,0.9-3.1,0.6c-2.6-0.8-5.1-1.9-7.6-3c-1.4,1.7-2.6,3.6-3.4,5.6
		c4.1,1.6,8,3.5,11.8,6.1c0.2,0.2,0.4,0.7,0,0.9c-0.9,0.4-1.8,0.2-2.8-0.2c-3.2-1.7-6.6-3-10-4.1c-0.9,2.9-1.1,6-0.6,8.8
		c4.5,0.1,8.8,1.1,13.2,2.8c0.6,0.2,1.3,1.3,0.9,1.5c-1.7,0.4-3.5-0.4-5.5-0.9c-2.6-0.9-5.4-1.3-8.2-1.4c0.2,0.7,0.5,1.4,0.8,2.1
		c0.9,2.2,5.9,1.3,7.7,4c0.7,1,0.8,2.1,0.7,3.2c3.7,0.2,7.1,0.2,10.2,0.2c-0.2-0.3-0.4-0.6-0.5-1c-0.4-1.1-0.6-2.3-0.6-3.4
		c-2-7.4,0.4-17.2,8.2-19c3.7-0.8,7.6-2.2,9.9-4.7C423.9,233.7,422.4,230.2,420.6,228z"/>
	<path class="st39" d="M400.3,248.8c0.4-0.2,0.2-0.7,0-0.9c-3.8-2.6-7.7-4.5-11.8-6.1c-0.4,0.9-0.7,1.8-1,2.7
		c3.4,1.2,6.8,2.4,10,4.1C398.4,249,399.3,249.2,400.3,248.8z"/>
	<path class="st38" d="M431.7,244c-1.7-0.9-3.7-0.2-4.2,1.5c-2.8,7.3-6.6,13.4-13.6,17.6c-0.8,0.5-1.5,0.9-2.1,1.6
		c3.3-0.1,5.9,0,7.7,0.6c3.9,1.4,16.1-9.1,14.4-19.3C433.4,245.1,432.6,244.4,431.7,244z"/>
	<path class="st37" d="M428.4,237.6c0,0,3.5-16-12.6-16.3c-7.5-0.1-9.8,0.9-9.7,2.6c2.5-0.2,5-1.3,7.5-0.5c2.8,0.7,5.1,2.4,7,4.6
		c2.8,3.5,5,10.5,0.9,13.2c-3.7,2.4-8.4,3.1-11.2,7c-3.5,4.8-5.9,10.3-4,15.6c0.1,0.4,0.3,0.7,0.5,1c1.8,0,3.5-0.1,5-0.1
		c0.6-0.7,1.3-1.1,2.1-1.6c7-4.2,10.8-10.3,13.6-17.6c0.6-1.7,2.6-2.4,4.2-1.5c0.9,0.4,1.7,1.1,2.2,2
		C433.3,243.1,431.7,240.2,428.4,237.6z"/>
</g>
<g>
	<g class="st42">
		<g>
			<path class="st43" d="M277.9,181.7c-42.2,0-30.7-49.7-56-50.9c-23.3-1.2-19.1,37.5-35.4,37.5l0.4,19.4l99.4-0.2l-0.8-6.1
				C283.1,181.6,280.6,181.7,277.9,181.7z"/>
		</g>
	</g>
	<g class="st44">
		<g>
			<path class="st45" d="M271.6,164.1c-10.6-11.8-23.8-13.4-37.2,3c-8.4,10.2-20.7,7-26.6-0.4c-3.8-4.8-10.1-12.3-21-12.3l0.1,33.3
				l99.4-0.2l-0.5-16.1C280.8,171.4,275.8,168.8,271.6,164.1z"/>
		</g>
	</g>
	<g class="st46">
		<g>
			<g>
				<path class="st47" d="M231.7,134.8l-0.2,52.8l13,0l-0.1-29.3C240.2,149.3,237.4,139.9,231.7,134.8z"/>
			</g>
		</g>
	</g>
	<g class="st48">
		<g>
			<path class="st49" d="M277.9,181.7c-20.3,0-28.1-11.5-33.7-23.5c-3.3,2-6.6,4.9-9.9,9c-8.4,10.2-20.7,7-26.6-0.4
				c-2.2-2.8-5.3-6.6-9.7-9.2c-2.7,5.9-5.8,10.6-11.3,10.7l0.1,19.4l99.4-0.2l-0.8-6.1C283.1,181.6,280.6,181.7,277.9,181.7z"/>
		</g>
	</g>
	<g>
		<g>
			<g>
				<path class="st1" d="M244.3,157.9L244.3,157.9c-0.2,0-0.4,0.2-0.4,0.4l0,0.8c0,0.2,0.2,0.4,0.4,0.4h0c0.2,0,0.4-0.2,0.4-0.4
					l0-0.8C244.8,158.1,244.6,157.9,244.3,157.9z"/>
			</g>
		</g>
		<g>
			<g>
				<path class="st1" d="M244.3,174.1L244.3,174.1c-0.2,0-0.4,0.2-0.4,0.4l0,1.7c0,0.2,0.2,0.4,0.4,0.4h0c0.2,0,0.4-0.2,0.4-0.4
					l0-1.7C244.7,174.3,244.6,174.1,244.3,174.1z"/>
			</g>
			<g>
				<path class="st1" d="M244.3,178.4L244.3,178.4c-0.2,0-0.4,0.2-0.4,0.4l0,1.7c0,0.2,0.2,0.4,0.4,0.4h0c0.2,0,0.4-0.2,0.4-0.4
					l0-1.7C244.7,178.6,244.6,178.4,244.3,178.4z"/>
			</g>
			<g>
				<path class="st1" d="M244.3,182.7L244.3,182.7c-0.2,0-0.4,0.2-0.4,0.4l0,1.7c0,0.2,0.2,0.4,0.4,0.4h0c0.2,0,0.4-0.2,0.4-0.4
					l0-1.7C244.7,182.9,244.6,182.7,244.3,182.7z"/>
			</g>
			<g>
				<path class="st1" d="M244.3,169.8L244.3,169.8c-0.2,0-0.4,0.2-0.4,0.4l0,1.7c0,0.2,0.2,0.4,0.4,0.4h0c0.2,0,0.4-0.2,0.4-0.4
					l0-1.7C244.8,170,244.6,169.8,244.3,169.8z"/>
			</g>
			<g>
				<path class="st1" d="M244.3,165.6L244.3,165.6c-0.2,0-0.4,0.2-0.4,0.4l0,1.7c0,0.2,0.2,0.4,0.4,0.4h0c0.2,0,0.4-0.2,0.4-0.4
					l0-1.7C244.8,165.7,244.6,165.6,244.3,165.6z"/>
			</g>
			<g>
				<path class="st1" d="M244.3,161.3L244.3,161.3c-0.2,0-0.4,0.2-0.4,0.4l0,1.7c0,0.2,0.2,0.4,0.4,0.4h0c0.2,0,0.4-0.2,0.4-0.4
					l0-1.7C244.8,161.5,244.6,161.3,244.3,161.3z"/>
			</g>
		</g>
		<g>
			<g>
				<path class="st1" d="M244.3,187L244.3,187c-0.2,0-0.4,0.2-0.4,0.4l0,0.8c0,0.2,0.2,0.4,0.4,0.4h0c0.2,0,0.4-0.2,0.4-0.4l0-0.8
					C244.7,187.1,244.6,187,244.3,187z"/>
			</g>
		</g>
	</g>
	<g>
		<g>
			<g>
				<path class="st1" d="M261.2,155.1L261.2,155.1c-0.2,0-0.4,0.2-0.4,0.4l0,0.8c0,0.2,0.2,0.4,0.4,0.4h0c0.2,0,0.4-0.2,0.4-0.4
					l0-0.8C261.6,155.3,261.4,155.1,261.2,155.1z"/>
			</g>
		</g>
		<g>
			<g>
				<path class="st1" d="M261.2,174.7L261.2,174.7c-0.2,0-0.4,0.2-0.4,0.4l0,1.6c0,0.2,0.2,0.4,0.4,0.4h0c0.2,0,0.4-0.2,0.4-0.4
					l0-1.6C261.6,174.9,261.4,174.7,261.2,174.7z"/>
			</g>
			<g>
				<path class="st1" d="M261.2,178.8L261.2,178.8c-0.2,0-0.4,0.2-0.4,0.4l0,1.6c0,0.2,0.2,0.4,0.4,0.4h0c0.2,0,0.4-0.2,0.4-0.4
					l0-1.6C261.6,179,261.4,178.8,261.2,178.8z"/>
			</g>
			<g>
				<path class="st1" d="M261.2,182.9L261.2,182.9c-0.2,0-0.4,0.2-0.4,0.4l0,1.6c0,0.2,0.2,0.4,0.4,0.4h0c0.2,0,0.4-0.2,0.4-0.4
					l0-1.6C261.6,183.1,261.4,182.9,261.2,182.9z"/>
			</g>
			<g>
				<path class="st1" d="M261.2,170.6L261.2,170.6c-0.2,0-0.4,0.2-0.4,0.4l0,1.6c0,0.2,0.2,0.4,0.4,0.4h0c0.2,0,0.4-0.2,0.4-0.4
					l0-1.6C261.6,170.8,261.4,170.6,261.2,170.6z"/>
			</g>
			<g>
				<path class="st1" d="M261.2,158.4L261.2,158.4c-0.2,0-0.4,0.2-0.4,0.4l0,1.6c0,0.2,0.2,0.4,0.4,0.4h0c0.2,0,0.4-0.2,0.4-0.4
					l0-1.6C261.6,158.6,261.4,158.4,261.2,158.4z"/>
			</g>
			<g>
				<path class="st1" d="M261.2,166.5L261.2,166.5c-0.2,0-0.4,0.2-0.4,0.4l0,1.6c0,0.2,0.2,0.4,0.4,0.4h0c0.2,0,0.4-0.2,0.4-0.4
					l0-1.6C261.6,166.7,261.4,166.5,261.2,166.5z"/>
			</g>
			<g>
				<path class="st1" d="M261.2,162.5L261.2,162.5c-0.2,0-0.4,0.2-0.4,0.4l0,1.6c0,0.2,0.2,0.4,0.4,0.4h0c0.2,0,0.4-0.2,0.4-0.4
					l0-1.6C261.6,162.6,261.4,162.5,261.2,162.5z"/>
			</g>
		</g>
		<g>
			<g>
				<path class="st1" d="M261.2,187L261.2,187c-0.2,0-0.4,0.2-0.4,0.4l0,0.8c0,0.2,0.2,0.4,0.4,0.4h0c0.2,0,0.4-0.2,0.4-0.4l0-0.8
					C261.6,187.2,261.4,187,261.2,187z"/>
			</g>
		</g>
	</g>
	<g>
		<g>
			<g>
				<path class="st1" d="M231.6,135.2L231.6,135.2c-0.2,0-0.4,0.2-0.4,0.4l0,0.8c0,0.2,0.2,0.4,0.4,0.4h0c0.2,0,0.4-0.2,0.4-0.4
					l0-0.8C232,135.4,231.9,135.2,231.6,135.2z"/>
			</g>
		</g>
		<g>
			<g>
				<path class="st1" d="M231.6,164.6L231.6,164.6c-0.2,0-0.4,0.2-0.4,0.4l0,1.7c0,0.2,0.2,0.4,0.4,0.4h0c0.2,0,0.4-0.2,0.4-0.4
					l0-1.7C232,164.8,231.8,164.6,231.6,164.6z"/>
			</g>
			<g>
				<path class="st1" d="M231.6,168.9L231.6,168.9c-0.2,0-0.4,0.2-0.4,0.4l0,1.7c0,0.2,0.2,0.4,0.4,0.4h0c0.2,0,0.4-0.2,0.4-0.4
					l0-1.7C232,169.1,231.8,168.9,231.6,168.9z"/>
			</g>
			<g>
				<path class="st1" d="M231.6,173.3L231.6,173.3c-0.2,0-0.4,0.2-0.4,0.4l0,1.7c0,0.2,0.2,0.4,0.4,0.4h0c0.2,0,0.4-0.2,0.4-0.4
					l0-1.7C232,173.5,231.8,173.3,231.6,173.3z"/>
			</g>
			<g>
				<path class="st1" d="M231.6,160.3L231.6,160.3c-0.2,0-0.4,0.2-0.4,0.4l0,1.7c0,0.2,0.2,0.4,0.4,0.4h0c0.2,0,0.4-0.2,0.4-0.4
					l0-1.7C232,160.5,231.8,160.3,231.6,160.3z"/>
			</g>
			<g>
				<path class="st1" d="M231.6,177.6L231.6,177.6c-0.2,0-0.4,0.2-0.4,0.4l0,1.7c0,0.2,0.2,0.4,0.4,0.4h0c0.2,0,0.4-0.2,0.4-0.4
					l0-1.7C232,177.8,231.8,177.6,231.6,177.6z"/>
			</g>
			<g>
				<path class="st1" d="M231.6,181.9L231.6,181.9c-0.2,0-0.4,0.2-0.4,0.4l0,1.7c0,0.2,0.2,0.4,0.4,0.4h0c0.2,0,0.4-0.2,0.4-0.4
					l0-1.7C232,182.1,231.8,181.9,231.6,181.9z"/>
			</g>
			<g>
				<path class="st1" d="M231.6,138.6L231.6,138.6c-0.2,0-0.4,0.2-0.4,0.4l0,1.7c0,0.2,0.2,0.4,0.4,0.4h0c0.2,0,0.4-0.2,0.4-0.4
					l0-1.7C232,138.8,231.9,138.6,231.6,138.6z"/>
			</g>
			<g>
				<path class="st1" d="M231.6,143L231.6,143c-0.2,0-0.4,0.2-0.4,0.4l0,1.7c0,0.2,0.2,0.4,0.4,0.4h0c0.2,0,0.4-0.2,0.4-0.4l0-1.7
					C232,143.2,231.9,143,231.6,143z"/>
			</g>
			<g>
				<path class="st1" d="M231.6,147.3L231.6,147.3c-0.2,0-0.4,0.2-0.4,0.4l0,1.7c0,0.2,0.2,0.4,0.4,0.4h0c0.2,0,0.4-0.2,0.4-0.4
					l0-1.7C232,147.5,231.9,147.3,231.6,147.3z"/>
			</g>
			<g>
				<path class="st1" d="M231.6,151.6L231.6,151.6c-0.2,0-0.4,0.2-0.4,0.4l0,1.7c0,0.2,0.2,0.4,0.4,0.4h0c0.2,0,0.4-0.2,0.4-0.4
					l0-1.7C232,151.8,231.8,151.6,231.6,151.6z"/>
			</g>
			<g>
				<path class="st1" d="M231.6,156L231.6,156c-0.2,0-0.4,0.2-0.4,0.4l0,1.7c0,0.2,0.2,0.4,0.4,0.4h0c0.2,0,0.4-0.2,0.4-0.4l0-1.7
					C232,156.1,231.8,156,231.6,156z"/>
			</g>
		</g>
		<g>
			<g>
				<path class="st1" d="M231.6,186.2L231.6,186.2c-0.2,0-0.4,0.2-0.4,0.4l0,0.8c0,0.2,0.2,0.4,0.4,0.4h0c0.2,0,0.4-0.2,0.4-0.4
					l0-0.8C232,186.4,231.8,186.2,231.6,186.2z"/>
			</g>
		</g>
	</g>
	<g>
		<g>
			<g>
				<path class="st1" d="M198.2,157.8L198.2,157.8c-0.2,0-0.4,0.2-0.4,0.4l0,0.8c0,0.2,0.2,0.4,0.4,0.4h0c0.2,0,0.4-0.2,0.4-0.4
					l0-0.8C198.6,158,198.4,157.8,198.2,157.8z"/>
			</g>
		</g>
		<g>
			<g>
				<path class="st1" d="M198.2,182.6L198.2,182.6c-0.2,0-0.4,0.2-0.4,0.4l0,1.7c0,0.2,0.2,0.4,0.4,0.4h0c0.2,0,0.4-0.2,0.4-0.4
					l0-1.7C198.6,182.8,198.4,182.6,198.2,182.6z"/>
			</g>
			<g>
				<path class="st1" d="M198.2,178.4L198.2,178.4c-0.2,0-0.4,0.2-0.4,0.4l0,1.7c0,0.2,0.2,0.4,0.4,0.4h0c0.2,0,0.4-0.2,0.4-0.4
					l0-1.7C198.6,178.6,198.4,178.4,198.2,178.4z"/>
			</g>
			<g>
				<path class="st1" d="M198.2,174.1L198.2,174.1c-0.2,0-0.4,0.2-0.4,0.4l0,1.7c0,0.2,0.2,0.4,0.4,0.4h0c0.2,0,0.4-0.2,0.4-0.4
					l0-1.7C198.6,174.3,198.4,174.1,198.2,174.1z"/>
			</g>
			<g>
				<path class="st1" d="M198.2,165.5L198.2,165.5c-0.2,0-0.4,0.2-0.4,0.4l0,1.7c0,0.2,0.2,0.4,0.4,0.4h0c0.2,0,0.4-0.2,0.4-0.4
					l0-1.7C198.6,165.7,198.4,165.5,198.2,165.5z"/>
			</g>
			<g>
				<path class="st1" d="M198.2,169.8L198.2,169.8c-0.2,0-0.4,0.2-0.4,0.4l0,1.7c0,0.2,0.2,0.4,0.4,0.4h0c0.2,0,0.4-0.2,0.4-0.4
					l0-1.7C198.6,170,198.4,169.8,198.2,169.8z"/>
			</g>
			<g>
				<path class="st1" d="M198.2,161.3L198.2,161.3c-0.2,0-0.4,0.2-0.4,0.4l0,1.7c0,0.2,0.2,0.4,0.4,0.4h0c0.2,0,0.4-0.2,0.4-0.4
					l0-1.7C198.6,161.4,198.4,161.3,198.2,161.3z"/>
			</g>
		</g>
		<g>
			<g>
				<path class="st1" d="M198.2,186.9L198.2,186.9c-0.2,0-0.4,0.2-0.4,0.4l0,0.8c0,0.2,0.2,0.4,0.4,0.4h0c0.2,0,0.4-0.2,0.4-0.4
					l0-0.8C198.6,187.1,198.4,186.9,198.2,186.9z"/>
			</g>
		</g>
	</g>
	<g>
		<g>
			<path class="st50" d="M277.9,181.1c-6.4,0-11.8-1.1-16.5-3.5l-0.5,1c4.8,2.4,10.4,3.6,17,3.6c0,0,0,0,0.1,0
				c2.6,0,5.1-0.1,7.6-0.2l-0.1-1.1C283,181,280.5,181.1,277.9,181.1z"/>
		</g>
	</g>
	<g>
		<g>
			<path class="st50" d="M242,151.5c-4.5-10.7-8.7-20.8-20.1-21.3c-13.1-0.7-17.8,11.1-21.9,21.4c-3.3,8.3-6.5,16.2-13.4,16.2
				c0,0,0,0,0,0l0,1.1c0,0,0,0,0,0c7.7,0,11-8.2,14.5-16.9c4.2-10.5,8.5-21.3,20.8-20.7c10.7,0.5,14.6,9.8,19.1,20.6
				c4.2,9.9,8.9,21.1,20,26.7l0.5-1C250.7,172.2,246.1,161.2,242,151.5z"/>
		</g>
	</g>
	<g>
		<g>
			<path class="st51" d="M271.9,163.8c-8.7-9.7-18.4-11.8-27.8-6.1l0.5,0.8c11.5-6.9,20.8-0.6,26.7,5.9c4.3,4.7,9.4,7.4,14.6,7.5
				l0-0.9C280.9,170.9,276,168.4,271.9,163.8z"/>
		</g>
	</g>
	<g>
		<g>
			<path class="st1" d="M234,166.8c-0.9,1.1-1.8,2-2.8,2.8l0.6,0.7c1-0.8,2-1.8,2.9-2.9c3.2-3.9,6.5-6.9,9.8-8.9l-0.5-0.8
				C240.7,159.8,237.3,162.8,234,166.8z"/>
		</g>
	</g>
	<g>
		<g>
			<path class="st51" d="M219.9,173c-4.5-0.5-8.9-3-11.8-6.6c-3.5-4.4-9.9-12.5-21.3-12.5l0,0.9c11,0,17.2,7.9,20.6,12.2
				c3,3.8,7.7,6.4,12.4,6.9c0.6,0.1,1.2,0.1,1.8,0.1c3.7,0,7.2-1.3,10.2-3.7l-0.6-0.7C227.9,172.3,224,173.5,219.9,173z"/>
		</g>
	</g>
	<g>
		<g>
			<g>
				<polygon class="st52" points="187.6,124.5 186.2,124.5 186.2,188.4 286.2,188.4 286.2,187 187.6,187 				"/>
			</g>
		</g>
		<g>
			<g>
				<g>
					<polygon class="st52" points="184.7,126.1 186.9,124.8 189.2,126.1 186.9,120.6 					"/>
				</g>
			</g>
		</g>
		<g>
			<g>
				<g>
					<polygon class="st52" points="285.9,187.7 284.5,190 290.1,187.7 284.5,185.5 					"/>
				</g>
			</g>
		</g>
	</g>
	<g>
		<g>
			<circle class="st1" cx="198.2" cy="157.5" r="1.5"/>
		</g>
		<g>
			<path class="st53" d="M198.2,155.6c-1,0-1.9,0.8-1.9,1.9c0,0.5,0.2,1,0.6,1.3c0.4,0.4,0.8,0.6,1.3,0.6h0c1,0,1.9-0.8,1.9-1.9
				c0-0.5-0.2-1-0.6-1.3C199.2,155.8,198.7,155.6,198.2,155.6z M198.2,158.6v0.4V158.6c-0.3,0-0.5-0.1-0.7-0.3
				c-0.2-0.2-0.3-0.5-0.3-0.7c0-0.6,0.5-1,1-1c0.3,0,0.5,0.1,0.7,0.3c0.2,0.2,0.3,0.5,0.3,0.7C199.2,158.1,198.8,158.6,198.2,158.6z
				"/>
		</g>
	</g>
	<g>
		<g>
			<circle class="st1" cx="187" cy="154.5" r="1.5"/>
		</g>
		<g>
			<path class="st53" d="M187,152.6c-1,0-1.9,0.8-1.9,1.9c0,1,0.8,1.9,1.9,1.9h0c1,0,1.9-0.8,1.9-1.9
				C188.9,153.5,188.1,152.6,187,152.6z M187,155.6v0.4V155.6c-0.6,0-1-0.5-1-1c0-0.6,0.5-1,1-1c0.6,0,1,0.5,1,1
				C188.1,155.1,187.6,155.6,187,155.6z"/>
		</g>
	</g>
	<g>
		<g>
			<circle class="st1" cx="244.3" cy="158.3" r="1.5"/>
		</g>
		<g>
			<path class="st53" d="M244.3,156.4c-1,0-1.9,0.8-1.9,1.9c0,0.5,0.2,1,0.6,1.3c0.4,0.4,0.8,0.6,1.3,0.6h0c1,0,1.9-0.8,1.9-1.9
				c0-0.5-0.2-1-0.6-1.3C245.3,156.6,244.8,156.4,244.3,156.4z M244.3,159.3v0.4V159.3c-0.3,0-0.5-0.1-0.7-0.3
				c-0.2-0.2-0.3-0.5-0.3-0.7c0-0.6,0.5-1,1-1c0.6,0,1,0.5,1,1C245.4,158.9,244.9,159.3,244.3,159.3z"/>
		</g>
	</g>
	<g>
		<g>
			<circle class="st50" cx="231.7" cy="134.6" r="1.5"/>
		</g>
	</g>
	<g>
		<g>
			<circle class="st53" cx="261.4" cy="156.3" r="1.5"/>
		</g>
	</g>
	<g>
		<g>
			<circle class="st50" cx="204.2" cy="143.4" r="1.5"/>
		</g>
	</g>
	<g>
		<g>
			<circle class="st47" cx="198.3" cy="187.7" r="1.5"/>
		</g>
	</g>
	<g>
		<g>
			<circle class="st47" cx="244.4" cy="187.7" r="1.5"/>
		</g>
	</g>
	<g>
		<g>
			<circle class="st47" cx="261.4" cy="187.8" r="1.5"/>
		</g>
	</g>
	<g>
		<g>
			<circle class="st47" cx="231.7" cy="187.7" r="1.5"/>
		</g>
	</g>
	<g>
		<g>
			<circle class="st1" cx="187.1" cy="168.2" r="1.5"/>
		</g>
		<g>
			<path class="st50" d="M187.1,166.3c-1,0-1.9,0.8-1.9,1.9c0,1,0.8,1.9,1.9,1.9h0c1,0,1.9-0.8,1.9-1.9c0-0.5-0.2-1-0.6-1.3
				C188.1,166.5,187.6,166.3,187.1,166.3z M187.1,169.3v0.4V169.3c-0.6,0-1-0.5-1-1c0-0.6,0.5-1,1-1c0.6,0,1,0.5,1,1
				C188.1,168.8,187.7,169.3,187.1,169.3z"/>
		</g>
	</g>
	<g>
		<g>
			<g>
				<polygon class="st50" points="234.1,126.1 233.8,131.9 239.6,132.2 238.3,128.8 				"/>
			</g>
		</g>
		<g>
			<g>
				<g>
					<path class="st1" d="M239.6,121.6c-2.8,0-5,2.3-5,5c0,1.3,0.5,2.6,1.5,3.6c0.9,1,2.2,1.5,3.6,1.5h0c2.8,0,5-2.3,5-5
						c0-1.3-0.5-2.6-1.5-3.6S241,121.6,239.6,121.6z"/>
				</g>
			</g>
			<g>
				<g>
					<g>
						<path class="st50" d="M239.6,121.1L239.6,121.1L239.6,121.1L239.6,121.1c-3.1,0-5.5,2.5-5.5,5.5c0,1.5,0.6,2.9,1.6,3.9
							c1,1,2.4,1.6,3.9,1.6c3.1,0,5.5-2.5,5.5-5.5c0-1.5-0.6-2.9-1.6-3.9C242.5,121.7,241.1,121.1,239.6,121.1z M239.6,131.2
							C239.6,131.2,239.6,131.2,239.6,131.2c-2.5,0-4.5-2-4.5-4.5c0-2.5,2-4.5,4.5-4.5c0,0,0,0,0,0c2.5,0,4.5,2,4.5,4.5
							C244.1,129.1,242.1,131.2,239.6,131.2z"/>
					</g>
				</g>
			</g>
		</g>
	</g>
	<g>
		<g>
			<g>
				<polygon class="st53" points="263.6,148.6 263.3,154.5 269.1,154.7 267.8,151.3 				"/>
			</g>
		</g>
		<g>
			<g>
				<g>
					<path class="st1" d="M269.1,144.1c-2.8,0-5,2.3-5,5c0,2.8,2.3,5,5,5h0c2.8,0,5-2.3,5-5c0-1.3-0.5-2.6-1.5-3.6
						C271.7,144.7,270.5,144.1,269.1,144.1z"/>
				</g>
			</g>
			<g>
				<g>
					<g>
						<path class="st53" d="M269.1,143.6L269.1,143.6L269.1,143.6L269.1,143.6c-3.1,0-5.5,2.5-5.5,5.5c0,1.5,0.6,2.9,1.6,3.9
							c1,1,2.4,1.6,3.9,1.6c3.1,0,5.5-2.5,5.5-5.5C274.6,146.1,272.2,143.6,269.1,143.6z M269.1,153.7
							C269.1,153.7,269.1,153.7,269.1,153.7c-2.5,0-4.5-2-4.5-4.5c0-2.5,2-4.5,4.5-4.5c0,0,0,0,0,0c2.5,0,4.5,2,4.5,4.5
							C273.6,151.7,271.6,153.7,269.1,153.7z"/>
					</g>
				</g>
			</g>
		</g>
	</g>
	<g>
		<g>
			<path class="st50" d="M239.3,126.2c0.2-0.2,0.3-0.4,0.3-0.6c0-0.1,0-0.2-0.1-0.4c-0.1-0.1-0.1-0.2-0.2-0.3
				c-0.1-0.1-0.2-0.1-0.3-0.2c-0.1,0-0.3-0.1-0.4-0.1c-0.1,0-0.3,0-0.4,0.1c-0.1,0-0.2,0.1-0.3,0.2c-0.1,0.1-0.2,0.2-0.2,0.3
				c-0.1,0.1-0.1,0.2-0.1,0.4c0,0.3,0.1,0.5,0.3,0.6c-0.1,0.1-0.3,0.2-0.3,0.3c-0.1,0.1-0.1,0.3-0.1,0.5c0,0.1,0,0.3,0.1,0.4
				c0.1,0.1,0.1,0.2,0.2,0.3c0.1,0.1,0.2,0.2,0.4,0.2c0.1,0.1,0.3,0.1,0.5,0.1c0.2,0,0.3,0,0.5-0.1c0.1-0.1,0.3-0.1,0.4-0.2
				c0.1-0.1,0.2-0.2,0.2-0.3c0.1-0.1,0.1-0.3,0.1-0.4C239.7,126.7,239.6,126.4,239.3,126.2z M238.3,125.4c0.1-0.1,0.1-0.1,0.2-0.1
				c0.1,0,0.2,0,0.2,0.1c0.1,0.1,0.1,0.1,0.1,0.2c0,0.1,0,0.2-0.1,0.2c-0.1,0.1-0.1,0.1-0.2,0.1c0,0-0.1,0-0.1,0c0,0-0.1,0-0.1-0.1
				c0,0-0.1-0.1-0.1-0.1c0,0,0-0.1,0-0.1C238.2,125.6,238.3,125.5,238.3,125.4z M238.9,127.2c0,0.1-0.1,0.1-0.1,0.1
				c0,0-0.1,0.1-0.1,0.1c-0.1,0-0.1,0-0.2,0c-0.1,0-0.1,0-0.2,0c-0.1,0-0.1-0.1-0.1-0.1c0,0-0.1-0.1-0.1-0.1c0-0.1,0-0.1,0-0.2
				c0-0.1,0-0.1,0-0.2c0-0.1,0.1-0.1,0.1-0.1c0,0,0.1-0.1,0.1-0.1c0.1,0,0.1,0,0.2,0c0.1,0,0.2,0,0.3,0.1c0.1,0.1,0.1,0.2,0.1,0.3
				C239,127,239,127.1,238.9,127.2z"/>
		</g>
		<g>
			<path class="st50" d="M241.8,127.3l-0.7,0c0.2-0.2,0.3-0.3,0.5-0.5c0.1-0.1,0.3-0.3,0.3-0.4c0.1-0.1,0.2-0.3,0.2-0.4
				c0-0.1,0.1-0.2,0.1-0.4c0-0.1,0-0.3-0.1-0.4c0-0.1-0.1-0.2-0.2-0.3c-0.1-0.1-0.2-0.2-0.3-0.2c-0.1,0-0.3-0.1-0.4-0.1
				c-0.2,0-0.3,0-0.5,0.1c-0.1,0.1-0.3,0.2-0.4,0.3c-0.1,0.1-0.1,0.2-0.2,0.3c0,0.1-0.1,0.2-0.1,0.3c0,0.1,0,0.2,0.1,0.3
				c0.1,0.1,0.2,0.1,0.3,0.1c0.1,0,0.2,0,0.2-0.1c0-0.1,0.1-0.2,0.1-0.3c0-0.1,0.1-0.2,0.2-0.2c0.1-0.1,0.1-0.1,0.2-0.1
				c0.1,0,0.1,0,0.2,0.1c0.1,0.1,0.1,0.1,0.1,0.2c0,0.1-0.1,0.3-0.2,0.5c-0.1,0.2-0.3,0.4-0.6,0.7c-0.2,0.2-0.3,0.4-0.4,0.5
				c-0.1,0.1-0.2,0.2-0.2,0.3c0,0.2,0.1,0.3,0.4,0.3l1.3,0c0.3,0,0.5-0.1,0.5-0.3S242.1,127.3,241.8,127.3z"/>
		</g>
	</g>
	<g>
		<g>
			<path class="st53" d="M268.7,149.3C268.7,149.3,268.7,149.3,268.7,149.3c-0.1,0-0.1,0-0.1,0l0-1.2c0-0.2-0.1-0.4-0.2-0.6
				c-0.1-0.1-0.2-0.2-0.4-0.2c-0.1,0-0.2,0-0.3,0.1c-0.1,0.1-0.2,0.1-0.2,0.3l-0.9,1.5c0,0.1-0.1,0.1-0.1,0.2c0,0.1-0.1,0.1-0.1,0.2
				c0,0.1,0,0.2,0.1,0.2c0.1,0,0.2,0.1,0.3,0.1l1.1,0l0,0.3c0,0.3,0.1,0.4,0.3,0.4c0.1,0,0.2,0,0.3-0.1c0.1-0.1,0.1-0.2,0.1-0.3
				l0-0.3l0.1,0c0.3,0,0.4-0.1,0.4-0.3c0-0.1,0-0.2-0.1-0.2C269,149.3,268.9,149.3,268.7,149.3z M268,149.3l-0.7,0l0.7-1.2
				L268,149.3z"/>
		</g>
		<g>
			<path class="st53" d="M271.4,148.9c0.2-0.2,0.3-0.4,0.3-0.6c0-0.1,0-0.2-0.1-0.4c-0.1-0.1-0.1-0.2-0.2-0.3
				c-0.1-0.1-0.2-0.1-0.3-0.2c-0.1,0-0.3-0.1-0.4-0.1c-0.1,0-0.3,0-0.4,0.1c-0.1,0-0.2,0.1-0.3,0.2c-0.1,0.1-0.2,0.2-0.2,0.3
				c-0.1,0.1-0.1,0.2-0.1,0.4c0,0.3,0.1,0.5,0.3,0.6c-0.1,0.1-0.3,0.2-0.3,0.3c-0.1,0.1-0.1,0.3-0.1,0.5c0,0.1,0,0.3,0.1,0.4
				c0.1,0.1,0.1,0.2,0.2,0.3c0.1,0.1,0.2,0.2,0.4,0.2c0.1,0.1,0.3,0.1,0.5,0.1c0.2,0,0.3,0,0.5-0.1c0.1-0.1,0.3-0.1,0.4-0.2
				c0.1-0.1,0.2-0.2,0.2-0.3s0.1-0.3,0.1-0.4C271.8,149.3,271.7,149.1,271.4,148.9z M270.4,148.1c0.1-0.1,0.1-0.1,0.2-0.1
				c0.1,0,0.2,0,0.2,0.1c0.1,0.1,0.1,0.1,0.1,0.2c0,0.1,0,0.2-0.1,0.2c-0.1,0.1-0.1,0.1-0.2,0.1c0,0-0.1,0-0.1,0c0,0-0.1,0-0.1-0.1
				c0,0-0.1-0.1-0.1-0.1c0,0,0-0.1,0-0.1C270.3,148.2,270.4,148.1,270.4,148.1z M271.1,149.8c0,0.1-0.1,0.1-0.1,0.1
				c0,0-0.1,0.1-0.1,0.1c-0.1,0-0.1,0-0.2,0c-0.1,0-0.1,0-0.2,0c-0.1,0-0.1-0.1-0.1-0.1c0,0-0.1-0.1-0.1-0.1c0-0.1,0-0.1,0-0.2
				c0-0.1,0-0.1,0-0.2s0.1-0.1,0.1-0.1c0,0,0.1-0.1,0.1-0.1c0.1,0,0.1,0,0.2,0c0.1,0,0.2,0,0.3,0.1c0.1,0.1,0.1,0.2,0.1,0.3
				C271.1,149.7,271.1,149.7,271.1,149.8z"/>
		</g>
	</g>
	<g>
		<g>
			<g>
				<path class="st1" d="M231.7,168c-1,0-1.9,0.8-1.9,1.9c0,0.5,0.2,1,0.6,1.3c0.4,0.4,0.8,0.6,1.3,0.6h0c1,0,1.9-0.8,1.9-1.9
					c0-0.5-0.2-1-0.6-1.3C232.7,168.2,232.2,168,231.7,168z"/>
			</g>
		</g>
		<g>
			<g>
				<g>
					<path class="st53" d="M231.7,167.6L231.7,167.6L231.7,167.6L231.7,167.6c-1.3,0-2.3,1-2.3,2.3c0,1.3,1,2.3,2.3,2.3
						c1.3,0,2.3-1,2.3-2.3C234,168.7,233,167.6,231.7,167.6z M231.7,171.4L231.7,171.4c-0.8,0-1.5-0.7-1.5-1.5
						c0-0.8,0.7-1.5,1.5-1.5c0,0,0,0,0,0c0.8,0,1.5,0.7,1.5,1.5C233.2,170.7,232.5,171.4,231.7,171.4z"/>
				</g>
			</g>
		</g>
	</g>
	<g>
		<g>
			<g>
				<path class="st1" d="M261.2,176.2c-1,0-1.9,0.8-1.9,1.9c0,0.5,0.2,1,0.6,1.3c0.4,0.4,0.8,0.6,1.3,0.6h0c1,0,1.9-0.8,1.9-1.9
					c0-0.5-0.2-1-0.6-1.3C262.2,176.4,261.7,176.2,261.2,176.2z"/>
			</g>
		</g>
		<g>
			<g>
				<g>
					<path class="st50" d="M261.2,175.8L261.2,175.8L261.2,175.8L261.2,175.8c-1.3,0-2.3,1-2.3,2.3c0,0.6,0.2,1.2,0.7,1.6
						c0.4,0.4,1,0.7,1.6,0.7c1.3,0,2.3-1,2.3-2.3C263.5,176.8,262.5,175.8,261.2,175.8z M261.2,179.5L261.2,179.5
						c-0.8,0-1.5-0.7-1.5-1.5c0-0.8,0.7-1.5,1.5-1.5c0,0,0,0,0,0c0.8,0,1.5,0.7,1.5,1.5C262.7,178.9,262,179.5,261.2,179.5z"/>
				</g>
			</g>
		</g>
	</g>
</g>
<g>
	<g>
		<g>
			<g>
				<path class="st54" d="M383.5,141.6c-15.6,0-30.1,8.5-37.8,22.1l4.7,2.7c6.8-11.9,19.4-19.4,33.1-19.4c13.7,0,26.4,7.4,33.1,19.4
					l4.7-2.7C413.6,150.1,399.1,141.6,383.5,141.6z"/>
			</g>
		</g>
		<g>
			<g>
				<path class="st55" d="M366.8,161.2l4.2,5.8c3.6-2.6,8-4,12.5-4c4.3,0,8.4,1.3,11.9,3.6l4-6c-4.7-3.2-10.2-4.9-15.9-4.9
					C377.4,155.8,371.7,157.7,366.8,161.2z"/>
			</g>
		</g>
		<g>
			<g>
				<path class="st56" d="M408.2,155.4c-6.9-5.9-15.7-9.2-24.8-9.2c-9.1,0-17.8,3.3-24.7,9.2c-6.8,5.8-11.3,13.9-12.8,22.7l7.1,1.2
					c1.2-7.1,4.8-13.7,10.4-18.4c5.6-4.8,12.7-7.4,20.1-7.4c7.4,0,14.5,2.6,20.1,7.5c5.5,4.8,9.2,11.3,10.4,18.5l7.1-1.1
					C419.6,169.4,415.1,161.3,408.2,155.4z"/>
			</g>
		</g>
		<g>
			<g>
				<path class="st57" d="M383.5,152.1c-17.7,0-32.2,14.4-32.2,32.2c0,1.1,0.1,2.3,0.2,3.4l5-0.5c-0.1-0.9-0.1-1.9-0.1-2.9
					c0-15,12.2-27.1,27.1-27.1c15,0,27.1,12.2,27.1,27.1c0,0.9,0,1.9-0.1,2.8l5,0.5c0.1-1.1,0.2-2.2,0.2-3.3
					C415.6,166.5,401.2,152.1,383.5,152.1z"/>
			</g>
		</g>
		<g>
			<g>
				<path class="st58" d="M409.7,136.3l-16.5,25.9l0.9,0.6l16.4-25.6h32.2v-1.1h-32.5C410,136.1,409.8,136.2,409.7,136.3z"/>
			</g>
		</g>
		<g>
			<g>
				<path class="st58" d="M358.2,136.1h-30.9v1.1h30.6l6.9,10.8l0.9-0.6l-7.1-11.1C358.6,136.2,358.4,136.1,358.2,136.1z"/>
			</g>
		</g>
		<g>
			<g>
				<rect x="416" y="170.6" class="st58" width="26.6" height="1.1"/>
			</g>
		</g>
		<g>
			<g>
				<rect x="327.3" y="170.6" class="st58" width="28.9" height="1.1"/>
			</g>
		</g>
		<g>
			<g>
				<circle class="st1" cx="365.4" cy="148" r="1.2"/>
			</g>
		</g>
		<g>
			<g>
				<circle class="st1" cx="356.4" cy="171.2" r="1.2"/>
			</g>
		</g>
		<g>
			<g>
				<circle class="st1" cx="393.7" cy="162.6" r="1.2"/>
			</g>
		</g>
		<g>
			<g>
				<circle class="st1" cx="415.9" cy="171.1" r="1.2"/>
			</g>
		</g>
		<g>
			<g>
				<path class="st59" d="M377.5,173.8h-1.6c-0.4,0-0.7,0.1-0.7,0.4c0,0.3,0.2,0.4,0.7,0.4h0.3v2.6c0,0.4,0.2,0.7,0.5,0.7
					c0.3,0,0.5-0.2,0.5-0.7v-2.6h0.3c0.4,0,0.7-0.1,0.7-0.4C378.2,174,377.9,173.8,377.5,173.8z"/>
			</g>
			<g>
				<path class="st59" d="M381.7,174.3c-0.2-0.2-0.4-0.3-0.6-0.4c-0.2-0.1-0.5-0.2-0.8-0.2c-0.3,0-0.6,0.1-0.8,0.2
					c-0.2,0.1-0.5,0.2-0.6,0.4s-0.3,0.4-0.4,0.7c-0.1,0.3-0.1,0.6-0.1,0.9c0,0.3,0,0.6,0.1,0.9c0.1,0.3,0.2,0.5,0.4,0.7
					c0.2,0.2,0.4,0.3,0.6,0.4c0.2,0.1,0.5,0.2,0.8,0.2c0.3,0,0.6-0.1,0.8-0.2c0.2-0.1,0.5-0.2,0.6-0.4c0.2-0.2,0.3-0.4,0.4-0.7
					c0.1-0.3,0.1-0.6,0.1-0.9c0-0.3,0-0.6-0.1-0.9C382,174.7,381.8,174.5,381.7,174.3z M381.1,176.4c0,0.2-0.1,0.3-0.2,0.4
					c-0.1,0.1-0.2,0.2-0.3,0.2c-0.1,0.1-0.3,0.1-0.4,0.1c-0.1,0-0.3,0-0.4-0.1c-0.1-0.1-0.2-0.1-0.3-0.2c-0.1-0.1-0.2-0.2-0.2-0.4
					c0-0.2-0.1-0.3-0.1-0.5c0-0.2,0-0.4,0.1-0.5c0-0.2,0.1-0.3,0.2-0.4c0.1-0.1,0.2-0.2,0.3-0.3c0.1-0.1,0.3-0.1,0.4-0.1
					c0.1,0,0.3,0,0.4,0.1c0.1,0.1,0.2,0.1,0.3,0.3c0.1,0.1,0.2,0.2,0.2,0.4c0,0.2,0.1,0.3,0.1,0.5
					C381.2,176.1,381.2,176.3,381.1,176.4z"/>
			</g>
			<g>
				<path class="st59" d="M384.6,173.8h-1.6c-0.4,0-0.7,0.1-0.7,0.4c0,0.3,0.2,0.4,0.7,0.4h0.3v2.6c0,0.4,0.2,0.7,0.5,0.7
					c0.3,0,0.5-0.2,0.5-0.7v-2.6h0.3c0.4,0,0.7-0.1,0.7-0.4C385.2,174,385,173.8,384.6,173.8z"/>
			</g>
			<g>
				<path class="st59" d="M387.3,174.3c-0.1-0.4-0.4-0.5-0.7-0.5c-0.2,0-0.3,0-0.4,0.1c-0.1,0.1-0.2,0.2-0.3,0.5l-1.1,2.9
					c0,0,0,0.1,0,0.1c0,0,0,0.1,0,0.1c0,0.1,0,0.2,0.1,0.3c0.1,0.1,0.2,0.1,0.3,0.1c0.2,0,0.4-0.1,0.4-0.4l0.1-0.4h1.5l0.1,0.4
					c0.1,0.3,0.3,0.4,0.5,0.4c0.1,0,0.2,0,0.3-0.1c0.1-0.1,0.1-0.2,0.1-0.3c0-0.1,0-0.2-0.1-0.3L387.3,174.3z M386.1,176.3l0.5-1.5
					l0.5,1.5H386.1z"/>
			</g>
			<g>
				<path class="st59" d="M390.4,177.1h-0.8v-2.6c0-0.4-0.2-0.7-0.5-0.7c-0.3,0-0.5,0.2-0.5,0.7v2.9c0,0.1,0,0.2,0,0.3
					c0,0.1,0.1,0.1,0.1,0.2c0,0,0.1,0.1,0.2,0.1c0.1,0,0.2,0,0.3,0h1.1c0.4,0,0.7-0.1,0.7-0.4C391.1,177.2,390.9,177.1,390.4,177.1z
					"/>
			</g>
		</g>
		<g>
			<g>
				<path class="st60" d="M329.8,131.4H329c0.2-0.2,0.4-0.4,0.6-0.6c0.2-0.2,0.3-0.4,0.4-0.5c0.1-0.2,0.2-0.3,0.3-0.5
					c0.1-0.2,0.1-0.3,0.1-0.5c0-0.2,0-0.3-0.1-0.5c-0.1-0.1-0.1-0.3-0.3-0.4c-0.1-0.1-0.3-0.2-0.4-0.3c-0.2-0.1-0.3-0.1-0.5-0.1
					c-0.2,0-0.4,0-0.6,0.1c-0.2,0.1-0.4,0.2-0.5,0.4c-0.1,0.1-0.2,0.2-0.2,0.4c0,0.1-0.1,0.3-0.1,0.4c0,0.1,0,0.3,0.1,0.3
					c0.1,0.1,0.2,0.1,0.3,0.1c0.1,0,0.2,0,0.3-0.1c0.1-0.1,0.1-0.2,0.2-0.4c0.1-0.1,0.1-0.2,0.2-0.3s0.2-0.1,0.2-0.1
					c0.1,0,0.2,0,0.3,0.1c0.1,0.1,0.1,0.2,0.1,0.3c0,0.2-0.1,0.4-0.3,0.6c-0.2,0.2-0.4,0.5-0.8,0.9c-0.2,0.3-0.4,0.5-0.5,0.6
					c-0.1,0.2-0.2,0.3-0.2,0.4c0,0.3,0.2,0.4,0.6,0.4h1.6c0.4,0,0.7-0.1,0.7-0.4C330.5,131.6,330.3,131.4,329.8,131.4z"/>
			</g>
			<g>
				<path class="st60" d="M332.8,131.4H332c0.2-0.2,0.4-0.4,0.6-0.6c0.2-0.2,0.3-0.4,0.4-0.5c0.1-0.2,0.2-0.3,0.3-0.5
					c0.1-0.2,0.1-0.3,0.1-0.5c0-0.2,0-0.3-0.1-0.5c-0.1-0.1-0.1-0.3-0.3-0.4c-0.1-0.1-0.3-0.2-0.4-0.3c-0.2-0.1-0.3-0.1-0.5-0.1
					c-0.2,0-0.4,0-0.6,0.1c-0.2,0.1-0.4,0.2-0.5,0.4c-0.1,0.1-0.2,0.2-0.2,0.4c0,0.1-0.1,0.3-0.1,0.4c0,0.1,0,0.3,0.1,0.3
					c0.1,0.1,0.2,0.1,0.3,0.1c0.1,0,0.2,0,0.3-0.1c0.1-0.1,0.1-0.2,0.2-0.4c0.1-0.1,0.1-0.2,0.2-0.3c0.1-0.1,0.2-0.1,0.2-0.1
					c0.1,0,0.2,0,0.3,0.1c0.1,0.1,0.1,0.2,0.1,0.3c0,0.2-0.1,0.4-0.3,0.6c-0.2,0.2-0.4,0.5-0.8,0.9c-0.2,0.3-0.4,0.5-0.5,0.6
					c-0.1,0.2-0.2,0.3-0.2,0.4c0,0.3,0.2,0.4,0.6,0.4h1.6c0.4,0,0.7-0.1,0.7-0.4C333.5,131.6,333.3,131.4,332.8,131.4z"/>
			</g>
			<g>
				<path class="st60" d="M334.3,131.3c-0.1,0-0.3,0.1-0.4,0.2c-0.1,0.1-0.2,0.2-0.2,0.4c0,0.1,0.1,0.3,0.2,0.4
					c0.1,0.1,0.2,0.2,0.4,0.2c0.1,0,0.1,0,0.2,0c0.1,0,0.1-0.1,0.2-0.1c0,0,0.1-0.1,0.1-0.2c0-0.1,0-0.1,0-0.2c0-0.1,0-0.3-0.1-0.4
					C334.5,131.3,334.4,131.3,334.3,131.3z"/>
			</g>
			<g>
				<path class="st60" d="M337.3,129.9c-0.1-0.1-0.2-0.2-0.4-0.3c-0.2-0.1-0.3-0.1-0.5-0.1c-0.1,0-0.3,0-0.4,0.1l0.1-0.5h1
					c0.2,0,0.3,0,0.4-0.1c0.1-0.1,0.1-0.2,0.1-0.3c0-0.3-0.2-0.4-0.6-0.4h-1.1c-0.1,0-0.2,0-0.3,0c-0.1,0-0.1,0-0.2,0.1
					c0,0-0.1,0.1-0.1,0.1c0,0.1,0,0.2-0.1,0.3l-0.1,1.1c0,0.1,0,0.1,0,0.2c0,0.1,0,0.1,0,0.1c0,0.3,0.1,0.4,0.4,0.4
					c0.1,0,0.1,0,0.2,0c0.1,0,0.1,0,0.2,0c0.1,0,0.1,0,0.2,0c0.1,0,0.1,0,0.2,0c0.2,0,0.3,0,0.4,0.1c0.1,0.1,0.1,0.2,0.1,0.4
					c0,0.1,0,0.2,0,0.2c0,0.1-0.1,0.1-0.1,0.2c-0.1,0.1-0.1,0.1-0.2,0.1c-0.1,0-0.1,0-0.2,0c-0.1,0-0.2,0-0.3-0.1
					c-0.1,0-0.2-0.1-0.2-0.1c-0.1,0-0.1-0.1-0.2-0.1c-0.1,0-0.1-0.1-0.2-0.1c-0.1,0-0.2,0-0.3,0.1c-0.1,0.1-0.1,0.2-0.1,0.3
					c0,0.1,0,0.2,0.1,0.3c0.1,0.1,0.2,0.2,0.3,0.3c0.1,0.1,0.3,0.1,0.4,0.2c0.2,0,0.3,0.1,0.5,0.1c0.2,0,0.4,0,0.6-0.1
					c0.2-0.1,0.4-0.2,0.5-0.3c0.1-0.1,0.2-0.3,0.3-0.5c0.1-0.2,0.1-0.4,0.1-0.6c0-0.2,0-0.4-0.1-0.5
					C337.5,130.2,337.5,130,337.3,129.9z"/>
			</g>
			<g>
				<path class="st60" d="M340.1,130.1c0.2-0.1,0.3-0.2,0.4-0.4c0.1-0.1,0.1-0.3,0.1-0.5c0-0.2,0-0.3-0.1-0.4
					c-0.1-0.1-0.1-0.3-0.3-0.4c-0.1-0.1-0.2-0.2-0.4-0.2s-0.3-0.1-0.5-0.1c-0.2,0-0.4,0-0.5,0.1c-0.2,0.1-0.3,0.1-0.4,0.2
					c-0.1,0.1-0.2,0.2-0.3,0.3c-0.1,0.1-0.1,0.2-0.1,0.3c0,0.1,0,0.2,0.1,0.3c0.1,0.1,0.2,0.1,0.3,0.1c0.1,0,0.2,0,0.3-0.1
					c0.1-0.1,0.1-0.1,0.2-0.2c0.1-0.1,0.1-0.1,0.2-0.2c0.1,0,0.1-0.1,0.2-0.1c0.1,0,0.2,0,0.2,0.1c0.1,0.1,0.1,0.1,0.1,0.3
					c0,0.2-0.1,0.4-0.4,0.4c-0.1,0-0.2,0.1-0.3,0.1c-0.1,0.1-0.1,0.2-0.1,0.3c0,0.1,0,0.2,0.1,0.3c0.1,0.1,0.2,0.1,0.3,0.1
					c0.2,0,0.3,0.1,0.4,0.1c0.1,0.1,0.1,0.2,0.1,0.3c0,0.1,0,0.3-0.1,0.4c-0.1,0.1-0.2,0.1-0.4,0.1c-0.1,0-0.1,0-0.2,0
					c-0.1,0-0.1-0.1-0.2-0.1c0,0-0.1-0.1-0.1-0.1c0-0.1-0.1-0.1-0.1-0.2c-0.1-0.1-0.1-0.1-0.2-0.2c-0.1,0-0.1-0.1-0.2-0.1
					c-0.1,0-0.2,0-0.3,0.1c-0.1,0.1-0.1,0.2-0.1,0.3c0,0.1,0,0.3,0.1,0.4c0.1,0.1,0.2,0.3,0.4,0.4c0.3,0.2,0.6,0.3,0.9,0.3
					c0.2,0,0.4,0,0.6-0.1c0.2-0.1,0.3-0.2,0.5-0.3c0.1-0.1,0.2-0.3,0.3-0.4c0.1-0.2,0.1-0.3,0.1-0.5
					C340.8,130.6,340.5,130.3,340.1,130.1z"/>
			</g>
		</g>
		<g>
			<g>
				<path class="st53" d="M433.7,130.9C433.7,130.9,433.7,130.9,433.7,130.9c-0.1,0-0.1,0-0.1,0v-1.5c0-0.3-0.1-0.6-0.2-0.7
					c-0.1-0.2-0.3-0.2-0.5-0.2c-0.2,0-0.3,0-0.4,0.1c-0.1,0.1-0.2,0.2-0.3,0.3l-1.2,1.9c-0.1,0.1-0.1,0.2-0.1,0.3
					c0,0.1-0.1,0.2-0.1,0.3c0,0.1,0,0.2,0.1,0.3c0.1,0.1,0.2,0.1,0.4,0.1h1.4v0.4c0,0.4,0.1,0.5,0.4,0.5c0.1,0,0.3,0,0.3-0.1
					c0.1-0.1,0.1-0.2,0.1-0.4v-0.4h0.1c0.4,0,0.6-0.1,0.6-0.4c0-0.1,0-0.2-0.1-0.3C434,131,433.9,130.9,433.7,130.9z M432.7,131h-1
					l1-1.6V131z"/>
			</g>
			<g>
				<path class="st53" d="M434.9,131.7c-0.1,0-0.3,0.1-0.4,0.2s-0.2,0.2-0.2,0.4c0,0.1,0.1,0.3,0.2,0.4s0.2,0.2,0.4,0.2
					c0.1,0,0.1,0,0.2,0c0.1,0,0.1-0.1,0.2-0.1c0,0,0.1-0.1,0.1-0.2c0-0.1,0-0.1,0-0.2c0-0.1,0-0.3-0.1-0.4
					C435.2,131.7,435.1,131.7,434.9,131.7z"/>
			</g>
			<g>
				<path class="st53" d="M438.1,130.4c0.2-0.2,0.4-0.5,0.4-0.8c0-0.2,0-0.3-0.1-0.5c-0.1-0.1-0.2-0.3-0.3-0.4
					c-0.1-0.1-0.3-0.2-0.4-0.2c-0.2-0.1-0.3-0.1-0.5-0.1s-0.4,0-0.5,0.1c-0.2,0.1-0.3,0.1-0.4,0.2c-0.1,0.1-0.2,0.2-0.3,0.4
					c-0.1,0.1-0.1,0.3-0.1,0.5c0,0.3,0.1,0.6,0.4,0.8c-0.2,0.1-0.3,0.3-0.4,0.4c-0.1,0.2-0.1,0.4-0.1,0.6c0,0.2,0,0.4,0.1,0.5
					c0.1,0.2,0.2,0.3,0.3,0.4c0.1,0.1,0.3,0.2,0.5,0.3c0.2,0.1,0.4,0.1,0.6,0.1c0.2,0,0.4,0,0.6-0.1c0.2-0.1,0.3-0.2,0.5-0.3
					c0.1-0.1,0.2-0.3,0.3-0.4c0.1-0.2,0.1-0.3,0.1-0.5C438.6,131,438.5,130.7,438.1,130.4z M436.9,129.4c0.1-0.1,0.2-0.1,0.3-0.1
					c0.1,0,0.2,0,0.3,0.1c0.1,0.1,0.1,0.2,0.1,0.3c0,0.1,0,0.2-0.1,0.3c-0.1,0.1-0.2,0.1-0.3,0.1c-0.1,0-0.1,0-0.2,0
					c0,0-0.1-0.1-0.1-0.1c0,0-0.1-0.1-0.1-0.1c0-0.1,0-0.1,0-0.2C436.7,129.6,436.8,129.5,436.9,129.4z M437.7,131.6
					c0,0.1-0.1,0.1-0.1,0.2c-0.1,0.1-0.1,0.1-0.2,0.1c-0.1,0-0.1,0-0.2,0c-0.1,0-0.1,0-0.2,0c-0.1,0-0.1-0.1-0.2-0.1
					c-0.1-0.1-0.1-0.1-0.1-0.2c0-0.1,0-0.1,0-0.2c0-0.1,0-0.2,0-0.2c0-0.1,0.1-0.1,0.1-0.2c0.1-0.1,0.1-0.1,0.2-0.1
					c0.1,0,0.1,0,0.2,0c0.2,0,0.3,0.1,0.4,0.2c0.1,0.1,0.2,0.3,0.2,0.4C437.7,131.4,437.7,131.5,437.7,131.6z"/>
			</g>
			<g>
				<path class="st53" d="M441.4,128.9c-0.1-0.1-0.3-0.2-0.5-0.3c-0.2-0.1-0.4-0.1-0.6-0.1c-0.2,0-0.4,0-0.6,0.1
					c-0.2,0.1-0.3,0.2-0.5,0.3c-0.1,0.1-0.2,0.3-0.3,0.5c-0.1,0.2-0.1,0.4-0.1,0.6c0,0.2,0,0.3,0.1,0.5c0.1,0.2,0.1,0.3,0.3,0.4
					c0.1,0.1,0.2,0.2,0.4,0.3c0.1,0.1,0.3,0.1,0.5,0.1c0,0,0.1,0,0.1,0c0,0,0.1,0,0.2,0c-0.1,0.2-0.2,0.3-0.3,0.4
					c-0.1,0.1-0.2,0.2-0.3,0.3c-0.1,0.1-0.1,0.2-0.2,0.2c0,0.1-0.1,0.1-0.1,0.2c0,0.1,0,0.1,0,0.2c0,0.1,0.1,0.1,0.1,0.1
					c0,0,0.1,0.1,0.1,0.1c0.1,0,0.1,0,0.2,0c0.1,0,0.2-0.1,0.4-0.2c0.1-0.1,0.3-0.3,0.5-0.6c0.3-0.4,0.6-0.8,0.7-1.1
					c0.2-0.3,0.2-0.7,0.2-1c0-0.2,0-0.4-0.1-0.6C441.6,129.1,441.5,129,441.4,128.9z M440.7,130.3c-0.1,0.1-0.2,0.2-0.4,0.2
					c-0.1,0-0.1,0-0.2,0c-0.1,0-0.1-0.1-0.2-0.1c0,0-0.1-0.1-0.1-0.2c0-0.1,0-0.1,0-0.2c0-0.2,0.1-0.3,0.2-0.4
					c0.1-0.1,0.2-0.2,0.4-0.2c0.1,0,0.3,0.1,0.4,0.2s0.2,0.2,0.2,0.4C440.9,130,440.8,130.2,440.7,130.3z"/>
			</g>
		</g>
		<g>
			<g>
				<path class="st56" d="M432.9,167h-0.9c0.2-0.2,0.4-0.4,0.6-0.6c0.2-0.2,0.3-0.4,0.4-0.5c0.1-0.2,0.2-0.3,0.3-0.5
					c0.1-0.2,0.1-0.3,0.1-0.5c0-0.2,0-0.3-0.1-0.5c-0.1-0.1-0.1-0.3-0.3-0.4c-0.1-0.1-0.3-0.2-0.4-0.3c-0.2-0.1-0.3-0.1-0.5-0.1
					c-0.2,0-0.4,0-0.6,0.1c-0.2,0.1-0.4,0.2-0.5,0.4c-0.1,0.1-0.2,0.2-0.2,0.4c0,0.1-0.1,0.3-0.1,0.4c0,0.1,0,0.3,0.1,0.3
					c0.1,0.1,0.2,0.1,0.3,0.1c0.1,0,0.2,0,0.3-0.1c0.1-0.1,0.1-0.2,0.2-0.4c0.1-0.1,0.1-0.2,0.2-0.3c0.1-0.1,0.2-0.1,0.2-0.1
					c0.1,0,0.2,0,0.3,0.1c0.1,0.1,0.1,0.2,0.1,0.3c0,0.2-0.1,0.4-0.3,0.6c-0.2,0.2-0.4,0.5-0.8,0.9c-0.2,0.3-0.4,0.5-0.5,0.6
					c-0.1,0.2-0.2,0.3-0.2,0.4c0,0.3,0.2,0.4,0.6,0.4h1.6c0.4,0,0.7-0.1,0.7-0.4C433.6,167.1,433.4,167,432.9,167z"/>
			</g>
			<g>
				<path class="st56" d="M435.7,163.8h-1.5c-0.2,0-0.3,0-0.4,0.1c-0.1,0.1-0.1,0.2-0.1,0.3c0,0.2,0.1,0.3,0.2,0.3
					c0.1,0.1,0.3,0.1,0.5,0.1h1.1l-1.2,2.5c0,0.1-0.1,0.1-0.1,0.2c0,0.1,0,0.1,0,0.2c0,0.1,0,0.2,0.1,0.3c0.1,0.1,0.2,0.1,0.3,0.1
					c0.2,0,0.4-0.1,0.5-0.4l1.4-2.9c0-0.1,0.1-0.1,0.1-0.2c0-0.1,0-0.1,0-0.1C436.4,163.9,436.2,163.8,435.7,163.8z"/>
			</g>
			<g>
				<path class="st56" d="M437.1,166.9c-0.1,0-0.3,0.1-0.4,0.2c-0.1,0.1-0.2,0.2-0.2,0.4c0,0.1,0.1,0.3,0.2,0.4
					c0.1,0.1,0.2,0.2,0.4,0.2c0.1,0,0.1,0,0.2,0c0.1,0,0.1-0.1,0.2-0.1c0,0,0.1-0.1,0.1-0.2c0-0.1,0-0.1,0-0.2c0-0.1,0-0.3-0.1-0.4
					C437.3,166.9,437.2,166.9,437.1,166.9z"/>
			</g>
			<g>
				<path class="st56" d="M438.8,163.8h-0.5c-0.4,0-0.7,0.1-0.7,0.4c0,0.3,0.2,0.4,0.6,0.4h0.1v2.6c0,0.4,0.2,0.7,0.5,0.7
					c0.3,0,0.5-0.2,0.5-0.7v-2.8c0-0.2,0-0.4-0.1-0.5C439.1,163.8,439,163.8,438.8,163.8z"/>
			</g>
			<g>
				<path class="st56" d="M442.8,166.2C442.8,166.2,442.8,166.2,442.8,166.2c-0.1,0-0.1,0-0.1,0v-1.5c0-0.3-0.1-0.6-0.2-0.7
					c-0.1-0.2-0.3-0.2-0.5-0.2c-0.2,0-0.3,0-0.4,0.1c-0.1,0.1-0.2,0.2-0.3,0.3l-1.2,1.9c-0.1,0.1-0.1,0.2-0.1,0.3
					c0,0.1-0.1,0.2-0.1,0.3c0,0.1,0,0.2,0.1,0.3c0.1,0.1,0.2,0.1,0.4,0.1h1.4v0.4c0,0.4,0.1,0.5,0.4,0.5c0.1,0,0.3,0,0.3-0.1
					c0.1-0.1,0.1-0.2,0.1-0.4V167h0.1c0.4,0,0.6-0.1,0.6-0.4c0-0.1,0-0.2-0.1-0.3C443.1,166.2,443,166.2,442.8,166.2z M441.8,166.2
					h-1l1-1.6V166.2z"/>
			</g>
		</g>
		<g>
			<g>
				<path class="st61" d="M329.8,166.6H329c0.2-0.2,0.4-0.4,0.6-0.6c0.2-0.2,0.3-0.4,0.4-0.5c0.1-0.2,0.2-0.3,0.3-0.5
					c0.1-0.2,0.1-0.3,0.1-0.5c0-0.2,0-0.3-0.1-0.5c-0.1-0.1-0.1-0.3-0.3-0.4c-0.1-0.1-0.3-0.2-0.4-0.3c-0.2-0.1-0.3-0.1-0.5-0.1
					c-0.2,0-0.4,0-0.6,0.1c-0.2,0.1-0.4,0.2-0.5,0.4c-0.1,0.1-0.2,0.2-0.2,0.4s-0.1,0.3-0.1,0.4c0,0.1,0,0.3,0.1,0.3
					c0.1,0.1,0.2,0.1,0.3,0.1c0.1,0,0.2,0,0.3-0.1c0.1-0.1,0.1-0.2,0.2-0.4c0.1-0.1,0.1-0.2,0.2-0.3c0.1-0.1,0.2-0.1,0.2-0.1
					c0.1,0,0.2,0,0.3,0.1c0.1,0.1,0.1,0.2,0.1,0.3c0,0.2-0.1,0.4-0.3,0.6c-0.2,0.2-0.4,0.5-0.8,0.9c-0.2,0.3-0.4,0.5-0.5,0.6
					c-0.1,0.2-0.2,0.3-0.2,0.4c0,0.3,0.2,0.4,0.6,0.4h1.6c0.4,0,0.7-0.1,0.7-0.4C330.5,166.8,330.3,166.6,329.8,166.6z"/>
			</g>
			<g>
				<path class="st61" d="M333.3,163.7c-0.1-0.1-0.3-0.2-0.5-0.3c-0.2-0.1-0.4-0.1-0.6-0.1c-0.2,0-0.4,0-0.6,0.1
					c-0.2,0.1-0.3,0.2-0.5,0.3c-0.1,0.1-0.2,0.3-0.3,0.5c-0.1,0.2-0.1,0.4-0.1,0.6c0,0.2,0,0.3,0.1,0.5c0.1,0.2,0.1,0.3,0.3,0.4
					c0.1,0.1,0.2,0.2,0.4,0.3c0.1,0.1,0.3,0.1,0.5,0.1c0,0,0.1,0,0.1,0c0,0,0.1,0,0.2,0c-0.1,0.2-0.2,0.3-0.3,0.4
					c-0.1,0.1-0.2,0.2-0.3,0.3c-0.1,0.1-0.1,0.2-0.2,0.2c0,0.1-0.1,0.1-0.1,0.2c0,0.1,0,0.1,0,0.2c0,0.1,0.1,0.1,0.1,0.1
					c0,0,0.1,0.1,0.1,0.1c0.1,0,0.1,0,0.2,0c0.1,0,0.2-0.1,0.4-0.2c0.1-0.1,0.3-0.3,0.5-0.6c0.3-0.4,0.6-0.8,0.7-1.1
					c0.2-0.3,0.2-0.7,0.2-1c0-0.2,0-0.4-0.1-0.6C333.5,164,333.4,163.8,333.3,163.7z M332.6,165.1c-0.1,0.1-0.2,0.2-0.4,0.2
					c-0.1,0-0.1,0-0.2,0c-0.1,0-0.1-0.1-0.2-0.1c0,0-0.1-0.1-0.1-0.2c0-0.1,0-0.1,0-0.2c0-0.2,0.1-0.3,0.2-0.4
					c0.1-0.1,0.2-0.2,0.4-0.2c0.1,0,0.3,0.1,0.4,0.2c0.1,0.1,0.2,0.2,0.2,0.4S332.7,165,332.6,165.1z"/>
			</g>
			<g>
				<path class="st61" d="M334.5,166.5c-0.1,0-0.3,0.1-0.4,0.2s-0.2,0.2-0.2,0.4c0,0.1,0.1,0.3,0.2,0.4s0.2,0.2,0.4,0.2
					c0.1,0,0.1,0,0.2,0c0.1,0,0.1-0.1,0.2-0.1c0,0,0.1-0.1,0.1-0.2c0-0.1,0-0.1,0-0.2c0-0.1,0-0.3-0.1-0.4
					C334.7,166.5,334.6,166.5,334.5,166.5z"/>
			</g>
			<g>
				<path class="st61" d="M337.8,163.7c-0.1-0.1-0.3-0.2-0.5-0.3c-0.2-0.1-0.4-0.1-0.6-0.1c-0.2,0-0.4,0-0.6,0.1
					c-0.2,0.1-0.3,0.2-0.5,0.3c-0.1,0.1-0.2,0.3-0.3,0.5c-0.1,0.2-0.1,0.4-0.1,0.6c0,0.2,0,0.3,0.1,0.5c0.1,0.2,0.1,0.3,0.3,0.4
					c0.1,0.1,0.2,0.2,0.4,0.3c0.1,0.1,0.3,0.1,0.5,0.1c0,0,0.1,0,0.1,0c0,0,0.1,0,0.2,0c-0.1,0.2-0.2,0.3-0.3,0.4
					c-0.1,0.1-0.2,0.2-0.3,0.3c-0.1,0.1-0.1,0.2-0.2,0.2c0,0.1-0.1,0.1-0.1,0.2c0,0.1,0,0.1,0,0.2c0,0.1,0.1,0.1,0.1,0.1
					c0,0,0.1,0.1,0.1,0.1c0.1,0,0.1,0,0.2,0c0.1,0,0.2-0.1,0.4-0.2c0.1-0.1,0.3-0.3,0.5-0.6c0.3-0.4,0.6-0.8,0.7-1.1
					c0.2-0.3,0.2-0.7,0.2-1c0-0.2,0-0.4-0.1-0.6C338,164,337.9,163.8,337.8,163.7z M337.1,165.1c-0.1,0.1-0.2,0.2-0.4,0.2
					c-0.1,0-0.1,0-0.2,0c-0.1,0-0.1-0.1-0.2-0.1c0,0-0.1-0.1-0.1-0.2c0-0.1,0-0.1,0-0.2c0-0.2,0.1-0.3,0.2-0.4
					c0.1-0.1,0.2-0.2,0.4-0.2c0.1,0,0.3,0.1,0.4,0.2c0.1,0.1,0.2,0.2,0.2,0.4S337.2,165,337.1,165.1z"/>
			</g>
			<g>
				<path class="st61" d="M340.4,163.4h-1.5c-0.2,0-0.3,0-0.4,0.1c-0.1,0.1-0.1,0.2-0.1,0.3c0,0.2,0.1,0.3,0.2,0.3
					c0.1,0.1,0.3,0.1,0.5,0.1h1.1l-1.2,2.5c0,0.1-0.1,0.1-0.1,0.2c0,0.1,0,0.1,0,0.2c0,0.1,0,0.2,0.1,0.3c0.1,0.1,0.2,0.1,0.3,0.1
					c0.2,0,0.4-0.1,0.5-0.4l1.4-2.9c0-0.1,0.1-0.1,0.1-0.2c0-0.1,0-0.1,0-0.1C341,163.6,340.8,163.4,340.4,163.4z"/>
			</g>
		</g>
		<g>
			<g>
				<path class="st59" d="M374,185.8c0.4-0.4,0.7-0.9,0.7-1.5c0-0.3-0.1-0.6-0.2-0.8c-0.1-0.3-0.3-0.5-0.5-0.7
					c-0.2-0.2-0.5-0.3-0.7-0.4c-0.3-0.1-0.6-0.2-0.9-0.2c-0.3,0-0.6,0.1-0.9,0.2c-0.3,0.1-0.5,0.3-0.7,0.4s-0.4,0.4-0.5,0.7
					c-0.1,0.3-0.2,0.5-0.2,0.8c0,0.6,0.2,1.1,0.7,1.5c-0.3,0.2-0.6,0.5-0.7,0.8c-0.2,0.3-0.2,0.7-0.2,1.1c0,0.3,0.1,0.6,0.2,0.9
					c0.1,0.3,0.3,0.5,0.5,0.8c0.2,0.2,0.5,0.4,0.8,0.5c0.3,0.1,0.7,0.2,1.1,0.2c0.4,0,0.8-0.1,1.1-0.2c0.3-0.1,0.6-0.3,0.8-0.5
					c0.2-0.2,0.4-0.5,0.5-0.8c0.1-0.3,0.2-0.6,0.2-0.9C375,186.8,374.6,186.2,374,185.8z M371.8,183.9c0.1-0.2,0.3-0.2,0.5-0.2
					c0.2,0,0.4,0.1,0.5,0.2c0.1,0.2,0.2,0.3,0.2,0.6c0,0.2-0.1,0.4-0.2,0.5c-0.1,0.2-0.3,0.2-0.5,0.2c-0.1,0-0.2,0-0.3-0.1
					c-0.1,0-0.2-0.1-0.2-0.2c-0.1-0.1-0.1-0.2-0.2-0.2c0-0.1-0.1-0.2-0.1-0.3C371.6,184.3,371.6,184.1,371.8,183.9z M373.2,187.9
					c-0.1,0.1-0.1,0.2-0.2,0.3c-0.1,0.1-0.2,0.2-0.3,0.2c-0.1,0.1-0.2,0.1-0.4,0.1c-0.1,0-0.3,0-0.4-0.1c-0.1-0.1-0.2-0.1-0.3-0.2
					c-0.1-0.1-0.2-0.2-0.2-0.3c-0.1-0.1-0.1-0.3-0.1-0.4c0-0.2,0-0.3,0.1-0.4c0.1-0.1,0.1-0.2,0.2-0.3c0.1-0.1,0.2-0.2,0.3-0.2
					c0.1-0.1,0.2-0.1,0.4-0.1c0.3,0,0.5,0.1,0.7,0.3c0.2,0.2,0.3,0.5,0.3,0.8C373.3,187.6,373.3,187.7,373.2,187.9z"/>
			</g>
			<g>
				<path class="st59" d="M380.9,186.7c0,0-0.1,0-0.1,0c0,0-0.1,0-0.1,0v-2.7c0-0.6-0.1-1-0.4-1.3c-0.2-0.3-0.6-0.4-0.9-0.4
					c-0.3,0-0.5,0.1-0.7,0.2c-0.2,0.1-0.4,0.3-0.5,0.6l-2.2,3.4c-0.1,0.2-0.2,0.3-0.3,0.5c-0.1,0.1-0.1,0.3-0.1,0.5
					c0,0.2,0.1,0.4,0.3,0.5c0.2,0.1,0.4,0.2,0.8,0.2h2.6v0.7c0,0.6,0.2,0.9,0.7,0.9c0.3,0,0.5-0.1,0.6-0.2c0.1-0.2,0.2-0.4,0.2-0.7
					v-0.8h0.2c0.7,0,1-0.3,1-0.8c0-0.2-0.1-0.4-0.2-0.5C381.4,186.8,381.2,186.7,380.9,186.7z M379.1,186.7h-1.7l1.7-2.8V186.7z"/>
			</g>
			<g>
				<path class="st59" d="M383.5,188c-0.3,0-0.5,0.1-0.7,0.3c-0.2,0.2-0.3,0.4-0.3,0.7c0,0.3,0.1,0.5,0.3,0.7
					c0.2,0.2,0.4,0.3,0.7,0.3c0.1,0,0.3,0,0.4-0.1c0.1,0,0.2-0.1,0.3-0.2c0.1-0.1,0.1-0.2,0.2-0.3c0-0.1,0.1-0.2,0.1-0.4
					c0-0.3-0.1-0.5-0.3-0.7C384,188.1,383.8,188,383.5,188z"/>
			</g>
			<g>
				<path class="st59" d="M389.5,185.5c-0.2-0.2-0.4-0.4-0.7-0.5c-0.3-0.1-0.6-0.2-0.9-0.2c-0.2,0-0.5,0-0.7,0.1l0.1-0.9h1.7
					c0.3,0,0.6-0.1,0.8-0.2c0.2-0.1,0.3-0.3,0.3-0.6c0-0.5-0.4-0.8-1.1-0.8h-2c-0.2,0-0.3,0-0.4,0c-0.1,0-0.2,0.1-0.3,0.1
					c-0.1,0.1-0.2,0.2-0.2,0.3c-0.1,0.1-0.1,0.3-0.1,0.5l-0.2,1.9c0,0.1,0,0.3,0,0.3c0,0.1,0,0.2,0,0.2c0,0.5,0.2,0.7,0.6,0.7
					c0.1,0,0.2,0,0.3,0c0.1,0,0.2-0.1,0.3-0.1c0.1,0,0.2-0.1,0.3-0.1c0.1,0,0.2,0,0.3,0c0.3,0,0.5,0.1,0.7,0.3
					c0.2,0.2,0.3,0.4,0.3,0.8c0,0.2,0,0.3-0.1,0.4c-0.1,0.1-0.1,0.3-0.2,0.3c-0.1,0.1-0.2,0.2-0.3,0.2c-0.1,0.1-0.3,0.1-0.4,0.1
					c-0.2,0-0.3,0-0.5-0.1c-0.1-0.1-0.3-0.1-0.4-0.2c-0.1-0.1-0.2-0.2-0.4-0.2c-0.1-0.1-0.2-0.1-0.4-0.1c-0.2,0-0.4,0.1-0.5,0.2
					c-0.1,0.1-0.2,0.3-0.2,0.5c0,0.2,0.1,0.4,0.2,0.5c0.1,0.2,0.3,0.3,0.5,0.5c0.2,0.1,0.5,0.2,0.7,0.3c0.3,0.1,0.6,0.1,0.9,0.1
					c0.4,0,0.8-0.1,1.1-0.2c0.3-0.1,0.6-0.3,0.9-0.6c0.2-0.3,0.4-0.5,0.6-0.9c0.1-0.3,0.2-0.7,0.2-1.1c0-0.4-0.1-0.7-0.2-1
					C389.8,186,389.7,185.7,389.5,185.5z"/>
			</g>
			<g>
				<path class="st59" d="M394.8,185.8c0.3-0.2,0.5-0.4,0.6-0.7c0.1-0.2,0.2-0.5,0.2-0.8c0-0.3-0.1-0.5-0.2-0.8
					c-0.1-0.2-0.3-0.5-0.5-0.6c-0.2-0.2-0.4-0.3-0.7-0.4c-0.3-0.1-0.6-0.2-0.9-0.2c-0.3,0-0.6,0.1-0.9,0.2c-0.3,0.1-0.5,0.2-0.8,0.4
					c-0.2,0.2-0.4,0.4-0.5,0.6c-0.1,0.2-0.2,0.4-0.2,0.6c0,0.2,0.1,0.4,0.2,0.5c0.1,0.1,0.3,0.2,0.5,0.2c0.2,0,0.4,0,0.5-0.1
					c0.1-0.1,0.3-0.2,0.4-0.4c0.1-0.1,0.2-0.2,0.3-0.3c0.1-0.1,0.3-0.1,0.4-0.1c0.2,0,0.3,0.1,0.4,0.2c0.1,0.1,0.2,0.3,0.2,0.5
					c0,0.4-0.3,0.6-0.8,0.8c-0.2,0.1-0.4,0.1-0.5,0.2c-0.1,0.1-0.2,0.3-0.2,0.5c0,0.2,0.1,0.4,0.2,0.5c0.1,0.1,0.3,0.2,0.5,0.2
					c0.3,0.1,0.6,0.1,0.8,0.3c0.2,0.1,0.3,0.3,0.3,0.6c0,0.3-0.1,0.5-0.3,0.7c-0.2,0.2-0.4,0.3-0.6,0.3c-0.1,0-0.3,0-0.4-0.1
					c-0.1,0-0.2-0.1-0.3-0.2c-0.1-0.1-0.2-0.2-0.2-0.3c-0.1-0.1-0.1-0.2-0.2-0.3c-0.1-0.2-0.2-0.3-0.3-0.3c-0.1-0.1-0.2-0.1-0.4-0.1
					c-0.2,0-0.4,0.1-0.5,0.2c-0.1,0.1-0.2,0.3-0.2,0.6c0,0.2,0.1,0.5,0.2,0.7c0.2,0.3,0.4,0.5,0.7,0.7c0.5,0.4,1,0.6,1.6,0.6
					c0.4,0,0.7-0.1,1.1-0.2c0.3-0.1,0.6-0.3,0.8-0.5c0.2-0.2,0.4-0.5,0.5-0.8c0.1-0.3,0.2-0.6,0.2-0.9
					C396,186.8,395.6,186.2,394.8,185.8z"/>
			</g>
		</g>
	</g>
</g>
</svg>
