<?xml version="1.0" encoding="utf-8"?>
<!-- Generator: Adobe Illustrator 21.1.0, SVG Export Plug-In . SVG Version: 6.00 Build 0)  -->
<svg version="1.1" id="Layer_1" xmlns="http://www.w3.org/2000/svg" xmlns:xlink="http://www.w3.org/1999/xlink" x="0px" y="0px"
	 viewBox="0 0 300 300" style="enable-background:new 0 0 300 300;" xml:space="preserve">
<style type="text/css">
	.st0{fill:#FFFFFF;}
	.st1{fill:#DADBDC;}
	.st2{fill:#414350;}
	.st3{fill:#343640;}
	.st4{fill:#BDBDBD;}
	.st5{fill:#E6E6E6;}
	.st6{fill:#CCCCCC;}
	.st7{fill:#DEDFE0;}
	.st8{fill:#F8ED3C;}
	.st9{fill:#E3DB3B;}
	.st10{fill:#B79694;}
	.st11{fill:#FCC9A1;}
	.st12{fill:#F8A693;}
	.st13{fill:#CE7381;}
	.st14{fill:#A55C68;}
	.st15{fill:#8F4F5A;}
	.st16{opacity:0.6;}
	.st17{fill:#BAB7F7;}
	.st18{opacity:0.5;}
	.st19{fill:#FF7D55;}
	.st20{opacity:0.3;}
	.st21{fill:#3F4751;}
	.st22{opacity:0.4;}
	.st23{fill:#CE8FFF;}
	.st24{fill:#8C83DD;}
	.st25{fill:#FF7261;}
	.st26{fill:#667784;}
	.st27{fill:#FF6464;}
	.st28{fill:#CFE240;}
	.st29{fill:#E56C69;}
	.st30{fill:#D856D2;}
	.st31{fill:#FFC022;}
	.st32{fill:#A8A8CC;}
	.st33{fill:#5D5D68;}
	.st34{fill:#B1CC40;}
	.st35{fill:#FFAB24;}
</style>
<title>Fan-small</title>
<rect x="236.4" y="128.8" class="st0" width="11.5" height="22"/>
<rect x="236.4" y="128.8" class="st1" width="11.5" height="1.9"/>
<g>
	<path class="st2" d="M280.9,47.7H23.6c-4.6,0-8.3,3.7-8.3,8.3v165.6h273.8V56C289.1,51.5,285.4,47.7,280.9,47.7z"/>
	<path class="st3" d="M21.6,221.6V56c0-1.1,0.9-2.1,2.1-2.1h257.2c1.1,0,2.1,0.9,2.1,2.1v165.6H21.6z"/>
	<rect x="26.7" y="59.8" class="st0" width="251" height="151.3"/>
	<polygon class="st4" points="111,276.4 153.3,276.4 195.6,276.4 199.3,273.8 107.3,273.8 	"/>
	<path class="st5" d="M121.4,267.1c0,0-0.5,4.7-6.5,5.5l-7.6,1.1h92l-7.6-1.1c-6-0.8-6.5-5.5-6.5-5.5l-1-9l-61.7-1.3L121.4,267.1z"
		/>
	<polygon class="st6" points="122.5,256.7 184.2,258.1 183.3,249.2 123.3,249.2 	"/>
	<path class="st0" d="M15.4,221.6v19.3c0,4.6,3.7,8.3,8.3,8.3h99.7h60h97.6c4.6,0,8.3-3.7,8.3-8.3v-19.3H15.4z"/>
	<path class="st3" d="M167.1,235.6c0,1.7-1.3,3-3,3h-21.6c-1.7,0-3-1.3-3-3l0,0c0-1.7,1.3-3,3-3h21.6
		C165.7,232.7,167.1,234,167.1,235.6L167.1,235.6z"/>
</g>
<polygon class="st7" points="231.4,249.2 233,230.4 238.9,249.2 "/>
<g>
	<path class="st8" d="M233,230.4c0,0,0.2,16.8,3.8,33.4l34.4-1.5c0,0-5.8-23.3-6.1-33.2L233,230.4z"/>
	<polygon class="st9" points="236.2,233.3 262.8,232.1 263.1,236.1 236.5,237.5 	"/>
	<polygon class="st9" points="236.9,241.9 263.1,240.7 263.4,242.3 237,243.5 	"/>
	<polygon class="st9" points="237.4,245.8 263.6,244.5 264,246.1 237.5,247.3 	"/>
</g>
<ellipse class="st10" cx="153.6" cy="193.4" rx="13.6" ry="1.9"/>
<ellipse class="st10" cx="232.5" cy="192.7" rx="13.9" ry="2"/>
<ellipse class="st10" cx="86.3" cy="194.1" rx="12.8" ry="1.8"/>
<g>
	<g>
		<path class="st11" d="M150.6,161.8c-2.2-1-4.5-1.9-6.9-2.6c0,0.1,0,0.3,0.1,0.4c0.4,1.3,2.5,4.1,5.5,6.7c2.6,2.2,5.2,3.7,7.4,4.1
			c0-0.7-0.1-1.4-0.4-2.1C155.3,165.5,153.2,162.9,150.6,161.8z"/>
		<path class="st12" d="M161.5,170c0.2-0.2,0.3-0.4,0.3-1c0-0.6,0.1-1.3,0.6-2c0.5-0.7,1.2-1.1,1.8-1.2c-0.4-0.7-0.8-1.4-1.2-2.1
			c-0.8-1.1-1.6-2.2-2.6-3.1c-0.5-0.5-1-0.9-1.5-1.3c-2.9-2.2-6.4-3.6-10.2-3.8c-1.2,0.4-4,1.5-4.7,3c-0.1,0.2-0.2,0.5-0.2,0.7
			c2.4,0.7,4.6,1.6,6.9,2.6c2.6,1.1,4.6,3.7,5.7,6.5c0.2,0.7,0.4,1.4,0.4,2.1c0.5,0.1,1,0.2,1.5,0.2
			C160.4,170.5,161.2,170.2,161.5,170z"/>
		<path class="st12" d="M142.4,157.7c0.4-0.7,1-1.4,1.8-1.9c-2.3,0.4-4.4,1.2-6.3,2.4c1.4,0.1,2.8,0.3,4.2,0.6
			C142.1,158.4,142.2,158,142.4,157.7z"/>
		<path class="st12" d="M159.6,188.8l1.4-1.3c0,0,0,0-0.1-0.1c3-3.1,5-7.3,5.3-11.9c0-0.4,0-0.8,0-1.2c0-0.9-0.1-1.9-0.2-2.8
			c-0.2-1.4-0.6-2.7-1.1-4c-0.4,0-0.8,0.1-1.2,0.6c-0.2,0.3-0.2,0.6-0.3,1.1c0,0.7-0.1,1.6-1,2.3c-0.8,0.6-2.2,0.9-4.4,1
			c-0.1,0-0.1,0-0.2,0c-0.5,0-1-0.1-1.5-0.1c-0.3,1.8-1,3.5-1.6,5.1c-0.3,0.7-0.1,1.4-0.1,2c-0.1,0.3-0.3,0.5-0.4,0.8
			c-0.5,3,0.7,5.4,2.7,7.4c0.6,0.6,1.3,1,2,1.4c0.1-0.1,0.3-0.2,0.4-0.3C159.6,188.7,159.6,188.7,159.6,188.8z"/>
		<path class="st11" d="M154.4,180.2c0.1-0.3,0.3-0.5,0.4-0.8c0-0.7-0.1-1.4,0.1-2c0.6-1.7,1.3-3.4,1.6-5.1
			c-6.3-1.1-13.3-8.8-14.4-12c-0.2-0.5-0.2-0.9-0.1-1.4c-1.4-0.3-2.8-0.5-4.2-0.6c-0.5,0.3-1.1,0.7-1.6,1c-0.5,0.4-1,0.8-1.5,1.3
			c-1.2,1.1-2.3,2.4-3.2,3.8c-1.4,2.2-2.3,4.7-2.7,7.4c0,0,0.1-0.1,0.1-0.1c2.1-1.7,5-1,5.1-0.9l0.1,0l0.1,0
			c0.3,0.2,7.4,3.8,9.2,9.1c1.1,3.3,0.3,5.2-0.4,6.2c-1.1,1.4-3,2-5.4,1.9c-0.8-0.1-0.9,0.2-1,0.3c-0.2,0.3-0.2,0.7-0.2,1.3
			c2.1,1.5,4.5,2.6,7,3.2c1.3,0.3,2.6,0.4,4,0.4c4.4,0,8.5-1.5,11.7-4.1c-0.7-0.4-1.4-0.9-2-1.4
			C155.1,185.6,153.9,183.2,154.4,180.2z"/>
		<path class="st11" d="M133.6,172.3c-0.4-0.1-2.3-0.4-3.5,0.6c-0.8,0.6-1.2,1.7-1.3,3.1c0,0.3,0.1,0.5,0.1,0.8
			c0.6,4.1,2.5,7.8,5.2,10.6c0,0,0,0.1-0.1,0.1l0.6,0.5c0,0,0.1,0.1,0.1,0.1c0.1-0.3,0.2-0.6,0.4-0.9c0.4-0.5,1.1-1.1,2.6-1
			c1.8,0.1,3.1-0.3,3.8-1.2c0.8-1,0.8-2.5,0.2-4.6C140.4,176,134.4,172.7,133.6,172.3z"/>
		<path class="st13" d="M134.3,170.7L134.3,170.7l-0.2-0.1c-0.1,0-3-0.7-5.1,0.9c0,0-0.1,0.1-0.1,0.1c-0.1,0.9-0.2,1.7-0.2,2.6
			c0,0.5,0,1.1,0.1,1.6c0,0.1,0,0.1,0,0.2c0.1-1.4,0.5-2.5,1.3-3.1c1.2-1,3.1-0.7,3.5-0.6c0.8,0.4,6.8,3.7,8.2,8
			c0.7,2,0.6,3.6-0.2,4.6c-0.7,0.9-2.1,1.3-3.8,1.2c-1.5-0.1-2.2,0.5-2.6,1c-0.2,0.3-0.3,0.6-0.4,0.9c0.5,0.5,1.1,1,1.7,1.4
			c-0.1-0.5,0-1,0.2-1.3c0.1-0.1,0.2-0.3,1-0.3c2.4,0.2,4.3-0.5,5.4-1.9c0.8-1,1.5-2.9,0.4-6.2C141.7,174.5,134.6,170.8,134.3,170.7
			z"/>
		<path class="st13" d="M156.7,170.4c-2.2-0.5-4.8-1.9-7.4-4.1c-3-2.5-5-5.3-5.5-6.7c0-0.1-0.1-0.3-0.1-0.4
			c-0.6-0.2-1.2-0.3-1.7-0.5c-0.1,0.5,0,0.9,0.1,1.4c1.1,3.2,8.1,10.9,14.4,12C156.7,171.6,156.7,171,156.7,170.4z"/>
		<path class="st14" d="M143.9,158.5c0.8-1.5,3.5-2.6,4.7-3c-0.4,0-0.8,0-1.2,0c-0.5,0-0.9,0-1.4,0.1c-0.7,0-1.3,0.1-1.9,0.2
			c-0.7,0.5-1.4,1.2-1.8,1.9c-0.2,0.4-0.3,0.7-0.3,1.1c0.6,0.1,1.2,0.3,1.7,0.5C143.8,159,143.8,158.8,143.9,158.5z"/>
		<path class="st14" d="M158.3,172.4c2.2,0,3.5-0.3,4.4-1c0.9-0.7,0.9-1.6,1-2.3c0-0.5,0.1-0.8,0.3-1.1c0.3-0.5,0.8-0.6,1.2-0.6
			c-0.2-0.6-0.5-1.1-0.7-1.7c-0.6,0.1-1.3,0.5-1.8,1.2c-0.5,0.7-0.6,1.4-0.6,2c0,0.6-0.1,0.8-0.3,1c-0.3,0.3-1.2,0.6-3.3,0.6
			c-0.5,0-1,0-1.5-0.2c0,0.6,0,1.2-0.1,1.8c0.5,0.1,1,0.1,1.5,0.1C158.2,172.4,158.2,172.4,158.3,172.4z"/>
	</g>
	<g>
		<path class="st14" d="M175.3,161.2h-0.9c-0.3,0-0.6-0.3-0.6-0.6s0.3-0.6,0.6-0.6h0.9c0.3,0,0.6,0.3,0.6,0.6
			S175.6,161.2,175.3,161.2z M170,161.2h-3.5c-0.3,0-0.6-0.3-0.6-0.6s0.3-0.6,0.6-0.6h3.5c0.3,0,0.6,0.3,0.6,0.6
			S170.4,161.2,170,161.2z M164.7,161.2h-4.4c-0.3,0-0.6-0.3-0.6-0.6s0.3-0.6,0.6-0.6h4.4c0.3,0,0.6,0.3,0.6,0.6
			S165.1,161.2,164.7,161.2z M156.8,161.2h-1.8c-0.3,0-0.6-0.3-0.6-0.6s0.3-0.6,0.6-0.6h1.8c0.3,0,0.6,0.3,0.6,0.6
			S157.2,161.2,156.8,161.2z"/>
	</g>
	<g>
		<path class="st13" d="M176.8,178.8h-0.3c0,0-0.1,0-0.1,0c0,0-0.1,0-0.1,0h-4.6c-0.3,0-0.6-0.3-0.6-0.6c0-0.3,0.3-0.6,0.6-0.6h4.6
			c0,0,0.1,0,0.1,0c0,0,0.1,0,0.1,0h0.3c0.3,0,0.6,0.3,0.6,0.6C177.4,178.6,177.1,178.8,176.8,178.8z M168.2,178.8h-0.3
			c-0.3,0-0.6-0.3-0.6-0.6c0-0.3,0.3-0.6,0.6-0.6h0.3c0.3,0,0.6,0.3,0.6,0.6C168.8,178.6,168.5,178.8,168.2,178.8z M163.3,178.8
			h-3.4c0,0-0.1,0-0.1,0c0,0-0.1,0-0.1,0H155c-0.3,0-0.6-0.3-0.6-0.6c0-0.3,0.3-0.6,0.6-0.6h4.6c0,0,0.1,0,0.1,0c0,0,0.1,0,0.1,0
			h3.4c0.3,0,0.6,0.3,0.6,0.6C163.9,178.6,163.6,178.8,163.3,178.8z M151.6,178.8h-0.3c-0.3,0-0.6-0.3-0.6-0.6
			c0-0.3,0.3-0.6,0.6-0.6h0.3c0.3,0,0.6,0.3,0.6,0.6C152.2,178.6,151.9,178.8,151.6,178.8z"/>
	</g>
	<g>
		<path class="st14" d="M170.4,163.7h-0.9c-0.3,0-0.6-0.3-0.6-0.6s0.3-0.6,0.6-0.6h0.9c0.3,0,0.6,0.3,0.6,0.6
			S170.7,163.7,170.4,163.7z M165.2,163.7h-3.5c-0.3,0-0.6-0.3-0.6-0.6s0.3-0.6,0.6-0.6h3.5c0.3,0,0.6,0.3,0.6,0.6
			S165.5,163.7,165.2,163.7z M159.9,163.7h-4.4c-0.3,0-0.6-0.3-0.6-0.6s0.3-0.6,0.6-0.6h4.4c0.3,0,0.6,0.3,0.6,0.6
			S160.2,163.7,159.9,163.7z M152,163.7h-1.8c-0.3,0-0.6-0.3-0.6-0.6s0.3-0.6,0.6-0.6h1.8c0.3,0,0.6,0.3,0.6,0.6
			S152.3,163.7,152,163.7z"/>
	</g>
</g>
<g>
	<path class="st15" d="M85.9,184.2c-0.1-0.1-0.2-0.1-0.3-0.2c-0.2,0.2-0.4,0.3-0.6,0.5c0.7,0.5,1.4,1,2,1.5c0.2-0.2,0.4-0.4,0.6-0.6
		C87,184.9,86.5,184.5,85.9,184.2z"/>
	<path class="st14" d="M87.6,185.3c-0.2,0.2-0.4,0.4-0.6,0.6c0.4,0.3,0.8,0.6,1.2,0.9c0.3-0.2,0.5-0.3,0.8-0.5
		C88.5,185.9,88,185.6,87.6,185.3z"/>
	<path class="st14" d="M92.2,189.9c0.2-0.2,0.4-0.4,0.6-0.6c-0.7-0.5-1.4-1.1-2.1-1.6c-0.2,0.2-0.4,0.3-0.7,0.5
		C90.8,188.8,91.5,189.4,92.2,189.9z"/>
	<path class="st15" d="M88.2,186.8c0.7,0.5,1.3,1,1.8,1.4c0.2-0.2,0.4-0.3,0.7-0.5c-0.6-0.5-1.2-0.9-1.7-1.4
		C88.7,186.5,88.4,186.6,88.2,186.8z"/>
	<path class="st14" d="M82.7,182.8c0.8,0.6,1.5,1.1,2.3,1.6c0.2-0.2,0.4-0.3,0.6-0.5c-0.8-0.5-1.5-1-2.3-1.6
		C83.1,182.5,82.9,182.6,82.7,182.8z"/>
	<path class="st14" d="M89.5,180.6c-1.2,1.2-2.6,2.3-3.9,3.3c0.1,0.1,0.2,0.1,0.3,0.2c0.6,0.3,1.1,0.7,1.7,1.1c1-1,2.1-2.1,3.1-3.1
		C90.3,181.7,89.9,181.2,89.5,180.6z"/>
	<path class="st13" d="M90.7,182.2c-1,1-2.1,2.1-3.1,3.1c0.4,0.3,0.9,0.7,1.3,1c1.1-0.7,2.1-1.5,3.1-2.3
		C91.6,183.4,91.1,182.8,90.7,182.2z"/>
	<path class="st13" d="M92.8,189.3c0.7-0.6,1.4-1.2,2-1.8c-0.5-0.5-1-1.2-1.5-1.9c-0.8,0.7-1.7,1.4-2.6,2.1
		C91.4,188.2,92.1,188.7,92.8,189.3z"/>
	<path class="st14" d="M88.9,186.3c0.6,0.4,1.2,0.9,1.7,1.4c0.9-0.7,1.7-1.3,2.6-2.1c-0.4-0.5-0.8-1-1.2-1.6
		C91,184.8,90,185.6,88.9,186.3z"/>
	<path class="st13" d="M83.3,182.3c0.7,0.6,1.5,1.1,2.3,1.6c1.4-1.1,2.7-2.1,3.9-3.3c-0.6-0.8-1.2-1.6-1.8-2.5
		C86.3,179.6,85,181.1,83.3,182.3z"/>
	<path class="st12" d="M93.8,190c-0.3-0.2-0.7-0.5-1-0.7c-0.2,0.2-0.4,0.4-0.6,0.6c1.6,1.3,2.5,2.2,2.3,2.6c-0.6,1.2,0,2.4,0.5,3.1
		c0.3,0.4,0.8,0.4,1.1,0.1l2.2-2.2l2.2-2.2c0.3-0.3,0.3-0.8-0.1-1.1c0,0,0,0,0,0C98.2,191.2,95.7,191.4,93.8,190z"/>
	<path class="st11" d="M97.2,189.7c-0.3,0.2-1.2-0.7-2.5-2.2c-0.6,0.6-1.3,1.2-2,1.8c0.3,0.2,0.7,0.5,1,0.7c1.9,1.4,4.5,1.2,6.6,0.2
		C99.6,189.7,98.4,189.1,97.2,189.7z"/>
	<path class="st12" d="M75.4,173.7c-1.3-1.9-2.5-4.1-4.7-5.1c-1-0.6-1.9,1.3-2.3,1.1c-5.7-3.3-11-9.8-10.2-16.8
		c-0.1,0.1-0.2,0.2-0.3,0.3c-3.4,3.4-4.3,7-0.2,11.4c2.4,2.6,15.2,11.3,25,18.3c0.2-0.1,0.4-0.3,0.6-0.5
		C80.3,179.9,77.8,177,75.4,173.7z"/>
	<path class="st11" d="M87.7,178.1c-7-9.8-15.8-22.7-18.4-25.2c-4.3-4-7.8-3.3-11.1-0.1c-0.8,7,4.5,13.5,10.2,16.8
		c0.4,0.2,1.3-1.7,2.3-1.1c2.2,1,3.4,3.2,4.7,5.1c2.3,3.3,4.8,6.2,7.9,8.6C85,181.1,86.3,179.6,87.7,178.1z"/>
</g>
<g>
	<path class="st14" d="M245,188c-0.4,0.4-1.7-0.4-2.1-1.2c-0.4-1.2,1.1-2.6,0.6-3.3c-1-1.4-2.4-2.3-3.9-3.1l-4.4,9.8
		c0,0-3.8,3.2,5.1,2.5c3.7-0.3,6.2-3.1,7.8-6.5C246.9,185.3,245.9,187.1,245,188z"/>
	<path class="st13" d="M250.7,174c-0.4-2.8-3.9-3.8-5.4-3.8s-1.5,0.6-1.5,0.6l-4.2,9.4c1.5,0.8,2.9,1.7,3.9,3.1
		c0.6,0.7-1,2.1-0.6,3.3c0.4,0.8,1.7,1.7,2.1,1.2c0.9-0.9,1.9-2.7,3.1-1.9C250.4,181.4,250.9,175.6,250.7,174z"/>
	<path class="st14" d="M208.6,171.2c-0.2,0.7-0.4,1.4-0.6,2.1c1,0.3,2,0.7,3,1c0.2-0.7,0.4-1.4,0.7-2
		C210.7,171.9,209.7,171.6,208.6,171.2z"/>
	<path class="st11" d="M210.6,181c-0.4-2.1-0.2-4.5,0.5-6.7c-1-0.3-2-0.7-3-1c-0.6,2.7-1,5.4-0.9,7.8C208.3,181,209.4,181,210.6,181
		z"/>
	<path class="st14" d="M207.1,181.2c0,0.5,0,1,0.1,1.5c1.2-0.1,2.5-0.1,3.7-0.1c-0.2-0.5-0.3-1-0.4-1.5
		C209.4,181,208.3,181,207.1,181.2z"/>
	<path class="st11" d="M207.2,182.7c0.4,3.3,1.8,5.7,4.7,6.2c2.1,0.4,4.1,0.6,6,0.7c0.1-0.8,0-1.7-0.5-2.4c-1.4-2.1-5.1-1.4-5.8-3.1
		c-0.2-0.5-0.4-1-0.6-1.6C209.7,182.5,208.4,182.6,207.2,182.7z"/>
	<path class="st11" d="M214.4,168.1c-1.3-0.6-2.7-1.2-4-1.8c-0.6,1.5-1.2,3.2-1.7,4.9c1.1,0.3,2.1,0.7,3.1,1.1
		C212.4,170.8,213.3,169.4,214.4,168.1z"/>
	<path class="st14" d="M215.6,166.8c-1.5-0.7-3-1.4-4.5-2.1c-0.2,0.5-0.5,1-0.7,1.6c1.3,0.6,2.7,1.2,4,1.8
		C214.8,167.7,215.2,167.2,215.6,166.8z"/>
	<path class="st11" d="M219.7,164.1c1.5-0.7,1.9-2.3,1.5-4c-2-0.8-4-1.4-5.5-1.2c-1.3,0.1-3.1,2.5-4.7,5.8c1.5,0.6,3,1.4,4.5,2.1
		C216.8,165.7,218.2,164.8,219.7,164.1z"/>
	<path class="st13" d="M228.7,165.5c1,1.2,3.5,2.4,3.9,0.7c1-4-3.6-6.1-7.3-6.8c0.7,1.5,3.1,3.5,5.2,5.7c0,0-2.1-1.4-4.8-2.8
		C226.9,163.2,227.9,164.2,228.7,165.5z"/>
	<path class="st13" d="M231,172.1c-5.9,1.4-7.7,8.8-6.2,14.4c-0.1-3.2,1.4-6.4,3.5-9.2c2.1-2.9,5.7-3.5,8.5-5.3
		c1.2-0.8,1.6-2,1.7-3.4C236.7,170.4,233.7,171.5,231,172.1z"/>
	<path class="st13" d="M221.2,169c-2-0.5-3.8-1.3-5.6-2.2c-0.4,0.4-0.8,0.8-1.2,1.3c1.9,0.8,3.8,1.6,5.8,2.3
		c0.8,0.3,2.1,0.6,2.4-0.4C222.5,169.6,221.8,169.1,221.2,169z"/>
	<path class="st13" d="M221.2,184.3c0.3-0.1-0.3-1-0.7-1.1c-3.3-1.3-6.6-2.1-10-2.1c0.1,0.5,0.2,1,0.4,1.5c2.1,0.1,4.2,0.4,6.2,1
		C218.6,184,220,184.5,221.2,184.3z"/>
	<path class="st12" d="M236.1,161.9c-1.4-1.7-3.2-2.9-5.3-3.5c-1.9-0.6-3.8,0.2-5.7,0.4c0,0.2,0.1,0.4,0.2,0.6
		c3.7,0.7,8.3,2.8,7.3,6.8c-0.4,1.7-2.9,0.6-3.9-0.7c-0.8-1.3-1.9-2.4-3-3.2c-1.4-0.8-3-1.5-4.5-2.1c0.3,1.6,0,3.3-1.5,4
		c-1.5,0.6-2.9,1.6-4.1,2.7c1.8,0.8,3.7,1.7,5.6,2.2c0.6,0.1,1.2,0.6,1.2,1c-0.3,1-1.5,0.7-2.4,0.4c-2-0.6-3.9-1.4-5.8-2.3
		c-1.1,1.3-1.9,2.7-2.6,4.2c3.1,1.2,6,2.7,8.9,4.6c0.1,0.1,0.3,0.6,0,0.7c-0.7,0.3-1.4,0.1-2.1-0.1c-2.4-1.3-5-2.2-7.6-3.1
		c-0.7,2.2-0.8,4.5-0.5,6.7c3.4,0.1,6.7,0.8,10,2.1c0.4,0.1,1,1,0.7,1.1c-1.2,0.3-2.6-0.3-4.2-0.7c-2-0.7-4.1-1-6.2-1
		c0.2,0.5,0.4,1.1,0.6,1.6c0.7,1.7,4.4,1,5.8,3.1c0.5,0.8,0.6,1.6,0.5,2.4c2.8,0.2,5.4,0.2,7.7,0.1c-0.1-0.2-0.3-0.5-0.3-0.8
		c-0.3-0.9-0.4-1.7-0.5-2.6c-1.5-5.6,0.3-13,6.2-14.4c2.8-0.6,5.8-1.6,7.5-3.6C238.5,166.2,237.4,163.6,236.1,161.9z"/>
	<path class="st13" d="M220.7,177.6c0.3-0.1,0.1-0.6,0-0.7c-2.9-1.9-5.8-3.4-8.9-4.6c-0.3,0.7-0.5,1.3-0.7,2
		c2.6,0.9,5.1,1.8,7.6,3.1C219.3,177.7,220,177.9,220.7,177.6z"/>
	<path class="st12" d="M244.4,174c-1.2-0.7-2.8-0.1-3.2,1.1c-2.1,5.6-5,10.1-10.3,13.3c-0.6,0.3-1.2,0.7-1.6,1.2
		c2.5,0,4.5,0,5.8,0.5c2.9,1,12.2-6.8,10.9-14.6C245.7,174.8,245.1,174.3,244.4,174z"/>
	<path class="st11" d="M242,169.1c0,0,2.7-12.1-9.6-12.3c-5.6-0.1-7.4,0.7-7.3,2c1.9-0.2,3.8-1,5.7-0.4c2.1,0.6,3.9,1.8,5.3,3.5
		c2.1,2.6,3.7,7.9,0.7,10c-2.8,1.8-6.4,2.4-8.5,5.3c-2.6,3.6-4.4,7.8-3.1,11.8c0.1,0.3,0.2,0.5,0.3,0.8c1.4,0,2.6-0.1,3.8-0.1
		c0.4-0.5,1-0.9,1.6-1.2c5.3-3.2,8.2-7.8,10.3-13.3c0.4-1.2,1.9-1.8,3.2-1.1c0.7,0.3,1.3,0.8,1.6,1.5
		C245.7,173.3,244.5,171.1,242,169.1z"/>
</g>
<g>
	<g class="st16">
		<g>
			<path class="st17" d="M128.2,126.9c-31.9,0-23.2-37.5-42.4-38.5c-17.6-0.9-14.4,28.4-26.7,28.4l0.3,14.7l75.2-0.1l-0.6-4.6
				C132.1,126.8,130.2,126.9,128.2,126.9z"/>
		</g>
	</g>
	<g class="st18">
		<g>
			<path class="st19" d="M123.4,113.6c-8-8.9-18-10.1-28.1,2.2c-6.3,7.7-15.6,5.3-20.1-0.3c-2.9-3.6-7.6-9.3-15.9-9.3l0.1,25.2
				l75.2-0.1l-0.4-12.2C130.3,119.1,126.6,117.1,123.4,113.6z"/>
		</g>
	</g>
	<g class="st20">
		<g>
			<g>
				<path class="st21" d="M93.3,91.4l-0.1,40l9.8,0l-0.1-22.2C99.7,102.4,97.5,95.3,93.3,91.4z"/>
			</g>
		</g>
	</g>
	<g class="st22">
		<g>
			<path class="st23" d="M128.2,126.9c-15.3,0-21.3-8.7-25.5-17.8c-2.5,1.5-5,3.7-7.5,6.8c-6.3,7.7-15.6,5.3-20.1-0.3
				c-1.7-2.1-4-5-7.3-6.9c-2,4.5-4.4,8-8.5,8.1l0,14.7l75.2-0.1l-0.6-4.6C132.1,126.8,130.2,126.9,128.2,126.9z"/>
		</g>
	</g>
	<g>
		<g>
			<g>
				<path class="st0" d="M102.8,108.9L102.8,108.9c-0.2,0-0.3,0.1-0.3,0.3l0,0.6c0,0.2,0.1,0.3,0.3,0.3h0c0.2,0,0.3-0.1,0.3-0.3
					l0-0.6C103.1,109,103,108.9,102.8,108.9z"/>
			</g>
		</g>
		<g>
			<g>
				<path class="st0" d="M102.8,121.2L102.8,121.2c-0.2,0-0.3,0.1-0.3,0.3l0,1.3c0,0.2,0.1,0.3,0.3,0.3h0c0.2,0,0.3-0.1,0.3-0.3
					l0-1.3C103.1,121.3,103,121.2,102.8,121.2z"/>
			</g>
			<g>
				<path class="st0" d="M102.8,124.4L102.8,124.4c-0.2,0-0.3,0.1-0.3,0.3l0,1.3c0,0.2,0.1,0.3,0.3,0.3h0c0.2,0,0.3-0.1,0.3-0.3
					l0-1.3C103.1,124.5,103,124.4,102.8,124.4z"/>
			</g>
			<g>
				<path class="st0" d="M102.8,127.6L102.8,127.6c-0.2,0-0.3,0.1-0.3,0.3l0,1.3c0,0.2,0.1,0.3,0.3,0.3h0c0.2,0,0.3-0.1,0.3-0.3
					l0-1.3C103.1,127.8,103,127.6,102.8,127.6z"/>
			</g>
			<g>
				<path class="st0" d="M102.8,117.9L102.8,117.9c-0.2,0-0.3,0.1-0.3,0.3l0,1.3c0,0.2,0.1,0.3,0.3,0.3h0c0.2,0,0.3-0.1,0.3-0.3
					l0-1.3C103.1,118.1,103,117.9,102.8,117.9z"/>
			</g>
			<g>
				<path class="st0" d="M102.8,114.7L102.8,114.7c-0.2,0-0.3,0.1-0.3,0.3l0,1.3c0,0.2,0.1,0.3,0.3,0.3h0c0.2,0,0.3-0.1,0.3-0.3
					l0-1.3C103.1,114.8,103,114.7,102.8,114.7z"/>
			</g>
			<g>
				<path class="st0" d="M102.8,111.4L102.8,111.4c-0.2,0-0.3,0.1-0.3,0.3l0,1.3c0,0.2,0.1,0.3,0.3,0.3h0c0.2,0,0.3-0.1,0.3-0.3
					l0-1.3C103.1,111.6,103,111.4,102.8,111.4z"/>
			</g>
		</g>
		<g>
			<g>
				<path class="st0" d="M102.8,130.9L102.8,130.9c-0.2,0-0.3,0.1-0.3,0.3l0,0.6c0,0.2,0.1,0.3,0.3,0.3h0c0.2,0,0.3-0.1,0.3-0.3
					l0-0.6C103.1,131,103,130.9,102.8,130.9z"/>
			</g>
		</g>
	</g>
	<g>
		<g>
			<g>
				<path class="st0" d="M115.6,106.8L115.6,106.8c-0.2,0-0.3,0.1-0.3,0.3l0,0.6c0,0.2,0.1,0.3,0.3,0.3h0c0.2,0,0.3-0.1,0.3-0.3
					l0-0.6C115.9,106.9,115.7,106.8,115.6,106.8z"/>
			</g>
		</g>
		<g>
			<g>
				<path class="st0" d="M115.6,121.6L115.6,121.6c-0.2,0-0.3,0.1-0.3,0.3l0,1.2c0,0.2,0.1,0.3,0.3,0.3h0c0.2,0,0.3-0.1,0.3-0.3
					l0-1.2C115.9,121.7,115.7,121.6,115.6,121.6z"/>
			</g>
			<g>
				<path class="st0" d="M115.6,124.7L115.6,124.7c-0.2,0-0.3,0.1-0.3,0.3l0,1.2c0,0.2,0.1,0.3,0.3,0.3h0c0.2,0,0.3-0.1,0.3-0.3
					l0-1.2C115.9,124.8,115.7,124.7,115.6,124.7z"/>
			</g>
			<g>
				<path class="st0" d="M115.6,127.8L115.6,127.8c-0.2,0-0.3,0.1-0.3,0.3l0,1.2c0,0.2,0.1,0.3,0.3,0.3h0c0.2,0,0.3-0.1,0.3-0.3
					l0-1.2C115.9,127.9,115.7,127.8,115.6,127.8z"/>
			</g>
			<g>
				<path class="st0" d="M115.6,118.5L115.6,118.5c-0.2,0-0.3,0.1-0.3,0.3l0,1.2c0,0.2,0.1,0.3,0.3,0.3h0c0.2,0,0.3-0.1,0.3-0.3
					l0-1.2C115.9,118.7,115.7,118.5,115.6,118.5z"/>
			</g>
			<g>
				<path class="st0" d="M115.6,109.3L115.6,109.3c-0.2,0-0.3,0.1-0.3,0.3l0,1.2c0,0.2,0.1,0.3,0.3,0.3h0c0.2,0,0.3-0.1,0.3-0.3
					l0-1.2C115.9,109.4,115.7,109.3,115.6,109.3z"/>
			</g>
			<g>
				<path class="st0" d="M115.6,115.4L115.6,115.4c-0.2,0-0.3,0.1-0.3,0.3l0,1.2c0,0.2,0.1,0.3,0.3,0.3h0c0.2,0,0.3-0.1,0.3-0.3
					l0-1.2C115.9,115.6,115.7,115.4,115.6,115.4z"/>
			</g>
			<g>
				<path class="st0" d="M115.6,112.3L115.6,112.3c-0.2,0-0.3,0.1-0.3,0.3l0,1.2c0,0.2,0.1,0.3,0.3,0.3h0c0.2,0,0.3-0.1,0.3-0.3
					l0-1.2C115.9,112.5,115.7,112.3,115.6,112.3z"/>
			</g>
		</g>
		<g>
			<g>
				<path class="st0" d="M115.5,130.9L115.5,130.9c-0.2,0-0.3,0.1-0.3,0.3l0,0.6c0,0.2,0.1,0.3,0.3,0.3h0c0.2,0,0.3-0.1,0.3-0.3
					l0-0.6C115.9,131,115.7,130.9,115.5,130.9z"/>
			</g>
		</g>
	</g>
	<g>
		<g>
			<g>
				<path class="st0" d="M93.2,91.7L93.2,91.7c-0.2,0-0.3,0.1-0.3,0.3l0,0.6c0,0.2,0.1,0.3,0.3,0.3h0c0.2,0,0.3-0.1,0.3-0.3l0-0.6
					C93.5,91.9,93.4,91.7,93.2,91.7z"/>
			</g>
		</g>
		<g>
			<g>
				<path class="st0" d="M93.2,114L93.2,114c-0.2,0-0.3,0.1-0.3,0.3l0,1.3c0,0.2,0.1,0.3,0.3,0.3h0c0.2,0,0.3-0.1,0.3-0.3l0-1.3
					C93.5,114.1,93.4,114,93.2,114z"/>
			</g>
			<g>
				<path class="st0" d="M93.2,117.2L93.2,117.2c-0.2,0-0.3,0.1-0.3,0.3l0,1.3c0,0.2,0.1,0.3,0.3,0.3h0c0.2,0,0.3-0.1,0.3-0.3l0-1.3
					C93.5,117.4,93.4,117.2,93.2,117.2z"/>
			</g>
			<g>
				<path class="st0" d="M93.2,120.5L93.2,120.5c-0.2,0-0.3,0.1-0.3,0.3l0,1.3c0,0.2,0.1,0.3,0.3,0.3h0c0.2,0,0.3-0.1,0.3-0.3l0-1.3
					C93.5,120.7,93.4,120.5,93.2,120.5z"/>
			</g>
			<g>
				<path class="st0" d="M93.2,110.7L93.2,110.7c-0.2,0-0.3,0.1-0.3,0.3l0,1.3c0,0.2,0.1,0.3,0.3,0.3h0c0.2,0,0.3-0.1,0.3-0.3l0-1.3
					C93.5,110.8,93.4,110.7,93.2,110.7z"/>
			</g>
			<g>
				<path class="st0" d="M93.2,123.8L93.2,123.8c-0.2,0-0.3,0.1-0.3,0.3l0,1.3c0,0.2,0.1,0.3,0.3,0.3h0c0.2,0,0.3-0.1,0.3-0.3l0-1.3
					C93.5,123.9,93.4,123.8,93.2,123.8z"/>
			</g>
			<g>
				<path class="st0" d="M93.2,127.1L93.2,127.1c-0.2,0-0.3,0.1-0.3,0.3l0,1.3c0,0.2,0.1,0.3,0.3,0.3h0c0.2,0,0.3-0.1,0.3-0.3l0-1.3
					C93.5,127.2,93.3,127.1,93.2,127.1z"/>
			</g>
			<g>
				<path class="st0" d="M93.2,94.3L93.2,94.3c-0.2,0-0.3,0.1-0.3,0.3l0,1.3c0,0.2,0.1,0.3,0.3,0.3h0c0.2,0,0.3-0.1,0.3-0.3l0-1.3
					C93.5,94.5,93.4,94.3,93.2,94.3z"/>
			</g>
			<g>
				<path class="st0" d="M93.2,97.6L93.2,97.6c-0.2,0-0.3,0.1-0.3,0.3l0,1.3c0,0.2,0.1,0.3,0.3,0.3h0c0.2,0,0.3-0.1,0.3-0.3l0-1.3
					C93.5,97.8,93.4,97.6,93.2,97.6z"/>
			</g>
			<g>
				<path class="st0" d="M93.2,100.9L93.2,100.9c-0.2,0-0.3,0.1-0.3,0.3l0,1.3c0,0.2,0.1,0.3,0.3,0.3h0c0.2,0,0.3-0.1,0.3-0.3l0-1.3
					C93.5,101,93.4,100.9,93.2,100.9z"/>
			</g>
			<g>
				<path class="st0" d="M93.2,104.2L93.2,104.2c-0.2,0-0.3,0.1-0.3,0.3l0,1.3c0,0.2,0.1,0.3,0.3,0.3h0c0.2,0,0.3-0.1,0.3-0.3l0-1.3
					C93.5,104.3,93.4,104.2,93.2,104.2z"/>
			</g>
			<g>
				<path class="st0" d="M93.2,107.4L93.2,107.4c-0.2,0-0.3,0.1-0.3,0.3l0,1.3c0,0.2,0.1,0.3,0.3,0.3h0c0.2,0,0.3-0.1,0.3-0.3l0-1.3
					C93.5,107.6,93.4,107.4,93.2,107.4z"/>
			</g>
		</g>
		<g>
			<g>
				<path class="st0" d="M93.2,130.3L93.2,130.3c-0.2,0-0.3,0.1-0.3,0.3l0,0.6c0,0.2,0.1,0.3,0.3,0.3h0c0.2,0,0.3-0.1,0.3-0.3l0-0.6
					C93.5,130.5,93.3,130.3,93.2,130.3z"/>
			</g>
		</g>
	</g>
	<g>
		<g>
			<g>
				<path class="st0" d="M67.9,108.9L67.9,108.9c-0.2,0-0.3,0.1-0.3,0.3l0,0.6c0,0.2,0.1,0.3,0.3,0.3h0c0.2,0,0.3-0.1,0.3-0.3l0-0.6
					C68.2,109,68.1,108.9,67.9,108.9z"/>
			</g>
		</g>
		<g>
			<g>
				<path class="st0" d="M67.9,127.6L67.9,127.6c-0.2,0-0.3,0.1-0.3,0.3l0,1.3c0,0.2,0.1,0.3,0.3,0.3h0c0.2,0,0.3-0.1,0.3-0.3l0-1.3
					C68.2,127.7,68.1,127.6,67.9,127.6z"/>
			</g>
			<g>
				<path class="st0" d="M67.9,124.4L67.9,124.4c-0.2,0-0.3,0.1-0.3,0.3l0,1.3c0,0.2,0.1,0.3,0.3,0.3h0c0.2,0,0.3-0.1,0.3-0.3l0-1.3
					C68.2,124.5,68.1,124.4,67.9,124.4z"/>
			</g>
			<g>
				<path class="st0" d="M67.9,121.1L67.9,121.1c-0.2,0-0.3,0.1-0.3,0.3l0,1.3c0,0.2,0.1,0.3,0.3,0.3h0c0.2,0,0.3-0.1,0.3-0.3l0-1.3
					C68.2,121.3,68.1,121.1,67.9,121.1z"/>
			</g>
			<g>
				<path class="st0" d="M67.9,114.7L67.9,114.7c-0.2,0-0.3,0.1-0.3,0.3l0,1.3c0,0.2,0.1,0.3,0.3,0.3h0c0.2,0,0.3-0.1,0.3-0.3l0-1.3
					C68.2,114.8,68.1,114.7,67.9,114.7z"/>
			</g>
			<g>
				<path class="st0" d="M67.9,117.9L67.9,117.9c-0.2,0-0.3,0.1-0.3,0.3l0,1.3c0,0.2,0.1,0.3,0.3,0.3h0c0.2,0,0.3-0.1,0.3-0.3l0-1.3
					C68.2,118,68.1,117.9,67.9,117.9z"/>
			</g>
			<g>
				<path class="st0" d="M67.9,111.4L67.9,111.4c-0.2,0-0.3,0.1-0.3,0.3l0,1.3c0,0.2,0.1,0.3,0.3,0.3h0c0.2,0,0.3-0.1,0.3-0.3l0-1.3
					C68.2,111.6,68.1,111.4,67.9,111.4z"/>
			</g>
		</g>
		<g>
			<g>
				<path class="st0" d="M67.9,130.8L67.9,130.8c-0.2,0-0.3,0.1-0.3,0.3l0,0.6c0,0.2,0.1,0.3,0.3,0.3h0c0.2,0,0.3-0.1,0.3-0.3l0-0.6
					C68.2,131,68.1,130.8,67.9,130.8z"/>
			</g>
		</g>
	</g>
	<g>
		<g>
			<path class="st24" d="M128.2,126.4c-4.9,0-8.9-0.9-12.4-2.6l-0.4,0.8c3.6,1.8,7.8,2.7,12.8,2.7c0,0,0,0,0,0c2,0,3.9-0.1,5.7-0.2
				l-0.1-0.8C132.1,126.4,130.2,126.4,128.2,126.4z"/>
		</g>
	</g>
	<g>
		<g>
			<path class="st24" d="M101,104.1c-3.4-8.1-6.6-15.7-15.2-16.1c-9.9-0.5-13.5,8.4-16.6,16.2c-2.5,6.3-4.9,12.2-10.2,12.2
				c0,0,0,0,0,0l0,0.8c0,0,0,0,0,0c5.9,0,8.3-6.2,11-12.8c3.2-7.9,6.4-16.1,15.8-15.6c8.1,0.4,11,7.4,14.4,15.6
				c3.1,7.5,6.7,16,15.1,20.2l0.4-0.8C107.6,119.7,104.1,111.4,101,104.1z"/>
		</g>
	</g>
	<g>
		<g>
			<path class="st25" d="M123.6,113.4c-6.6-7.3-13.9-8.9-21-4.6l0.3,0.6c8.7-5.2,15.8-0.4,20.2,4.5c3.2,3.6,7.1,5.6,11,5.6l0-0.7
				C130.5,118.7,126.7,116.8,123.6,113.4z"/>
		</g>
	</g>
	<g>
		<g>
			<path class="st0" d="M95,115.6c-0.7,0.8-1.4,1.5-2.1,2.1l0.4,0.5c0.8-0.6,1.5-1.4,2.2-2.2c2.4-3,4.9-5.2,7.4-6.7l-0.3-0.6
				C100,110.3,97.5,112.6,95,115.6z"/>
		</g>
	</g>
	<g>
		<g>
			<path class="st25" d="M84.3,120.3c-3.4-0.4-6.7-2.2-8.9-5c-2.6-3.3-7.5-9.4-16.1-9.4l0,0.7c8.3,0,13,6,15.6,9.2
				c2.3,2.9,5.8,4.9,9.3,5.2c0.4,0,0.9,0.1,1.3,0.1c2.8,0,5.4-1,7.7-2.8l-0.4-0.5C90.4,119.8,87.4,120.7,84.3,120.3z"/>
		</g>
	</g>
	<g>
		<g>
			<g>
				<polygon class="st26" points="59.9,83.7 58.9,83.6 58.9,131.9 134.4,132 134.4,130.9 59.9,130.9 				"/>
			</g>
		</g>
		<g>
			<g>
				<g>
					<polygon class="st26" points="57.7,84.9 59.4,83.9 61.1,84.9 59.4,80.7 					"/>
				</g>
			</g>
		</g>
		<g>
			<g>
				<g>
					<polygon class="st26" points="134.2,131.4 133.2,133.2 137.4,131.4 133.2,129.7 					"/>
				</g>
			</g>
		</g>
	</g>
	<g>
		<g>
			<circle class="st0" cx="67.9" cy="108.6" r="1.1"/>
		</g>
		<g>
			<path class="st27" d="M67.9,107.2c-0.8,0-1.4,0.6-1.4,1.4c0,0.4,0.1,0.7,0.4,1c0.3,0.3,0.6,0.4,1,0.4h0c0.8,0,1.4-0.6,1.4-1.4
				c0-0.4-0.1-0.7-0.4-1C68.7,107.3,68.3,107.2,67.9,107.2z M67.9,109.4v0.3V109.4c-0.2,0-0.4-0.1-0.6-0.2c-0.1-0.1-0.2-0.3-0.2-0.6
				c0-0.4,0.4-0.8,0.8-0.8c0.2,0,0.4,0.1,0.6,0.2c0.1,0.1,0.2,0.3,0.2,0.6C68.7,109,68.4,109.4,67.9,109.4z"/>
		</g>
	</g>
	<g>
		<g>
			<circle class="st0" cx="59.5" cy="106.3" r="1.1"/>
		</g>
		<g>
			<path class="st27" d="M59.5,104.9c-0.8,0-1.4,0.6-1.4,1.4c0,0.8,0.6,1.4,1.4,1.4h0c0.8,0,1.4-0.6,1.4-1.4
				C60.9,105.6,60.3,104.9,59.5,104.9z M59.5,107.1v0.3V107.1c-0.4,0-0.8-0.4-0.8-0.8c0-0.4,0.4-0.8,0.8-0.8c0.4,0,0.8,0.4,0.8,0.8
				C60.3,106.8,59.9,107.1,59.5,107.1z"/>
		</g>
	</g>
	<g>
		<g>
			<circle class="st0" cx="102.8" cy="109.2" r="1.1"/>
		</g>
		<g>
			<path class="st27" d="M102.8,107.8c-0.8,0-1.4,0.6-1.4,1.4c0,0.4,0.1,0.7,0.4,1c0.3,0.3,0.6,0.4,1,0.4h0c0.8,0,1.4-0.6,1.4-1.4
				c0-0.4-0.1-0.7-0.4-1C103.5,107.9,103.2,107.8,102.8,107.8z M102.8,110v0.3V110c-0.2,0-0.4-0.1-0.6-0.2c-0.1-0.1-0.2-0.3-0.2-0.6
				c0-0.4,0.4-0.8,0.8-0.8c0.4,0,0.8,0.4,0.8,0.8C103.6,109.6,103.2,110,102.8,110z"/>
		</g>
	</g>
	<g>
		<g>
			<circle class="st24" cx="93.3" cy="91.3" r="1.1"/>
		</g>
	</g>
	<g>
		<g>
			<circle class="st27" cx="115.7" cy="107.7" r="1.1"/>
		</g>
	</g>
	<g>
		<g>
			<circle class="st24" cx="72.4" cy="97.9" r="1.1"/>
		</g>
	</g>
	<g>
		<g>
			<circle class="st21" cx="68" cy="131.4" r="1.1"/>
		</g>
	</g>
	<g>
		<g>
			<circle class="st21" cx="102.9" cy="131.5" r="1.1"/>
		</g>
	</g>
	<g>
		<g>
			<circle class="st21" cx="115.7" cy="131.5" r="1.1"/>
		</g>
	</g>
	<g>
		<g>
			<circle class="st21" cx="93.2" cy="131.5" r="1.1"/>
		</g>
	</g>
	<g>
		<g>
			<circle class="st0" cx="59.5" cy="116.7" r="1.1"/>
		</g>
		<g>
			<path class="st24" d="M59.5,115.3c-0.8,0-1.4,0.6-1.4,1.4c0,0.8,0.6,1.4,1.4,1.4h0c0.8,0,1.4-0.6,1.4-1.4c0-0.4-0.1-0.7-0.4-1
				C60.3,115.4,59.9,115.3,59.5,115.3z M59.5,117.5v0.3V117.5c-0.4,0-0.8-0.4-0.8-0.8c0-0.4,0.4-0.8,0.8-0.8c0.4,0,0.8,0.4,0.8,0.8
				C60.3,117.1,60,117.5,59.5,117.5z"/>
		</g>
	</g>
	<g>
		<g>
			<g>
				<polygon class="st24" points="95.1,84.9 94.9,89.3 99.2,89.5 98.2,86.9 				"/>
			</g>
		</g>
		<g>
			<g>
				<g>
					<path class="st0" d="M99.2,81.5c-2.1,0-3.8,1.7-3.8,3.8c0,1,0.4,2,1.1,2.7c0.7,0.7,1.7,1.1,2.7,1.1h0c2.1,0,3.8-1.7,3.8-3.8
						c0-1-0.4-2-1.1-2.7C101.2,81.9,100.2,81.5,99.2,81.5z"/>
				</g>
			</g>
			<g>
				<g>
					<g>
						<path class="st24" d="M99.2,81.1L99.2,81.1L99.2,81.1L99.2,81.1c-2.3,0-4.2,1.9-4.2,4.2c0,1.1,0.4,2.2,1.2,3
							c0.8,0.8,1.8,1.2,3,1.2c2.3,0,4.2-1.9,4.2-4.2c0-1.1-0.4-2.2-1.2-3C101.4,81.5,100.4,81.1,99.2,81.1z M99.2,88.7
							C99.2,88.7,99.2,88.7,99.2,88.7c-1.9,0-3.4-1.5-3.4-3.4c0-1.9,1.5-3.4,3.4-3.4c0,0,0,0,0,0c1.9,0,3.4,1.5,3.4,3.4
							C102.7,87.2,101.1,88.7,99.2,88.7z"/>
					</g>
				</g>
			</g>
		</g>
	</g>
	<g>
		<g>
			<g>
				<polygon class="st27" points="117.4,101.9 117.2,106.3 121.5,106.5 120.5,103.9 				"/>
			</g>
		</g>
		<g>
			<g>
				<g>
					<path class="st0" d="M121.5,98.5c-2.1,0-3.8,1.7-3.8,3.8c0,2.1,1.7,3.8,3.8,3.8h0c2.1,0,3.8-1.7,3.8-3.8c0-1-0.4-2-1.1-2.7
						S122.5,98.5,121.5,98.5z"/>
				</g>
			</g>
			<g>
				<g>
					<g>
						<path class="st27" d="M121.5,98.1L121.5,98.1L121.5,98.1L121.5,98.1c-2.3,0-4.2,1.9-4.2,4.2c0,1.1,0.4,2.2,1.2,3
							c0.8,0.8,1.8,1.2,3,1.2c2.3,0,4.2-1.9,4.2-4.2C125.7,100,123.8,98.1,121.5,98.1z M121.5,105.7
							C121.5,105.7,121.5,105.7,121.5,105.7c-1.9,0-3.4-1.5-3.4-3.4c0-1.9,1.5-3.4,3.4-3.4c0,0,0,0,0,0c1.9,0,3.4,1.5,3.4,3.4
							C124.9,104.2,123.4,105.7,121.5,105.7z"/>
					</g>
				</g>
			</g>
		</g>
	</g>
	<g>
		<g>
			<path class="st24" d="M99,85c0.1-0.1,0.2-0.3,0.2-0.5c0-0.1,0-0.2-0.1-0.3c0-0.1-0.1-0.2-0.2-0.2c-0.1-0.1-0.2-0.1-0.2-0.1
				c-0.1,0-0.2-0.1-0.3-0.1c-0.1,0-0.2,0-0.3,0.1c-0.1,0-0.2,0.1-0.2,0.1c-0.1,0.1-0.1,0.1-0.2,0.2c0,0.1-0.1,0.2-0.1,0.3
				c0,0.2,0.1,0.4,0.2,0.5c-0.1,0.1-0.2,0.2-0.2,0.3c-0.1,0.1-0.1,0.2-0.1,0.3c0,0.1,0,0.2,0.1,0.3c0,0.1,0.1,0.2,0.2,0.3
				c0.1,0.1,0.2,0.1,0.3,0.2c0.1,0,0.2,0.1,0.4,0.1c0.1,0,0.2,0,0.4-0.1c0.1,0,0.2-0.1,0.3-0.2c0.1-0.1,0.1-0.2,0.2-0.3
				c0-0.1,0.1-0.2,0.1-0.3C99.3,85.3,99.2,85.1,99,85z M98.3,84.4c0,0,0.1-0.1,0.2-0.1c0.1,0,0.1,0,0.2,0.1c0,0,0.1,0.1,0.1,0.2
				c0,0.1,0,0.1-0.1,0.2c0,0-0.1,0.1-0.2,0.1c0,0-0.1,0-0.1,0c0,0-0.1,0-0.1-0.1c0,0,0-0.1-0.1-0.1c0,0,0-0.1,0-0.1
				C98.2,84.5,98.2,84.4,98.3,84.4z M98.7,85.7c0,0,0,0.1-0.1,0.1c0,0-0.1,0.1-0.1,0.1c0,0-0.1,0-0.1,0c0,0-0.1,0-0.1,0
				c0,0-0.1,0-0.1-0.1c0,0-0.1-0.1-0.1-0.1c0,0,0-0.1,0-0.1c0,0,0-0.1,0-0.1c0,0,0-0.1,0.1-0.1c0,0,0.1-0.1,0.1-0.1c0,0,0.1,0,0.1,0
				c0.1,0,0.2,0,0.2,0.1c0.1,0.1,0.1,0.1,0.1,0.2C98.8,85.6,98.7,85.6,98.7,85.7z"/>
		</g>
		<g>
			<path class="st24" d="M100.9,85.8l-0.5,0c0.1-0.1,0.2-0.3,0.4-0.4c0.1-0.1,0.2-0.2,0.3-0.3c0.1-0.1,0.1-0.2,0.2-0.3
				c0-0.1,0.1-0.2,0.1-0.3c0-0.1,0-0.2-0.1-0.3c0-0.1-0.1-0.2-0.2-0.2c-0.1-0.1-0.1-0.1-0.2-0.2c-0.1,0-0.2-0.1-0.3-0.1
				c-0.1,0-0.2,0-0.4,0.1c-0.1,0.1-0.2,0.1-0.3,0.2c-0.1,0.1-0.1,0.1-0.1,0.2c0,0.1,0,0.2,0,0.2c0,0.1,0,0.2,0.1,0.2
				c0.1,0.1,0.1,0.1,0.2,0.1c0.1,0,0.1,0,0.2-0.1c0,0,0.1-0.1,0.1-0.2c0-0.1,0.1-0.1,0.1-0.2c0,0,0.1-0.1,0.1-0.1
				c0.1,0,0.1,0,0.1,0.1c0,0,0.1,0.1,0.1,0.2c0,0.1-0.1,0.2-0.2,0.4c-0.1,0.1-0.3,0.3-0.5,0.5c-0.1,0.1-0.2,0.3-0.3,0.4
				c-0.1,0.1-0.1,0.2-0.1,0.2c0,0.2,0.1,0.3,0.3,0.3l1,0c0.3,0,0.4-0.1,0.4-0.3C101.3,85.9,101.1,85.8,100.9,85.8z"/>
		</g>
	</g>
	<g>
		<g>
			<path class="st27" d="M121.2,102.4C121.2,102.4,121.2,102.4,121.2,102.4C121.2,102.4,121.2,102.4,121.2,102.4l-0.1-0.9
				c0-0.2,0-0.3-0.1-0.4c-0.1-0.1-0.2-0.1-0.3-0.1c-0.1,0-0.2,0-0.2,0.1c-0.1,0-0.1,0.1-0.2,0.2l-0.7,1.1c0,0.1-0.1,0.1-0.1,0.1
				c0,0,0,0.1,0,0.2c0,0.1,0,0.1,0.1,0.2c0.1,0,0.1,0.1,0.2,0.1l0.8,0l0,0.2c0,0.2,0.1,0.3,0.2,0.3c0.1,0,0.1,0,0.2-0.1
				c0-0.1,0.1-0.1,0.1-0.2l0-0.3l0.1,0c0.2,0,0.3-0.1,0.3-0.3c0-0.1,0-0.1-0.1-0.2C121.4,102.4,121.3,102.4,121.2,102.4z
				 M120.7,102.4l-0.6,0l0.6-0.9L120.7,102.4z"/>
		</g>
		<g>
			<path class="st27" d="M123.3,102.1c0.1-0.1,0.2-0.3,0.2-0.5c0-0.1,0-0.2-0.1-0.3c0-0.1-0.1-0.2-0.2-0.2c-0.1-0.1-0.2-0.1-0.2-0.1
				c-0.1,0-0.2-0.1-0.3-0.1c-0.1,0-0.2,0-0.3,0.1c-0.1,0-0.2,0.1-0.2,0.1c-0.1,0.1-0.1,0.1-0.2,0.2c0,0.1-0.1,0.2-0.1,0.3
				c0,0.2,0.1,0.4,0.2,0.5c-0.1,0.1-0.2,0.2-0.2,0.3c-0.1,0.1-0.1,0.2-0.1,0.3c0,0.1,0,0.2,0.1,0.3c0,0.1,0.1,0.2,0.2,0.3
				c0.1,0.1,0.2,0.1,0.3,0.2c0.1,0,0.2,0.1,0.4,0.1c0.1,0,0.2,0,0.4-0.1c0.1,0,0.2-0.1,0.3-0.2c0.1-0.1,0.1-0.2,0.2-0.3
				c0-0.1,0.1-0.2,0.1-0.3C123.6,102.4,123.5,102.2,123.3,102.1z M122.5,101.5c0,0,0.1-0.1,0.2-0.1c0.1,0,0.1,0,0.2,0.1
				c0,0,0.1,0.1,0.1,0.2c0,0.1,0,0.1-0.1,0.2c0,0-0.1,0.1-0.2,0.1c0,0-0.1,0-0.1,0c0,0-0.1,0-0.1-0.1c0,0,0-0.1-0.1-0.1
				c0,0,0-0.1,0-0.1C122.5,101.6,122.5,101.5,122.5,101.5z M123,102.8c0,0,0,0.1-0.1,0.1c0,0-0.1,0.1-0.1,0.1c0,0-0.1,0-0.1,0
				c0,0-0.1,0-0.1,0c0,0-0.1,0-0.1-0.1c0,0-0.1-0.1-0.1-0.1c0,0,0-0.1,0-0.1c0,0,0-0.1,0-0.1c0,0,0-0.1,0.1-0.1c0,0,0.1-0.1,0.1-0.1
				c0,0,0.1,0,0.1,0c0.1,0,0.2,0,0.2,0.1c0.1,0.1,0.1,0.1,0.1,0.2C123,102.7,123,102.7,123,102.8z"/>
		</g>
	</g>
	<g>
		<g>
			<g>
				<path class="st0" d="M93.3,116.6c-0.8,0-1.4,0.6-1.4,1.4c0,0.4,0.1,0.7,0.4,1c0.3,0.3,0.6,0.4,1,0.4h0c0.8,0,1.4-0.6,1.4-1.4
					c0-0.4-0.1-0.7-0.4-1C94,116.7,93.6,116.6,93.3,116.6z"/>
			</g>
		</g>
		<g>
			<g>
				<g>
					<path class="st27" d="M93.3,116.2L93.3,116.2L93.3,116.2L93.3,116.2c-1,0-1.7,0.8-1.7,1.7c0,1,0.8,1.7,1.7,1.7
						c1,0,1.7-0.8,1.7-1.7C95,117,94.2,116.2,93.3,116.2z M93.3,119.1L93.3,119.1c-0.6,0-1.1-0.5-1.1-1.1c0-0.6,0.5-1.1,1.1-1.1
						c0,0,0,0,0,0c0.6,0,1.1,0.5,1.1,1.1C94.4,118.6,93.9,119.1,93.3,119.1z"/>
				</g>
			</g>
		</g>
	</g>
	<g>
		<g>
			<g>
				<path class="st0" d="M115.6,122.7c-0.8,0-1.4,0.6-1.4,1.4c0,0.4,0.1,0.7,0.4,1c0.3,0.3,0.6,0.4,1,0.4h0c0.8,0,1.4-0.6,1.4-1.4
					c0-0.4-0.1-0.7-0.4-1C116.3,122.9,115.9,122.7,115.6,122.7z"/>
			</g>
		</g>
		<g>
			<g>
				<g>
					<path class="st24" d="M115.6,122.4L115.6,122.4L115.6,122.4L115.6,122.4c-1,0-1.7,0.8-1.7,1.7c0,0.5,0.2,0.9,0.5,1.2
						c0.3,0.3,0.8,0.5,1.2,0.5c1,0,1.7-0.8,1.7-1.7C117.3,123.2,116.5,122.4,115.6,122.4z M115.6,125.2L115.6,125.2
						c-0.6,0-1.1-0.5-1.1-1.1c0-0.6,0.5-1.1,1.1-1.1c0,0,0,0,0,0c0.6,0,1.1,0.5,1.1,1.1C116.7,124.7,116.2,125.2,115.6,125.2z"/>
				</g>
			</g>
		</g>
	</g>
</g>
<g>
	<g>
		<g>
			<g>
				<path class="st28" d="M208,96.6c-11.8,0-22.8,6.4-28.6,16.7l3.5,2c5.1-9,14.7-14.6,25-14.6c10.3,0,19.9,5.6,25,14.6l3.5-2
					C230.7,103,219.8,96.6,208,96.6z"/>
			</g>
		</g>
		<g>
			<g>
				<path class="st29" d="M195.4,111.4l3.2,4.4c2.8-2,6-3.1,9.4-3.1c3.2,0,6.3,0.9,9,2.7l3-4.5c-3.6-2.4-7.7-3.7-12-3.7
					C203.4,107.3,199.1,108.7,195.4,111.4z"/>
			</g>
		</g>
		<g>
			<g>
				<path class="st30" d="M226.7,107c-5.2-4.5-11.9-7-18.7-7c-6.9,0-13.5,2.5-18.7,6.9c-5.1,4.4-8.6,10.5-9.7,17.2l5.4,0.9
					c0.9-5.4,3.7-10.3,7.8-13.9c4.2-3.6,9.6-5.6,15.2-5.6c5.6,0,11,2,15.2,5.6c4.2,3.6,7,8.6,7.8,14l5.4-0.9
					C235.3,117.6,231.9,111.5,226.7,107z"/>
			</g>
		</g>
		<g>
			<g>
				<path class="st31" d="M208,104.5c-13.4,0-24.3,10.9-24.3,24.3c0,0.9,0,1.7,0.1,2.6l3.8-0.4c-0.1-0.7-0.1-1.4-0.1-2.2
					c0-11.3,9.2-20.5,20.5-20.5c11.3,0,20.5,9.2,20.5,20.5c0,0.7,0,1.4-0.1,2.1l3.8,0.4c0.1-0.8,0.1-1.7,0.1-2.5
					C232.3,115.4,221.4,104.5,208,104.5z"/>
			</g>
		</g>
		<g>
			<g>
				<path class="st32" d="M227.8,92.6l-12.5,19.6l0.7,0.4l12.4-19.4h24.3v-0.8h-24.5C228,92.4,227.9,92.5,227.8,92.6z"/>
			</g>
		</g>
		<g>
			<g>
				<path class="st32" d="M188.9,92.4h-23.4v0.8h23.1l5.2,8.2l0.7-0.4l-5.3-8.4C189.2,92.5,189,92.4,188.9,92.4z"/>
			</g>
		</g>
		<g>
			<g>
				<rect x="232.6" y="118.5" class="st32" width="20.1" height="0.8"/>
			</g>
		</g>
		<g>
			<g>
				<rect x="165.5" y="118.5" class="st32" width="21.9" height="0.8"/>
			</g>
		</g>
		<g>
			<g>
				<circle class="st0" cx="194.3" cy="101.4" r="0.9"/>
			</g>
		</g>
		<g>
			<g>
				<circle class="st0" cx="187.5" cy="119" r="0.9"/>
			</g>
		</g>
		<g>
			<g>
				<circle class="st0" cx="215.7" cy="112.4" r="0.9"/>
			</g>
		</g>
		<g>
			<g>
				<circle class="st0" cx="232.5" cy="118.9" r="0.9"/>
			</g>
		</g>
		<g>
			<g>
				<path class="st33" d="M203.5,120.9h-1.2c-0.3,0-0.5,0.1-0.5,0.3c0,0.2,0.2,0.3,0.5,0.3h0.3v2c0,0.3,0.1,0.5,0.4,0.5
					c0.2,0,0.4-0.2,0.4-0.5v-2h0.3c0.3,0,0.5-0.1,0.5-0.3C204,121.1,203.8,120.9,203.5,120.9z"/>
			</g>
			<g>
				<path class="st33" d="M206.6,121.3c-0.1-0.1-0.3-0.3-0.5-0.3c-0.2-0.1-0.4-0.1-0.6-0.1c-0.2,0-0.4,0-0.6,0.1
					c-0.2,0.1-0.3,0.2-0.5,0.3c-0.1,0.1-0.2,0.3-0.3,0.5c-0.1,0.2-0.1,0.4-0.1,0.7c0,0.2,0,0.5,0.1,0.7c0.1,0.2,0.2,0.4,0.3,0.5
					c0.1,0.1,0.3,0.3,0.5,0.3c0.2,0.1,0.4,0.1,0.6,0.1c0.2,0,0.4,0,0.6-0.1c0.2-0.1,0.3-0.2,0.5-0.3c0.1-0.1,0.2-0.3,0.3-0.5
					c0.1-0.2,0.1-0.4,0.1-0.7c0-0.2,0-0.5-0.1-0.7C206.9,121.6,206.8,121.4,206.6,121.3z M206.2,122.9c0,0.1-0.1,0.2-0.2,0.3
					c-0.1,0.1-0.1,0.1-0.2,0.2c-0.1,0-0.2,0.1-0.3,0.1c-0.1,0-0.2,0-0.3-0.1c-0.1,0-0.2-0.1-0.2-0.2c-0.1-0.1-0.1-0.2-0.2-0.3
					s-0.1-0.2-0.1-0.4c0-0.2,0-0.3,0.1-0.4c0-0.1,0.1-0.2,0.2-0.3c0.1-0.1,0.1-0.1,0.2-0.2c0.1,0,0.2-0.1,0.3-0.1
					c0.1,0,0.2,0,0.3,0.1c0.1,0,0.2,0.1,0.2,0.2c0.1,0.1,0.1,0.2,0.2,0.3c0,0.1,0.1,0.3,0.1,0.4
					C206.3,122.6,206.3,122.8,206.2,122.9z"/>
			</g>
			<g>
				<path class="st33" d="M208.8,120.9h-1.2c-0.3,0-0.5,0.1-0.5,0.3c0,0.2,0.2,0.3,0.5,0.3h0.3v2c0,0.3,0.1,0.5,0.4,0.5
					c0.2,0,0.4-0.2,0.4-0.5v-2h0.3c0.3,0,0.5-0.1,0.5-0.3C209.3,121.1,209.1,120.9,208.8,120.9z"/>
			</g>
			<g>
				<path class="st33" d="M210.9,121.3c-0.1-0.3-0.3-0.4-0.5-0.4c-0.1,0-0.2,0-0.3,0.1c-0.1,0.1-0.2,0.2-0.2,0.3l-0.8,2.2
					c0,0,0,0.1,0,0.1c0,0,0,0.1,0,0.1c0,0.1,0,0.2,0.1,0.2c0.1,0.1,0.1,0.1,0.2,0.1c0.2,0,0.3-0.1,0.3-0.3l0.1-0.3h1.1l0.1,0.3
					c0.1,0.2,0.2,0.3,0.4,0.3c0.1,0,0.2,0,0.2-0.1c0.1-0.1,0.1-0.1,0.1-0.2c0-0.1,0-0.1,0-0.2L210.9,121.3z M209.9,122.8l0.4-1.1
					l0.4,1.1H209.9z"/>
			</g>
			<g>
				<path class="st33" d="M213.3,123.4h-0.6v-2c0-0.3-0.1-0.5-0.4-0.5c-0.2,0-0.4,0.2-0.4,0.5v2.2c0,0.1,0,0.2,0,0.2
					c0,0.1,0,0.1,0.1,0.1c0,0,0.1,0.1,0.1,0.1c0.1,0,0.1,0,0.2,0h0.8c0.3,0,0.5-0.1,0.5-0.3C213.8,123.5,213.6,123.4,213.3,123.4z"
					/>
			</g>
		</g>
		<g>
			<g>
				<path class="st34" d="M167.4,88.9h-0.6c0.2-0.2,0.3-0.3,0.5-0.5c0.1-0.1,0.2-0.3,0.3-0.4c0.1-0.1,0.2-0.3,0.2-0.4
					s0.1-0.2,0.1-0.4c0-0.1,0-0.3-0.1-0.4c0-0.1-0.1-0.2-0.2-0.3c-0.1-0.1-0.2-0.1-0.3-0.2c-0.1,0-0.3-0.1-0.4-0.1
					c-0.2,0-0.3,0-0.5,0.1c-0.1,0.1-0.3,0.2-0.4,0.3c-0.1,0.1-0.1,0.2-0.2,0.3c0,0.1-0.1,0.2-0.1,0.3c0,0.1,0,0.2,0.1,0.3
					c0.1,0.1,0.1,0.1,0.2,0.1c0.1,0,0.2,0,0.2-0.1c0-0.1,0.1-0.1,0.1-0.3c0-0.1,0.1-0.2,0.1-0.2c0.1-0.1,0.1-0.1,0.2-0.1
					c0.1,0,0.1,0,0.2,0.1c0.1,0.1,0.1,0.1,0.1,0.2c0,0.1-0.1,0.3-0.2,0.5c-0.1,0.2-0.3,0.4-0.6,0.7c-0.2,0.2-0.3,0.3-0.4,0.5
					c-0.1,0.1-0.1,0.2-0.1,0.3c0,0.2,0.1,0.3,0.4,0.3h1.2c0.3,0,0.5-0.1,0.5-0.3C167.9,89,167.8,88.9,167.4,88.9z"/>
			</g>
			<g>
				<path class="st34" d="M169.7,88.9H169c0.2-0.2,0.3-0.3,0.5-0.5c0.1-0.1,0.2-0.3,0.3-0.4c0.1-0.1,0.2-0.3,0.2-0.4
					c0-0.1,0.1-0.2,0.1-0.4c0-0.1,0-0.3-0.1-0.4c0-0.1-0.1-0.2-0.2-0.3c-0.1-0.1-0.2-0.1-0.3-0.2c-0.1,0-0.3-0.1-0.4-0.1
					c-0.2,0-0.3,0-0.5,0.1c-0.1,0.1-0.3,0.2-0.4,0.3c-0.1,0.1-0.1,0.2-0.2,0.3c0,0.1-0.1,0.2-0.1,0.3c0,0.1,0,0.2,0.1,0.3
					c0.1,0.1,0.1,0.1,0.2,0.1c0.1,0,0.2,0,0.2-0.1c0-0.1,0.1-0.1,0.1-0.3c0-0.1,0.1-0.2,0.1-0.2s0.1-0.1,0.2-0.1
					c0.1,0,0.1,0,0.2,0.1c0.1,0.1,0.1,0.1,0.1,0.2c0,0.1-0.1,0.3-0.2,0.5c-0.1,0.2-0.3,0.4-0.6,0.7c-0.2,0.2-0.3,0.3-0.4,0.5
					c-0.1,0.1-0.1,0.2-0.1,0.3c0,0.2,0.1,0.3,0.4,0.3h1.2c0.3,0,0.5-0.1,0.5-0.3C170.2,89,170,88.9,169.7,88.9z"/>
			</g>
			<g>
				<path class="st34" d="M170.8,88.8c-0.1,0-0.2,0-0.3,0.1c-0.1,0.1-0.1,0.2-0.1,0.3c0,0.1,0,0.2,0.1,0.3c0.1,0.1,0.2,0.1,0.3,0.1
					c0.1,0,0.1,0,0.2,0c0,0,0.1,0,0.1-0.1c0,0,0.1-0.1,0.1-0.1c0,0,0-0.1,0-0.2c0-0.1,0-0.2-0.1-0.3C171,88.8,170.9,88.8,170.8,88.8
					z"/>
			</g>
			<g>
				<path class="st34" d="M173.1,87.7c-0.1-0.1-0.2-0.2-0.3-0.2c-0.1-0.1-0.2-0.1-0.4-0.1c-0.1,0-0.2,0-0.3,0l0-0.4h0.7
					c0.1,0,0.2,0,0.3-0.1c0.1-0.1,0.1-0.1,0.1-0.2c0-0.2-0.2-0.3-0.5-0.3H172c-0.1,0-0.1,0-0.2,0s-0.1,0-0.1,0.1
					c0,0-0.1,0.1-0.1,0.1c0,0,0,0.1,0,0.2l-0.1,0.8c0,0.1,0,0.1,0,0.1c0,0,0,0.1,0,0.1c0,0.2,0.1,0.3,0.3,0.3c0,0,0.1,0,0.1,0
					c0,0,0.1,0,0.1,0c0,0,0.1,0,0.1,0c0,0,0.1,0,0.1,0c0.1,0,0.2,0,0.3,0.1c0.1,0.1,0.1,0.2,0.1,0.3c0,0.1,0,0.1,0,0.2
					c0,0.1-0.1,0.1-0.1,0.1c0,0-0.1,0.1-0.1,0.1c-0.1,0-0.1,0-0.2,0c-0.1,0-0.1,0-0.2,0c-0.1,0-0.1-0.1-0.2-0.1
					c-0.1,0-0.1-0.1-0.2-0.1c0,0-0.1,0-0.2,0c-0.1,0-0.2,0-0.2,0.1c-0.1,0.1-0.1,0.1-0.1,0.2c0,0.1,0,0.2,0.1,0.2
					c0.1,0.1,0.1,0.1,0.2,0.2c0.1,0.1,0.2,0.1,0.3,0.1c0.1,0,0.2,0.1,0.4,0.1c0.2,0,0.3,0,0.5-0.1c0.1-0.1,0.3-0.1,0.4-0.2
					c0.1-0.1,0.2-0.2,0.2-0.4c0.1-0.1,0.1-0.3,0.1-0.5c0-0.2,0-0.3-0.1-0.4S173.2,87.8,173.1,87.7z"/>
			</g>
			<g>
				<path class="st34" d="M175.2,87.8c0.1-0.1,0.2-0.2,0.3-0.3c0.1-0.1,0.1-0.2,0.1-0.4c0-0.1,0-0.2-0.1-0.3c0-0.1-0.1-0.2-0.2-0.3
					c-0.1-0.1-0.2-0.1-0.3-0.2c-0.1,0-0.2-0.1-0.4-0.1c-0.1,0-0.3,0-0.4,0.1c-0.1,0-0.2,0.1-0.3,0.2c-0.1,0.1-0.2,0.2-0.2,0.2
					s-0.1,0.2-0.1,0.3c0,0.1,0,0.2,0.1,0.2c0.1,0.1,0.1,0.1,0.2,0.1c0.1,0,0.2,0,0.2-0.1c0,0,0.1-0.1,0.2-0.2c0,0,0.1-0.1,0.1-0.1
					c0,0,0.1-0.1,0.2-0.1c0.1,0,0.1,0,0.2,0.1c0,0,0.1,0.1,0.1,0.2c0,0.2-0.1,0.3-0.3,0.3c-0.1,0-0.2,0.1-0.2,0.1
					c0,0-0.1,0.1-0.1,0.2c0,0.1,0,0.2,0.1,0.2c0,0,0.1,0.1,0.2,0.1c0.1,0,0.3,0.1,0.3,0.1c0.1,0,0.1,0.1,0.1,0.3
					c0,0.1,0,0.2-0.1,0.3c-0.1,0.1-0.2,0.1-0.3,0.1c-0.1,0-0.1,0-0.2,0c0,0-0.1,0-0.1-0.1c0,0-0.1-0.1-0.1-0.1c0,0-0.1-0.1-0.1-0.1
					c0-0.1-0.1-0.1-0.1-0.1c0,0-0.1,0-0.2,0c-0.1,0-0.2,0-0.2,0.1c-0.1,0.1-0.1,0.1-0.1,0.2c0,0.1,0,0.2,0.1,0.3
					c0.1,0.1,0.2,0.2,0.3,0.3c0.2,0.2,0.4,0.2,0.7,0.2c0.2,0,0.3,0,0.4-0.1c0.1-0.1,0.3-0.1,0.3-0.2c0.1-0.1,0.2-0.2,0.2-0.3
					c0.1-0.1,0.1-0.3,0.1-0.4C175.7,88.3,175.5,88,175.2,87.8z"/>
			</g>
		</g>
		<g>
			<g>
				<path class="st27" d="M246,88.5C245.9,88.5,245.9,88.5,246,88.5c-0.1,0-0.1,0-0.1,0v-1.1c0-0.2-0.1-0.4-0.2-0.5
					c-0.1-0.1-0.2-0.2-0.4-0.2c-0.1,0-0.2,0-0.3,0.1c-0.1,0.1-0.2,0.1-0.2,0.3l-0.9,1.5c0,0.1-0.1,0.1-0.1,0.2
					c0,0.1-0.1,0.1-0.1,0.2c0,0.1,0,0.2,0.1,0.2c0.1,0,0.2,0.1,0.3,0.1h1.1v0.3c0,0.3,0.1,0.4,0.3,0.4c0.1,0,0.2,0,0.3-0.1
					c0.1-0.1,0.1-0.2,0.1-0.3v-0.3h0.1c0.3,0,0.4-0.1,0.4-0.3c0-0.1,0-0.2-0.1-0.2C246.2,88.5,246.1,88.5,246,88.5z M245.2,88.5
					h-0.7l0.7-1.2V88.5z"/>
			</g>
			<g>
				<path class="st27" d="M246.9,89.1c-0.1,0-0.2,0-0.3,0.1c-0.1,0.1-0.1,0.2-0.1,0.3c0,0.1,0,0.2,0.1,0.3c0.1,0.1,0.2,0.1,0.3,0.1
					c0.1,0,0.1,0,0.2,0c0,0,0.1,0,0.1-0.1c0,0,0.1-0.1,0.1-0.1c0,0,0-0.1,0-0.2c0-0.1,0-0.2-0.1-0.3C247.1,89.1,247,89.1,246.9,89.1
					z"/>
			</g>
			<g>
				<path class="st27" d="M249.3,88.1c0.2-0.2,0.3-0.4,0.3-0.6c0-0.1,0-0.2-0.1-0.3c0-0.1-0.1-0.2-0.2-0.3c-0.1-0.1-0.2-0.1-0.3-0.2
					c-0.1,0-0.3-0.1-0.4-0.1c-0.1,0-0.3,0-0.4,0.1c-0.1,0-0.2,0.1-0.3,0.2c-0.1,0.1-0.2,0.2-0.2,0.3c0,0.1-0.1,0.2-0.1,0.3
					c0,0.2,0.1,0.5,0.3,0.6c-0.1,0.1-0.2,0.2-0.3,0.3c-0.1,0.1-0.1,0.3-0.1,0.4c0,0.1,0,0.3,0.1,0.4c0.1,0.1,0.1,0.2,0.2,0.3
					c0.1,0.1,0.2,0.2,0.4,0.2c0.1,0.1,0.3,0.1,0.5,0.1c0.2,0,0.3,0,0.5-0.1c0.1-0.1,0.3-0.1,0.4-0.2c0.1-0.1,0.2-0.2,0.2-0.3
					c0.1-0.1,0.1-0.3,0.1-0.4C249.7,88.6,249.6,88.3,249.3,88.1z M248.4,87.3c0.1-0.1,0.1-0.1,0.2-0.1c0.1,0,0.2,0,0.2,0.1
					c0.1,0.1,0.1,0.1,0.1,0.2c0,0.1,0,0.2-0.1,0.2c-0.1,0.1-0.1,0.1-0.2,0.1c0,0-0.1,0-0.1,0c0,0-0.1,0-0.1-0.1c0,0-0.1-0.1-0.1-0.1
					c0,0,0-0.1,0-0.1C248.3,87.5,248.3,87.4,248.4,87.3z M249,89c0,0.1-0.1,0.1-0.1,0.1c0,0-0.1,0.1-0.1,0.1c-0.1,0-0.1,0-0.2,0
					c-0.1,0-0.1,0-0.2,0c0,0-0.1-0.1-0.1-0.1c0,0-0.1-0.1-0.1-0.1c0-0.1,0-0.1,0-0.2c0-0.1,0-0.1,0-0.2c0-0.1,0.1-0.1,0.1-0.1
					c0,0,0.1-0.1,0.1-0.1c0,0,0.1,0,0.2,0c0.1,0,0.2,0,0.3,0.1c0.1,0.1,0.1,0.2,0.1,0.3C249,88.9,249,89,249,89z"/>
			</g>
			<g>
				<path class="st27" d="M251.8,86.9c-0.1-0.1-0.2-0.2-0.3-0.2c-0.1-0.1-0.3-0.1-0.4-0.1c-0.2,0-0.3,0-0.5,0.1
					c-0.1,0.1-0.3,0.1-0.4,0.2c-0.1,0.1-0.2,0.2-0.2,0.4c-0.1,0.1-0.1,0.3-0.1,0.4c0,0.1,0,0.3,0.1,0.4c0,0.1,0.1,0.2,0.2,0.3
					c0.1,0.1,0.2,0.2,0.3,0.2c0.1,0.1,0.2,0.1,0.4,0.1c0,0,0.1,0,0.1,0c0,0,0.1,0,0.1,0c-0.1,0.1-0.2,0.2-0.2,0.3
					c-0.1,0.1-0.1,0.2-0.2,0.2c-0.1,0.1-0.1,0.1-0.1,0.2c0,0.1-0.1,0.1-0.1,0.2c0,0,0,0.1,0,0.1c0,0,0,0.1,0.1,0.1
					c0,0,0.1,0.1,0.1,0.1c0,0,0.1,0,0.1,0c0.1,0,0.2-0.1,0.3-0.2c0.1-0.1,0.2-0.2,0.4-0.4c0.2-0.3,0.4-0.6,0.5-0.8
					c0.1-0.3,0.2-0.5,0.2-0.7c0-0.2,0-0.3-0.1-0.5C252,87.2,251.9,87,251.8,86.9z M251.3,88c-0.1,0.1-0.2,0.1-0.3,0.1
					c-0.1,0-0.1,0-0.2,0c0,0-0.1-0.1-0.1-0.1c0,0-0.1-0.1-0.1-0.1c0-0.1,0-0.1,0-0.2c0-0.1,0-0.2,0.1-0.3c0.1-0.1,0.2-0.1,0.3-0.1
					c0.1,0,0.2,0,0.3,0.1c0.1,0.1,0.1,0.2,0.1,0.3C251.4,87.8,251.4,87.9,251.3,88z"/>
			</g>
		</g>
		<g>
			<g>
				<path class="st30" d="M245.4,115.8h-0.6c0.2-0.2,0.3-0.3,0.5-0.5c0.1-0.1,0.2-0.3,0.3-0.4c0.1-0.1,0.2-0.3,0.2-0.4
					c0-0.1,0.1-0.2,0.1-0.4c0-0.1,0-0.3-0.1-0.4c0-0.1-0.1-0.2-0.2-0.3c-0.1-0.1-0.2-0.1-0.3-0.2c-0.1,0-0.3-0.1-0.4-0.1
					c-0.2,0-0.3,0-0.5,0.1c-0.1,0.1-0.3,0.2-0.4,0.3c-0.1,0.1-0.1,0.2-0.2,0.3c0,0.1-0.1,0.2-0.1,0.3c0,0.1,0,0.2,0.1,0.3
					c0.1,0.1,0.1,0.1,0.2,0.1c0.1,0,0.2,0,0.2-0.1c0-0.1,0.1-0.1,0.1-0.3c0-0.1,0.1-0.2,0.1-0.2c0.1-0.1,0.1-0.1,0.2-0.1
					c0.1,0,0.1,0,0.2,0.1c0.1,0.1,0.1,0.1,0.1,0.2c0,0.1-0.1,0.3-0.2,0.5c-0.1,0.2-0.3,0.4-0.6,0.7c-0.2,0.2-0.3,0.3-0.4,0.5
					c-0.1,0.1-0.1,0.2-0.1,0.3c0,0.2,0.1,0.3,0.4,0.3h1.2c0.3,0,0.5-0.1,0.5-0.3C245.9,115.9,245.7,115.8,245.4,115.8z"/>
			</g>
			<g>
				<path class="st30" d="M247.5,113.3h-1.2c-0.1,0-0.2,0-0.3,0.1c-0.1,0.1-0.1,0.1-0.1,0.2c0,0.1,0,0.2,0.1,0.3
					c0.1,0,0.2,0.1,0.4,0.1h0.8l-0.9,1.9c0,0.1-0.1,0.1-0.1,0.2c0,0.1,0,0.1,0,0.1c0,0.1,0,0.2,0.1,0.2c0.1,0.1,0.2,0.1,0.3,0.1
					c0.1,0,0.3-0.1,0.4-0.3l1-2.2c0-0.1,0-0.1,0.1-0.1c0,0,0-0.1,0-0.1C248,113.5,247.8,113.3,247.5,113.3z"/>
			</g>
			<g>
				<path class="st30" d="M248.5,115.7c-0.1,0-0.2,0-0.3,0.1c-0.1,0.1-0.1,0.2-0.1,0.3c0,0.1,0,0.2,0.1,0.3c0.1,0.1,0.2,0.1,0.3,0.1
					c0.1,0,0.1,0,0.2,0c0,0,0.1,0,0.1-0.1c0,0,0.1-0.1,0.1-0.1c0,0,0-0.1,0-0.2c0-0.1,0-0.2-0.1-0.3
					C248.7,115.7,248.6,115.7,248.5,115.7z"/>
			</g>
			<g>
				<path class="st30" d="M249.8,113.3h-0.4c-0.3,0-0.5,0.1-0.5,0.3c0,0.2,0.2,0.3,0.5,0.3h0.1v2c0,0.3,0.1,0.5,0.4,0.5
					c0.2,0,0.4-0.2,0.4-0.5v-2.1c0-0.2,0-0.3-0.1-0.4C250.1,113.4,249.9,113.3,249.8,113.3z"/>
			</g>
			<g>
				<path class="st30" d="M252.8,115.1C252.8,115.1,252.8,115.1,252.8,115.1c-0.1,0-0.1,0-0.1,0V114c0-0.2-0.1-0.4-0.2-0.5
					c-0.1-0.1-0.2-0.2-0.4-0.2c-0.1,0-0.2,0-0.3,0.1c-0.1,0.1-0.2,0.1-0.2,0.3l-0.9,1.5c0,0.1-0.1,0.1-0.1,0.2
					c0,0.1-0.1,0.1-0.1,0.2c0,0.1,0,0.2,0.1,0.2c0.1,0,0.2,0.1,0.3,0.1h1.1v0.3c0,0.3,0.1,0.4,0.3,0.4c0.1,0,0.2,0,0.3-0.1
					c0.1-0.1,0.1-0.2,0.1-0.3v-0.3h0.1c0.3,0,0.4-0.1,0.4-0.3c0-0.1,0-0.2-0.1-0.2C253.1,115.2,253,115.1,252.8,115.1z M252.1,115.1
					h-0.7l0.7-1.2V115.1z"/>
			</g>
		</g>
		<g>
			<g>
				<path class="st35" d="M167.4,115.5h-0.6c0.2-0.2,0.3-0.3,0.5-0.5c0.1-0.1,0.2-0.3,0.3-0.4c0.1-0.1,0.2-0.3,0.2-0.4
					c0-0.1,0.1-0.2,0.1-0.4c0-0.1,0-0.3-0.1-0.4c0-0.1-0.1-0.2-0.2-0.3c-0.1-0.1-0.2-0.1-0.3-0.2c-0.1,0-0.3-0.1-0.4-0.1
					c-0.2,0-0.3,0-0.5,0.1c-0.1,0.1-0.3,0.2-0.4,0.3c-0.1,0.1-0.1,0.2-0.2,0.3c0,0.1-0.1,0.2-0.1,0.3c0,0.1,0,0.2,0.1,0.3
					c0.1,0.1,0.1,0.1,0.2,0.1c0.1,0,0.2,0,0.2-0.1c0-0.1,0.1-0.1,0.1-0.3c0-0.1,0.1-0.2,0.1-0.2c0.1-0.1,0.1-0.1,0.2-0.1
					c0.1,0,0.1,0,0.2,0.1c0.1,0.1,0.1,0.1,0.1,0.2c0,0.1-0.1,0.3-0.2,0.5c-0.1,0.2-0.3,0.4-0.6,0.7c-0.2,0.2-0.3,0.3-0.4,0.5
					c-0.1,0.1-0.1,0.2-0.1,0.3c0,0.2,0.1,0.3,0.4,0.3h1.2c0.3,0,0.5-0.1,0.5-0.3C167.9,115.6,167.8,115.5,167.4,115.5z"/>
			</g>
			<g>
				<path class="st35" d="M170,113.3c-0.1-0.1-0.2-0.2-0.3-0.2c-0.1-0.1-0.3-0.1-0.4-0.1c-0.2,0-0.3,0-0.5,0.1
					c-0.1,0.1-0.3,0.1-0.4,0.2c-0.1,0.1-0.2,0.2-0.2,0.4c-0.1,0.1-0.1,0.3-0.1,0.4c0,0.1,0,0.3,0.1,0.4c0,0.1,0.1,0.2,0.2,0.3
					c0.1,0.1,0.2,0.2,0.3,0.2c0.1,0.1,0.2,0.1,0.4,0.1c0,0,0.1,0,0.1,0c0,0,0.1,0,0.1,0c-0.1,0.1-0.2,0.2-0.2,0.3
					c-0.1,0.1-0.1,0.2-0.2,0.2c-0.1,0.1-0.1,0.1-0.1,0.2c0,0.1-0.1,0.1-0.1,0.2c0,0,0,0.1,0,0.1c0,0,0,0.1,0.1,0.1
					c0,0,0.1,0.1,0.1,0.1c0,0,0.1,0,0.1,0c0.1,0,0.2-0.1,0.3-0.2c0.1-0.1,0.2-0.2,0.4-0.4c0.2-0.3,0.4-0.6,0.5-0.8
					c0.1-0.3,0.2-0.5,0.2-0.7c0-0.2,0-0.3-0.1-0.5C170.2,113.5,170.1,113.4,170,113.3z M169.5,114.4c-0.1,0.1-0.2,0.1-0.3,0.1
					c-0.1,0-0.1,0-0.2,0c0,0-0.1-0.1-0.1-0.1c0,0-0.1-0.1-0.1-0.1c0-0.1,0-0.1,0-0.2c0-0.1,0-0.2,0.1-0.3c0.1-0.1,0.2-0.1,0.3-0.1
					c0.1,0,0.2,0,0.3,0.1c0.1,0.1,0.1,0.2,0.1,0.3S169.6,114.3,169.5,114.4z"/>
			</g>
			<g>
				<path class="st35" d="M170.9,115.4c-0.1,0-0.2,0-0.3,0.1c-0.1,0.1-0.1,0.2-0.1,0.3c0,0.1,0,0.2,0.1,0.3c0.1,0.1,0.2,0.1,0.3,0.1
					c0.1,0,0.1,0,0.2,0c0,0,0.1,0,0.1-0.1c0,0,0.1-0.1,0.1-0.1c0,0,0-0.1,0-0.2c0-0.1,0-0.2-0.1-0.3
					C171.1,115.4,171.1,115.4,170.9,115.4z"/>
			</g>
			<g>
				<path class="st35" d="M173.5,113.3c-0.1-0.1-0.2-0.2-0.3-0.2c-0.1-0.1-0.3-0.1-0.4-0.1c-0.2,0-0.3,0-0.5,0.1s-0.3,0.1-0.4,0.2
					c-0.1,0.1-0.2,0.2-0.2,0.4c-0.1,0.1-0.1,0.3-0.1,0.4c0,0.1,0,0.3,0.1,0.4c0,0.1,0.1,0.2,0.2,0.3c0.1,0.1,0.2,0.2,0.3,0.2
					c0.1,0.1,0.2,0.1,0.4,0.1c0,0,0.1,0,0.1,0c0,0,0.1,0,0.1,0c-0.1,0.1-0.2,0.2-0.2,0.3c-0.1,0.1-0.1,0.2-0.2,0.2
					c-0.1,0.1-0.1,0.1-0.1,0.2c0,0.1-0.1,0.1-0.1,0.2c0,0,0,0.1,0,0.1c0,0,0,0.1,0.1,0.1c0,0,0.1,0.1,0.1,0.1c0,0,0.1,0,0.1,0
					c0.1,0,0.2-0.1,0.3-0.2c0.1-0.1,0.2-0.2,0.4-0.4c0.2-0.3,0.4-0.6,0.5-0.8c0.1-0.3,0.2-0.5,0.2-0.7c0-0.2,0-0.3-0.1-0.5
					C173.6,113.5,173.6,113.4,173.5,113.3z M172.9,114.4c-0.1,0.1-0.2,0.1-0.3,0.1c-0.1,0-0.1,0-0.2,0c0,0-0.1-0.1-0.1-0.1
					c0,0-0.1-0.1-0.1-0.1c0-0.1,0-0.1,0-0.2c0-0.1,0-0.2,0.1-0.3c0.1-0.1,0.2-0.1,0.3-0.1c0.1,0,0.2,0,0.3,0.1
					c0.1,0.1,0.1,0.2,0.1,0.3S173,114.3,172.9,114.4z"/>
			</g>
			<g>
				<path class="st35" d="M175.4,113.1h-1.2c-0.1,0-0.2,0-0.3,0.1c-0.1,0.1-0.1,0.1-0.1,0.2c0,0.1,0,0.2,0.1,0.3
					c0.1,0,0.2,0.1,0.4,0.1h0.8l-0.9,1.9c0,0.1-0.1,0.1-0.1,0.2c0,0.1,0,0.1,0,0.1c0,0.1,0,0.2,0.1,0.2c0.1,0.1,0.2,0.1,0.3,0.1
					c0.1,0,0.3-0.1,0.4-0.3l1-2.2c0-0.1,0-0.1,0.1-0.1c0,0,0-0.1,0-0.1C175.9,113.2,175.7,113.1,175.4,113.1z"/>
			</g>
		</g>
		<g>
			<g>
				<path class="st33" d="M200.8,130c0.3-0.3,0.5-0.7,0.5-1.1c0-0.2,0-0.4-0.1-0.6c-0.1-0.2-0.2-0.4-0.4-0.5
					c-0.2-0.1-0.3-0.3-0.6-0.3c-0.2-0.1-0.5-0.1-0.7-0.1c-0.3,0-0.5,0-0.7,0.1c-0.2,0.1-0.4,0.2-0.6,0.3c-0.2,0.1-0.3,0.3-0.4,0.5
					c-0.1,0.2-0.1,0.4-0.1,0.6c0,0.4,0.2,0.8,0.5,1.1c-0.2,0.2-0.4,0.4-0.6,0.6c-0.1,0.2-0.2,0.5-0.2,0.8c0,0.2,0,0.5,0.1,0.7
					c0.1,0.2,0.2,0.4,0.4,0.6c0.2,0.2,0.4,0.3,0.6,0.4c0.2,0.1,0.5,0.1,0.8,0.1c0.3,0,0.6,0,0.8-0.1c0.2-0.1,0.5-0.2,0.6-0.4
					c0.2-0.2,0.3-0.4,0.4-0.6c0.1-0.2,0.1-0.5,0.1-0.7C201.6,130.8,201.3,130.3,200.8,130z M199.1,128.6c0.1-0.1,0.2-0.2,0.4-0.2
					c0.2,0,0.3,0.1,0.4,0.2c0.1,0.1,0.2,0.3,0.2,0.4c0,0.2-0.1,0.3-0.2,0.4c-0.1,0.1-0.2,0.2-0.4,0.2c-0.1,0-0.2,0-0.2,0
					c-0.1,0-0.1-0.1-0.2-0.1c-0.1-0.1-0.1-0.1-0.1-0.2c0-0.1,0-0.1,0-0.2C199,128.8,199,128.7,199.1,128.6z M200.2,131.6
					c0,0.1-0.1,0.2-0.2,0.2c-0.1,0.1-0.2,0.1-0.2,0.2c-0.1,0-0.2,0.1-0.3,0.1c-0.1,0-0.2,0-0.3-0.1c-0.1,0-0.2-0.1-0.2-0.2
					c-0.1-0.1-0.1-0.2-0.2-0.3c0-0.1-0.1-0.2-0.1-0.3c0-0.1,0-0.2,0.1-0.3c0-0.1,0.1-0.2,0.2-0.3c0.1-0.1,0.1-0.1,0.2-0.2
					c0.1,0,0.2-0.1,0.3-0.1c0.2,0,0.4,0.1,0.5,0.2c0.1,0.2,0.2,0.3,0.2,0.6C200.3,131.4,200.3,131.5,200.2,131.6z"/>
			</g>
			<g>
				<path class="st33" d="M206.1,130.7C206,130.7,206,130.7,206.1,130.7c-0.1,0-0.2,0-0.2,0v-2c0-0.4-0.1-0.8-0.3-1
					c-0.2-0.2-0.4-0.3-0.7-0.3c-0.2,0-0.4,0-0.5,0.1c-0.1,0.1-0.3,0.2-0.4,0.5l-1.6,2.6c-0.1,0.1-0.1,0.2-0.2,0.3
					c-0.1,0.1-0.1,0.2-0.1,0.4c0,0.2,0.1,0.3,0.2,0.4c0.1,0.1,0.3,0.1,0.6,0.1h2v0.5c0,0.5,0.2,0.7,0.5,0.7c0.2,0,0.3-0.1,0.5-0.2
					c0.1-0.1,0.2-0.3,0.2-0.5v-0.6h0.1c0.5,0,0.8-0.2,0.8-0.6c0-0.2-0.1-0.3-0.2-0.4C206.4,130.7,206.3,130.7,206.1,130.7z
					 M204.7,130.7h-1.3l1.3-2.1V130.7z"/>
			</g>
			<g>
				<path class="st33" d="M208,131.6c-0.2,0-0.4,0.1-0.5,0.2c-0.1,0.1-0.2,0.3-0.2,0.5c0,0.2,0.1,0.4,0.2,0.5
					c0.1,0.1,0.3,0.2,0.5,0.2c0.1,0,0.2,0,0.3-0.1c0.1,0,0.2-0.1,0.2-0.2c0.1-0.1,0.1-0.1,0.1-0.2c0-0.1,0.1-0.2,0.1-0.3
					c0-0.2-0.1-0.4-0.2-0.5C208.4,131.7,208.2,131.6,208,131.6z"/>
			</g>
			<g>
				<path class="st33" d="M212.5,129.7c-0.1-0.2-0.3-0.3-0.5-0.4c-0.2-0.1-0.4-0.1-0.7-0.1c-0.2,0-0.3,0-0.5,0.1l0.1-0.7h1.3
					c0.3,0,0.4-0.1,0.6-0.2c0.1-0.1,0.2-0.2,0.2-0.4c0-0.4-0.3-0.6-0.8-0.6h-1.5c-0.1,0-0.2,0-0.3,0c-0.1,0-0.2,0-0.2,0.1
					c-0.1,0-0.1,0.1-0.2,0.2c0,0.1-0.1,0.2-0.1,0.3l-0.2,1.4c0,0.1,0,0.2,0,0.3c0,0.1,0,0.1,0,0.2c0,0.4,0.2,0.5,0.5,0.5
					c0.1,0,0.1,0,0.2,0c0.1,0,0.2,0,0.2-0.1c0.1,0,0.2,0,0.2-0.1c0.1,0,0.2,0,0.2,0c0.2,0,0.4,0.1,0.5,0.2c0.1,0.1,0.2,0.3,0.2,0.6
					c0,0.1,0,0.2-0.1,0.3c0,0.1-0.1,0.2-0.2,0.3c-0.1,0.1-0.2,0.1-0.2,0.2c-0.1,0-0.2,0.1-0.3,0.1c-0.1,0-0.3,0-0.4-0.1
					c-0.1,0-0.2-0.1-0.3-0.2c-0.1-0.1-0.2-0.1-0.3-0.2c-0.1,0-0.2-0.1-0.3-0.1c-0.2,0-0.3,0.1-0.4,0.2c-0.1,0.1-0.1,0.2-0.1,0.4
					c0,0.1,0,0.3,0.1,0.4c0.1,0.1,0.2,0.3,0.4,0.4c0.2,0.1,0.3,0.2,0.6,0.2c0.2,0.1,0.4,0.1,0.7,0.1c0.3,0,0.6-0.1,0.9-0.2
					c0.3-0.1,0.5-0.3,0.7-0.4c0.2-0.2,0.3-0.4,0.4-0.7c0.1-0.3,0.2-0.5,0.2-0.8c0-0.3,0-0.5-0.1-0.7
					C212.8,130.1,212.7,129.9,212.5,129.7z"/>
			</g>
			<g>
				<path class="st33" d="M216.5,130c0.2-0.2,0.4-0.3,0.5-0.5c0.1-0.2,0.2-0.4,0.2-0.6c0-0.2,0-0.4-0.1-0.6
					c-0.1-0.2-0.2-0.3-0.3-0.5c-0.1-0.1-0.3-0.2-0.5-0.3c-0.2-0.1-0.4-0.1-0.7-0.1c-0.2,0-0.5,0-0.7,0.1c-0.2,0.1-0.4,0.2-0.6,0.3
					c-0.2,0.1-0.3,0.3-0.4,0.4c-0.1,0.2-0.1,0.3-0.1,0.5c0,0.2,0.1,0.3,0.2,0.4c0.1,0.1,0.2,0.2,0.4,0.2c0.2,0,0.3,0,0.4-0.1
					c0.1-0.1,0.2-0.2,0.3-0.3c0.1-0.1,0.2-0.2,0.3-0.2c0.1-0.1,0.2-0.1,0.3-0.1c0.1,0,0.3,0,0.3,0.1c0.1,0.1,0.1,0.2,0.1,0.3
					c0,0.3-0.2,0.5-0.6,0.6c-0.2,0-0.3,0.1-0.4,0.2c-0.1,0.1-0.1,0.2-0.1,0.4c0,0.2,0,0.3,0.1,0.4c0.1,0.1,0.2,0.1,0.4,0.2
					c0.3,0,0.5,0.1,0.6,0.2c0.1,0.1,0.2,0.2,0.2,0.5c0,0.2-0.1,0.4-0.2,0.5c-0.1,0.1-0.3,0.2-0.5,0.2c-0.1,0-0.2,0-0.3-0.1
					c-0.1,0-0.1-0.1-0.2-0.1c-0.1-0.1-0.1-0.1-0.2-0.2c-0.1-0.1-0.1-0.2-0.2-0.2c-0.1-0.1-0.2-0.2-0.3-0.3c-0.1-0.1-0.2-0.1-0.3-0.1
					c-0.2,0-0.3,0.1-0.4,0.2c-0.1,0.1-0.2,0.3-0.2,0.4c0,0.2,0.1,0.4,0.2,0.6c0.1,0.2,0.3,0.4,0.5,0.5c0.4,0.3,0.8,0.4,1.2,0.4
					c0.3,0,0.6,0,0.8-0.1c0.2-0.1,0.4-0.2,0.6-0.4c0.2-0.2,0.3-0.3,0.4-0.6c0.1-0.2,0.1-0.5,0.1-0.7
					C217.5,130.7,217.2,130.3,216.5,130z"/>
			</g>
		</g>
	</g>
</g>
</svg>
