<svg id="Layer_1" data-name="Layer 1" xmlns="http://www.w3.org/2000/svg" viewBox="0 0 300 297"><defs><style>.cls-1{fill:#5a6d84;}.cls-2{fill:#fff;}.cls-3{fill:#5fc1ca;}.cls-4{fill:#cbe7ea;}.cls-5{fill:#303947;}.cls-6{fill:#c9e4ed;}.cls-7{fill:#54c3d1;}.cls-8{fill:#464646;}</style></defs><title>Gui-small</title><path class="cls-1" d="M208.79,20.59a9,9,0,0,1,9,9v87.3a9,9,0,0,1-9,9H90.69a9,9,0,0,1-9-9V29.57a9,9,0,0,1,9-9Z"/><path class="cls-2" d="M198.39,25.36a7.39,7.39,0,0,1,7.39,7.4V104.7a7.39,7.39,0,0,1-7.39,7.4H101.08a7.4,7.4,0,0,1-7.39-7.4V32.76a7.39,7.39,0,0,1,7.39-7.4Z"/><path class="cls-3" d="M217.76,39.58v-10a9,9,0,0,0-9-9H90.69a9,9,0,0,0-9,9v10Z"/><path class="cls-2" d="M173.4,30.35a2.74,2.74,0,0,1-2.74,2.74H100.4a2.74,2.74,0,0,1-2.74-2.74h0a2.74,2.74,0,0,1,2.74-2.74h70.26a2.74,2.74,0,0,1,2.74,2.74Z"/><circle class="cls-2" cx="183.15" cy="30.35" r="2.71"/><circle class="cls-2" cx="191" cy="30.35" r="2.71"/><circle class="cls-2" cx="198.85" cy="30.35" r="2.71"/><path class="cls-1" d="M208.79,171.1a9,9,0,0,1,9,9v87.31a9,9,0,0,1-9,9H90.69a9,9,0,0,1-9-9V180.08a9,9,0,0,1,9-9Z"/><path class="cls-4" d="M204.08,178.24a7.76,7.76,0,0,1,7.75,7.76v75.46a7.76,7.76,0,0,1-7.75,7.76H95.39a7.76,7.76,0,0,1-7.75-7.76V186a7.76,7.76,0,0,1,7.75-7.76Z"/><polygon class="cls-2" points="193.82 268.88 193.82 181.9 178.81 175.14 171.69 160.75 106.92 160.75 106.92 268.88 193.82 268.88"/><polygon class="cls-5" points="171.69 160.75 171.69 181.9 193.75 181.9 171.69 160.75"/><rect class="cls-6" x="166.22" y="195.85" width="14.42" height="54.59"/><rect class="cls-6" x="144.13" y="204.07" width="14.42" height="46.37"/><rect class="cls-6" x="121.07" y="184.7" width="14.42" height="65.74"/><rect class="cls-6" x="114.54" y="250.44" width="72.58" height="2.87"/><path class="cls-7" d="M125.68,99h58a2.78,2.78,0,0,0,2.78-2.78V63.63a2.86,2.86,0,0,0-2.78-2.87H149l-3-5a2.74,2.74,0,0,0-2.38-1.3H125.68a2.78,2.78,0,0,0-2.78,2.78V96.22A2.78,2.78,0,0,0,125.68,99Z"/><path class="cls-2" d="M138,57.1l-3.06-5H121.32V85.51h52.89V58.39h-33.8A2.77,2.77,0,0,1,138,57.1Z"/><path class="cls-8" d="M177,52.83H142l-3.06-5a2.77,2.77,0,0,0-2.4-1.3h-18a2.79,2.79,0,0,0-2.81,2.78V88.29a2.79,2.79,0,0,0,2.81,2.78H177a2.79,2.79,0,0,0,2.8-2.78V55.7A2.87,2.87,0,0,0,177,52.83Zm-2.81,32.68H121.32V52.13H135l3.06,5a2.77,2.77,0,0,0,2.4,1.3h33.8Z"/></svg>