<svg id="Layer_1" data-name="Layer 1" xmlns="http://www.w3.org/2000/svg" viewBox="0 0 300 300"><defs><style>.cls-1{fill:#5a6d84;}.cls-2{fill:#fff;}.cls-3{fill:#5fc1ca;}.cls-4{fill:#cbe7ea;}.cls-5{fill:#303947;}.cls-6{fill:#54c3d1;}.cls-7{fill:#464646;}.cls-8{fill:#c9e4ed;}.cls-9{fill:none;stroke:#c9e4ed;stroke-miterlimit:10;stroke-width:0.5px;}</style></defs><title>Gui-small-01</title><path class="cls-1" d="M202.31,23.44a9,9,0,0,1,9,9v87.3a9,9,0,0,1-9,9H84.21a9,9,0,0,1-9-9V32.42a9,9,0,0,1,9-9Z"/><path class="cls-2" d="M191.91,28.21a7.39,7.39,0,0,1,7.39,7.39h0v71.94a7.39,7.39,0,0,1-7.38,7.4H94.6a7.4,7.4,0,0,1-7.39-7.4V35.61a7.39,7.39,0,0,1,7.38-7.4h97.32Z"/><path class="cls-3" d="M211.28,42.43v-10a9,9,0,0,0-9-9H84.21a9,9,0,0,0-9,9v10Z"/><path class="cls-2" d="M166.92,33.2a2.74,2.74,0,0,1-2.74,2.74H93.92a2.74,2.74,0,0,1-2.74-2.74h0a2.74,2.74,0,0,1,2.73-2.75h70.27a2.74,2.74,0,0,1,2.74,2.74h0Z"/><circle class="cls-2" cx="176.67" cy="33.2" r="2.71"/><circle class="cls-2" cx="184.52" cy="33.2" r="2.71"/><circle class="cls-2" cx="192.37" cy="33.2" r="2.71"/><path class="cls-1" d="M202.31,174a9,9,0,0,1,9,9v87.31a9,9,0,0,1-9,9H84.21a9,9,0,0,1-9-9V182.93a9,9,0,0,1,9-9Z"/><path class="cls-4" d="M197.6,181.09a7.76,7.76,0,0,1,7.75,7.76v75.46a7.76,7.76,0,0,1-7.75,7.76H88.91a7.76,7.76,0,0,1-7.75-7.76V188.85a7.76,7.76,0,0,1,7.75-7.76Z"/><polygon class="cls-2" points="187.34 271.73 187.34 184.75 172.32 177.99 165.21 163.6 100.44 163.6 100.44 271.73 187.34 271.73"/><polygon class="cls-5" points="165.21 163.6 165.21 184.75 187.26 184.75 165.21 163.6"/><path class="cls-6" d="M119.2,101.85h58A2.78,2.78,0,0,0,180,99.07V66.48a2.86,2.86,0,0,0-2.78-2.87H142.52l-3-5a2.74,2.74,0,0,0-2.38-1.3H119.2a2.78,2.78,0,0,0-2.78,2.78v39A2.78,2.78,0,0,0,119.2,101.85Z"/><path class="cls-2" d="M131.52,60l-3.06-5H114.84V88.36h52.89V61.24h-33.8A2.77,2.77,0,0,1,131.52,60Z"/><path class="cls-7" d="M170.52,55.68h-35l-3.06-5a2.77,2.77,0,0,0-2.4-1.3h-18a2.79,2.79,0,0,0-2.81,2.77h0v39a2.79,2.79,0,0,0,2.8,2.78h58.47a2.79,2.79,0,0,0,2.8-2.78h0V58.55A2.87,2.87,0,0,0,170.52,55.68Zm-2.81,32.68H114.84V55h13.68l3.06,5a2.77,2.77,0,0,0,2.4,1.3h33.8Z"/><rect class="cls-8" x="113.88" y="186.84" width="46.69" height="5.88"/><circle class="cls-8" cx="108.01" cy="189.38" r="3.33"/><rect class="cls-8" x="122.43" y="199.31" width="46.69" height="5.88"/><circle class="cls-8" cx="114.68" cy="201.86" r="3.33"/><rect class="cls-8" x="130.65" y="212.57" width="46.69" height="5.88"/><circle class="cls-8" cx="122.91" cy="215.12" r="3.33"/><rect class="cls-8" x="130.65" y="222.62" width="46.69" height="5.88"/><rect class="cls-8" x="137.22" y="232.74" width="40.11" height="5.88"/><rect class="cls-8" x="137.22" y="242.24" width="40.11" height="5.88"/><rect class="cls-8" x="130.65" y="253.97" width="46.69" height="5.88"/><circle class="cls-8" cx="122.91" cy="256.51" r="3.33"/><polyline class="cls-9" points="122.91 218.45 122.91 253.18 122.91 271.73"/><polyline class="cls-9" points="114.68 205.19 114.68 248.56 114.68 271.73"/><polyline class="cls-9" points="108.01 192.29 108.01 244.07 108.01 271.73"/><line class="cls-9" x1="111.35" y1="189.38" x2="113.88" y2="189.38"/><line class="cls-9" x1="118.02" y1="202.25" x2="123.61" y2="202.25"/><line class="cls-9" x1="125.05" y1="215.12" x2="130.65" y2="215.12"/><line class="cls-9" x1="125.05" y1="256.91" x2="130.65" y2="256.91"/></svg>