<?xml version="1.0" encoding="utf-8"?>
<!-- Generator: Adobe Illustrator 21.1.0, SVG Export Plug-In . SVG Version: 6.00 Build 0)  -->
<svg version="1.1" id="Layer_1" xmlns="http://www.w3.org/2000/svg" xmlns:xlink="http://www.w3.org/1999/xlink" x="0px" y="0px"
	 viewBox="0 0 300 300" style="enable-background:new 0 0 300 300;" xml:space="preserve">
<style type="text/css">
	.st0{fill:#5A6D84;}
	.st1{fill:#FFFFFF;}
	.st2{fill:#5FC1CA;}
	.st3{fill:#CBE7EA;}
	.st4{fill:#303947;}
	.st5{fill:#54C3D1;}
	.st6{fill:#464646;}
	.st7{fill:#C9E4ED;}
	.st8{fill:none;stroke:#C9E4ED;stroke-width:0.5;stroke-miterlimit:10;}
</style>
<title>Gui-small-01</title>
<path class="st0" d="M163.2,24.2c5.9,0,10.8,4.9,10.8,10.8l0,0v104.8c0,5.9-4.9,10.8-10.8,10.8H21.4c-5.9,0-10.8-4.9-10.8-10.8V35
	c0-5.9,4.9-10.8,10.8-10.8H163.2z"/>
<path class="st1" d="M150.7,29.9c4.9,0,8.9,4,8.9,8.9l0,0v86.4c0,4.9-4,8.9-8.9,8.9l0,0H33.9c-4.9,0-8.9-4-8.9-8.9V38.8
	c0-4.9,4-8.9,8.9-8.9l0,0C33.9,29.9,150.7,29.9,150.7,29.9z"/>
<path class="st2" d="M173.9,47V35c0-5.9-4.9-10.8-10.8-10.8H21.4c-5.9,0-10.8,4.9-10.8,10.8v12H173.9z"/>
<path class="st1" d="M120.7,36c0,1.9-1.5,3.3-3.3,3.3l0,0H33c-1.9,0-3.3-1.5-3.3-3.3l0,0c0-1.9,1.5-3.3,3.3-3.3l0,0h84.3
	C119.2,32.7,120.7,34.1,120.7,36C120.7,35.9,120.7,35.9,120.7,36L120.7,36L120.7,36z"/>
<circle class="st1" cx="132.4" cy="36" r="3.2"/>
<circle class="st1" cx="141.8" cy="36" r="3.2"/>
<circle class="st1" cx="151.2" cy="36" r="3.2"/>
<path class="st0" d="M269.5,144c6.5,0,11.8,5.3,11.8,11.8v114c0,6.5-5.3,11.8-11.8,11.8H115.3c-6.5,0-11.8-5.3-11.8-11.8V155.7
	c0-6.5,5.3-11.8,11.8-11.8L269.5,144z"/>
<path class="st3" d="M263.3,153.3c5.6,0,10.1,4.5,10.1,10.1V262c0,5.6-4.5,10.1-10.1,10.1h-142c-5.6,0-10.1-4.5-10.1-10.1v-98.5
	c0-5.6,4.5-10.1,10.1-10.1L263.3,153.3z"/>
<polygon class="st4" points="220.3,129.8 220.3,158.3 250,158.3 "/>
<path class="st5" d="M63.4,118.4H133c1.9,0,3.3-1.5,3.3-3.3l0,0V75.9c0-1.9-1.5-3.4-3.3-3.4H91.4l-3.6-6c-0.6-1-1.7-1.6-2.8-1.6
	H63.4c-1.9,0-3.3,1.5-3.3,3.3v46.8C60.1,116.8,61.6,118.4,63.4,118.4z"/>
<path class="st1" d="M78.2,68.1l-3.7-6H58.2v40.1h63.5V69.6H81.1C79.9,69.6,78.8,69,78.2,68.1z"/>
<path class="st6" d="M125,62.9H83l-3.7-5.9c-0.6-1-1.8-1.6-2.9-1.6H54.9c-1.9,0-3.3,1.5-3.4,3.3l0,0l0,0v46.8c0,1.9,1.5,3.3,3.3,3.3
	l0,0H125c1.9,0,3.3-1.5,3.3-3.3l0,0l0,0V66.4C128.4,64.4,126.9,63,125,62.9z M121.6,102.2H58.2V62.1h16.4l3.7,6
	c0.6,1,1.8,1.6,2.9,1.6h40.6L121.6,102.2z"/>
<polygon class="st1" points="250,271.7 250,158.1 230.4,149.3 221.1,130.5 136.4,130.5 136.4,271.7 "/>
<rect x="154" y="160.8" class="st7" width="61" height="7.7"/>
<circle class="st7" cx="146.3" cy="164.1" r="4.4"/>
<rect x="165.2" y="177.1" class="st7" width="61" height="7.7"/>
<circle class="st7" cx="155.1" cy="180.4" r="4.4"/>
<rect x="175.9" y="194.4" class="st7" width="61" height="7.7"/>
<circle class="st7" cx="165.8" cy="197.7" r="4.4"/>
<rect x="175.9" y="207.5" class="st7" width="61" height="7.7"/>
<rect x="184.5" y="220.8" class="st7" width="52.4" height="7.7"/>
<rect x="184.5" y="233.2" class="st7" width="52.4" height="7.7"/>
<rect x="175.9" y="248.5" class="st7" width="61" height="7.7"/>
<circle class="st7" cx="165.8" cy="251.9" r="4.4"/>
<polyline class="st8" points="165.8,202.1 165.8,247.5 165.8,271.7 "/>
<polyline class="st8" points="155.1,184.8 155.1,241.4 155.1,271.7 "/>
<polyline class="st8" points="146.3,167.9 146.3,235.6 146.3,271.7 "/>
<line class="st8" x1="150.7" y1="164.1" x2="154" y2="164.1"/>
<line class="st8" x1="159.4" y1="180.9" x2="166.7" y2="180.9"/>
<line class="st8" x1="168.6" y1="197.7" x2="175.9" y2="197.7"/>
<line class="st8" x1="168.6" y1="252.4" x2="175.9" y2="252.4"/>
</svg>
