<?xml version="1.0" encoding="utf-8"?>
<!-- Generator: Adobe Illustrator 21.1.0, SVG Export Plug-In . SVG Version: 6.00 Build 0)  -->
<svg version="1.1" id="Layer_1" xmlns="http://www.w3.org/2000/svg" xmlns:xlink="http://www.w3.org/1999/xlink" x="0px" y="0px"
	 viewBox="0 0 300 300" style="enable-background:new 0 0 300 300;" xml:space="preserve">
<style type="text/css">
	.st0{fill:#456479;}
	.st1{fill:#375060;}
	.st2{fill:#5C87A4;}
	.st3{fill:#C6C8D6;}
	.st4{fill:#1FB7FF;stroke:#FFFFFF;stroke-miterlimit:10;}
	.st5{fill:#DCDBDD;}
	.st6{fill:#4E4E4E;}
	.st7{fill:#FFF3D9;}
	.st8{fill:#F4E1B0;}
	.st9{fill:#4F2016;}
	.st10{fill:#1A1F42;}
	.st11{fill:#0076E8;}
	.st12{opacity:0.8;fill:#FFFFFF;enable-background:new    ;}
	.st13{fill:#8E5521;}
	.st14{fill:#004E91;}
	.st15{opacity:0.57;fill:#FFFFFF;enable-background:new    ;}
</style>
<title>hearful-small</title>
<path class="st0" d="M92.2,175.5H45.3c-2.4,0-4.3,1.9-4.3,4.3c0,0.1,0,0.1,0,0.2l4,109.3c0,1.2,1,2.1,2.2,2.1h15.1
	c1.2,0,2.1-1,2.2-2.2v-83.7c0-2.4,1.9-4.3,4.3-4.3s4.3,1.9,4.3,4.3v83.7c0,1.2,1,2.1,2.1,2.2h15.1c1.2,0,2.1-0.9,2.1-2.1l4-109.3
	c0.1-2.4-1.8-4.4-4.1-4.4C92.2,175.5,92.2,175.5,92.2,175.5L92.2,175.5z"/>
<path class="st1" d="M45.3,175.5h46.9c0.8,0,1.6,0.2,2.3,0.7V171c0-1.2-1-2.1-2.2-2.1H45.1c-1.2,0-2.1,1-2.1,2.2v5.2
	C43.7,175.8,44.5,175.5,45.3,175.5z"/>
<path class="st2" d="M94.6,187.3c-4.1,0-7.5-3.3-7.6-7.5c0,0,0,0,0-0.1v-4.2h-3.3v4.3c0,5.9,4.8,10.7,10.7,10.7H96l0.1-3.3
	L94.6,187.3z"/>
<path class="st2" d="M42.9,187.3c4.1,0,7.5-3.4,7.5-7.5v-4.2h3.3v4.3c0,5.9-4.8,10.7-10.7,10.7h-1.6l-0.1-3.3H42.9z"/>
<path class="st2" d="M66.6,201.9c1.3-0.8,3-0.8,4.3,0v-26.3h-4.3V201.9z"/>
<path class="st2" d="M64.4,289.2V285H44.9l0.2,4.4c0,1.2,1,2.1,2.2,2.1h15.1C63.5,291.4,64.4,290.4,64.4,289.2L64.4,289.2z"/>
<path class="st2" d="M92.4,289.3l0.2-4.4H73v4.3c0,1.2,1,2.2,2.1,2.2l0,0h15.1C91.4,291.4,92.4,290.5,92.4,289.3z"/>
<circle class="st3" cx="250.9" cy="221.9" r="22.6"/>
<rect x="228.2" y="221.9" class="st3" width="45.3" height="61.1"/>
<circle class="st4" cx="250.9" cy="220.7" r="13.4"/>
<rect x="239" y="256.9" transform="matrix(0.7071 -0.7071 0.7071 0.7071 -109.3219 253.421)" class="st0" width="24.5" height="3.5"/>
<circle class="st0" cx="258.2" cy="265.5" r="4.8"/>
<circle class="st0" cx="244.2" cy="251.4" r="4.8"/>
<path class="st5" d="M282,156.7c-0.1,4.1-3.5,7.4-7.7,7.3H29.6c-4.1,0.1-7.5-3.2-7.6-7.3V18c0.1-4.1,3.5-7.4,7.7-7.3h244.6
	c4.1-0.1,7.6,3.2,7.7,7.3L282,156.7L282,156.7z"/>
<rect x="32.5" y="20" class="st6" width="238.9" height="131"/>
<g>
	<g>
		<g>
			<polygon class="st7" points="106.2,130.5 68.5,130.5 68.5,78.5 95.8,78.5 106.2,88.3 			"/>
			<polygon class="st8" points="95.8,88.4 95.8,78.5 106.3,88.4 			"/>
		</g>
		<g>
			<path class="st9" d="M100.3,117.3H74.5c-0.7,0-1.2,0.5-1.2,1.2l0,0c0,0.7,0.5,1.2,1.2,1.2h25.8c0.7,0,1.2-0.5,1.2-1.2l0,0
				C101.5,117.8,101,117.3,100.3,117.3z"/>
			<path class="st9" d="M100.3,109.6H74.5c-0.7,0-1.2,0.5-1.2,1.2l0,0c0,0.7,0.5,1.2,1.2,1.2h25.8c0.7,0,1.2-0.5,1.2-1.2l0,0
				C101.5,110.2,101,109.6,100.3,109.6z"/>
			<path class="st9" d="M100.3,102.9H74.5c-0.7,0-1.2,0.5-1.2,1.2l0,0c0,0.7,0.5,1.2,1.2,1.2h25.8c0.7,0,1.2-0.5,1.2-1.2l0,0
				C101.5,103.4,101,102.9,100.3,102.9z"/>
			<path class="st9" d="M100.3,96.7H74.5c-0.7,0-1.2,0.5-1.2,1.2l0,0c0,0.7,0.5,1.2,1.2,1.2h25.8c0.7,0,1.2-0.5,1.2-1.2l0,0
				C101.5,97.2,101,96.7,100.3,96.7z"/>
			<path class="st9" d="M88.8,89.7H74c-0.4,0-0.7,0.5-0.7,1.2l0,0c0,0.7,0.3,1.2,0.7,1.2h14.7c0.4,0,0.7-0.5,0.7-1.2l0,0
				C89.4,90.2,89,89.7,88.8,89.7z"/>
		</g>
	</g>
	<rect x="103.5" y="30.9" class="st10" width="0.1" height="0.2"/>
	<g>
		<path class="st4" d="M238.1,77.4c-3.5-3.5-8.3-5.6-13.6-5.6V91L238.1,77.4z"/>
		<path class="st11" d="M245.1,97.8c1.1-2.3,1.7-5,1.7-7.7c0-5-2-9.6-5.3-12.9l-12.9,12.9L245.1,97.8z"/>
		<path class="st11" d="M215,67.6c-3.3,1.1-6.4,3-9.1,5.5c-4.9,4.7-7.4,10.9-7.5,17.2l24.5,0.4L215,67.6z"/>
		<path class="st4" d="M211,104.5c3.5,3.5,8.3,5.6,13.6,5.6V90.9L211,104.5z"/>
		<path class="st4" d="M224.6,90.9v19.2c7.7,0,14.3-4.6,17.4-11.1L224.6,90.9z"/>
	</g>
	<g>
		<g>
			<polygon class="st7" points="178,65.2 178,115 109.2,115 109.2,79.1 122.2,65.2 			"/>
			<polygon class="st8" points="122.2,79.1 109.2,79.1 122.2,65.1 			"/>
		</g>
		<g>
			<g>
				<rect x="141" y="86.3" class="st4" width="5" height="21.7"/>
				<rect x="149.5" y="95.6" class="st4" width="5" height="12.4"/>
				<rect x="158.5" y="88.7" class="st4" width="5" height="19.3"/>
				<path class="st9" d="M172,107h-36.5V73.7c0-0.5-0.5-1-1.1-1s-1.1,0.4-1.1,1V108c0,0.5,0.5,1,1.1,1c0.1,0,0.1,0,0.2,0
					c0.1,0,0.1,0,0.2,0H172c0.6,0,1.1-0.4,1.1-1C173,107.5,172.5,107,172,107z"/>
			</g>
			<rect x="112.7" y="87.3" class="st9" width="4.2" height="4.2"/>
			<path class="st9" d="M126.3,90.2h-6.7c-0.3,0-0.6-0.2-0.6-0.6v-0.5c0-0.3,0.2-0.6,0.6-0.6h6.7c0.3,0,0.6,0.2,0.6,0.6v0.5
				C126.8,89.9,126.7,90.2,126.3,90.2z"/>
			<rect x="112.7" y="94.3" class="st4" width="4.2" height="4.2"/>
			<path class="st9" d="M126.8,97.2h-7.2c-0.3,0-0.6-0.2-0.6-0.6v-0.4c0-0.3,0.2-0.6,0.6-0.6h7.2c0.3,0,0.6,0.2,0.6,0.6v0.5
				C127.3,97,127,97.2,126.8,97.2z"/>
			<rect x="112.7" y="101.8" class="st4" width="4.2" height="4.2"/>
			<path class="st9" d="M124.8,104.7h-5.2c-0.3,0-0.6-0.2-0.6-0.6v-0.5c0-0.3,0.2-0.6,0.6-0.6h5.2c0.3,0,0.6,0.2,0.6,0.6v0.5
				C125.3,104.4,125,104.7,124.8,104.7z"/>
		</g>
	</g>
	<path class="st12" d="M200.6,35.3l1.7-0.9c0.6-0.3,0.6-1.1,0-1.4l-1.7-0.9c-0.5-0.2-0.9-0.7-1.2-1.2l-0.9-1.7
		c-0.3-0.6-1.1-0.6-1.4,0l-0.9,1.7c-0.2,0.5-0.7,0.9-1.2,1.2l-1.7,0.9c-0.6,0.3-0.6,1.1,0,1.4l1.7,0.9c0.5,0.2,0.9,0.7,1.2,1.2
		l0.9,1.7c0.3,0.6,1.1,0.6,1.4,0l0.9-1.7C199.7,36,200.1,35.6,200.6,35.3z"/>
	<path class="st12" d="M235,132.7l2.1-1.1c0.7-0.3,0.7-1.4,0-1.7l-2.1-1.1c-0.6-0.3-1.1-0.8-1.4-1.4l-1.1-2.1
		c-0.3-0.7-1.4-0.7-1.7,0l-1.1,2.1c-0.3,0.6-0.8,1.1-1.4,1.4l-2.1,1.1c-0.7,0.3-0.7,1.4,0,1.7l2.1,1.1c0.6,0.3,1.1,0.8,1.4,1.4
		l1.1,2.1c0.3,0.7,1.4,0.7,1.7,0l1.1-2.1C233.9,133.5,234.4,133.1,235,132.7z"/>
	<g>
		<path class="st13" d="M218,141.7c-1.9,1.9-5.1,1.9-7,0l-23.1-23.1c3-1.6,5.4-4.1,6.8-7.2l23.3,23.3C220,136.6,220,139.8,218,141.7
			z"/>
		<path class="st14" d="M200,116.7c-1.7,2.8-4.1,5.3-6.9,7.1l-5.2-5.2c3-1.6,5.4-4.1,6.8-7.2L200,116.7z"/>
		<g>
			<path class="st4" d="M180.8,85c-11,0-19.9,8.9-19.9,19.9s8.9,19.9,19.9,19.9s19.9-8.9,19.9-19.9S191.8,85,180.8,85z M180.8,120.4
				c-8.5,0-15.5-6.9-15.5-15.5c0-8.5,6.9-15.5,15.5-15.5c8.5,0,15.5,6.9,15.5,15.5C196.1,113.4,189.2,120.4,180.8,120.4z"/>
			
				<ellipse transform="matrix(0.9732 -0.2298 0.2298 0.9732 -19.2695 44.3327)" class="st15" cx="180.7" cy="104.9" rx="15.5" ry="15.5"/>
		</g>
	</g>
	<g>
		<polygon class="st11" points="102.4,72.2 89.8,59.5 78.4,70.8 76.2,68.5 89.8,55 102.4,67.6 114.2,55.8 116.4,58.1 		"/>
		<g>
			<circle class="st4" cx="116.2" cy="57.2" r="3.9"/>
			<circle class="st4" cx="101.9" cy="69.7" r="4"/>
			<circle class="st4" cx="89.3" cy="57.3" r="2.6"/>
			<circle class="st4" cx="76.8" cy="69.8" r="3.5"/>
		</g>
	</g>
	<g>
		<polygon class="st11" points="187.9,79.6 168.4,60.7 170.5,58.4 187.4,74.7 211.5,41.7 231.1,64.1 228.8,66.2 211.6,46.8 		"/>
		<path class="st4" d="M191.4,76.4c0,1.8-1.4,3.2-3.2,3.2s-3.2-1.4-3.2-3.2c0-1.8,1.4-3.2,3.2-3.2C189.9,73.1,191.4,74.6,191.4,76.4
			z"/>
		<circle class="st4" cx="170.2" cy="60.1" r="4.3"/>
		<path class="st4" d="M233,64.2c0,1.5-1.2,2.7-2.7,2.7s-2.7-1.2-2.7-2.7s1.2-2.7,2.7-2.7C231.8,61.6,233,62.8,233,64.2z"/>
		<path class="st4" d="M214.4,44.3c0,1.6-1.2,2.8-2.8,2.8s-2.8-1.2-2.8-2.8s1.2-2.8,2.8-2.8C213.1,41.4,214.4,42.7,214.4,44.3z"/>
	</g>
</g>
<image style="overflow:visible;enable-background:new    ;" width="580" height="722" xlink:href="D265008C6172A60.png"  transform="matrix(0.1866 0 0 0.1776 95.874 157.8237)">
</image>
</svg>
