<svg id="Layer_1" data-name="Layer 1" xmlns="http://www.w3.org/2000/svg" viewBox="0 0 300 300"><defs><style>.cls-1{fill:#456479;}.cls-2{fill:#375060;}.cls-3{fill:#5c87a4;}.cls-4{fill:#c6c8d6;}.cls-5{fill:#1fb7ff;}.cls-10,.cls-5{stroke:#fff;stroke-miterlimit:10;}.cls-6{fill:#dcdbdd;}.cls-7{fill:#4e4e4e;}.cls-8{fill:#f2f0f1;}.cls-9{fill:#059889;}.cls-10{fill:#fff;}</style></defs><title>hearful-small</title><path class="cls-1" d="M77.17,168.14H30.29A4.29,4.29,0,0,0,26,172.59l4,109.34A2.15,2.15,0,0,0,32.2,284h15.1a2.15,2.15,0,0,0,2.15-2.15V198.18a4.29,4.29,0,1,1,8.58,0v83.67A2.15,2.15,0,0,0,60.17,284h15.1a2.15,2.15,0,0,0,2.14-2.07l4-109.34a4.29,4.29,0,0,0-4.29-4.45Z"/><path class="cls-2" d="M30.29,168.14H77.17a4.26,4.26,0,0,1,2.31.68v-5.25a2.15,2.15,0,0,0-2.15-2.15H30.13A2.15,2.15,0,0,0,28,163.57v5.25A4.26,4.26,0,0,1,30.29,168.14Z"/><path class="cls-3" d="M79.56,179.86A7.51,7.51,0,0,1,72,172.35v-4.21h-3.3v4.29a10.73,10.73,0,0,0,10.73,10.73h1.59l.12-3.3Z"/><path class="cls-3" d="M27.9,179.86a7.51,7.51,0,0,0,7.51-7.51v-4.21h3.3v4.29A10.73,10.73,0,0,1,28,183.16H26.39l-.12-3.3Z"/><path class="cls-3" d="M51.58,194.48a4.16,4.16,0,0,1,4.29,0V168.14H51.58v26.34Z"/><path class="cls-3" d="M49.44,281.85v-4.29H29.89l.16,4.37A2.15,2.15,0,0,0,32.2,284h15.1a2.15,2.15,0,0,0,2.15-2.15Z"/><path class="cls-3" d="M77.41,281.93l.16-4.37H58v4.29A2.15,2.15,0,0,0,60.17,284h15.1a2.15,2.15,0,0,0,2.14-2.07Z"/><circle class="cls-4" cx="160.35" cy="221.95" r="22.65"/><rect class="cls-4" x="137.7" y="221.95" width="45.3" height="61.06"/><circle class="cls-5" cx="160.35" cy="220.74" r="13.42"/><rect class="cls-1" x="148.46" y="256.85" width="24.5" height="3.48" transform="translate(-135.78 189.38) rotate(-45)"/><circle class="cls-1" cx="167.73" cy="265.47" r="4.79"/><circle class="cls-1" cx="153.68" cy="251.45" r="4.79"/><path class="cls-6" d="M282,156.7a7.5,7.5,0,0,1-7.68,7.3H29.63A7.49,7.49,0,0,1,22,156.7V18a7.5,7.5,0,0,1,7.68-7.31H274.32A7.5,7.5,0,0,1,282,18Z"/><rect class="cls-7" x="32.51" y="21.84" width="238.93" height="130.97"/><rect class="cls-8" x="79.63" y="62.31" width="9.47" height="7.17"/><rect class="cls-8" x="96.79" y="62.31" width="61.25" height="7.17"/><rect class="cls-8" x="96.79" y="76.18" width="113.99" height="7.17"/><rect class="cls-8" x="79.63" y="76.18" width="9.47" height="7.17"/><rect class="cls-8" x="167.11" y="103.93" width="59.01" height="7.16"/><rect class="cls-8" x="193.28" y="90.88" width="44.67" height="7.16"/><rect class="cls-8" x="167.11" y="90.88" width="22.33" height="7.16"/><rect class="cls-8" x="168.34" y="121.39" width="47.62" height="7.17"/><rect class="cls-8" x="158.04" y="103.93" width="4.15" height="7.16"/><rect class="cls-8" x="113.81" y="90.06" width="48.05" height="7.17"/><rect class="cls-8" x="113.81" y="103.93" width="39.86" height="7.16"/><rect class="cls-8" x="98.51" y="90.06" width="9.47" height="7.17"/><rect class="cls-8" x="158.43" y="121.07" width="4.29" height="7.17"/><rect class="cls-8" x="44.3" y="62.36" width="25.74" height="8.16"/><rect class="cls-8" x="44.3" y="75.42" width="25.74" height="8.16"/><path class="cls-9" d="M189.18,53.18h-1.1l-.09-.49c-1.61-.84-7.08-3.5-10.72-5.25h-7.11V45h7.74l.28.13L184,47.91c2.74,1.34,4.37,2.13,5.31,2.67.81-.32,2-.75,3.9-1.39l9.86-3.37,14.35-4.87.57-.19L231.28,48l16.47-6.29,1,2.31-17.64,6.74-13.36-7.3c-10,3.4-24.37,8.27-27.42,9.37l-.08.33Z"/><ellipse class="cls-10" cx="247.91" cy="42.64" rx="2.96" ry="2.81"/><ellipse class="cls-10" cx="217.85" cy="42.11" rx="2.96" ry="2.81"/><ellipse class="cls-10" cx="189.52" cy="51.94" rx="2.96" ry="2.81"/><ellipse class="cls-10" cx="177.57" cy="46.31" rx="2.96" ry="2.81"/><path class="cls-9" d="M110.23,56.44h-1.1L109,56c-1.61-.84-7.08-3.5-10.72-5.25H91.2V48.22h7.74l.28.13L105,51.17c2.74,1.34,4.37,2.13,5.31,2.67.81-.32,2-.75,3.9-1.39l9.86-3.37,14.35-4.87L139,44l13.3,7.27L168.8,45l1,2.31L152.13,54l-13.36-7.3c-10,3.4-24.37,8.27-27.42,9.37l-.08.33Z"/><ellipse class="cls-10" cx="168.97" cy="45.91" rx="2.96" ry="2.81"/><ellipse class="cls-10" cx="138.91" cy="45.38" rx="2.96" ry="2.81"/><ellipse class="cls-10" cx="110.58" cy="55.2" rx="2.96" ry="2.81"/><ellipse class="cls-10" cx="98.63" cy="49.57" rx="2.96" ry="2.81"/></svg>