<?xml version="1.0" encoding="utf-8"?>
<!-- Generator: Adobe Illustrator 21.1.0, SVG Export Plug-In . SVG Version: 6.00 Build 0)  -->
<svg version="1.1" id="Layer_1" xmlns="http://www.w3.org/2000/svg" xmlns:xlink="http://www.w3.org/1999/xlink" x="0px" y="0px"
	 viewBox="0 0 662 400" style="enable-background:new 0 0 662 400;" xml:space="preserve">
<style type="text/css">
	.st0{fill:#456479;}
	.st1{fill:#375060;}
	.st2{fill:#5C87A4;}
	.st3{fill:#DCDBDD;}
	.st4{fill:#4E4E4E;}
	.st5{fill:#DDDDDD;}
	.st6{fill:#FFFFFF;}
	.st7{opacity:0.3;fill:#9E7E64;}
	.st8{fill:#28485D;}
	.st9{fill:#D9D9D9;}
	.st10{fill:#747D86;}
	.st11{opacity:0.3;}
	.st12{fill:#9E7E64;}
	.st13{fill:#FD8560;}
	.st14{fill:#333333;}
	.st15{fill:#5DBFDA;}
	.st16{fill:#C6C8D6;}
	.st17{fill:#1FB7FF;stroke:#FFFFFF;stroke-miterlimit:10;}
	.st18{fill:#E9EBF0;}
	.st19{fill:#FFF3D9;}
	.st20{fill:#F4E1B0;}
	.st21{fill:#4F2016;}
	.st22{fill:#1A1F42;}
	.st23{fill:#3B7EFF;}
	.st24{opacity:0.8;fill:#FFFFFF;enable-background:new    ;}
	.st25{fill:#8E5521;}
	.st26{fill:#004E91;}
	.st27{opacity:0.57;fill:#FFFFFF;enable-background:new    ;}
</style>
<image style="overflow:visible;" width="572" height="752" xlink:href="42AEB13F6A81AD11.png"  transform="matrix(0.3549 0 0 0.3378 1 19)">
</image>
<g>
	<path class="st0" d="M175.1,197.2H99.9c-3.9,0-7,3.2-6.9,7.1l6.5,175.4c0.1,1.8,1.6,3.3,3.4,3.3h24.2c1.9,0,3.4-1.5,3.4-3.4V245.4
		c0-3.8,3.1-6.9,6.9-6.9c3.8,0,6.9,3.1,6.9,6.9v134.2c0,1.9,1.5,3.4,3.4,3.4H172c1.9,0,3.4-1.5,3.4-3.3l6.5-175.4
		C182.1,200.4,179,197.2,175.1,197.2L175.1,197.2z"/>
	<path class="st1" d="M99.9,197.2h75.2c1.4,0,2.6,0.4,3.7,1.1v-8.4c0-1.9-1.5-3.4-3.4-3.4H99.6c-1.9,0-3.4,1.5-3.4,3.4v8.4
		C97.2,197.6,98.5,197.2,99.9,197.2z"/>
	<path class="st2" d="M178.9,216c-6.7,0-12-5.4-12-12v-6.8h-5.3v6.9c0,9.5,7.7,17.2,17.2,17.2h2.5l0.2-5.3H178.9L178.9,216z"/>
	<path class="st2" d="M96.1,216c6.7,0,12-5.4,12-12v-6.8h5.3v6.9c0,9.5-7.7,17.2-17.2,17.2h-2.5l-0.2-5.3H96.1L96.1,216z"/>
	<path class="st2" d="M134,239.4c1-0.6,2.2-1,3.4-1c1.3,0,2.4,0.4,3.4,1v-42.2H134V239.4L134,239.4z"/>
	<path class="st2" d="M130.6,379.6v-6.9H99.2l0.3,7c0.1,1.8,1.6,3.3,3.4,3.3h24.2C129,383,130.6,381.5,130.6,379.6L130.6,379.6z"/>
	<path class="st2" d="M175.4,379.7l0.3-7h-31.3v6.9c0,1.9,1.5,3.4,3.4,3.4H172C173.9,383,175.4,381.5,175.4,379.7L175.4,379.7z"/>
</g>
<g>
	<path class="st3" d="M522,218.6c0,4.9-4,8.9-8.9,8.9H227.9c-4.9,0-8.9-4-8.9-8.9v-170c0-4.9,4-9,8.9-9h285.2c4.9,0,8.9,4,8.9,9
		V218.6z"/>
	<rect x="231.3" y="53.4" class="st4" width="278.4" height="160.5"/>
</g>
<g id="mouse">
	<path class="st5" d="M478.2,281.6c-14,0-25.4,11.4-25.4,25.4v0v39.7c0,14,11.4,25.4,25.4,25.4c14,0,25.3-11.4,25.4-25.4v-39.7
		C503.5,292.9,492.2,281.6,478.2,281.6z"/>
	<path class="st6" d="M497.6,346.6c0,14-11.4,25.4-25.4,25.4c-14,0-25.3-11.4-25.4-25.4v-39.7c0-14,11.3-25.4,25.4-25.4
		c14,0,25.4,11.3,25.4,25.4c0,0,0,0,0,0V346.6L497.6,346.6z"/>
	<path class="st5" d="M474.6,311.7c0,1.4-1.1,2.5-2.5,2.5l0,0c-1.4,0-2.5-1.1-2.5-2.5c0,0,0,0,0,0V292c0-1.4,1.1-2.5,2.5-2.5l0,0
		c1.4,0,2.5,1.1,2.5,2.5L474.6,311.7L474.6,311.7z"/>
</g>
<g>
	<g id="note_1_">
		<path class="st7" d="M272.2,288.3v7.8h-3.3c-0.3,0-0.5,0.2-0.5,0.4c0,0.2,0.2,0.4,0.5,0.4h3.3v0.5h-3.3c-0.3,0-0.5,0.2-0.5,0.4
			c0,0.2,0.2,0.4,0.5,0.4h3.3v6h-3.3c-0.3,0-0.5,0.2-0.5,0.4c0,0.2,0.2,0.4,0.5,0.4h3.3v0.5h-3.3c-0.3,0-0.5,0.2-0.5,0.4
			c0,0.2,0.2,0.4,0.5,0.4h3.3v6h-3.3c-0.3,0-0.5,0.2-0.5,0.4c0,0.2,0.2,0.4,0.5,0.4h3.3v0.5h-3.3c-0.3,0-0.5,0.2-0.5,0.4
			c0,0.2,0.2,0.4,0.5,0.4h3.3v6.5h-3.3c-0.3,0-0.5,0.2-0.5,0.4c0,0.2,0.2,0.4,0.5,0.4h3.3v0.5h-3.3c-0.3,0-0.5,0.2-0.5,0.4
			c0,0.2,0.2,0.4,0.5,0.4h3.3v6h-3.3c-0.3,0-0.5,0.2-0.5,0.4c0,0.2,0.2,0.4,0.5,0.4h3.3v0.5h-3.3c-0.3,0-0.5,0.2-0.5,0.4
			c0,0.2,0.2,0.4,0.5,0.4h3.3v6h-3.3c-0.3,0-0.5,0.2-0.5,0.4c0,0.2,0.2,0.4,0.5,0.4h3.3v0.5h-3.3c-0.3,0-0.5,0.2-0.5,0.4
			c0,0.2,0.2,0.4,0.5,0.4h3.3v6.5h-3.3c-0.3,0-0.5,0.2-0.5,0.4c0,0.2,0.2,0.4,0.5,0.4h3.3v0.5h-3.3c-0.3,0-0.5,0.2-0.5,0.4
			c0,0.2,0.2,0.4,0.5,0.4h3.3v6h-3.3c-0.3,0-0.5,0.2-0.5,0.4c0,0.2,0.2,0.4,0.5,0.4h3.3v0.5h-3.3c-0.3,0-0.5,0.2-0.5,0.4
			c0,0.2,0.2,0.4,0.5,0.4h3.3v6h-3.3c-0.3,0-0.5,0.2-0.5,0.4c0,0.2,0.2,0.4,0.5,0.4h3.3v0.5h-3.3c-0.3,0-0.5,0.2-0.5,0.4
			c0,0.2,0.2,0.4,0.5,0.4h3.3v9.4h132v-85.7H272.2z"/>
		<g>
			<rect x="271.9" y="285.6" class="st6" width="128" height="84.2"/>
			<g>
				<g>
					<circle class="st8" cx="276.8" cy="310.8" r="1.7"/>
				</g>
				<g>
					<path class="st9" d="M276.6,311c0.3,0,0.5,0.2,0.5,0.4l0,0c0,0.2-0.2,0.4-0.5,0.4h-8c-0.3,0-0.5-0.2-0.5-0.4l0,0
						c0-0.2,0.2-0.4,0.5-0.4H276.6z"/>
					<path class="st9" d="M276.6,311c0.3,0,0.5,0.2,0.5,0.4l0,0c0,0.2-0.2,0.4-0.5,0.4h-8c-0.3,0-0.5-0.2-0.5-0.4l0,0
						c0-0.2,0.2-0.4,0.5-0.4H276.6z"/>
					<path class="st9" d="M276.6,311.9c0.3,0,0.5-0.2,0.5-0.4l0,0c0-0.2-0.2-0.4-0.5-0.4h-8c-0.3,0-0.5,0.2-0.5,0.4l0,0
						c0,0.2,0.2,0.4,0.5,0.4H276.6z"/>
				</g>
				<g>
					<path class="st9" d="M276.6,309.7c0.3,0,0.5,0.2,0.5,0.4l0,0c0,0.2-0.2,0.4-0.5,0.4h-8c-0.3,0-0.5-0.2-0.5-0.4l0,0
						c0-0.2,0.2-0.4,0.5-0.4H276.6z"/>
					<path class="st9" d="M276.6,309.7c0.3,0,0.5,0.2,0.5,0.4l0,0c0,0.2-0.2,0.4-0.5,0.4h-8c-0.3,0-0.5-0.2-0.5-0.4l0,0
						c0-0.2,0.2-0.4,0.5-0.4H276.6z"/>
					<path class="st9" d="M276.6,310.6c0.3,0,0.5-0.2,0.5-0.4l0,0c0-0.2-0.2-0.4-0.5-0.4h-8c-0.3,0-0.5,0.2-0.5,0.4l0,0
						c0,0.2,0.2,0.4,0.5,0.4H276.6z"/>
				</g>
			</g>
			<g>
				<g>
					<circle class="st8" cx="276.8" cy="302.7" r="1.7"/>
				</g>
				<g>
					<path class="st9" d="M276.6,302.9c0.3,0,0.5,0.2,0.5,0.4l0,0c0,0.2-0.2,0.4-0.5,0.4h-8c-0.3,0-0.5-0.2-0.5-0.4l0,0
						c0-0.2,0.2-0.4,0.5-0.4H276.6z"/>
					<path class="st9" d="M276.6,302.9c0.3,0,0.5,0.2,0.5,0.4l0,0c0,0.2-0.2,0.4-0.5,0.4h-8c-0.3,0-0.5-0.2-0.5-0.4l0,0
						c0-0.2,0.2-0.4,0.5-0.4H276.6z"/>
					<path class="st9" d="M276.6,303.7c0.3,0,0.5-0.2,0.5-0.4l0,0c0-0.2-0.2-0.4-0.5-0.4h-8c-0.3,0-0.5,0.2-0.5,0.4l0,0
						c0,0.2,0.2,0.4,0.5,0.4H276.6z"/>
				</g>
				<g>
					<path class="st9" d="M276.6,301.5c0.3,0,0.5,0.2,0.5,0.4l0,0c0,0.2-0.2,0.4-0.5,0.4h-8c-0.3,0-0.5-0.2-0.5-0.4l0,0
						c0-0.2,0.2-0.4,0.5-0.4H276.6z"/>
					<path class="st9" d="M276.6,301.5c0.3,0,0.5,0.2,0.5,0.4l0,0c0,0.2-0.2,0.4-0.5,0.4h-8c-0.3,0-0.5-0.2-0.5-0.4l0,0
						c0-0.2,0.2-0.4,0.5-0.4H276.6z"/>
					<path class="st9" d="M276.6,302.4c0.3,0,0.5-0.2,0.5-0.4l0,0c0-0.2-0.2-0.4-0.5-0.4h-8c-0.3,0-0.5,0.2-0.5,0.4l0,0
						c0,0.2,0.2,0.4,0.5,0.4H276.6z"/>
				</g>
			</g>
			<g>
				<g>
					<circle class="st8" cx="276.8" cy="294.5" r="1.7"/>
				</g>
				<g>
					<path class="st9" d="M276.6,294.7c0.3,0,0.5,0.2,0.5,0.4l0,0c0,0.2-0.2,0.4-0.5,0.4h-8c-0.3,0-0.5-0.2-0.5-0.4l0,0
						c0-0.2,0.2-0.4,0.5-0.4H276.6z"/>
					<path class="st9" d="M276.6,294.7c0.3,0,0.5,0.2,0.5,0.4l0,0c0,0.2-0.2,0.4-0.5,0.4h-8c-0.3,0-0.5-0.2-0.5-0.4l0,0
						c0-0.2,0.2-0.4,0.5-0.4H276.6z"/>
					<path class="st9" d="M276.6,295.6c0.3,0,0.5-0.2,0.5-0.4l0,0c0-0.2-0.2-0.4-0.5-0.4h-8c-0.3,0-0.5,0.2-0.5,0.4l0,0
						c0,0.2,0.2,0.4,0.5,0.4H276.6z"/>
				</g>
				<g>
					<path class="st9" d="M276.6,293.4c0.3,0,0.5,0.2,0.5,0.4l0,0c0,0.2-0.2,0.4-0.5,0.4h-8c-0.3,0-0.5-0.2-0.5-0.4l0,0
						c0-0.2,0.2-0.4,0.5-0.4H276.6z"/>
					<path class="st9" d="M276.6,293.4c0.3,0,0.5,0.2,0.5,0.4l0,0c0,0.2-0.2,0.4-0.5,0.4h-8c-0.3,0-0.5-0.2-0.5-0.4l0,0
						c0-0.2,0.2-0.4,0.5-0.4H276.6z"/>
					<path class="st9" d="M276.6,294.2c0.3,0,0.5-0.2,0.5-0.4l0,0c0-0.2-0.2-0.4-0.5-0.4h-8c-0.3,0-0.5,0.2-0.5,0.4l0,0
						c0,0.2,0.2,0.4,0.5,0.4H276.6z"/>
				</g>
			</g>
			<g>
				<g>
					<circle class="st8" cx="276.8" cy="335.8" r="1.7"/>
				</g>
				<g>
					<path class="st9" d="M276.6,336c0.3,0,0.5,0.2,0.5,0.4l0,0c0,0.2-0.2,0.4-0.5,0.4h-8c-0.3,0-0.5-0.2-0.5-0.4l0,0
						c0-0.2,0.2-0.4,0.5-0.4H276.6z"/>
					<path class="st9" d="M276.6,336c0.3,0,0.5,0.2,0.5,0.4l0,0c0,0.2-0.2,0.4-0.5,0.4h-8c-0.3,0-0.5-0.2-0.5-0.4l0,0
						c0-0.2,0.2-0.4,0.5-0.4H276.6z"/>
					<path class="st9" d="M276.6,336.9c0.3,0,0.5-0.2,0.5-0.4l0,0c0-0.2-0.2-0.4-0.5-0.4h-8c-0.3,0-0.5,0.2-0.5,0.4l0,0
						c0,0.2,0.2,0.4,0.5,0.4H276.6z"/>
				</g>
				<g>
					<path class="st9" d="M276.6,334.7c0.3,0,0.5,0.2,0.5,0.4l0,0c0,0.2-0.2,0.4-0.5,0.4h-8c-0.3,0-0.5-0.2-0.5-0.4l0,0
						c0-0.2,0.2-0.4,0.5-0.4H276.6z"/>
					<path class="st9" d="M276.6,334.7c0.3,0,0.5,0.2,0.5,0.4l0,0c0,0.2-0.2,0.4-0.5,0.4h-8c-0.3,0-0.5-0.2-0.5-0.4l0,0
						c0-0.2,0.2-0.4,0.5-0.4H276.6z"/>
					<path class="st9" d="M276.6,335.6c0.3,0,0.5-0.2,0.5-0.4l0,0c0-0.2-0.2-0.4-0.5-0.4h-8c-0.3,0-0.5,0.2-0.5,0.4l0,0
						c0,0.2,0.2,0.4,0.5,0.4H276.6z"/>
				</g>
			</g>
			<g>
				<g>
					<circle class="st8" cx="276.8" cy="327.7" r="1.7"/>
				</g>
				<g>
					<path class="st9" d="M276.6,327.9c0.3,0,0.5,0.2,0.5,0.4l0,0c0,0.2-0.2,0.4-0.5,0.4h-8c-0.3,0-0.5-0.2-0.5-0.4l0,0
						c0-0.2,0.2-0.4,0.5-0.4H276.6z"/>
					<path class="st9" d="M276.6,327.9c0.3,0,0.5,0.2,0.5,0.4l0,0c0,0.2-0.2,0.4-0.5,0.4h-8c-0.3,0-0.5-0.2-0.5-0.4l0,0
						c0-0.2,0.2-0.4,0.5-0.4H276.6z"/>
					<path class="st9" d="M276.6,328.7c0.3,0,0.5-0.2,0.5-0.4l0,0c0-0.2-0.2-0.4-0.5-0.4h-8c-0.3,0-0.5,0.2-0.5,0.4l0,0
						c0,0.2,0.2,0.4,0.5,0.4H276.6z"/>
				</g>
				<g>
					<path class="st9" d="M276.6,326.5c0.3,0,0.5,0.2,0.5,0.4l0,0c0,0.2-0.2,0.4-0.5,0.4h-8c-0.3,0-0.5-0.2-0.5-0.4l0,0
						c0-0.2,0.2-0.4,0.5-0.4H276.6z"/>
					<path class="st9" d="M276.6,326.5c0.3,0,0.5,0.2,0.5,0.4l0,0c0,0.2-0.2,0.4-0.5,0.4h-8c-0.3,0-0.5-0.2-0.5-0.4l0,0
						c0-0.2,0.2-0.4,0.5-0.4H276.6z"/>
					<path class="st9" d="M276.6,327.4c0.3,0,0.5-0.2,0.5-0.4l0,0c0-0.2-0.2-0.4-0.5-0.4h-8c-0.3,0-0.5,0.2-0.5,0.4l0,0
						c0,0.2,0.2,0.4,0.5,0.4H276.6z"/>
				</g>
			</g>
			<g>
				<g>
					<circle class="st8" cx="276.8" cy="319.5" r="1.7"/>
				</g>
				<g>
					<path class="st9" d="M276.6,319.7c0.3,0,0.5,0.2,0.5,0.4l0,0c0,0.2-0.2,0.4-0.5,0.4h-8c-0.3,0-0.5-0.2-0.5-0.4l0,0
						c0-0.2,0.2-0.4,0.5-0.4H276.6z"/>
					<path class="st9" d="M276.6,319.7c0.3,0,0.5,0.2,0.5,0.4l0,0c0,0.2-0.2,0.4-0.5,0.4h-8c-0.3,0-0.5-0.2-0.5-0.4l0,0
						c0-0.2,0.2-0.4,0.5-0.4H276.6z"/>
					<path class="st9" d="M276.6,320.6c0.3,0,0.5-0.2,0.5-0.4l0,0c0-0.2-0.2-0.4-0.5-0.4h-8c-0.3,0-0.5,0.2-0.5,0.4l0,0
						c0,0.2,0.2,0.4,0.5,0.4H276.6z"/>
				</g>
				<g>
					<path class="st9" d="M276.6,318.4c0.3,0,0.5,0.2,0.5,0.4l0,0c0,0.2-0.2,0.4-0.5,0.4h-8c-0.3,0-0.5-0.2-0.5-0.4l0,0
						c0-0.2,0.2-0.4,0.5-0.4H276.6z"/>
					<path class="st9" d="M276.6,318.4c0.3,0,0.5,0.2,0.5,0.4l0,0c0,0.2-0.2,0.4-0.5,0.4h-8c-0.3,0-0.5-0.2-0.5-0.4l0,0
						c0-0.2,0.2-0.4,0.5-0.4H276.6z"/>
					<path class="st9" d="M276.6,319.2c0.3,0,0.5-0.2,0.5-0.4l0,0c0-0.2-0.2-0.4-0.5-0.4h-8c-0.3,0-0.5,0.2-0.5,0.4l0,0
						c0,0.2,0.2,0.4,0.5,0.4H276.6z"/>
				</g>
			</g>
			<g>
				<g>
					<circle class="st8" cx="276.8" cy="360.9" r="1.7"/>
				</g>
				<g>
					<path class="st9" d="M276.6,361c0.3,0,0.5,0.2,0.5,0.4l0,0c0,0.2-0.2,0.4-0.5,0.4h-8c-0.3,0-0.5-0.2-0.5-0.4l0,0
						c0-0.2,0.2-0.4,0.5-0.4H276.6z"/>
					<path class="st9" d="M276.6,361c0.3,0,0.5,0.2,0.5,0.4l0,0c0,0.2-0.2,0.4-0.5,0.4h-8c-0.3,0-0.5-0.2-0.5-0.4l0,0
						c0-0.2,0.2-0.4,0.5-0.4H276.6z"/>
					<path class="st9" d="M276.6,361.9c0.3,0,0.5-0.2,0.5-0.4l0,0c0-0.2-0.2-0.4-0.5-0.4h-8c-0.3,0-0.5,0.2-0.5,0.4l0,0
						c0,0.2,0.2,0.4,0.5,0.4H276.6z"/>
				</g>
				<g>
					<path class="st9" d="M276.6,359.7c0.3,0,0.5,0.2,0.5,0.4l0,0c0,0.2-0.2,0.4-0.5,0.4h-8c-0.3,0-0.5-0.2-0.5-0.4l0,0
						c0-0.2,0.2-0.4,0.5-0.4H276.6z"/>
					<path class="st9" d="M276.6,359.7c0.3,0,0.5,0.2,0.5,0.4l0,0c0,0.2-0.2,0.4-0.5,0.4h-8c-0.3,0-0.5-0.2-0.5-0.4l0,0
						c0-0.2,0.2-0.4,0.5-0.4H276.6z"/>
					<path class="st9" d="M276.6,360.6c0.3,0,0.5-0.2,0.5-0.4l0,0c0-0.2-0.2-0.4-0.5-0.4h-8c-0.3,0-0.5,0.2-0.5,0.4l0,0
						c0,0.2,0.2,0.4,0.5,0.4H276.6z"/>
				</g>
			</g>
			<g>
				<g>
					<circle class="st8" cx="276.8" cy="352.7" r="1.7"/>
				</g>
				<g>
					<path class="st9" d="M276.6,352.9c0.3,0,0.5,0.2,0.5,0.4l0,0c0,0.2-0.2,0.4-0.5,0.4h-8c-0.3,0-0.5-0.2-0.5-0.4l0,0
						c0-0.2,0.2-0.4,0.5-0.4H276.6z"/>
					<path class="st9" d="M276.6,352.9c0.3,0,0.5,0.2,0.5,0.4l0,0c0,0.2-0.2,0.4-0.5,0.4h-8c-0.3,0-0.5-0.2-0.5-0.4l0,0
						c0-0.2,0.2-0.4,0.5-0.4H276.6z"/>
					<path class="st9" d="M276.6,353.7c0.3,0,0.5-0.2,0.5-0.4l0,0c0-0.2-0.2-0.4-0.5-0.4h-8c-0.3,0-0.5,0.2-0.5,0.4l0,0
						c0,0.2,0.2,0.4,0.5,0.4H276.6z"/>
				</g>
				<g>
					<path class="st9" d="M276.6,351.5c0.3,0,0.5,0.2,0.5,0.4l0,0c0,0.2-0.2,0.4-0.5,0.4h-8c-0.3,0-0.5-0.2-0.5-0.4l0,0
						c0-0.2,0.2-0.4,0.5-0.4H276.6z"/>
					<path class="st9" d="M276.6,351.5c0.3,0,0.5,0.2,0.5,0.4l0,0c0,0.2-0.2,0.4-0.5,0.4h-8c-0.3,0-0.5-0.2-0.5-0.4l0,0
						c0-0.2,0.2-0.4,0.5-0.4H276.6z"/>
					<path class="st9" d="M276.6,352.4c0.3,0,0.5-0.2,0.5-0.4l0,0c0-0.2-0.2-0.4-0.5-0.4h-8c-0.3,0-0.5,0.2-0.5,0.4l0,0
						c0,0.2,0.2,0.4,0.5,0.4H276.6z"/>
				</g>
			</g>
			<g>
				<g>
					<circle class="st8" cx="276.8" cy="344.5" r="1.7"/>
				</g>
				<g>
					<path class="st9" d="M276.6,344.7c0.3,0,0.5,0.2,0.5,0.4l0,0c0,0.2-0.2,0.4-0.5,0.4h-8c-0.3,0-0.5-0.2-0.5-0.4l0,0
						c0-0.2,0.2-0.4,0.5-0.4H276.6z"/>
					<path class="st9" d="M276.6,344.7c0.3,0,0.5,0.2,0.5,0.4l0,0c0,0.2-0.2,0.4-0.5,0.4h-8c-0.3,0-0.5-0.2-0.5-0.4l0,0
						c0-0.2,0.2-0.4,0.5-0.4H276.6z"/>
					<path class="st9" d="M276.6,345.6c0.3,0,0.5-0.2,0.5-0.4l0,0c0-0.2-0.2-0.4-0.5-0.4h-8c-0.3,0-0.5,0.2-0.5,0.4l0,0
						c0,0.2,0.2,0.4,0.5,0.4H276.6z"/>
				</g>
				<g>
					<path class="st9" d="M276.6,343.4c0.3,0,0.5,0.2,0.5,0.4l0,0c0,0.2-0.2,0.4-0.5,0.4h-8c-0.3,0-0.5-0.2-0.5-0.4l0,0
						c0-0.2,0.2-0.4,0.5-0.4H276.6z"/>
					<path class="st9" d="M276.6,343.4c0.3,0,0.5,0.2,0.5,0.4l0,0c0,0.2-0.2,0.4-0.5,0.4h-8c-0.3,0-0.5-0.2-0.5-0.4l0,0
						c0-0.2,0.2-0.4,0.5-0.4H276.6z"/>
					<path class="st9" d="M276.6,344.2c0.3,0,0.5-0.2,0.5-0.4l0,0c0-0.2-0.2-0.4-0.5-0.4h-8c-0.3,0-0.5,0.2-0.5,0.4l0,0
						c0,0.2,0.2,0.4,0.5,0.4H276.6z"/>
				</g>
			</g>
		</g>
	</g>
	<g>
		<rect x="291.3" y="309.9" class="st10" width="91" height="0.6"/>
	</g>
	<g>
		<rect x="291.3" y="317.9" class="st10" width="91" height="0.6"/>
	</g>
	<g>
		<rect x="291.3" y="325.9" class="st10" width="91" height="0.6"/>
	</g>
</g>
<g>
	<g class="st11">
		<polygon class="st12" points="273.5,262.5 273.5,269.4 280.1,269.4 280.1,262.5 		"/>
		<polygon class="st12" points="394.7,265.9 391.2,265.2 391.2,265.2 379.2,262.5 280.1,262.5 280.1,265.9 280.1,265.9 280.1,265.9 
			280.1,269.4 379.2,269.4 391.2,266.7 391.2,266.7 		"/>
	</g>
	<g>
		<g>
			<polygon class="st13" points="275.4,258.8 268.9,258.8 268.9,265.6 275.4,265.7 			"/>
			<g>
				<polygon class="st14" points="275.5,258.8 275.4,262.2 275.5,265.7 374.5,265.6 374.5,258.8 				"/>
			</g>
			<g>
				<polygon class="st8" points="275.4,262.2 275.5,265.7 374.5,265.6 374.5,262.2 				"/>
			</g>
			<polygon class="st6" points="390,262.2 374.5,258.8 374.5,265.6 			"/>
			<polygon class="st14" points="390,262.2 386.6,261.5 386.6,263 			"/>
		</g>
	</g>
</g>
<g>
	<path class="st7" d="M421.6,267.2L421.6,267.2l0-16c0-0.9-0.7-1.5-1.5-1.5l-9.4,0c-0.9,0-1.5,0.7-1.5,1.5l0,16h0l0,6.5
		c0,0.9,0.7,1.5,1.5,1.5l9.4,0c0.9,0,1.5-0.7,1.5-1.6L421.6,267.2z"/>
	<g>
		<g>
			<path class="st6" d="M418.3,273.7c0,0.9-0.7,1.5-1.5,1.6l-9.4,0c-0.9,0-1.5-0.7-1.5-1.5l-0.1-22.4c0-0.9,0.7-1.5,1.5-1.5l9.4,0
				c0.9,0,1.5,0.7,1.5,1.5L418.3,273.7z"/>
			<g>
				<path class="st15" d="M405.7,273.7c0,0.9,0.7,1.5,1.5,1.5l9.4,0c0.9,0,1.5-0.7,1.5-1.6l0-6.5l-12.5,0L405.7,273.7z"/>
			</g>
		</g>
	</g>
</g>
<g>
	<g>
		<circle class="st16" cx="585.3" cy="99" r="22.7"/>
	</g>
	<g>
		<rect x="562.7" y="99" class="st16" width="45.3" height="61.1"/>
	</g>
	<g>
		<circle class="st17" cx="585.3" cy="97.7" r="13.4"/>
	</g>
	<g>
		<g>
			
				<rect x="573.5" y="133.8" transform="matrix(0.7071 -0.7071 0.7071 0.7071 75.6758 453.8721)" class="st0" width="24.5" height="3.5"/>
		</g>
		<g>
			<circle class="st0" cx="592.7" cy="142.5" r="4.8"/>
		</g>
		<g>
			<circle class="st0" cx="578.7" cy="128.5" r="4.8"/>
		</g>
	</g>
</g>
<g>
	<g>
		<polygon class="st0" points="615.1,261.9 553.7,261.9 540.1,203.1 628.7,203.1 		"/>
	</g>
	<g>
		<circle class="st0" cx="557.1" cy="282" r="9.6"/>
	</g>
	<g>
		<circle class="st0" cx="611.8" cy="282" r="9.6"/>
	</g>
	<g>
		<rect x="621" y="203.1" class="st0" width="24.6" height="7.8"/>
	</g>
	<g>
		<polygon class="st18" points="616.8,214 613.1,229.2 555.6,229.2 551.9,214 		"/>
	</g>
	<g>
		<polygon class="st18" points="611.3,237.5 607.7,252.7 561,252.7 557.4,237.5 		"/>
	</g>
	<g>
		<polygon class="st18" points="575.4,199.3 593.3,185.3 605.4,199.3 		"/>
	</g>
	<g>
		<rect x="553.7" y="261.9" class="st0" width="6.8" height="13.5"/>
	</g>
	<g>
		<rect x="608.3" y="261.9" class="st0" width="6.8" height="13.5"/>
	</g>
	<g>
		<circle class="st0" cx="646.6" cy="210.5" r="7.4"/>
	</g>
</g>
<g>
	<g>
		<g>
			<polygon class="st19" points="314,184.1 269.7,184.1 269.7,123 301.7,123 314,134.6 			"/>
			<polygon class="st20" points="301.7,134.7 301.7,123 314.1,134.7 			"/>
		</g>
		<g>
			<path class="st21" d="M307.1,168.7h-30.3c-0.8,0-1.4,0.6-1.4,1.4l0,0c0,0.8,0.6,1.4,1.4,1.4h30.3c0.8,0,1.4-0.6,1.4-1.4l0,0
				C308.5,169.3,307.9,168.7,307.1,168.7z"/>
			<path class="st21" d="M307.1,159.6h-30.3c-0.8,0-1.4,0.6-1.4,1.4l0,0c0,0.8,0.6,1.4,1.4,1.4h30.3c0.8,0,1.4-0.6,1.4-1.4l0,0
				C308.5,160.3,307.9,159.6,307.1,159.6z"/>
			<path class="st21" d="M307.1,151.7h-30.3c-0.8,0-1.4,0.6-1.4,1.4l0,0c0,0.8,0.6,1.4,1.4,1.4h30.3c0.8,0,1.4-0.6,1.4-1.4l0,0
				C308.5,152.3,307.9,151.7,307.1,151.7z"/>
			<path class="st21" d="M307.1,144.4h-30.3c-0.8,0-1.4,0.6-1.4,1.4l0,0c0,0.8,0.6,1.4,1.4,1.4h30.3c0.8,0,1.4-0.6,1.4-1.4l0,0
				C308.5,145,307.9,144.4,307.1,144.4z"/>
			<path class="st21" d="M293.4,136.2h-17.3c-0.4,0-0.8,0.6-0.8,1.4l0,0c0,0.8,0.4,1.4,0.8,1.4h17.3c0.4,0,0.8-0.6,0.8-1.4l0,0
				C294.2,136.8,293.9,136.2,293.4,136.2z"/>
		</g>
	</g>
	<rect x="310.9" y="66.9" class="st22" width="0.1" height="0.2"/>
	<g>
		<path class="st17" d="M469.3,121.7c-4.1-4.1-9.7-6.6-16-6.6v22.6L469.3,121.7z"/>
		<path class="st23" d="M477.5,145.7c1.3-2.8,2-5.8,2-9.1c0-5.9-2.4-11.3-6.3-15.2l-15.2,15.2L477.5,145.7z"/>
		<path class="st23" d="M442.1,110.2c-3.9,1.3-7.5,3.5-10.7,6.5c-5.7,5.5-8.7,12.9-8.8,20.3l28.9,0.5L442.1,110.2z"/>
		<path class="st17" d="M437.4,153.6c4.1,4.1,9.7,6.6,16,6.6v-22.6L437.4,153.6z"/>
		<path class="st17" d="M453.4,137.6v22.6c9.1,0,16.8-5.4,20.4-13L453.4,137.6z"/>
	</g>
	<g>
		<g>
			<polygon class="st19" points="398.5,107.3 398.5,166 317.4,166 317.4,123.7 332.8,107.3 			"/>
			<polygon class="st20" points="332.9,123.7 317.4,123.7 332.9,107.2 			"/>
		</g>
		<g>
			<g>
				<rect x="354.9" y="132.2" class="st17" width="5.8" height="25.6"/>
				<rect x="365" y="143.1" class="st17" width="5.8" height="14.6"/>
				<rect x="375.6" y="135" class="st17" width="5.8" height="22.7"/>
				<path class="st21" d="M391.4,156.6h-42.9v-39.2c0-0.6-0.6-1.1-1.2-1.1c-0.7,0-1.2,0.5-1.2,1.1v40.4c0,0.6,0.6,1.1,1.2,1.1
					c0.1,0,0.1,0,0.2,0s0.1,0,0.2,0h43.9c0.7,0,1.2-0.5,1.2-1.1C392.7,157.1,392.1,156.6,391.4,156.6z"/>
			</g>
			<rect x="321.7" y="133.3" class="st21" width="4.9" height="4.9"/>
			<path class="st21" d="M337.7,136.7h-7.9c-0.4,0-0.7-0.3-0.7-0.7v-0.6c0-0.4,0.3-0.7,0.7-0.7h7.9c0.4,0,0.7,0.3,0.7,0.7v0.6
				C338.3,136.4,338.1,136.7,337.7,136.7z"/>
			<rect x="321.7" y="141.6" class="st17" width="4.9" height="4.9"/>
			<path class="st21" d="M338.2,145h-8.4c-0.4,0-0.7-0.3-0.7-0.7v-0.6c0-0.4,0.3-0.7,0.7-0.7h8.4c0.4,0,0.7,0.3,0.7,0.7v0.6
				C338.9,144.7,338.6,145,338.2,145z"/>
			<rect x="321.7" y="150.4" class="st17" width="4.9" height="4.9"/>
			<path class="st21" d="M335.9,153.8h-6.1c-0.4,0-0.7-0.3-0.7-0.7v-0.6c0-0.4,0.3-0.7,0.7-0.7h6.1c0.4,0,0.7,0.3,0.7,0.7v0.6
				C336.6,153.5,336.2,153.8,335.9,153.8z"/>
		</g>
	</g>
	<path class="st24" d="M433.9,51.1l2.1-1c0.7-0.3,0.7-1.3,0-1.7l-2.1-1c-0.6-0.3-1.1-0.8-1.4-1.4l-1-2.1c-0.3-0.7-1.3-0.7-1.7,0
		l-1,2.1c-0.3,0.6-0.8,1.1-1.4,1.4l-2.1,1c-0.7,0.3-0.7,1.3,0,1.7l2.1,1c0.6,0.3,1.1,0.8,1.4,1.4l1,2.1c0.3,0.7,1.3,0.7,1.7,0l1-2.1
		C432.9,51.9,433.4,51.4,433.9,51.1z"/>
	<path class="st24" d="M465.5,186.8l2.5-1.2c0.8-0.4,0.8-1.6,0-2l-2.5-1.2c-0.7-0.4-1.3-0.9-1.7-1.7l-1.2-2.5c-0.4-0.8-1.6-0.8-2,0
		l-1.2,2.5c-0.4,0.7-0.9,1.3-1.7,1.7l-2.5,1.2c-0.8,0.4-0.8,1.6,0,2l2.5,1.2c0.7,0.4,1.3,0.9,1.7,1.7l1.2,2.5c0.4,0.8,1.6,0.8,2,0
		l1.2-2.5C464.3,187.8,464.8,187.2,465.5,186.8z"/>
	<g>
		<path class="st25" d="M445.6,197.3c-2.2,2.2-5.9,2.2-8.2,0l-27.2-27.2c3.5-1.9,6.3-4.8,8-8.4l27.4,27.4
			C447.9,191.4,447.9,195.1,445.6,197.3z"/>
		<path class="st26" d="M424.4,167.9c-2.1,3.3-4.8,6.2-8.1,8.4l-6.1-6.2c3.5-1.9,6.3-4.8,8-8.4L424.4,167.9z"/>
		<g>
			<path class="st17" d="M401.7,130.6c-13,0-23.4,10.5-23.4,23.4c0,13,10.5,23.4,23.4,23.4c13,0,23.4-10.5,23.4-23.4
				C425.1,141.1,414.6,130.6,401.7,130.6z M401.7,172.3c-10.1,0-18.2-8.1-18.2-18.2c0-10.1,8.1-18.2,18.2-18.2s18.2,8.1,18.2,18.2
				C419.9,164.1,411.7,172.3,401.7,172.3z"/>
			
				<ellipse transform="matrix(0.9732 -0.2298 0.2298 0.9732 -24.6467 96.4314)" class="st27" cx="401.7" cy="154" rx="18.2" ry="18.2"/>
		</g>
	</g>
	<g>
		<polygon class="st23" points="309.5,115.5 294.6,100.6 281.4,113.9 278.7,111.2 294.6,95.3 309.5,110.2 323.5,96.3 326.1,98.9 		
			"/>
		<g>
			<circle class="st17" cx="325.7" cy="97.9" r="4.6"/>
			<circle class="st17" cx="309" cy="112.6" r="4.7"/>
			<circle class="st17" cx="294.2" cy="98" r="3"/>
			<circle class="st17" cx="279.4" cy="112.8" r="4.1"/>
		</g>
	</g>
	<g>
		<polygon class="st23" points="410.1,124.3 387.1,102.1 389.7,99.4 409.5,118.5 437.9,79.7 461,106.1 458.2,108.6 438.2,85.7 		"/>
		<path class="st17" d="M414.2,120.5c0,2.1-1.7,3.8-3.8,3.8c-2.1,0-3.8-1.7-3.8-3.8c0-2.1,1.7-3.8,3.8-3.8
			C412.5,116.7,414.2,118.4,414.2,120.5z"/>
		<circle class="st17" cx="389.4" cy="101.4" r="5"/>
		<path class="st17" d="M463.1,106.2c0,1.7-1.4,3.1-3.1,3.1c-1.7,0-3.1-1.4-3.1-3.1s1.4-3.1,3.1-3.1
			C461.8,103.1,463.1,104.5,463.1,106.2z"/>
		<path class="st17" d="M441.3,82.7c0,1.8-1.5,3.3-3.3,3.3c-1.8,0-3.3-1.5-3.3-3.3c0-1.8,1.5-3.3,3.3-3.3
			C439.8,79.4,441.3,80.9,441.3,82.7z"/>
	</g>
</g>
</svg>
