<?xml version="1.0" encoding="utf-8"?>
<!-- Generator: Adobe Illustrator 21.1.0, SVG Export Plug-In . SVG Version: 6.00 Build 0)  -->
<svg version="1.1" id="Layer_1" xmlns="http://www.w3.org/2000/svg" xmlns:xlink="http://www.w3.org/1999/xlink" x="0px" y="0px"
	 viewBox="0 0 662 400" style="enable-background:new 0 0 662 400;" xml:space="preserve">
<style type="text/css">
	.st0{fill:#7FD4E2;}
	.st1{fill:#F2F2F2;}
	.st2{fill:#FFFFFF;}
	.st3{fill:#EFB095;}
	.st4{fill:#FFC9AB;}
	.st5{fill:#2D2C2B;}
	.st6{fill:#1E1D1D;}
	.st7{fill:#D8D8D8;}
	.st8{fill:#E5E5E5;}
	.st9{fill:#E09B82;}
	.st10{fill:#F4BDA2;}
	.st11{fill:#161515;}
	.st12{fill:#AF3333;}
	.st13{fill:#FFEBC2;}
	.st14{fill:#935D3A;}
	.st15{fill:#895234;}
	.st16{fill:#7C482E;}
	.st17{fill:#663A29;}
	.st18{fill:#AD785A;}
	.st19{fill:#EAB19B;}
	.st20{fill:#935F42;}
	.st21{fill:#55587D;}
	.st22{fill:#754320;}
	.st23{fill:#422513;}
	.st24{fill:#FED000;}
	.st25{fill:#E0A527;}
	.st26{fill:#54616B;}
	.st27{fill:none;stroke:#F1DAD2;stroke-width:2;stroke-miterlimit:10;}
	.st28{fill:#F1DAD2;}
	.st29{fill:#F7A9A9;}
</style>
<g>
	<g>
		<path class="st0" d="M526.5,249.5c0,105.2-85.3,164.7-190.5,164.7s-190.5-59.5-190.5-164.7C145.5,144.3,230.8,59,336,59
			S526.5,144.3,526.5,249.5z"/>
		<g>
			<path class="st1" d="M427.1,138.1c7-3,11.9-10,11.9-18.1c0-10.9-8.8-19.7-19.7-19.7c-1.3,0-2.6,0.1-3.9,0.4
				c3.7-85.1-79.1-73.5-79.1-73.5v36.5c0,0,29.9,104.8,29.9,104.8c0.9,3.1,1.1,6.5,2.1,9.6c4.9,15.6,17.7,29.3,34.7,30.7
				c8.6,0.7,16.2-3.2,19.9-11.2c1-2.2,1.6-4.7,1.7-7.1c0.3-6.5-2.6-12.4-7.2-16.2c10.1-0.4,18.4-8.4,18.9-18.7
				C436.7,148.4,433,141.8,427.1,138.1z"/>
			<path class="st2" d="M245.8,138.1c-7-3-11.9-10-11.9-18.1c0-10.9,8.8-19.7,19.7-19.7c1.3,0,2.6,0.1,3.9,0.4
				c-3.7-85.1,79.1-73.5,79.1-73.5v36.5c0,0-29.9,104.8-29.9,104.8c-0.9,3.1-1.1,6.5-2.1,9.6c-4.9,15.6-17.7,29.3-34.7,30.7
				c-8.6,0.7-16.2-3.2-19.9-11.2c-1-2.2-1.6-4.7-1.7-7.1c-0.3-6.5,2.6-12.4,7.2-16.2c-10.1-0.4-18.4-8.4-18.9-18.7
				C236.2,148.4,239.9,141.8,245.8,138.1z"/>
		</g>
		<g>
			<circle class="st3" cx="396.8" cy="133.5" r="14.9"/>
			<circle class="st4" cx="276.1" cy="133.5" r="14.9"/>
		</g>
		<g>
			<path class="st5" d="M264.9,225.7c0,0-65.9,25.8-76.3,42.7c-10.4,16.9-26.1,58.2-28,92.2H336v-135H264.9z"/>
			<path class="st6" d="M407.1,225.7c0,0,65.9,25.8,76.3,42.7c10.4,16.9,26.1,58.2,28,92.2H336v-135H407.1z"/>
			<g>
				<polygon class="st7" points="336.2,252.6 336.2,295.4 383.1,295.4 339.3,246.5 				"/>
				<polygon class="st8" points="336.2,252.6 336.2,295.4 289.3,295.4 333.1,246.5 				"/>
			</g>
			<g>
				<polygon class="st9" points="336.2,186.8 336.2,227.6 368.9,211.8 368.9,172.9 				"/>
				<polygon class="st10" points="336.2,186.8 336.2,227.6 303.5,211.8 303.5,172.9 				"/>
			</g>
			<path class="st4" d="M336.5,63.8c-14.7,29.4-60.3,33.1-60.3,33.1s0.4,61,8.1,71.7c13.7,18,37.1,27.4,47.3,30.8
				c3.2,1.1,6.7,1.1,9.9,0c10.2-3.4,33.6-12.9,47.3-30.8c7.7-10.8,8.1-71.7,8.1-71.7S351.2,93.2,336.5,63.8z"/>
			<g>
				<polygon class="st11" points="336.2,223.4 351.1,246.6 390.4,220.5 373.9,200.3 				"/>
				<polygon class="st6" points="336.2,223.4 321.3,246.6 282,220.5 298.5,200.3 				"/>
				<g>
					<polygon class="st8" points="336.2,223.4 336.2,262.7 351.1,246.6 					"/>
					<polygon class="st2" points="336.2,223.4 336.2,262.7 321.3,246.6 					"/>
				</g>
			</g>
			<g>
				<path class="st11" d="M336,360.7c0,0,2.8-30.7,13.5-63c16.9-51.1,38.4-83.7,42.1-83.7c7.7,0,18.6,5.1,21.9,7.5
					c4.2,3.1-5.5,8.5-16.8,59.2c-9.1,40.7-6.3,80-6.3,80H336z"/>
				<path class="st6" d="M336.4,360.7c0,0-2.8-30.7-13.5-63c-16.9-51.1-38.4-83.7-42.1-83.7c-7.7,0-18.6,5.1-21.9,7.5
					c-4.2,3.1,5.5,8.5,16.8,59.2c9.1,40.7,6.3,80,6.3,80H336.4z"/>
			</g>
		</g>
		<g>
			<g>
				<g>
					<path class="st12" d="M434,329.7h106.9v-5.3H434.4c-10,0-18.1,8.1-18.1,18.1v0c0,10,8.1,18.1,18.1,18.1h106.5v-5.3H434V329.7z"
						/>
				</g>
				
					<rect x="470" y="289.9" transform="matrix(-1.836970e-16 1 -1 -1.836970e-16 825.2559 -140.269)" class="st13" width="25.5" height="105.1"/>
			</g>
			<g>
				<path class="st14" d="M208.5,326.2h-68.3c-2.6,0-4.9,1.8-5.5,4.3l-0.8,3.4h81l-0.8-3.4C213.4,328,211.1,326.2,208.5,326.2z"/>
				<g>
					
						<rect x="162.7" y="258.7" transform="matrix(0.5439 -0.8392 0.8392 0.5439 -143.2871 295.8275)" class="st14" width="75.6" height="42"/>
					<polygon class="st15" points="238.7,259.4 197.6,322.9 203.4,236.6 					"/>
					<g>
						<path class="st16" d="M209.9,311.5L209.9,311.5c1.4-2.2,0.8-5.1-1.4-6.6l-34.2-22.2c-2.2-1.4-5.1-0.8-6.6,1.4l0,0
							c-1.4,2.2-0.8,5.1,1.4,6.6l34.2,22.2C205.5,314.3,208.4,313.7,209.9,311.5z"/>
						<path class="st16" d="M201.9,323.7L201.9,323.7c1.4-2.2,0.8-5.1-1.4-6.6L166.3,295c-2.2-1.4-5.1-0.8-6.6,1.4l0,0
							c-1.4,2.2-0.8,5.1,1.4,6.6l34.2,22.2C197.6,326.6,200.5,325.9,201.9,323.7z"/>
					</g>
					<path class="st14" d="M217.7,303.2l11.3-17.4c0.7-1.1,0.4-2.6-0.7-3.3l-3.1-2l-13.9,21.5l3.1,2
						C215.4,304.6,216.9,304.3,217.7,303.2z"/>
					<path class="st15" d="M217.7,303.2l11.3-17.4c0.7-1.1,0.4-2.6-0.7-3.3l-3.1-2l-10.8,23.5C215.4,304.6,216.9,304.3,217.7,303.2z
						"/>
					<path class="st14" d="M318.2,356L318.2,356c3.1-4.7,1.7-11.1-3-14.2l-86.3-55.9l-11.1,17.2L304,359
						C308.8,362.1,315.1,360.8,318.2,356z"/>
					<path class="st17" d="M239.1,293.3l-10.5,16.2c-0.8,1.2-2.3,1.5-3.5,0.7l0,0c-1.2-0.8-1.5-2.3-0.7-3.5l10.5-16.2
						c0.8-1.2,2.3-1.5,3.5-0.7l0,0C239.5,290.6,239.8,292.1,239.1,293.3z"/>
					<path class="st17" d="M245.4,297.4l-10.5,16.2c-0.8,1.2-2.3,1.5-3.5,0.7l0,0c-1.2-0.8-1.5-2.3-0.7-3.5l10.5-16.2
						c0.8-1.2,2.3-1.5,3.5-0.7v0C245.8,294.7,246.2,296.2,245.4,297.4z"/>
					<path class="st17" d="M297.7,331.3l-10.5,16.2c-0.8,1.2-2.3,1.5-3.5,0.7l0,0c-1.2-0.8-1.5-2.3-0.7-3.5l10.5-16.2
						c0.8-1.2,2.3-1.5,3.5-0.7l0,0C298.1,328.6,298.5,330.1,297.7,331.3z"/>
					<path class="st17" d="M304.1,335.4l-10.5,16.2c-0.8,1.2-2.3,1.5-3.5,0.7l0,0c-1.2-0.8-1.5-2.3-0.7-3.5l10.5-16.2
						c0.8-1.2,2.3-1.5,3.5-0.7l0,0C304.5,332.7,304.8,334.2,304.1,335.4z"/>
					<g>
						<g>
							<path class="st16" d="M241.2,263.2L241.2,263.2c1.4-2.2,0.8-5.1-1.4-6.6l-34.2-22.2c-2.2-1.4-5.1-0.8-6.6,1.4l0,0
								c-1.4,2.2-0.8,5.1,1.4,6.6l34.2,22.2C236.8,266,239.7,265.4,241.2,263.2z"/>
							<path class="st16" d="M233.2,275.4L233.2,275.4c1.4-2.2,0.8-5.1-1.4-6.6l-34.2-22.2c-2.2-1.4-5.1-0.8-6.6,1.4l0,0
								c-1.4,2.2-0.8,5.1,1.4,6.6l34.2,22.2C228.9,278.3,231.8,277.6,233.2,275.4z"/>
						</g>
						<path class="st17" d="M199,235.8l42.2,27.3c1.4-2.2,0.8-5.1-1.4-6.6l-34.2-22.2C203.4,233,200.4,233.6,199,235.8z"/>
						<path class="st17" d="M191.1,248.1l42.2,27.3c1.4-2.2,0.8-5.1-1.4-6.6l-34.2-22.2C195.4,245.3,192.5,245.9,191.1,248.1z"/>
						<path class="st17" d="M167.7,284.1l42.2,27.3c1.4-2.2,0.8-5.1-1.4-6.6l-34.2-22.2C172.1,281.3,169.1,281.9,167.7,284.1z"/>
						<path class="st17" d="M159.7,296.4l42.2,27.3c1.4-2.2,0.8-5.1-1.4-6.6L166.3,295C164.1,293.6,161.2,294.2,159.7,296.4z"/>
					</g>
					<path class="st16" d="M234.9,290.5l-10.5,16.2c-0.8,1.2-0.4,2.7,0.7,3.5l13.2-20.4C237.2,289.1,235.6,289.4,234.9,290.5z"/>
					<path class="st16" d="M241.2,294.6l-10.5,16.2c-0.8,1.2-0.4,2.7,0.7,3.5l13.2-20.4C243.5,293.2,242,293.5,241.2,294.6z"/>
					<path class="st16" d="M293.5,328.5L283,344.7c-0.8,1.2-0.4,2.7,0.7,3.5l13.2-20.4C295.8,327.1,294.3,327.4,293.5,328.5z"/>
					<path class="st16" d="M299.9,332.7l-10.5,16.2c-0.8,1.2-0.4,2.7,0.7,3.5l13.2-20.4C302.2,331.2,300.6,331.5,299.9,332.7z"/>
					<g>
						<polygon class="st18" points="255.7,327.7 257.1,304.2 252,300.9 250.7,324.5 						"/>
						<polygon class="st18" points="260.2,330.7 261.6,307.1 258.9,305.4 257.6,329 						"/>
					</g>
					<g>
						<polygon class="st18" points="274.2,339.7 275.5,316.2 270.5,312.9 269.1,336.4 						"/>
						<polygon class="st18" points="278.7,342.6 280,319.1 277.4,317.4 276.1,340.9 						"/>
					</g>
				</g>
				<rect x="133.6" y="339" class="st14" width="81.1" height="14.7"/>
				<polygon class="st15" points="214.7,353.7 133.6,353.7 214.7,339 				"/>
				<path class="st16" d="M213.8,339h-79.2c-1.9,0-3.5-1.6-3.5-3.5l0,0c0-1.9,1.6-3.5,3.5-3.5h79.2c1.9,0,3.5,1.6,3.5,3.5l0,0
					C217.3,337.4,215.7,339,213.8,339z"/>
				<path class="st16" d="M213.8,360.7h-79.2c-1.9,0-3.5-1.6-3.5-3.5l0,0c0-1.9,1.6-3.5,3.5-3.5h79.2c1.9,0,3.5,1.6,3.5,3.5l0,0
					C217.3,359.1,215.7,360.7,213.8,360.7z"/>
				<path class="st17" d="M213.8,331.9h-79.2c-1.9,0-3.5,1.6-3.5,3.5h86.2C217.3,333.5,215.7,331.9,213.8,331.9z"/>
				<path class="st17" d="M213.8,353.7h-79.2c-1.9,0-3.5,1.6-3.5,3.5h86.2C217.3,355.2,215.7,353.7,213.8,353.7z"/>
			</g>
		</g>
		<path class="st3" d="M336.5,63.8v136.4c1.7,0,3.3-0.3,4.9-0.8c10.2-3.4,33.6-12.9,47.3-30.8c7.7-10.8,8.1-71.7,8.1-71.7
			S351.2,93.2,336.5,63.8z"/>
		<g>
			<path class="st19" d="M333.2,118.9l-8.1,32.7c-0.8,2.5,1.1,5,3.7,5h7.2h7.2c2.6,0,4.5-2.5,3.7-5l-8.1-32.7
				C337.9,116.2,334.1,116.2,333.2,118.9z"/>
			<path class="st9" d="M346.9,151.6l-8.1-32.7c-0.4-1.3-1.5-2-2.6-2v39.7h7C345.8,156.6,347.7,154.1,346.9,151.6z"/>
		</g>
		<g>
			<g>
				<path class="st5" d="M347.2,134c-7.1-3.6-15.4-3.6-22.5,0c-1-1.9-1.9-3.8-2.9-5.7c8.9-4.5,19.4-4.5,28.3,0
					C349.2,130.2,348.2,132.1,347.2,134z"/>
			</g>
			<g>
				<circle class="st5" cx="366.9" cy="129.4" r="21.4"/>
				<circle class="st3" cx="366.9" cy="129.4" r="16.5"/>
			</g>
			<g>
				<circle class="st5" cx="305.1" cy="129.4" r="21.4"/>
				<circle class="st4" cx="305.1" cy="129.4" r="16.5"/>
			</g>
		</g>
	</g>
	<g>
		<rect x="86" y="360.5" class="st20" width="500" height="78.5"/>
		<rect x="336" y="360.5" class="st15" width="250" height="78.5"/>
	</g>
</g>
<g>
	<circle class="st21" cx="99.8" cy="116.4" r="59.6"/>
	<g>
		<g>
			
				<rect x="96.2" y="83.6" transform="matrix(0.9994 -3.419988e-02 3.419988e-02 0.9994 -3.9252 3.4342)" class="st22" width="4.5" height="65.6"/>
			
				<rect x="98.7" y="83.6" transform="matrix(0.9994 -3.422869e-02 3.422869e-02 0.9994 -3.9262 3.4805)" class="st23" width="2" height="65.6"/>
		</g>
		<path class="st24" d="M100.7,83.2l-7.1,0.2c-0.6,0-1,0.5-1,1l0,0c0,0.6,0.5,1,1,1l7.1-0.2c0.6,0,1-0.5,1-1l0,0
			C101.7,83.7,101.3,83.2,100.7,83.2z"/>
		<path class="st24" d="M102.9,147.2l-6.9,0.2c-2.1,0.1-3.7,1.8-3.7,3.9l14.5-0.5C106.8,148.7,105,147.1,102.9,147.2z"/>
		<path class="st24" d="M107.1,150.8l-14.9,0.5c-2.9,0.1-5.2,2.5-5.1,5.4l25.4-0.9C112.4,153,110,150.7,107.1,150.8z"/>
		<g>
			<path class="st24" d="M74.1,99.4c-7.3,0.3-13.2-3.2-13.5-3.4c-0.8-0.5-1.1-1.6-0.7-2.5c0.4-0.9,1.4-1.2,2.2-0.7
				c0.1,0,7.3,4.3,15.1,2.5c3.4-0.8,5.9-1.9,8.3-3c3.5-1.6,6.8-3.1,12.2-3.3c5.4-0.2,8.8,1.1,12.4,2.4c2.5,0.9,5,1.9,8.5,2.4
				c7.9,1.2,14.8-3.5,14.9-3.5c0.8-0.5,1.8-0.3,2.3,0.6c0.5,0.8,0.3,2-0.5,2.5c-0.3,0.2-8,5.5-17.1,4.1c-3.8-0.6-6.6-1.6-9.1-2.6
				c-3.5-1.3-6.4-2.4-11.3-2.2c-4.8,0.2-7.7,1.5-11.1,3c-2.4,1.1-5.2,2.3-8.9,3.2C76.7,99.2,75.4,99.3,74.1,99.4z"/>
			<g>
				
					<rect x="66.4" y="94.2" transform="matrix(0.9994 -3.417866e-02 3.417866e-02 0.9994 -3.8632 2.3502)" class="st25" width="0.9" height="39.9"/>
				
					<rect x="60" y="95.4" transform="matrix(0.9524 0.305 -0.305 0.9524 37.7184 -13.0015)" class="st25" width="0.9" height="37.7"/>
				
					<rect x="72.7" y="94.9" transform="matrix(0.9292 -0.3695 0.3695 0.9292 -36.8693 35.0802)" class="st25" width="0.9" height="37.7"/>
				<g>
					<path class="st24" d="M51.9,129.4c0,0.3,0,0.5,0,0.8c0.3,8.5,7.4,15.2,16,14.9c8.5-0.3,15.2-7.4,14.9-16c0-0.3,0-0.5-0.1-0.8
						L51.9,129.4z"/>
					<path class="st25" d="M82.7,128.4l-3.8,0.1c-1.5,6.7-7.3,11.9-14.5,12.1c-4.2,0.1-8-1.4-10.8-3.9c2.6,5.2,8.1,8.7,14.3,8.5
						c8.5-0.3,15.2-7.4,14.9-16C82.8,128.9,82.7,128.6,82.7,128.4z"/>
				</g>
				<path class="st24" d="M82.3,126.8l-30.1,1c-0.8,0-1.4,0.7-1.4,1.5c0,0.8,0.7,1.4,1.5,1.4l30.1-1c0.8,0,1.4-0.7,1.4-1.5
					C83.8,127.4,83.1,126.8,82.3,126.8z"/>
			</g>
			<g>
				
					<rect x="130.3" y="92" transform="matrix(0.9994 -3.417866e-02 3.417866e-02 0.9994 -3.751 4.5352)" class="st25" width="0.9" height="39.9"/>
				
					<rect x="124" y="93.2" transform="matrix(0.9523 0.305 -0.305 0.9523 40.1036 -32.6187)" class="st25" width="0.9" height="37.7"/>
				
					<rect x="136.7" y="92.7" transform="matrix(0.9293 -0.3694 0.3694 0.9293 -31.5268 58.5429)" class="st25" width="0.9" height="37.7"/>
				<g>
					<path class="st24" d="M115.9,127.2c0,0.3,0,0.5,0,0.8c0.3,8.5,7.4,15.2,16,14.9c8.5-0.3,15.2-7.4,14.9-16c0-0.3,0-0.5-0.1-0.8
						L115.9,127.2z"/>
					<path class="st25" d="M146.7,126.2l-3.8,0.1c-1.5,6.7-7.3,11.9-14.5,12.1c-4.2,0.1-8-1.4-10.8-3.9c2.6,5.2,8.1,8.7,14.3,8.5
						c8.5-0.3,15.2-7.4,14.9-16C146.7,126.7,146.7,126.5,146.7,126.2z"/>
				</g>
				<path class="st24" d="M146.3,124.6l-30.1,1c-0.8,0-1.4,0.7-1.4,1.5c0,0.8,0.7,1.4,1.5,1.4l30.1-1c0.8,0,1.4-0.7,1.4-1.5
					C147.7,125.2,147.1,124.6,146.3,124.6z"/>
			</g>
		</g>
		<g>
			
				<ellipse transform="matrix(0.9994 -3.420141e-02 3.420141e-02 0.9994 -2.6428 3.3685)" class="st24" cx="97.1" cy="78.9" rx="4.4" ry="4.4"/>
			<path class="st25" d="M99.7,75.3c0.2,0.4,0.3,0.9,0.3,1.4c0.1,2.4-1.8,4.5-4.3,4.6c-1,0-2-0.3-2.7-0.8c0.6,1.7,2.3,2.9,4.3,2.9
				c2.4-0.1,4.4-2.1,4.3-4.6C101.5,77.4,100.8,76.1,99.7,75.3z"/>
		</g>
		<path class="st25" d="M92.5,150.3c-0.1,0.3-0.1,0.7-0.1,1l14.5-0.5c0-0.4-0.1-0.7-0.2-1L92.5,150.3z"/>
	</g>
</g>
<circle class="st21" cx="586.1" cy="153.7" r="65.9"/>
<g>
	<path class="st26" d="M629.4,109.1c0-1.2,0.2-2.4,0.5-3.5h-17h-38.1h-17c0.3,1.1,0.5,2.3,0.5,3.5c0,7-5.7,12.6-12.6,12.6v22.3
		c7,0,12.6,5.7,12.6,12.6c0,0.2,0,0.4,0,0.5h16.5h38.1h16.5c0-0.2,0-0.4,0-0.5c0-7,5.7-12.6,12.6-12.6v-22.3
		C635,121.7,629.4,116.1,629.4,109.1z"/>
	<path class="st27" d="M624.3,112.3c0-1,0.1-2,0.4-3h-14.5h-32.6H563c0.3,0.9,0.4,1.9,0.4,3c0,6-4.8,10.8-10.8,10.8v19.1
		c6,0,10.8,4.9,10.8,10.8c0,0.2,0,0.3,0,0.5h14.1h32.6h14.1c0-0.2,0-0.3,0-0.5c0-6,4.8-10.8,10.8-10.8v-19.1
		C629.1,123.1,624.3,118.3,624.3,112.3z"/>
	<g>
		<path class="st28" d="M577,132.6h-2.5v-7.1h-2.2v-2h6.9v2H577V132.6z"/>
		<path class="st28" d="M580.5,132.6v-9.2h2.5v9.2H580.5z"/>
		<path class="st28" d="M589,125.3c-0.6,0-1,0.2-1.4,0.7c-0.3,0.5-0.5,1.1-0.5,2c0,1.8,0.7,2.6,2,2.6c0.4,0,0.8-0.1,1.2-0.2
			c0.4-0.1,0.8-0.2,1.1-0.4v2.1c-0.8,0.3-1.6,0.5-2.6,0.5c-1.4,0-2.4-0.4-3.2-1.2c-0.7-0.8-1.1-2-1.1-3.5c0-0.9,0.2-1.8,0.5-2.5
			c0.4-0.7,0.9-1.3,1.5-1.7c0.7-0.4,1.5-0.6,2.4-0.6c1,0,1.9,0.2,2.8,0.6l-0.8,1.9c-0.3-0.2-0.7-0.3-1-0.4
			C589.8,125.3,589.4,125.3,589,125.3z"/>
		<path class="st28" d="M601.1,132.6h-2.8l-1.8-3.5l-0.7,0.4v3.1h-2.5v-9.2h2.5v4c0.1-0.2,0.4-0.6,0.8-1.2l1.9-2.8h2.7l-2.9,4.1
			L601.1,132.6z"/>
		<path class="st28" d="M607.5,132.6h-5.4v-9.2h5.4v2h-3v1.4h2.7v2h-2.7v1.7h3V132.6z"/>
		<path class="st28" d="M613.2,132.6h-2.5v-7.1h-2.2v-2h6.9v2h-2.2V132.6z"/>
	</g>
	<g>
		<polygon class="st28" points="575.4,139.7 578,138.3 577.5,141.2 579.5,143.2 576.7,143.6 575.4,146.2 574.1,143.6 571.3,143.2 
			573.3,141.2 572.8,138.3 		"/>
		<polygon class="st28" points="587.7,139.7 590.2,138.3 589.8,141.2 591.8,143.2 589,143.6 587.7,146.2 586.4,143.6 583.6,143.2 
			585.6,141.2 585.1,138.3 		"/>
		<polygon class="st28" points="600,139.7 602.5,138.3 602,141.2 604.1,143.2 601.3,143.6 600,146.2 598.7,143.6 595.8,143.2 
			597.9,141.2 597.4,138.3 		"/>
		<polygon class="st28" points="612.3,139.7 614.8,138.3 614.3,141.2 616.4,143.2 613.5,143.6 612.3,146.2 611,143.6 608.1,143.2 
			610.2,141.2 609.7,138.3 		"/>
	</g>
	<line class="st27" x1="568.4" y1="134.8" x2="619.2" y2="134.8"/>
</g>
<g>
	<path class="st29" d="M620.6,165.5c0.6-1,1.3-2,2.2-2.8l-14.6-8.6l-32.9-19.3l-14.6-8.6c-0.3,1.1-0.7,2.2-1.3,3.3
		c-3.5,6-11.3,8.1-17.3,4.5l-11.3,19.3c6,3.5,8,11.3,4.5,17.3c-0.1,0.2-0.2,0.3-0.3,0.4l14.2,8.3l32.9,19.3l14.2,8.3
		c0.1-0.2,0.2-0.3,0.3-0.5c3.5-6,11.3-8,17.3-4.5l11.3-19.3C619.1,179.3,617.1,171.5,620.6,165.5z"/>
	<path class="st27" d="M614.5,165.7c0.5-0.9,1.2-1.7,1.9-2.4l-12.5-7.3l-28.2-16.5l-12.5-7.3c-0.2,1-0.6,1.9-1.1,2.8
		c-3,5.2-9.6,6.9-14.8,3.9l-9.7,16.5c5.2,3,6.9,9.7,3.9,14.8c-0.1,0.1-0.2,0.3-0.2,0.4l12.2,7.1l28.2,16.5l12.2,7.1
		c0.1-0.1,0.1-0.3,0.2-0.4c3-5.2,9.6-6.9,14.8-3.9l9.7-16.5C613.3,177.5,611.5,170.9,614.5,165.7z"/>
	<g>
		<path class="st28" d="M563.5,159.3l-2.1-1.2l3.6-6.2l-1.9-1.1l1-1.7l6,3.5l-1,1.7l-1.9-1.1L563.5,159.3z"/>
		<path class="st28" d="M566.6,161.1l4.6-7.9l2.1,1.3l-4.6,7.9L566.6,161.1z"/>
		<path class="st28" d="M577.6,159.1c-0.5-0.3-1-0.3-1.6-0.1c-0.5,0.2-1,0.7-1.4,1.5c-0.9,1.5-0.8,2.6,0.4,3.3
			c0.3,0.2,0.7,0.4,1.1,0.4c0.4,0.1,0.8,0.2,1.2,0.2l-1.1,1.8c-0.8-0.1-1.7-0.4-2.5-0.9c-1.2-0.7-1.9-1.6-2.1-2.6
			c-0.2-1.1,0-2.2,0.8-3.6c0.5-0.8,1.1-1.4,1.7-1.9c0.7-0.4,1.4-0.7,2.2-0.7c0.8,0,1.6,0.2,2.3,0.7c0.9,0.5,1.6,1.2,2.1,2l-1.6,1.3
			c-0.2-0.3-0.4-0.6-0.7-0.9C578.2,159.5,577.9,159.3,577.6,159.1z"/>
		<path class="st28" d="M584.4,171.5l-2.4-1.4l0.2-3.9l-0.9,0l-1.5,2.6l-2.1-1.3l4.6-7.9l2.1,1.3l-2,3.4c0.2-0.1,0.6-0.4,1.2-0.6
			l3.1-1.4l2.3,1.4l-4.6,2.1L584.4,171.5z"/>
		<path class="st28" d="M589.9,174.7l-4.7-2.7l4.6-7.9l4.7,2.7l-1,1.7L591,167l-0.7,1.2l2.4,1.4l-1,1.7l-2.4-1.4l-0.9,1.5l2.6,1.5
			L589.9,174.7z"/>
		<path class="st28" d="M594.8,177.6l-2.1-1.2l3.6-6.2l-1.9-1.1l1-1.7l6,3.5l-1,1.7l-1.9-1.1L594.8,177.6z"/>
	</g>
	<g>
		<polygon class="st28" points="558.6,164.6 561.4,164.8 559.6,167 560.3,169.8 557.7,168.7 555.3,170.3 555.5,167.4 553.2,165.6 
			556,164.9 557,162.2 		"/>
		<polygon class="st28" points="569.2,170.8 572,171 570.2,173.2 571,176 568.3,174.9 565.9,176.5 566.1,173.6 563.8,171.8 
			566.6,171.1 567.6,168.4 		"/>
		<polygon class="st28" points="579.8,177.1 582.7,177.2 580.8,179.4 581.6,182.2 578.9,181.1 576.5,182.7 576.7,179.8 574.4,178 
			577.2,177.3 578.2,174.6 		"/>
		<polygon class="st28" points="590.4,183.3 593.3,183.4 591.4,185.6 592.2,188.4 589.5,187.3 587.1,188.9 587.3,186 585,184.2 
			587.8,183.5 588.8,180.8 		"/>
	</g>
	<line class="st27" x1="555" y1="156.9" x2="598.8" y2="182.6"/>
</g>
</svg>
