<?xml version="1.0" encoding="utf-8"?>
<!-- Generator: Adobe Illustrator 21.1.0, SVG Export Plug-In . SVG Version: 6.00 Build 0)  -->
<svg version="1.1" id="Layer_1" xmlns="http://www.w3.org/2000/svg" xmlns:xlink="http://www.w3.org/1999/xlink" x="0px" y="0px"
	 viewBox="0 0 662 400" style="enable-background:new 0 0 662 400;" xml:space="preserve">
<style type="text/css">
	.st0{fill:#7FD4E2;}
	.st1{fill:#F2F2F2;}
	.st2{fill:#FFFFFF;}
	.st3{fill:#EFB095;}
	.st4{fill:#FFC9AB;}
	.st5{fill:#2D2C2B;}
	.st6{fill:#1E1D1D;}
	.st7{fill:#D8D8D8;}
	.st8{fill:#E5E5E5;}
	.st9{fill:#E09B82;}
	.st10{fill:#F4BDA2;}
	.st11{fill:#161515;}
	.st12{fill:#AF3333;}
	.st13{fill:#FFEBC2;}
	.st14{fill:#935D3A;}
	.st15{fill:#895234;}
	.st16{fill:#7C482E;}
	.st17{fill:#663A29;}
	.st18{fill:#AD785A;}
	.st19{fill:#EAB19B;}
	.st20{fill:#935F42;}
	.st21{fill:#55587D;}
	.st22{fill:#754320;}
	.st23{fill:#422513;}
	.st24{fill:#FED000;}
	.st25{fill:#E0A527;}
	.st26{fill:#54616B;}
	.st27{fill:none;stroke:#F1DAD2;stroke-width:2;stroke-miterlimit:10;}
	.st28{fill:#F1DAD2;}
	.st29{fill:#F7A9A9;}
</style>
<g>
	<g>
		<path class="st0" d="M492.9,284.5c0,90-72.9,140.8-162.9,140.8s-162.9-50.9-162.9-140.8c0-90,72.9-162.9,162.9-162.9
			S492.9,194.5,492.9,284.5z"/>
		<g>
			<path class="st1" d="M407.9,189.3c6-2.6,10.2-8.5,10.2-15.5c0-9.3-7.5-16.8-16.8-16.8c-1.1,0-2.2,0.1-3.3,0.3
				c3.2-72.8-67.6-62.8-67.6-62.8v31.3c0,0,25.6,89.6,25.6,89.7c0.8,2.7,0.9,5.5,1.8,8.2c4.2,13.4,15.1,25.1,29.7,26.2
				c7.3,0.6,13.9-2.7,17-9.6c0.9-1.9,1.4-4,1.5-6.1c0.3-5.6-2.2-10.6-6.2-13.9c8.6-0.3,15.7-7.2,16.2-16
				C416.1,198.1,412.9,192.4,407.9,189.3z"/>
			<path class="st2" d="M252.8,189.3c-6-2.6-10.2-8.5-10.2-15.5c0-9.3,7.5-16.8,16.8-16.8c1.1,0,2.2,0.1,3.3,0.3
				c-3.2-72.8,67.6-62.8,67.6-62.8v31.3c0,0-25.6,89.6-25.6,89.7c-0.8,2.7-0.9,5.5-1.8,8.2c-4.2,13.4-15.1,25.1-29.7,26.2
				c-7.3,0.6-13.9-2.7-17-9.6c-0.9-1.9-1.4-4-1.5-6.1c-0.3-5.6,2.2-10.6,6.2-13.9c-8.6-0.3-15.7-7.2-16.2-16
				C244.6,198.1,247.8,192.4,252.8,189.3z"/>
		</g>
		<g>
			<circle class="st3" cx="382" cy="185.4" r="12.7"/>
			<circle class="st4" cx="278.8" cy="185.4" r="12.7"/>
		</g>
		<g>
			<path class="st5" d="M269.2,264.2c0,0-56.3,22.1-65.2,36.5s-22.3,49.7-23.9,78.9h150V264.2H269.2z"/>
			<path class="st6" d="M390.8,264.2c0,0,56.3,22.1,65.2,36.5c8.9,14.4,22.3,49.7,23.9,78.9h-150V264.2H390.8z"/>
			<g>
				<polygon class="st7" points="330.2,287.2 330.2,323.8 370.3,323.8 332.8,282 				"/>
				<polygon class="st8" points="330.2,287.2 330.2,323.8 290,323.8 327.5,282 				"/>
			</g>
			<g>
				<polygon class="st9" points="330.2,230.9 330.2,265.8 358.1,252.3 358.1,219 				"/>
				<polygon class="st10" points="330.2,230.9 330.2,265.8 302.2,252.3 302.2,219 				"/>
			</g>
			<path class="st4" d="M330.4,125.7c-12.6,25.1-51.6,28.3-51.6,28.3s0.3,52.1,6.9,61.4c11.7,15.4,31.7,23.4,40.4,26.4
				c2.7,0.9,5.7,0.9,8.5,0c8.7-2.9,28.8-11,40.4-26.4c6.6-9.2,6.9-61.4,6.9-61.4S343,150.8,330.4,125.7z"/>
			<g>
				<polygon class="st11" points="330.2,262.2 342.9,282 376.5,259.7 362.4,242.4 				"/>
				<polygon class="st6" points="330.2,262.2 317.4,282 283.8,259.7 297.9,242.4 				"/>
				<g>
					<polygon class="st8" points="330.2,262.2 330.2,295.8 342.9,282 					"/>
					<polygon class="st2" points="330.2,262.2 330.2,295.8 317.4,282 					"/>
				</g>
			</g>
			<g>
				<path class="st11" d="M330,379.6c0,0,2.4-26.2,11.5-53.9c14.4-43.7,32.8-71.6,36-71.6c6.6,0,15.9,4.3,18.7,6.4
					c3.6,2.7-4.7,7.2-14.4,50.6c-7.8,34.8-5.4,68.4-5.4,68.4H330V379.6z"/>
				<path class="st6" d="M330.3,379.6c0,0-2.4-26.2-11.5-53.9c-14.4-43.7-32.8-71.6-36-71.6c-6.6,0-15.9,4.3-18.7,6.4
					c-3.6,2.7,4.7,7.2,14.4,50.6c7.8,34.8,5.4,68.4,5.4,68.4h46.4V379.6z"/>
			</g>
		</g>
		<g>
			<g>
				<g>
					<path class="st12" d="M413.8,353.2h91.4v-4.6h-91.1c-8.5,0-15.4,6.9-15.4,15.4l0,0c0,8.5,6.9,15.4,15.4,15.4h91.1v-4.5h-91.4
						V353.2z"/>
				</g>
				<rect x="410.6" y="353.2" class="st13" width="89.9" height="21.8"/>
			</g>
			<g>
				<path class="st14" d="M221,350.1h-58.4c-2.2,0-4.2,1.5-4.7,3.7l-0.7,2.9h69.2l-0.7-2.9C225.1,351.6,223.2,350.1,221,350.1z"/>
				<g>
					
						<rect x="181.8" y="292.4" transform="matrix(0.5439 -0.8392 0.8392 0.5439 -162.7703 321.2801)" class="st14" width="64.7" height="36"/>
					<polygon class="st15" points="246.8,293 211.6,347.3 216.6,273.5 					"/>
					<g>
						<path class="st16" d="M222.1,337.5L222.1,337.5c1.2-1.9,0.7-4.4-1.2-5.6l-29.3-19c-1.9-1.2-4.4-0.7-5.6,1.2l0,0
							c-1.2,1.9-0.7,4.4,1.2,5.6l29.3,19C218.4,339.9,220.9,339.4,222.1,337.5z"/>
						<path class="st16" d="M215.3,348L215.3,348c1.2-1.9,0.7-4.4-1.2-5.6l-29.3-19c-1.9-1.2-4.4-0.7-5.6,1.2l0,0
							c-1.2,1.9-0.7,4.4,1.2,5.6l29.3,19C211.6,350.4,214.1,349.9,215.3,348z"/>
					</g>
					<path class="st14" d="M229,330.2l9.3-14.3c0.7-1.1,0.4-2.6-0.7-3.3l-2.4-1.5l-11.9,18.4l2.4,1.5
						C226.7,331.6,228.2,331.3,229,330.2z"/>
					<path class="st15" d="M228.8,330.5l9.6-14.9c0.6-1,0.3-2.2-0.6-2.9l-2.7-1.7l-9.2,20.1C226.9,331.7,228.2,331.4,228.8,330.5z"
						/>
					<path class="st14" d="M314.7,375.6L314.7,375.6c2.6-4.1,1.5-9.5-2.6-12.1l-73.8-47.8l-9.5,14.7l73.8,47.8
						C306.7,380.8,312.1,379.7,314.7,375.6z"/>
					<path class="st17" d="M247.1,322l-9,13.8c-0.6,1-2,1.3-3,0.6l0,0c-1-0.6-1.3-2-0.6-3l9-13.8c0.6-1,2-1.3,3-0.6l0,0
						C247.5,319.6,247.7,321,247.1,322z"/>
					<path class="st17" d="M252.5,325.5l-9,13.8c-0.6,1-2,1.3-3,0.6l0,0c-1-0.6-1.3-2-0.6-3l9-13.8c0.6-1,2-1.3,3-0.6l0,0
						C252.9,323.2,253.2,324.5,252.5,325.5z"/>
					<path class="st17" d="M297.3,354.5l-9,13.8c-0.6,1-2,1.3-3,0.6l0,0c-1-0.6-1.3-2-0.6-3l9-13.8c0.6-1,2-1.3,3-0.6l0,0
						C297.6,352.1,297.9,353.5,297.3,354.5z"/>
					<path class="st17" d="M302.7,358l-9,13.8c-0.6,1-2,1.3-3,0.6l0,0c-1-0.6-1.3-2-0.6-3l9-13.8c0.6-1,2-1.3,3-0.6l0,0
						C303,355.7,303.3,357,302.7,358z"/>
					<g>
						<g>
							<path class="st16" d="M248.9,296.2L248.9,296.2c1.2-1.9,0.7-4.4-1.2-5.6l-29.3-19c-1.9-1.2-4.4-0.7-5.6,1.2l0,0
								c-1.2,1.9-0.7,4.4,1.2,5.6l29.3,19C245.2,298.6,247.7,298.1,248.9,296.2z"/>
							<path class="st16" d="M242.1,306.7L242.1,306.7c1.2-1.9,0.7-4.4-1.2-5.6l-29.3-19c-1.9-1.2-4.4-0.7-5.6,1.2l0,0
								c-1.2,1.9-0.7,4.4,1.2,5.6l29.3,19C238.4,309.1,240.9,308.6,242.1,306.7z"/>
						</g>
						<path class="st17" d="M212.8,272.8l36.1,23.4c1.2-1.9,0.7-4.4-1.2-5.6l-29.3-19C216.6,270.4,214,271,212.8,272.8z"/>
						<path class="st17" d="M206,283.3l36.1,23.4c1.2-1.9,0.7-4.4-1.2-5.6l-29.3-19C209.8,280.9,207.2,281.4,206,283.3z"/>
						<path class="st17" d="M186,314.2l36.1,23.4c1.2-1.9,0.7-4.4-1.2-5.6l-29.3-19C189.8,311.7,187.3,312.3,186,314.2z"/>
						<path class="st17" d="M179.2,324.6l36.1,23.4c1.2-1.9,0.7-4.4-1.2-5.6l-29.3-19C183,322.2,180.5,322.8,179.2,324.6z"/>
					</g>
					<path class="st16" d="M243.5,319.6l-9,13.8c-0.6,1-0.4,2.3,0.6,3l11.3-17.4C245.5,318.4,244.2,318.6,243.5,319.6z"/>
					<path class="st16" d="M248.9,323.1l-9,13.8c-0.6,1-0.4,2.3,0.6,3l11.3-17.4C250.9,321.9,249.6,322.2,248.9,323.1z"/>
					<path class="st16" d="M293.7,352.1l-9,13.8c-0.6,1-0.4,2.3,0.6,3l11.3-17.4C295.6,350.9,294.3,351.1,293.7,352.1z"/>
					<path class="st16" d="M299.1,355.6l-9,13.8c-0.6,1-0.4,2.3,0.6,3L302,355C301,354.4,299.7,354.7,299.1,355.6z"/>
					<g>
						<polygon class="st18" points="261.3,351.5 262.5,331.3 258.1,328.5 257,348.6 						"/>
						<polygon class="st18" points="265.2,353.9 266.3,333.8 264.1,332.3 262.9,352.5 						"/>
					</g>
					<g>
						<polygon class="st18" points="277.1,361.7 278.3,341.5 273.9,338.7 272.8,358.9 						"/>
						<polygon class="st18" points="281,364.2 282.1,344 279.9,342.6 278.7,362.7 						"/>
					</g>
				</g>
				<rect x="156.9" y="361.1" class="st14" width="69.3" height="12.6"/>
				<polygon class="st15" points="226.3,373.6 156.9,373.6 226.3,361.1 				"/>
				<path class="st16" d="M225.5,361.1h-67.7c-1.7,0-3-1.3-3-3l0,0c0-1.7,1.3-3,3-3h67.7c1.7,0,3,1.3,3,3l0,0
					C228.5,359.7,227.1,361.1,225.5,361.1z"/>
				<path class="st16" d="M225.5,379.6h-67.7c-1.7,0-3-1.3-3-3l0,0c0-1.7,1.3-3,3-3h67.7c1.7,0,3,1.3,3,3l0,0
					C228.5,378.3,227.1,379.6,225.5,379.6z"/>
				<path class="st17" d="M225.5,355h-67.7c-1.7,0-3,1.3-3,3h73.7C228.5,356.4,227.1,355,225.5,355z"/>
				<path class="st17" d="M225.5,373.6h-67.7c-1.7,0-3,1.3-3,3h73.7C228.5,375,227.1,373.6,225.5,373.6z"/>
			</g>
		</g>
		<path class="st3" d="M330.4,125.8v116.7c1.4,0,2.8-0.2,4.2-0.7c8.7-2.9,28.8-11,40.4-26.4c6.6-9.2,6.9-61.4,6.9-61.4
			S343,150.8,330.4,125.8z"/>
		<g>
			<path class="st19" d="M327.6,172.8l-6.9,27.9c-0.7,2.1,0.9,4.3,3.1,4.3h6.2h6.2c2.2,0,3.8-2.2,3.1-4.3l-6.9-27.9
				C331.6,170.5,328.3,170.5,327.6,172.8z"/>
			<path class="st9" d="M339.3,200.8l-6.9-27.9c-0.4-1.1-1.3-1.7-2.2-1.7v34h6C338.4,205.1,340,202.9,339.3,200.8z"/>
		</g>
		<g>
			<g>
				<path class="st5" d="M339.6,185.8c-6-3.1-13.2-3.1-19.2,0c-0.8-1.6-1.7-3.3-2.5-4.9c7.6-3.9,16.6-3.9,24.2,0
					C341.3,182.5,340.4,184.1,339.6,185.8z"/>
			</g>
			<g>
				<circle class="st5" cx="356.4" cy="181.8" r="18.3"/>
				<circle class="st3" cx="356.4" cy="181.8" r="14.1"/>
			</g>
			<g>
				<circle class="st5" cx="303.5" cy="181.8" r="18.3"/>
				<circle class="st4" cx="303.5" cy="181.8" r="14.1"/>
			</g>
		</g>
	</g>
	<g>
		<rect x="116.2" y="379.4" class="st20" width="427.6" height="67.2"/>
		<rect x="330" y="379.4" class="st15" width="213.8" height="67.2"/>
	</g>
</g>
<g>
	<circle class="st21" cx="99.8" cy="116.4" r="59.6"/>
	<g>
		<g>
			
				<rect x="96.2" y="83.6" transform="matrix(0.9994 -3.420039e-02 3.420039e-02 0.9994 -3.9232 3.435)" class="st22" width="4.5" height="65.6"/>
			
				<rect x="98.7" y="83.6" transform="matrix(0.9994 -3.422917e-02 3.422917e-02 0.9994 -3.9258 3.4808)" class="st23" width="2" height="65.6"/>
		</g>
		<path class="st24" d="M100.7,83.2l-7.1,0.2c-0.6,0-1,0.5-1,1l0,0c0,0.6,0.5,1,1,1l7.1-0.2c0.6,0,1-0.5,1-1l0,0
			C101.7,83.7,101.3,83.2,100.7,83.2z"/>
		<path class="st24" d="M102.9,147.2l-6.9,0.2c-2.1,0.1-3.7,1.8-3.7,3.9l14.5-0.5C106.8,148.7,105,147.1,102.9,147.2z"/>
		<path class="st24" d="M107.1,150.8l-14.9,0.5c-2.9,0.1-5.2,2.5-5.1,5.4l25.4-0.9C112.4,153,110,150.7,107.1,150.8z"/>
		<g>
			<path class="st24" d="M74.1,99.4c-7.3,0.3-13.2-3.2-13.5-3.4c-0.8-0.5-1.1-1.6-0.7-2.5c0.4-0.9,1.4-1.2,2.2-0.7
				c0.1,0,7.3,4.3,15.1,2.5c3.4-0.8,5.9-1.9,8.3-3c3.5-1.6,6.8-3.1,12.2-3.3c5.4-0.2,8.8,1.1,12.4,2.4c2.5,0.9,5,1.9,8.5,2.4
				c7.9,1.2,14.8-3.5,14.9-3.5c0.8-0.5,1.8-0.3,2.3,0.6c0.5,0.8,0.3,2-0.5,2.5c-0.3,0.2-8,5.5-17.1,4.1c-3.8-0.6-6.6-1.6-9.1-2.6
				c-3.5-1.3-6.4-2.4-11.3-2.2c-4.8,0.2-7.7,1.5-11.1,3c-2.4,1.1-5.2,2.3-8.9,3.2C76.7,99.2,75.4,99.3,74.1,99.4z"/>
			<g>
				
					<rect x="66.4" y="94.2" transform="matrix(0.9994 -3.417920e-02 3.417920e-02 0.9994 -3.8624 2.3515)" class="st25" width="0.9" height="39.9"/>
				
					<rect x="41.6" y="113.8" transform="matrix(0.305 -0.9524 0.9524 0.305 -66.7944 136.9685)" class="st25" width="37.7" height="0.9"/>
				
					<rect x="72.7" y="94.9" transform="matrix(0.9292 -0.3695 0.3695 0.9292 -36.8552 35.0735)" class="st25" width="0.9" height="37.7"/>
				<g>
					<path class="st24" d="M51.9,129.4c0,0.3,0,0.5,0,0.8c0.3,8.5,7.4,15.2,16,14.9c8.5-0.3,15.2-7.4,14.9-16c0-0.3,0-0.5-0.1-0.8
						L51.9,129.4z"/>
					<path class="st25" d="M82.7,128.4l-3.8,0.1c-1.5,6.7-7.3,11.9-14.5,12.1c-4.2,0.1-8-1.4-10.8-3.9c2.6,5.2,8.1,8.7,14.3,8.5
						c8.5-0.3,15.2-7.4,14.9-16C82.8,128.9,82.7,128.6,82.7,128.4z"/>
				</g>
				<path class="st24" d="M82.3,126.8l-30.1,1c-0.8,0-1.4,0.7-1.4,1.5s0.7,1.4,1.5,1.4l30.1-1c0.8,0,1.4-0.7,1.4-1.5
					C83.8,127.4,83.1,126.8,82.3,126.8z"/>
			</g>
			<g>
				
					<rect x="130.3" y="92" transform="matrix(0.9994 -3.417920e-02 3.417920e-02 0.9994 -3.7499 4.5342)" class="st25" width="0.9" height="39.9"/>
				
					<rect x="105.6" y="111.6" transform="matrix(0.305 -0.9523 0.9523 0.305 -20.2192 196.3808)" class="st25" width="37.7" height="0.9"/>
				
					<rect x="136.7" y="92.7" transform="matrix(0.9293 -0.3694 0.3694 0.9293 -31.5041 58.5446)" class="st25" width="0.9" height="37.7"/>
				<g>
					<path class="st24" d="M115.9,127.2c0,0.3,0,0.5,0,0.8c0.3,8.5,7.4,15.2,16,14.9c8.5-0.3,15.2-7.4,14.9-16c0-0.3,0-0.5-0.1-0.8
						L115.9,127.2z"/>
					<path class="st25" d="M146.7,126.2l-3.8,0.1c-1.5,6.7-7.3,11.9-14.5,12.1c-4.2,0.1-8-1.4-10.8-3.9c2.6,5.2,8.1,8.7,14.3,8.5
						c8.5-0.3,15.2-7.4,14.9-16C146.7,126.7,146.7,126.5,146.7,126.2z"/>
				</g>
				<path class="st24" d="M146.3,124.6l-30.1,1c-0.8,0-1.4,0.7-1.4,1.5s0.7,1.4,1.5,1.4l30.1-1c0.8,0,1.4-0.7,1.4-1.5
					C147.7,125.2,147.1,124.6,146.3,124.6z"/>
			</g>
		</g>
		<g>
			
				<ellipse transform="matrix(0.9994 -3.420192e-02 3.420192e-02 0.9994 -2.6417 3.3671)" class="st24" cx="97.1" cy="78.9" rx="4.4" ry="4.4"/>
			<path class="st25" d="M99.7,75.3c0.2,0.4,0.3,0.9,0.3,1.4c0.1,2.4-1.8,4.5-4.3,4.6c-1,0-2-0.3-2.7-0.8c0.6,1.7,2.3,2.9,4.3,2.9
				c2.4-0.1,4.4-2.1,4.3-4.6C101.5,77.4,100.8,76.1,99.7,75.3z"/>
		</g>
		<path class="st25" d="M92.5,150.3c-0.1,0.3-0.1,0.7-0.1,1l14.5-0.5c0-0.4-0.1-0.7-0.2-1L92.5,150.3z"/>
	</g>
</g>
<circle class="st21" cx="586.1" cy="153.7" r="65.9"/>
<g>
	<path class="st26" d="M629.4,109.1c0-1.2,0.2-2.4,0.5-3.5h-17h-38.1h-17c0.3,1.1,0.5,2.3,0.5,3.5c0,7-5.7,12.6-12.6,12.6V144
		c7,0,12.6,5.7,12.6,12.6c0,0.2,0,0.4,0,0.5h16.5h38.1h16.5c0-0.2,0-0.4,0-0.5c0-7,5.7-12.6,12.6-12.6v-22.3
		C635,121.7,629.4,116.1,629.4,109.1z"/>
	<path class="st27" d="M624.3,112.3c0-1,0.1-2,0.4-3h-14.5h-32.6H563c0.3,0.9,0.4,1.9,0.4,3c0,6-4.8,10.8-10.8,10.8v19.1
		c6,0,10.8,4.9,10.8,10.8c0,0.2,0,0.3,0,0.5h14.1h32.6h14.1c0-0.2,0-0.3,0-0.5c0-6,4.8-10.8,10.8-10.8v-19.1
		C629.1,123.1,624.3,118.3,624.3,112.3z"/>
	<g>
		<path class="st28" d="M577,132.6h-2.5v-7.1h-2.2v-2h6.9v2H577V132.6z"/>
		<path class="st28" d="M580.5,132.6v-9.2h2.5v9.2H580.5z"/>
		<path class="st28" d="M589,125.3c-0.6,0-1,0.2-1.4,0.7c-0.3,0.5-0.5,1.1-0.5,2c0,1.8,0.7,2.6,2,2.6c0.4,0,0.8-0.1,1.2-0.2
			c0.4-0.1,0.8-0.2,1.1-0.4v2.1c-0.8,0.3-1.6,0.5-2.6,0.5c-1.4,0-2.4-0.4-3.2-1.2c-0.7-0.8-1.1-2-1.1-3.5c0-0.9,0.2-1.8,0.5-2.5
			c0.4-0.7,0.9-1.3,1.5-1.7c0.7-0.4,1.5-0.6,2.4-0.6c1,0,1.9,0.2,2.8,0.6l-0.8,1.9c-0.3-0.2-0.7-0.3-1-0.4
			C589.8,125.3,589.4,125.3,589,125.3z"/>
		<path class="st28" d="M601.1,132.6h-2.8l-1.8-3.5l-0.7,0.4v3.1h-2.5v-9.2h2.5v4c0.1-0.2,0.4-0.6,0.8-1.2l1.9-2.8h2.7l-2.9,4.1
			L601.1,132.6z"/>
		<path class="st28" d="M607.5,132.6h-5.4v-9.2h5.4v2h-3v1.4h2.7v2h-2.7v1.7h3V132.6z"/>
		<path class="st28" d="M613.2,132.6h-2.5v-7.1h-2.2v-2h6.9v2h-2.2V132.6z"/>
	</g>
	<g>
		<polygon class="st28" points="575.4,139.7 578,138.3 577.5,141.2 579.5,143.2 576.7,143.6 575.4,146.2 574.1,143.6 571.3,143.2 
			573.3,141.2 572.8,138.3 		"/>
		<polygon class="st28" points="587.7,139.7 590.2,138.3 589.8,141.2 591.8,143.2 589,143.6 587.7,146.2 586.4,143.6 583.6,143.2 
			585.6,141.2 585.1,138.3 		"/>
		<polygon class="st28" points="600,139.7 602.5,138.3 602,141.2 604.1,143.2 601.3,143.6 600,146.2 598.7,143.6 595.8,143.2 
			597.9,141.2 597.4,138.3 		"/>
		<polygon class="st28" points="612.3,139.7 614.8,138.3 614.3,141.2 616.4,143.2 613.5,143.6 612.3,146.2 611,143.6 608.1,143.2 
			610.2,141.2 609.7,138.3 		"/>
	</g>
	<line class="st27" x1="568.4" y1="134.8" x2="619.2" y2="134.8"/>
</g>
<g>
	<path class="st29" d="M620.6,165.5c0.6-1,1.3-2,2.2-2.8l-14.6-8.6l-32.9-19.3l-14.6-8.6c-0.3,1.1-0.7,2.2-1.3,3.3
		c-3.5,6-11.3,8.1-17.3,4.5l-11.3,19.3c6,3.5,8,11.3,4.5,17.3c-0.1,0.2-0.2,0.3-0.3,0.4l14.2,8.3l32.9,19.3l14.2,8.3
		c0.1-0.2,0.2-0.3,0.3-0.5c3.5-6,11.3-8,17.3-4.5l11.3-19.3C619.1,179.3,617.1,171.5,620.6,165.5z"/>
	<path class="st27" d="M614.5,165.7c0.5-0.9,1.2-1.7,1.9-2.4l-12.5-7.3l-28.2-16.5l-12.5-7.3c-0.2,1-0.6,1.9-1.1,2.8
		c-3,5.2-9.6,6.9-14.8,3.9l-9.7,16.5c5.2,3,6.9,9.7,3.9,14.8c-0.1,0.1-0.2,0.3-0.2,0.4l12.2,7.1l28.2,16.5l12.2,7.1
		c0.1-0.1,0.1-0.3,0.2-0.4c3-5.2,9.6-6.9,14.8-3.9l9.7-16.5C613.3,177.5,611.5,170.9,614.5,165.7z"/>
	<g>
		<path class="st28" d="M563.5,159.3l-2.1-1.2l3.6-6.2l-1.9-1.1l1-1.7l6,3.5l-1,1.7l-1.9-1.1L563.5,159.3z"/>
		<path class="st28" d="M566.6,161.1l4.6-7.9l2.1,1.3l-4.6,7.9L566.6,161.1z"/>
		<path class="st28" d="M577.6,159.1c-0.5-0.3-1-0.3-1.6-0.1c-0.5,0.2-1,0.7-1.4,1.5c-0.9,1.5-0.8,2.6,0.4,3.3
			c0.3,0.2,0.7,0.4,1.1,0.4c0.4,0.1,0.8,0.2,1.2,0.2l-1.1,1.8c-0.8-0.1-1.7-0.4-2.5-0.9c-1.2-0.7-1.9-1.6-2.1-2.6
			c-0.2-1.1,0-2.2,0.8-3.6c0.5-0.8,1.1-1.4,1.7-1.9c0.7-0.4,1.4-0.7,2.2-0.7s1.6,0.2,2.3,0.7c0.9,0.5,1.6,1.2,2.1,2l-1.6,1.3
			c-0.2-0.3-0.4-0.6-0.7-0.9C578.2,159.5,577.9,159.3,577.6,159.1z"/>
		<path class="st28" d="M584.4,171.5l-2.4-1.4l0.2-3.9h-0.9l-1.5,2.6l-2.1-1.3l4.6-7.9l2.1,1.3l-2,3.4c0.2-0.1,0.6-0.4,1.2-0.6
			l3.1-1.4l2.3,1.4l-4.6,2.1L584.4,171.5z"/>
		<path class="st28" d="M589.9,174.7l-4.7-2.7l4.6-7.9l4.7,2.7l-1,1.7L591,167l-0.7,1.2l2.4,1.4l-1,1.7l-2.4-1.4l-0.9,1.5l2.6,1.5
			L589.9,174.7z"/>
		<path class="st28" d="M594.8,177.6l-2.1-1.2l3.6-6.2l-1.9-1.1l1-1.7l6,3.5l-1,1.7l-1.9-1.1L594.8,177.6z"/>
	</g>
	<g>
		<polygon class="st28" points="558.6,164.6 561.4,164.8 559.6,167 560.3,169.8 557.7,168.7 555.3,170.3 555.5,167.4 553.2,165.6 
			556,164.9 557,162.2 		"/>
		<polygon class="st28" points="569.2,170.8 572,171 570.2,173.2 571,176 568.3,174.9 565.9,176.5 566.1,173.6 563.8,171.8 
			566.6,171.1 567.6,168.4 		"/>
		<polygon class="st28" points="579.8,177.1 582.7,177.2 580.8,179.4 581.6,182.2 578.9,181.1 576.5,182.7 576.7,179.8 574.4,178 
			577.2,177.3 578.2,174.6 		"/>
		<polygon class="st28" points="590.4,183.3 593.3,183.4 591.4,185.6 592.2,188.4 589.5,187.3 587.1,188.9 587.3,186 585,184.2 
			587.8,183.5 588.8,180.8 		"/>
	</g>
	<line class="st27" x1="555" y1="156.9" x2="598.8" y2="182.6"/>
</g>
</svg>
