<?xml version="1.0" encoding="utf-8"?>
<!-- Generator: Adobe Illustrator 21.1.0, SVG Export Plug-In . SVG Version: 6.00 Build 0)  -->
<svg version="1.1" id="Layer_1" xmlns="http://www.w3.org/2000/svg" xmlns:xlink="http://www.w3.org/1999/xlink" x="0px" y="0px"
	 viewBox="0 0 662 400" style="enable-background:new 0 0 662 400;" xml:space="preserve">
<style type="text/css">
	.st0{fill:#414042;}
	.st1{fill:#FFFFFF;}
	.st2{fill:#231F20;}
	.st3{fill:#FBC28F;}
	.st4{fill:#DDDDDD;}
	.st5{fill:#CFDBE5;}
	.st6{fill:#FFD55C;}
	.st7{fill:#586773;}
	.st8{fill:#3D454A;}
	.st9{fill:#F69777;}
	.st10{opacity:0.4;fill:#FFFFFF;enable-background:new    ;}
	.st11{fill:#FFF6E5;}
	.st12{fill:#ADA79B;}
	.st13{fill:#F0E6B1;}
	.st14{fill:#FF7F66;}
	.st15{fill:#FF5B66;}
	.st16{fill:#54616B;}
	.st17{fill:none;stroke:#F1DAD2;stroke-width:2;stroke-miterlimit:10;}
	.st18{fill:#F1DAD2;}
	.st19{fill:#F7A9A9;}
</style>
<g>
	<polygon class="st0" points="100.2,95.5 58.3,119.8 58.3,173.7 142,173.7 142,119.8 	"/>
	<rect x="89.1" y="115" class="st1" width="22.2" height="58.7"/>
	<polygon class="st2" points="70.9,112.5 68,139.4 89.1,132.9 89.1,101.9 	"/>
	<polygon class="st2" points="129.5,112.5 132.3,139.4 111.3,132.9 111.3,101.9 	"/>
	<circle class="st0" cx="100.3" cy="160.8" r="3.3"/>
	<circle class="st0" cx="100.3" cy="144.4" r="3.3"/>
	<circle class="st0" cx="100.3" cy="127.9" r="3.3"/>
	<rect x="80.3" y="63.9" class="st3" width="39.7" height="51.1"/>
	<polygon class="st1" points="128.8,90.9 128.8,80 128.8,56.7 71.5,56.7 71.5,80 71.5,90.9 64.4,90.9 64.4,101.9 71.5,101.9 
		80.3,101.9 80.3,90.9 80.3,80 120,80 120,90.9 120,101.9 128.8,101.9 135.9,101.9 135.9,90.9 	"/>
</g>
<g id="paper_2_">
	<path class="st4" d="M44.9,189.3l0,6l2.6,0c0.6-0.9,1.6-1.5,2.7-1.5c1.8,0,3.3,1.4,3.3,3.2c0,1.8-1.4,3.3-3.2,3.3
		c-1.1,0-2-0.5-2.6-1.3l-2.7,0l0,4.3l2.6,0c0.6-0.9,1.6-1.5,2.7-1.5c1.8,0,3.2,1.4,3.3,3.2c0,1.8-1.5,3.3-3.2,3.3
		c-1.1,0-2-0.5-2.6-1.3l-2.7,0l0,4.3l2.6,0c0.6-0.9,1.6-1.5,2.7-1.5c1.8,0,3.2,1.4,3.3,3.2c0,1.8-1.5,3.3-3.2,3.3
		c-1.1,0-2-0.5-2.6-1.3l-2.7,0l0,4.3l2.6,0c0.6-0.9,1.6-1.5,2.7-1.5c1.8,0,3.2,1.4,3.3,3.2c0,1.8-1.5,3.3-3.2,3.3
		c-1.1,0-2.1-0.5-2.7-1.3l-2.7,0l0,4.3l2.6,0c0.6-0.9,1.6-1.5,2.7-1.5c1.8,0,3.2,1.4,3.2,3.2s-1.4,3.3-3.2,3.3
		c-1.1,0-2.1-0.5-2.6-1.3l-2.7,0v4.3l2.6,0c0.6-0.9,1.6-1.5,2.7-1.5c1.8,0,3.3,1.4,3.3,3.2c0,1.8-1.4,3.3-3.2,3.3
		c-1.1,0-2-0.5-2.6-1.3l-2.7,0l0,4.3l2.6,0c0.6-0.9,1.6-1.5,2.7-1.5c1.8,0,3.3,1.4,3.3,3.2c0,1.8-1.4,3.3-3.2,3.3
		c-1.1,0-2.1-0.5-2.6-1.3l-2.7,0l0,4.3l2.6,0c0.6-0.9,1.6-1.5,2.7-1.5c1.8,0,3.3,1.4,3.3,3.2c0,1.8-1.4,3.3-3.2,3.3
		c-1.1,0-2.1-0.5-2.6-1.3l-2.7,0l0,4.3l2.6,0c0.6-0.9,1.6-1.5,2.7-1.5c1.8,0,3.3,1.4,3.3,3.2c0,1.8-1.4,3.2-3.2,3.3
		c-1.1,0-2-0.5-2.6-1.3l-2.7,0l0,4.3l2.6,0c0.6-0.9,1.6-1.5,2.7-1.5c1.8,0,3.2,1.4,3.3,3.2c0,1.8-1.4,3.2-3.2,3.3
		c-1.1,0-2-0.5-2.6-1.3l-2.7,0l0,4.3l2.6,0c0.6-0.9,1.6-1.5,2.7-1.5c1.8,0,3.2,1.4,3.3,3.2c0,1.8-1.5,3.3-3.2,3.3
		c-1.1,0-2-0.5-2.6-1.3l-2.7,0l0,4.3l2.6,0c0.6-0.9,1.6-1.5,2.7-1.5c1.8,0,3.2,1.4,3.3,3.2c0,1.8-1.5,3.3-3.2,3.3
		c-1.1,0-2.1-0.5-2.6-1.3l-2.7,0l0,4.3l2.6,0c0.6-0.9,1.6-1.5,2.7-1.5c1.8,0,3.2,1.4,3.3,3.2c0,1.8-1.5,3.3-3.2,3.3
		c-1.1,0-2.1-0.5-2.6-1.3l-2.7,0l0,4.3l2.6,0c0.6-0.9,1.6-1.5,2.7-1.5c1.8,0,3.2,1.4,3.3,3.2c0,1.8-1.5,3.3-3.2,3.3
		c-1.1,0-2.1-0.5-2.7-1.3l-2.7,0l0,4.3l2.6,0c0.6-0.9,1.6-1.5,2.7-1.5c1.8,0,3.3,1.4,3.3,3.2c0,1.8-1.4,3.2-3.2,3.3
		c-1.1,0-2.1-0.5-2.6-1.3l-2.7,0l0,4.3l2.6,0c0.6-0.9,1.6-1.5,2.7-1.5c1.8,0,3.3,1.4,3.3,3.2c0,1.8-1.4,3.2-3.2,3.3
		c-1.1,0-2.1-0.5-2.6-1.3l-2.7,0l0,4.3l2.6,0c0.6-0.9,1.6-1.5,2.7-1.5c1.8,0,3.3,1.4,3.3,3.2c0,1.8-1.4,3.2-3.2,3.3
		c-1.1,0-2.1-0.5-2.6-1.3l-2.7,0l0,4.3l2.6,0c0.6-0.9,1.6-1.5,2.7-1.5c1.8,0,3.3,1.4,3.3,3.2c0,1.8-1.4,3.2-3.2,3.3
		c-1.1,0-2-0.5-2.6-1.3l-2.7,0l0,4.3l2.6,0c0.6-0.9,1.6-1.5,2.7-1.5c1.8,0,3.3,1.4,3.3,3.2c0,1.8-1.4,3.3-3.2,3.3
		c-1.1,0-2-0.5-2.6-1.3l-2.7,0l0,4.3l2.6,0c0.6-0.9,1.6-1.5,2.7-1.5c1.8,0,3.2,1.5,3.3,3.2c0,1.8-1.5,3.3-3.2,3.3
		c-1.1,0-2-0.5-2.6-1.3l-2.7,0l0,4.3l2.6,0c0.6-0.9,1.6-1.5,2.7-1.5c1.8,0,3.2,1.4,3.3,3.2c0,1.8-1.5,3.2-3.2,3.3
		c-1.1,0-2-0.5-2.6-1.3l-2.7,0l0,6.5l114.4-0.2l0.2-175.3L44.9,189.3z"/>
	<path class="st1" d="M41.6,189.3l0,6l2.6,0c0.6-0.9,1.6-1.5,2.7-1.5c1.8,0,3.3,1.4,3.3,3.2c0,1.8-1.4,3.3-3.2,3.3
		c-1.1,0-2-0.5-2.6-1.3l-2.7,0l0,4.3l2.6,0c0.6-0.9,1.6-1.5,2.7-1.5c1.8,0,3.2,1.4,3.3,3.2c0,1.8-1.5,3.3-3.2,3.3
		c-1.1,0-2-0.5-2.6-1.3l-2.7,0l0,4.3l2.6,0c0.6-0.9,1.6-1.5,2.7-1.5c1.8,0,3.2,1.4,3.3,3.2c0,1.8-1.5,3.3-3.2,3.3
		c-1.1,0-2-0.5-2.6-1.3l-2.7,0l0,4.3l2.6,0c0.6-0.9,1.6-1.5,2.7-1.5c1.8,0,3.2,1.4,3.3,3.2c0,1.8-1.5,3.3-3.2,3.3
		c-1.1,0-2.1-0.5-2.7-1.3l-2.7,0l0,4.3l2.6,0c0.6-0.9,1.6-1.5,2.7-1.5c1.8,0,3.2,1.4,3.2,3.2s-1.4,3.3-3.2,3.3
		c-1.1,0-2.1-0.5-2.6-1.3l-2.7,0l0,4.3l2.6,0c0.6-0.9,1.6-1.5,2.7-1.5c1.8,0,3.3,1.4,3.3,3.2c0,1.8-1.4,3.3-3.2,3.3
		c-1.1,0-2-0.5-2.6-1.3l-2.7,0l0,4.3l2.6,0c0.6-0.9,1.6-1.5,2.7-1.5c1.8,0,3.3,1.4,3.3,3.2c0,1.8-1.4,3.3-3.2,3.3
		c-1.1,0-2.1-0.5-2.6-1.3l-2.7,0l0,4.3l2.6,0c0.6-0.9,1.6-1.5,2.7-1.5c1.8,0,3.3,1.4,3.3,3.2c0,1.8-1.4,3.3-3.2,3.3
		c-1.1,0-2-0.5-2.6-1.3l-2.7,0l0,4.3l2.6,0c0.6-0.9,1.6-1.5,2.7-1.5c1.8,0,3.3,1.4,3.3,3.2s-1.4,3.2-3.2,3.3c-1.1,0-2-0.5-2.6-1.3
		l-2.7,0l0,4.3l2.6,0c0.6-0.9,1.6-1.5,2.7-1.5c1.8,0,3.2,1.4,3.3,3.2c0,1.8-1.4,3.2-3.2,3.3c-1.1,0-2-0.5-2.6-1.3l-2.7,0l0,4.3
		l2.6,0c0.6-0.9,1.6-1.5,2.7-1.5c1.8,0,3.2,1.4,3.3,3.2c0,1.8-1.5,3.3-3.2,3.3c-1.1,0-2-0.5-2.6-1.3l-2.7,0l0,4.3l2.6,0
		c0.6-0.9,1.6-1.5,2.7-1.5c1.8,0,3.2,1.4,3.3,3.2c0,1.8-1.5,3.3-3.2,3.3c-1.1,0-2.1-0.5-2.6-1.3l-2.7,0l0,4.3l2.6,0
		c0.6-0.9,1.6-1.5,2.7-1.5c1.8,0,3.2,1.4,3.3,3.2c0,1.8-1.5,3.3-3.2,3.3c-1.1,0-2.1-0.5-2.6-1.3l-2.7,0l0,4.3l2.6,0
		c0.6-0.9,1.6-1.5,2.7-1.5c1.8,0,3.2,1.4,3.3,3.2c0,1.8-1.5,3.3-3.2,3.3c-1.1,0-2.1-0.5-2.7-1.3l-2.7,0l0,4.3l2.6,0
		c0.6-0.9,1.6-1.5,2.7-1.5c1.8,0,3.3,1.4,3.3,3.2c0,1.8-1.4,3.2-3.2,3.3c-1.1,0-2.1-0.5-2.6-1.3l-2.7,0l0,4.3l2.6,0
		c0.6-0.9,1.6-1.5,2.7-1.5c1.8,0,3.3,1.4,3.3,3.2c0,1.8-1.4,3.2-3.2,3.3c-1.1,0-2.1-0.5-2.6-1.3l-2.7,0l0,4.3l2.6,0
		c0.6-0.9,1.6-1.5,2.7-1.5c1.8,0,3.3,1.4,3.3,3.2c0,1.8-1.4,3.2-3.2,3.3c-1.1,0-2.1-0.5-2.6-1.3l-2.7,0l0,4.3l2.6,0
		c0.6-0.9,1.6-1.5,2.7-1.5c1.8,0,3.3,1.4,3.3,3.2c0,1.8-1.4,3.2-3.2,3.3c-1.1,0-2-0.5-2.6-1.3l-2.7,0l0,4.3l2.6,0
		c0.6-0.9,1.6-1.5,2.7-1.5c1.8,0,3.3,1.4,3.3,3.2c0,1.8-1.4,3.3-3.2,3.3c-1.1,0-2-0.5-2.6-1.3l-2.7,0l0,4.3l2.6,0
		c0.6-0.9,1.6-1.5,2.7-1.5c1.8,0,3.2,1.5,3.3,3.2c0,1.8-1.5,3.3-3.2,3.3c-1.1,0-2-0.5-2.6-1.3l-2.7,0l0,4.3l2.6,0
		c0.6-0.9,1.6-1.5,2.7-1.5c1.8,0,3.2,1.4,3.3,3.2c0,1.8-1.5,3.2-3.2,3.3c-1.1,0-2-0.5-2.6-1.3l-2.7,0l0,6.5l114.4-0.2l0.2-175.3
		L41.6,189.3z"/>
</g>
<g id="notebook_2_">
	<path class="st4" d="M371.1,158.9H371l0.1-76.6c0-9.5-7.7-17.2-17.2-17.2H351v0h-5.3V65l-8.8,0l0,0l0,0H331v0.2L210.5,65l0,0h-1.1
		l-17.3,0l-0.1,93.8h-0.1l-0.1,100.8h0.1l-0.1,100.2l16.8,0v0.2h2v-0.2l120.3,0.1v0.1h8.8l0,0h0.4h5.5v-0.1h8.2
		c9.5,0,17.2-7.7,17.2-17.2l0.1-83h0.1L371.1,158.9z"/>
	<g>
		<g>
			<path class="st5" d="M365.2,342.7c0,9.5-7.7,17.2-17.2,17.2l-161.8-0.2L186.5,65l161.8,0.2c9.5,0,17.2,7.7,17.2,17.2L365.2,342.7
				z"/>
			
				<rect x="225.5" y="119.6" transform="matrix(1.000808e-03 -1 1 1.000808e-03 66.3468 484.8974)" class="st6" width="100.8" height="179.2"/>
			
				<rect x="194.7" y="209.3" transform="matrix(1.115080e-03 -1 1 1.115080e-03 129.2184 554.3392)" class="st4" width="294.8" height="6.3"/>
			<g>
				<rect x="325.3" y="64.9" class="st7" width="14.7" height="295.1"/>
				<rect x="334.1" y="64.9" class="st8" width="2.9" height="295.1"/>
				
					<rect x="182.2" y="211" transform="matrix(1.224524e-03 -1 1 1.224524e-03 116.8539 541.8785)" class="st8" width="295.1" height="2.9"/>
			</g>
		</g>
		<g>
			<rect x="202.9" y="65" class="st4" width="2" height="295"/>
		</g>
	</g>
</g>
<g id="scissor_2_">
	<path class="st4" d="M159.9,327.4l-45.1-25.9l-3.5-8.8c0,0-0.9-2.9,3.6-7.3c4.1-4.1,3.9-11-0.5-15.4c-4.4-4.4-11.3-4.6-15.4-0.5
		c-4.1,4.1-3.9,11,0.5,15.4c0.6,0.6,1.2,1.1,1.9,1.5c0,0,0,0,0,0c2.5,1.7,6.6,4.9,6.4,11.2c0,1.2-0.2,2.4-0.5,3.6
		c-1.2,0.2-2.5,0.4-3.6,0.5c-6.3,0.2-9.5-3.9-11.2-6.4c0,0,0,0,0,0c-0.4-0.7-0.9-1.3-1.5-1.9c-4.4-4.4-11.3-4.6-15.4-0.5
		c-4.1,4.1-3.9,11,0.5,15.4c4.4,4.4,11.3,4.6,15.4,0.5c4.5-4.5,7.3-3.6,7.3-3.6l8.8,3.5l25.9,45.1c0.5,0.7,1.9,0,1.9,0l-15.9-40.5
		l40.4,15.9C159.9,329.3,160.5,328,159.9,327.4z M89.3,306.8c-3,3-8.1,2.9-11.3-0.3c-3.2-3.2-3.4-8.3-0.3-11.3c3-3,8.1-2.9,11.3,0.3
		C92.2,298.7,92.3,303.7,89.3,306.8z M101.5,282.9c-3.2-3.2-3.4-8.3-0.3-11.3c3-3,8.1-2.9,11.3,0.3c3.2,3.2,3.4,8.3,0.3,11.3
		C109.8,286.3,104.7,286.1,101.5,282.9z"/>
	<g id="scissor_4_">
		<g>
			<path class="st7" d="M156.5,327.4l-47.6-27.3c0,0-4.8,1.6-8.5,1.7c-6.3,0.2-9.5-3.9-11.2-6.4c0,0,0,0,0,0
				c-0.4-0.7-0.9-1.3-1.5-1.9c-4.4-4.4-11.3-4.6-15.4-0.5c-4.1,4.1-3.9,11,0.5,15.4c4.4,4.4,11.3,4.6,15.4,0.5
				c4.5-4.5,7.3-3.6,7.3-3.6l61.1,24.1C156.5,329.3,157.2,328,156.5,327.4z M85.6,295.5c3.2,3.2,3.4,8.3,0.3,11.3
				c-3,3-8.1,2.9-11.3-0.3c-3.2-3.2-3.4-8.3-0.3-11.3C77.3,292.1,82.4,292.3,85.6,295.5z"/>
			<path class="st8" d="M111.1,270c-4.4-4.4-11.3-4.6-15.4-0.5c-4.1,4.1-3.9,11,0.5,15.4c0.6,0.6,1.2,1.1,1.9,1.5c0,0,0,0,0,0
				c2.5,1.7,6.6,4.9,6.4,11.2c-0.1,3.7-1.7,8.5-1.7,8.5l27.3,47.6c0.5,0.7,1.9,0,1.9,0L108,292.7c0,0-0.9-2.9,3.6-7.3
				C115.7,281.3,115.4,274.4,111.1,270z M109.1,272c3.2,3.2,3.4,8.3,0.4,11.3s-8.1,2.9-11.3-0.3c-3.2-3.2-3.4-8.3-0.3-11.3
				C100.8,268.6,105.9,268.8,109.1,272z"/>
			
				<ellipse transform="matrix(0.707 -0.7072 0.7072 0.707 -184.7631 166.9691)" class="st6" cx="109.1" cy="306.5" rx="2.1" ry="2"/>
		</g>
	</g>
</g>
<g id="pencil_2_">
	<path class="st4" d="M284.6,114.9l0.1-16.5l-0.1,0l0,0l0-10.1c0-0.7-0.9-3.5-3.5-3.5l-4.6-0.1c-3,0-3.5,2.8-3.5,3.5l0,5.9l-0.1,0
		l-0.1,20.7h-0.1L271.8,300l0,0l4.1,17.2l0,0l1.8,7.4l1.8-7.4l4.3-17.1l0,0L284.6,114.9L284.6,114.9L284.6,114.9z"/>
	<g>
		<path class="st9" d="M268.5,88.2l0,10.1l11.7,0.1l0-10.1c0-0.7-0.9-3.5-3.5-3.5l-4.6-0.1C269,84.7,268.5,87.5,268.5,88.2z"/>
	</g>
	<path class="st8" d="M277.4,114.9l-6.5,0l-2.7,0L267.3,300c1.4-0.2,2.6-1.3,2.7-2.6c0,0,0,0,0,0v0c0.2,1.5,1.5,2.7,3.2,2.7
		c1.7,0,3-1.2,3.2-2.7l0,0v0c0.2,1.4,1.3,2.4,2.7,2.7l0.9-185.2L277.4,114.9z"/>
	<g>
		<polygon class="st6" points="268.3,114.8 280.1,114.9 280.2,98.4 268.4,98.3 		"/>
	</g>
	<path class="st8" d="M275,317.1c-0.6-0.1-1.1-0.1-1.7-0.1c-0.6,0-1.3,0.1-1.9,0.2l1.8,7.4L275,317.1z"/>
	<path class="st1" d="M279.3,300c-1.4-0.2-2.5-1.3-2.7-2.6v0c0,0,0,0,0,0c-0.2,1.5-1.6,2.7-3.2,2.7c-1.7,0-3-1.2-3.2-2.7v0
		c0,0,0,0,0,0c-0.2,1.4-1.3,2.4-2.8,2.6l4.1,17.2c0.6-0.1,1.2-0.2,1.9-0.2c0.6,0,1.1,0.1,1.7,0.1L279.3,300z"/>
</g>
<g id="eyeglass">
	<g>
		<path class="st4" d="M544.5,316.7c-5.8-3.3-20.9-5.2-27.7-5.9c-2.5-0.2-4.9-0.3-6.2-0.4c-8.1,0.1-14.9,0.8-21.4,3.3
			c-1.9,0.7-3.8,1.6-5.6,2.5c-1.1,0.5-2.1,0.5-3.2-0.1c-0.7-0.3-1.5-0.6-2.2-0.6c-4.5,0-9,0-13.5,0c-0.7,0-1.6,0.2-2.2,0.6
			c-1.1,0.6-2.1,0.6-3.2,0.1c-1.9-0.9-3.7-1.8-5.6-2.5c-6.5-2.5-13.3-3.3-21.4-3.3c-1.3,0.1-3.8,0.2-6.2,0.4
			c-6.9,0.7-21.9,2.5-27.7,5.9c-0.3,0.2-0.5,0.6-0.5,1c0,1.8,0,3.7,0.2,5.5c0.1,1.4,0.7,2.4,2.1,2.9c2.4,0.9,4.1,2.6,4.9,5.1
			c0.9,2.9,1.8,5.7,2.8,8.6c0,0.1,0.1,0.1,0.1,0.2c-2.5,1.3-4.2,2.3-4.7,2.8c-2.4,1.8-3.7,3.3-3.2,5.2s4.7,4.3,8.4,0.8
			c0.6-0.5,1.4-1.3,2.5-2.3c1,1.8,2.2,3.5,3.6,5.1c4,4.5,9.3,6.7,15.1,7.4c5.4,0.7,10.6,0.1,15.8-1.6c3.2-1.1,6-2.8,8.4-5.3
			c2.1-2.2,3.7-4.8,5-7.6c2.1-4.4,3.7-9,4.7-13.8c0.1-0.5,0.2-0.9,0.1-1.3c2-0.1,4.1-0.2,6.2-0.2c3.5,0.1,6.8,0.2,9.9,0.4
			c0,0.4,0.1,0.7,0.1,1.1c1,4.8,2.6,9.4,4.7,13.8c1.3,2.8,2.9,5.4,5,7.6c2.4,2.5,5.2,4.2,8.4,5.3c5.1,1.7,10.4,2.2,15.8,1.6
			c5.9-0.8,11.1-2.9,15.1-7.4c0.8-0.9,1.6-1.9,2.3-3c0,0,0.1,0.1,0.1,0.1c3.7,3.5,7.9,1.2,8.4-0.8c0.5-1.9-0.9-3.4-3.2-5.2
			c-0.3-0.2-0.9-0.6-1.7-1.1c0.2-0.6,0.5-1.3,0.7-1.9c1-2.8,1.9-5.7,2.8-8.6c0.8-2.5,2.4-4.2,4.9-5.1c1.4-0.5,2-1.5,2.1-2.9
			c0.1-1.8,0.2-3.6,0.2-5.5C545,317.4,544.8,316.9,544.5,316.7z M489.4,317.9c2.5-1.7,5.3-2.5,8.2-3c6.4-1.1,12.8-1.3,19.2-0.5
			c3,0.4,5.9,0.9,8.7,2.1c2.4,1,4.2,2.4,5.6,4.1c-6.9,0.4-26.6,1.4-45.9,2.6C486,321,487.4,319.3,489.4,317.9z M417.1,316.4
			c2.8-1.2,5.8-1.7,8.7-2.1c6.4-0.8,12.8-0.6,19.2,0.5c2.9,0.5,5.8,1.3,8.2,3c2,1.4,3.4,3.2,4.3,5.4c-17.8-1.1-36.7-2.1-46.1-2.6
			C412.7,318.9,414.6,317.4,417.1,316.4z M409,328.5c0-0.4,0-0.9,0.1-1.3c5.2,0.2,15.2,0.5,26.6,0.8c-8.8,2.5-18.8,7.1-25.4,10.5
			C409.4,335.2,408.9,331.9,409,328.5z M454.4,345.8c-2.4,5.1-6.5,8.1-11.9,9.6c-6.5,1.7-10.3,1.9-16.7,0.4
			c-5.6-1.3-10.4-5.9-13.3-11.2c6.7-5.5,18.8-13.8,31.7-14.5c3.1-0.2,8-0.4,14.1-0.6C458.3,335.2,456.9,340.6,454.4,345.8z
			 M462.3,323.6c0.4-0.6,1-1,1.8-1.3c4.5-1.3,10-1.3,14.5,0c0.7,0.2,1.2,0.6,1.6,1c-3.7,0.2-7.3,0.5-10.7,0.7
			C467.1,323.9,464.7,323.8,462.3,323.6z M516.8,355.7c-6.4,1.5-10.2,1.4-16.7-0.4c-5.4-1.4-9.5-4.4-11.9-9.6
			c-2.4-5.2-3.9-10.5-3.9-16.2c4.3,0.2,7.9,0.3,10.4,0.5c14.7,0.8,28.4,11.4,34.2,16.6C525.9,351,521.6,354.6,516.8,355.7z
			 M503.2,328c15.8-0.5,28.7-0.9,30.3-0.9c0,0.5,0.1,0.9,0.1,1.4c0,3.4-0.5,6.7-1.3,10c-0.1,0.6-0.3,1.1-0.5,1.7
			C525.6,336.8,513.6,331,503.2,328z"/>
		<path class="st5" d="M529.1,342.6c-2-1.6-19-10.7-32.8-14.6c16.8-0.5,30.5-0.9,30.5-0.9v-6.7c0,0-36.8,1.9-64.3,3.7
			c-27.5-1.9-64.3-3.7-64.3-3.7v6.7c0,0,13.6,0.4,30.5,0.9c-13.8,4-30.8,13.1-32.8,14.6c-2.4,1.8-3.7,3.3-3.2,5.2
			c0.5,1.9,4.7,4.3,8.4,0.8c3.7-3.5,19.3-17.7,36.3-18.6c4.9-0.3,14.2-0.6,25.2-1c10.9,0.4,20.3,0.7,25.2,1
			c17,0.9,32.6,15,36.3,18.6c3.7,3.5,7.9,1.2,8.4-0.8C532.8,345.9,531.4,344.5,529.1,342.6z"/>
		<path id="XMLID_12_" class="st10" d="M526.7,328.5L526.7,328.5c0,3.4-0.5,6.7-1.3,10c-1.7,7.5-7.9,15.4-15.6,17.2
			c-6.4,1.5-10.2,1.4-16.7-0.4c-5.4-1.4-9.5-4.4-11.9-9.6c-2.8-5.9-4.3-12-3.9-18.5c0.3-3.9,1.9-7.1,5.1-9.3c2.5-1.7,5.3-2.5,8.2-3
			c6.4-1.1,12.8-1.3,19.2-0.5c3,0.4,6,0.9,8.7,2.1C523.9,318.7,526.6,322.7,526.7,328.5L526.7,328.5z"/>
		<path id="XMLID_11_" class="st10" d="M402,328.5L402,328.5c0.1-5.8,2.8-9.8,8.1-12.1c2.8-1.2,5.8-1.7,8.7-2.1
			c6.4-0.8,12.8-0.6,19.2,0.5c2.9,0.5,5.8,1.3,8.2,3c3.2,2.2,4.8,5.5,5.1,9.3c0.4,6.5-1.1,12.7-3.9,18.5c-2.4,5.1-6.5,8.1-11.9,9.6
			c-6.5,1.7-10.3,1.9-16.7,0.4c-7.7-1.8-13.9-9.7-15.6-17.2C402.5,335.2,402,331.9,402,328.5z"/>
		<g id="Johnny_Depp_eyeglass_1_">
			<g>
				<path id="XMLID_37_" class="st7" d="M446.5,313.8c-6.5-2.5-13.3-3.3-21.4-3.3c-1.3,0.1-3.8,0.2-6.2,0.4
					c-6.9,0.7-21.9,2.5-27.7,5.9c-0.3,0.2-0.5,0.6-0.5,1c0,1.8,0,3.7,0.1,5.5c0.1,1.4,0.7,2.4,2.1,2.9c2.4,0.9,4.1,2.6,4.9,5.1
					c0.9,2.9,1.8,5.7,2.8,8.6c1.5,4.3,3.5,8.4,6.6,11.8c4,4.5,9.3,6.7,15.1,7.4c5.4,0.7,10.6,0.1,15.8-1.6c3.2-1.1,6-2.8,8.4-5.3
					c2.1-2.2,3.7-4.8,5-7.6c2.1-4.4,3.7-9,4.7-13.8c0.3-1.3,0.2-2.3-0.7-3.4c-1.4-1.7-0.6-4.2,1.6-4.8c4.5-1.3,10-1.3,14.5,0
					c2.2,0.6,3,3.1,1.6,4.8c-0.9,1.1-1,2.1-0.7,3.4c1,4.8,2.6,9.4,4.7,13.8c1.3,2.8,2.9,5.4,5,7.6c2.4,2.5,5.2,4.2,8.4,5.3
					c5.1,1.7,10.4,2.2,15.8,1.6c5.9-0.8,11.1-2.9,15.1-7.4c3-3.4,5.1-7.5,6.6-11.8c1-2.8,1.9-5.7,2.8-8.6c0.8-2.5,2.5-4.2,4.9-5.1
					c1.4-0.5,2-1.5,2.1-2.9c0.1-1.8,0.2-3.6,0.2-5.5c0-0.3-0.2-0.8-0.5-1c-5.8-3.3-20.8-5.2-27.7-5.9c-2.5-0.2-4.9-0.3-6.2-0.4
					c-8.1,0.1-14.9,0.8-21.4,3.3c-1.9,0.7-3.8,1.6-5.6,2.5c-1.1,0.5-2.1,0.5-3.2-0.1c-0.7-0.3-1.5-0.6-2.2-0.6c-4.5,0-9,0-13.5,0
					c-0.7,0-1.6,0.2-2.2,0.6c-1.1,0.6-2.1,0.6-3.2,0.1C450.2,315.4,448.4,314.5,446.5,313.8L446.5,313.8z M526.7,328.5L526.7,328.5
					c0,3.4-0.5,6.7-1.3,10c-1.7,7.5-7.9,15.4-15.6,17.2c-6.4,1.5-10.2,1.4-16.7-0.4c-5.4-1.4-9.5-4.4-11.9-9.6
					c-2.8-5.9-4.3-12-3.9-18.5c0.3-3.9,1.9-7.1,5.1-9.3c2.5-1.7,5.3-2.5,8.2-3c6.4-1.1,12.8-1.3,19.2-0.5c3,0.4,6,0.9,8.7,2.1
					C523.9,318.7,526.6,322.7,526.7,328.5L526.7,328.5z M402,328.5L402,328.5c0.1-5.8,2.8-9.8,8.1-12.1c2.8-1.2,5.8-1.7,8.7-2.1
					c6.4-0.8,12.8-0.6,19.2,0.5c2.9,0.5,5.8,1.3,8.2,3c3.2,2.2,4.8,5.5,5.1,9.3c0.4,6.5-1.1,12.7-3.9,18.5
					c-2.4,5.1-6.5,8.1-11.9,9.6c-6.5,1.7-10.3,1.9-16.7,0.4c-7.7-1.8-13.9-9.7-15.6-17.2C402.5,335.2,402,331.9,402,328.5z"/>
			</g>
		</g>
	</g>
</g>
<g id="pen_2_">
	<polygon class="st4" points="539.9,281.7 441.6,281.7 397.7,281.7 397.7,293.4 402.1,293.4 402.1,296.1 402,296.1 402.1,296.1 
		402.1,297.8 403.8,297.8 403.8,297.8 403.8,297.8 441.8,297.8 441.8,295.6 404.2,295.6 404.2,293.4 441.6,293.4 539.9,293.4 
		539.9,293.4 	"/>
	<g>
		<g>
			<rect x="390.4" y="281.7" class="st9" width="142.2" height="11.7"/>
			<rect x="390.4" y="281.7" class="st1" width="142.2" height="11.7"/>
		</g>
		<rect x="390.4" y="281.7" class="st6" width="43.9" height="11.7"/>
		<polygon class="st6" points="434.5,297.8 396.5,297.8 396.5,297.8 396.5,297.8 394.8,297.8 394.8,296.1 394.8,296.1 394.8,296.1 
			394.8,293.4 396.9,293.4 396.9,295.6 434.5,295.6 		"/>
	</g>
</g>
<g>
	<rect x="384.3" y="68.6" class="st11" width="142.3" height="165.4"/>
	<g>
		<g>
			<path class="st12" d="M499.4,111.8h-87.9c-0.9,0-1.7-0.7-1.7-1.7V92.5c0-0.9,0.7-1.7,1.7-1.7h87.9c0.9,0,1.7,0.7,1.7,1.7v17.6
				C501.1,111,500.3,111.8,499.4,111.8z M413.2,108.5h84.6V94.1h-84.6V108.5z"/>
		</g>
	</g>
	<g>
		<g>
			<path class="st12" d="M512.3,130.9H398.7c-0.9,0-1.7-0.7-1.7-1.7s0.7-1.7,1.7-1.7h113.6c0.9,0,1.7,0.7,1.7,1.7
				S513.2,130.9,512.3,130.9z"/>
		</g>
	</g>
	<g>
		<g>
			<path class="st12" d="M512.3,146.3H398.7c-0.9,0-1.7-0.7-1.7-1.7s0.7-1.7,1.7-1.7h113.6c0.9,0,1.7,0.7,1.7,1.7
				S513.2,146.3,512.3,146.3z"/>
		</g>
	</g>
	<g>
		<g>
			<path class="st12" d="M512.3,161.8h-77.9c-0.9,0-1.7-0.7-1.7-1.7s0.7-1.7,1.7-1.7h77.9c0.9,0,1.7,0.7,1.7,1.7
				S513.2,161.8,512.3,161.8z"/>
		</g>
	</g>
	<g>
		<g>
			<path class="st12" d="M418.2,161.8h-19.5c-0.9,0-1.7-0.7-1.7-1.7s0.7-1.7,1.7-1.7h19.5c0.9,0,1.7,0.7,1.7,1.7
				S419.1,161.8,418.2,161.8z"/>
		</g>
	</g>
	<g>
		<g>
			<path class="st12" d="M512.3,177.2h-33.1c-0.9,0-1.7-0.7-1.7-1.7s0.7-1.7,1.7-1.7h33.1c0.9,0,1.7,0.7,1.7,1.7
				S513.2,177.2,512.3,177.2z"/>
		</g>
	</g>
	<g>
		<g>
			<path class="st12" d="M468.5,177.2h-69.8c-0.9,0-1.7-0.7-1.7-1.7s0.7-1.7,1.7-1.7h69.8c0.9,0,1.7,0.7,1.7,1.7
				S469.4,177.2,468.5,177.2z"/>
		</g>
	</g>
	<g>
		<g>
			<path class="st12" d="M512.3,192.7h-14.3c-0.9,0-1.7-0.7-1.7-1.7s0.7-1.7,1.7-1.7h14.3c0.9,0,1.7,0.7,1.7,1.7
				S513.2,192.7,512.3,192.7z"/>
		</g>
	</g>
	<g>
		<g>
			<path class="st12" d="M483.6,192.7h-84.9c-0.9,0-1.7-0.7-1.7-1.7s0.7-1.7,1.7-1.7h84.9c0.9,0,1.7,0.7,1.7,1.7
				S484.5,192.7,483.6,192.7z"/>
		</g>
	</g>
	<g>
		<g>
			<path class="st12" d="M470,208.1h-71.3c-0.9,0-1.7-0.7-1.7-1.7s0.7-1.7,1.7-1.7H470c0.9,0,1.7,0.7,1.7,1.7S470.9,208.1,470,208.1
				z"/>
		</g>
	</g>
	<polygon class="st13" points="506.2,228.1 506.2,244.3 506.2,260.5 518.7,244.3 531.2,260.5 531.2,244.3 531.2,228.1 	"/>
	<circle class="st14" cx="518.7" cy="214.7" r="19.3"/>
	<circle class="st15" cx="518.7" cy="214.7" r="12.5"/>
</g>
<g>
	<path class="st16" d="M636.4,153.1c0-1.2,0.2-2.4,0.5-3.5h-17h-38.1h-17c0.3,1.1,0.5,2.3,0.5,3.5c0,7-5.7,12.6-12.6,12.6v22.3
		c7,0,12.6,5.7,12.6,12.6c0,0.2,0,0.4,0,0.5h16.5h38.1h16.5c0-0.2,0-0.4,0-0.5c0-7,5.7-12.6,12.6-12.6v-22.3
		C642,165.7,636.4,160.1,636.4,153.1z"/>
	<path class="st17" d="M631.3,156.3c0-1,0.1-2,0.4-3h-14.5h-32.6H570c0.3,0.9,0.4,1.9,0.4,3c0,6-4.8,10.8-10.8,10.8v19.1
		c6,0,10.8,4.9,10.8,10.8c0,0.2,0,0.3,0,0.5h14.1h32.6h14.1c0-0.2,0-0.3,0-0.5c0-6,4.8-10.8,10.8-10.8v-19.1
		C636.1,167.1,631.3,162.3,631.3,156.3z"/>
	<g>
		<path class="st18" d="M584,176.6h-2.5v-7.1h-2.2v-2h6.9v2H584V176.6z"/>
		<path class="st18" d="M587.5,176.6v-9.2h2.5v9.2H587.5z"/>
		<path class="st18" d="M596,169.3c-0.6,0-1,0.2-1.4,0.7c-0.3,0.5-0.5,1.1-0.5,2c0,1.8,0.7,2.6,2,2.6c0.4,0,0.8-0.1,1.2-0.2
			c0.4-0.1,0.8-0.2,1.1-0.4v2.1c-0.8,0.3-1.6,0.5-2.6,0.5c-1.4,0-2.4-0.4-3.2-1.2c-0.7-0.8-1.1-2-1.1-3.5c0-0.9,0.2-1.8,0.5-2.5
			c0.4-0.7,0.9-1.3,1.5-1.7c0.7-0.4,1.5-0.6,2.4-0.6c1,0,1.9,0.2,2.8,0.6l-0.8,1.9c-0.3-0.2-0.7-0.3-1-0.4
			C596.8,169.3,596.4,169.3,596,169.3z"/>
		<path class="st18" d="M608.1,176.6h-2.8l-1.8-3.5l-0.7,0.4v3.1h-2.5v-9.2h2.5v4c0.1-0.2,0.4-0.6,0.8-1.2l1.9-2.8h2.7l-2.9,4.1
			L608.1,176.6z"/>
		<path class="st18" d="M614.5,176.6h-5.4v-9.2h5.4v2h-3v1.4h2.7v2h-2.7v1.7h3V176.6z"/>
		<path class="st18" d="M620.2,176.6h-2.5v-7.1h-2.2v-2h6.9v2h-2.2V176.6z"/>
	</g>
	<g>
		<polygon class="st18" points="582.4,183.7 585,182.3 584.5,185.2 586.5,187.2 583.7,187.6 582.4,190.2 581.1,187.6 578.3,187.2 
			580.3,185.2 579.8,182.3 		"/>
		<polygon class="st18" points="594.7,183.7 597.2,182.3 596.8,185.2 598.8,187.2 596,187.6 594.7,190.2 593.4,187.6 590.6,187.2 
			592.6,185.2 592.1,182.3 		"/>
		<polygon class="st18" points="607,183.7 609.5,182.3 609,185.2 611.1,187.2 608.3,187.6 607,190.2 605.7,187.6 602.8,187.2 
			604.9,185.2 604.4,182.3 		"/>
		<polygon class="st18" points="619.3,183.7 621.8,182.3 621.3,185.2 623.4,187.2 620.5,187.6 619.3,190.2 618,187.6 615.1,187.2 
			617.2,185.2 616.7,182.3 		"/>
	</g>
	<line class="st17" x1="575.4" y1="178.8" x2="626.2" y2="178.8"/>
</g>
<g>
	<path class="st19" d="M627.6,209.5c0.6-1,1.3-2,2.2-2.8l-14.6-8.6l-32.9-19.3l-14.6-8.6c-0.3,1.1-0.7,2.2-1.3,3.3
		c-3.5,6-11.3,8.1-17.3,4.5l-11.3,19.3c6,3.5,8,11.3,4.5,17.3c-0.1,0.2-0.2,0.3-0.3,0.4l14.2,8.3l32.9,19.3l14.2,8.3
		c0.1-0.2,0.2-0.3,0.3-0.5c3.5-6,11.3-8,17.3-4.5l11.3-19.3C626.1,223.3,624.1,215.5,627.6,209.5z"/>
	<path class="st17" d="M621.5,209.7c0.5-0.9,1.2-1.7,1.9-2.4l-12.5-7.3l-28.2-16.5l-12.5-7.3c-0.2,1-0.6,1.9-1.1,2.8
		c-3,5.2-9.6,6.9-14.8,3.9l-9.7,16.5c5.2,3,6.9,9.7,3.9,14.8c-0.1,0.1-0.2,0.3-0.2,0.4l12.2,7.1l28.2,16.5l12.2,7.1
		c0.1-0.1,0.1-0.3,0.2-0.4c3-5.2,9.6-6.9,14.8-3.9l9.7-16.5C620.3,221.5,618.5,214.9,621.5,209.7z"/>
	<g>
		<path class="st18" d="M570.5,203.3l-2.1-1.2l3.6-6.2l-1.9-1.1l1-1.7l6,3.5l-1,1.7l-1.9-1.1L570.5,203.3z"/>
		<path class="st18" d="M573.6,205.1l4.6-7.9l2.1,1.3l-4.6,7.9L573.6,205.1z"/>
		<path class="st18" d="M584.6,203.1c-0.5-0.3-1-0.3-1.6-0.1c-0.5,0.2-1,0.7-1.4,1.5c-0.9,1.5-0.8,2.6,0.4,3.3
			c0.3,0.2,0.7,0.4,1.1,0.4c0.4,0.1,0.8,0.2,1.2,0.2l-1.1,1.8c-0.8-0.1-1.7-0.4-2.5-0.9c-1.2-0.7-1.9-1.6-2.1-2.6
			c-0.2-1.1,0-2.2,0.8-3.6c0.5-0.8,1.1-1.4,1.7-1.9c0.7-0.4,1.4-0.7,2.2-0.7c0.8,0,1.6,0.2,2.3,0.7c0.9,0.5,1.6,1.2,2.1,2l-1.6,1.3
			c-0.2-0.3-0.4-0.6-0.7-0.9C585.2,203.5,584.9,203.3,584.6,203.1z"/>
		<path class="st18" d="M591.4,215.5l-2.4-1.4l0.2-3.9l-0.9,0l-1.5,2.6l-2.1-1.3l4.6-7.9l2.1,1.3l-2,3.4c0.2-0.1,0.6-0.4,1.2-0.6
			l3.1-1.4l2.3,1.4l-4.6,2.1L591.4,215.5z"/>
		<path class="st18" d="M596.9,218.7l-4.7-2.7l4.6-7.9l4.7,2.7l-1,1.7L598,211l-0.7,1.2l2.4,1.4l-1,1.7l-2.4-1.4l-0.9,1.5l2.6,1.5
			L596.9,218.7z"/>
		<path class="st18" d="M601.8,221.6l-2.1-1.2l3.6-6.2l-1.9-1.1l1-1.7l6,3.5l-1,1.7l-1.9-1.1L601.8,221.6z"/>
	</g>
	<g>
		<polygon class="st18" points="565.6,208.6 568.4,208.8 566.6,211 567.3,213.8 564.7,212.7 562.3,214.3 562.5,211.4 560.2,209.6 
			563,208.9 564,206.2 		"/>
		<polygon class="st18" points="576.2,214.8 579,215 577.2,217.2 578,220 575.3,218.9 572.9,220.5 573.1,217.6 570.8,215.8 
			573.6,215.1 574.6,212.4 		"/>
		<polygon class="st18" points="586.8,221.1 589.7,221.2 587.8,223.4 588.6,226.2 585.9,225.1 583.5,226.7 583.7,223.8 581.4,222 
			584.2,221.3 585.2,218.6 		"/>
		<polygon class="st18" points="597.4,227.3 600.3,227.4 598.4,229.6 599.2,232.4 596.5,231.3 594.1,232.9 594.3,230 592,228.2 
			594.8,227.5 595.8,224.8 		"/>
	</g>
	<line class="st17" x1="562" y1="200.9" x2="605.8" y2="226.6"/>
</g>
</svg>
