<?xml version="1.0" encoding="utf-8"?>
<!-- Generator: Adobe Illustrator 21.1.0, SVG Export Plug-In . SVG Version: 6.00 Build 0)  -->
<svg version="1.1" id="Layer_1" xmlns="http://www.w3.org/2000/svg" xmlns:xlink="http://www.w3.org/1999/xlink" x="0px" y="0px"
	 viewBox="0 0 300 300" style="enable-background:new 0 0 300 300;" xml:space="preserve">
<style type="text/css">
	.st0{fill:#7FD4E2;}
	.st1{fill:#F2F2F2;}
	.st2{fill:#FFFFFF;}
	.st3{fill:#EFB095;}
	.st4{fill:#FFC9AB;}
	.st5{fill:#2D2C2B;}
	.st6{fill:#1E1D1D;}
	.st7{fill:#D8D8D8;}
	.st8{fill:#E5E5E5;}
	.st9{fill:#E09B82;}
	.st10{fill:#F4BDA2;}
	.st11{fill:#161515;}
	.st12{fill:#AF3333;}
	.st13{fill:#FFEBC2;}
	.st14{fill:#935D3A;}
	.st15{fill:#895234;}
	.st16{fill:#7C482E;}
	.st17{fill:#663A29;}
	.st18{fill:#AD785A;}
	.st19{fill:#EAB19B;}
	.st20{fill:#935F42;}
	.st21{fill:#55587D;}
	.st22{fill:#754320;}
	.st23{fill:#422513;}
	.st24{fill:#FED000;}
	.st25{fill:#E0A527;}
	.st26{fill:#54616B;}
	.st27{fill:none;stroke:#F1DAD2;stroke-width:2;stroke-miterlimit:10;}
	.st28{fill:#F1DAD2;}
	.st29{fill:#F7A9A9;}
</style>
<title>Youpleal-small</title>
<g>
	<g>
		<path class="st0" d="M245.1,183.2c0,50.4-44,78.9-98.1,78.9s-98.2-28.6-98.2-78.9c0-50.4,44-91.2,98.1-91.2
			S245.1,132.8,245.1,183.2z"/>
		<g>
			<path class="st1" d="M194,132.7c3.6-1.6,6.2-5.2,6.2-9.3c0-5.6-4.6-10.2-10.2-10.2c-0.7,0-1.3,0.1-2,0.2
				c1.9-43.9-40.8-37.9-40.8-37.9v18.8l15.3,54c0.5,1.6,0.6,3.3,1.1,5c2.5,8.1,9.1,15.1,17.8,15.8c4.4,0.4,8.4-1.6,10.3-5.8
				c0.5-1.2,0.8-2.4,0.9-3.7c0.2-3.4-1.3-6.4-3.7-8.4c5.2-0.2,9.5-4.3,9.8-9.7C198.9,138,197,134.6,194,132.7z"/>
			<path class="st2" d="M100.6,132.7c-3.6-1.6-6.2-5.2-6.2-9.3c0-5.6,4.6-10.2,10.2-10.2c0.7,0,1.3,0.1,2,0.2
				c-1.9-43.9,40.8-37.9,40.8-37.9v18.8l-15.3,54c-0.5,1.6-0.6,3.3-1.1,5c-2.5,8.1-9.1,15.1-17.8,15.8c-4.4,0.4-8.4-1.6-10.3-5.8
				c-0.5-1.2-0.8-2.4-0.9-3.7c-0.2-3.4,1.3-6.4,3.7-8.4c-5.2-0.2-9.5-4.3-9.8-9.7C95.6,138,97.5,134.6,100.6,132.7z"/>
		</g>
		<g>
			<circle class="st3" cx="178.3" cy="130.4" r="7.7"/>
			<circle class="st4" cx="116.1" cy="130.4" r="7.7"/>
		</g>
		<g>
			<path class="st5" d="M110.4,177.9c0,0-34,13.3-39.3,22c-5.4,8.7-13.5,30-14.5,47.5h90.3V178L110.4,177.9L110.4,177.9z"/>
			<path class="st6" d="M183.6,177.9c0,0,34,13.3,39.3,22c5.4,8.7,13.5,30,14.5,47.5H147V178L183.6,177.9L183.6,177.9z"/>
			<g>
				<polygon class="st7" points="147.1,191.7 147.1,213.7 171.3,213.7 148.7,188.6 				"/>
				<polygon class="st8" points="147.1,191.7 147.1,213.7 122.9,213.7 145.5,188.6 				"/>
			</g>
			<g>
				<polygon class="st9" points="147.1,157.8 147.1,178.9 164,170.7 164,150.6 				"/>
				<polygon class="st10" points="147.1,157.8 147.1,178.9 130.3,170.7 130.3,150.6 				"/>
			</g>
			<path class="st4" d="M147.2,94.4c-7.6,15.1-31.1,17-31.1,17s0.2,31.4,4.2,37c7.1,9.3,19.1,14.2,24.3,15.8c1.7,0.6,3.4,0.6,5.1,0
				c5.3-1.8,17.3-6.6,24.3-15.8c4-5.6,4.2-37,4.2-37S154.8,109.6,147.2,94.4z"/>
			<g>
				<polygon class="st11" points="147.1,176.7 154.8,188.6 175.1,175.2 166.6,164.8 				"/>
				<polygon class="st6" points="147.1,176.7 139.5,188.6 119.2,175.2 127.7,164.8 				"/>
				<g>
					<polygon class="st8" points="147.1,176.7 147.1,196.9 154.8,188.6 					"/>
					<polygon class="st2" points="147.1,176.7 147.1,196.9 139.5,188.6 					"/>
				</g>
			</g>
			<g>
				<path class="st11" d="M147,247.4c0,0,1.4-15.7,7-32.5c8.7-26.3,19.7-43.1,21.7-43.1c4,0,9.6,2.6,11.3,3.9
					c2.2,1.6-2.8,4.4-8.7,30.5c-4.7,20.9-3.3,41.2-3.3,41.2L147,247.4L147,247.4z"/>
				<path class="st6" d="M147.2,247.4c0,0-1.4-15.7-7-32.5c-8.7-26.3-19.7-43.1-21.7-43.1c-4,0-9.6,2.6-11.3,3.9
					c-2.2,1.6,2.8,4.4,8.7,30.5c4.7,20.9,3.3,41.2,3.3,41.2L147.2,247.4L147.2,247.4z"/>
			</g>
		</g>
		<g>
			<g>
				<g>
					<path class="st12" d="M197.5,231.5h55v-2.7h-54.8c-5.2,0-9.3,4.2-9.3,9.3l0,0c0,5.2,4.2,9.3,9.3,9.3h54.8v-2.7h-55V231.5
						L197.5,231.5z"/>
				</g>
				<rect x="195.6" y="231.4" class="st13" width="54.1" height="13.2"/>
			</g>
			<g>
				<path class="st14" d="M81.4,229.6H46.2c-1.4,0-2.5,0.9-2.8,2.2l-0.4,1.8h41.7l-0.4-1.8C83.9,230.6,82.8,229.6,81.4,229.6z"/>
				<g>
					
						<rect x="57.8" y="194.9" transform="matrix(0.5439 -0.8392 0.8392 0.5439 -137.3371 158.6686)" class="st14" width="39" height="21.6"/>
					<polygon class="st15" points="96.9,195.2 75.7,227.9 78.8,183.4 					"/>
					<g>
						<path class="st16" d="M82.1,222L82.1,222c0.7-1.1,0.4-2.7-0.7-3.4l-17.6-11.5c-1.1-0.7-2.7-0.4-3.4,0.7l0,0
							c-0.7,1.1-0.4,2.7,0.7,3.4l17.6,11.5C79.8,223.5,81.4,223.2,82.1,222z"/>
						<path class="st16" d="M78,228.4L78,228.4c0.7-1.1,0.4-2.7-0.7-3.4l-17.6-11.5c-1.1-0.7-2.7-0.4-3.4,0.7l0,0
							c-0.7,1.1-0.4,2.7,0.7,3.4l17.6,11.5C75.7,229.8,77.2,229.5,78,228.4z"/>
					</g>
					<path class="st14" d="M86.7,216.8l4.6-7c0.7-1.1,0.4-2.6-0.7-3.3l-0.6-0.4l-7.3,11l0.6,0.4C84.5,218.2,85.9,217.9,86.7,216.8z"
						/>
					<path class="st15" d="M86,217.8l5.8-9c0.4-0.6,0.2-1.4-0.4-1.7l-1.6-1l-5.6,12.1C85,218.5,85.6,218.3,86,217.8z"/>
					<path class="st14" d="M137.9,244.9L137.9,244.9c1.6-2.5,0.9-5.7-1.6-7.3l-44.5-28.8l-5.8,8.9l44.5,28.8
						C133,248.1,136.3,247.4,137.9,244.9z"/>
					<path class="st17" d="M97.1,212.6l-5.4,8.4c-0.4,0.6-1.2,0.8-1.8,0.4l0,0c-0.6-0.4-0.8-1.2-0.4-1.8l5.4-8.4
						c0.4-0.6,1.2-0.8,1.8-0.4l0,0C97.3,211.2,97.5,212,97.1,212.6z"/>
					<path class="st17" d="M100.4,214.7l-5.4,8.4c-0.4,0.6-1.2,0.8-1.8,0.4l0,0c-0.6-0.4-0.8-1.2-0.4-1.8l5.4-8.4
						c0.4-0.6,1.2-0.8,1.8-0.4l0,0C100.6,213.3,100.8,214.1,100.4,214.7z"/>
					<path class="st17" d="M127.3,232.3l-5.4,8.4c-0.4,0.6-1.2,0.8-1.8,0.4l0,0c-0.6-0.4-0.8-1.2-0.4-1.8l5.4-8.4
						c0.4-0.6,1.2-0.8,1.8-0.4l0,0C127.5,230.9,127.7,231.7,127.3,232.3z"/>
					<path class="st17" d="M130.6,234.4l-5.4,8.4c-0.4,0.6-1.2,0.8-1.8,0.4l0,0c-0.6-0.4-0.8-1.2-0.4-1.8l5.4-8.4
						c0.4-0.6,1.2-0.8,1.8-0.4l0,0C130.8,233,131,233.8,130.6,234.4z"/>
					<g>
						<g>
							<path class="st16" d="M98.2,197.2L98.2,197.2c0.7-1.1,0.4-2.7-0.7-3.4l-17.6-11.5c-1.1-0.7-2.7-0.4-3.4,0.7l0,0
								c-0.7,1.1-0.4,2.7,0.7,3.4l17.6,11.5C95.9,198.6,97.4,198.3,98.2,197.2z"/>
							<path class="st16" d="M94.1,203.5L94.1,203.5c0.7-1.1,0.4-2.7-0.7-3.4l-17.6-11.4c-1.1-0.7-2.7-0.4-3.4,0.7l0,0
								c-0.7,1.1-0.4,2.7,0.7,3.4l17.6,11.5C91.8,205,93.3,204.6,94.1,203.5z"/>
						</g>
						<path class="st17" d="M76.5,183l21.7,14.1c0.7-1.1,0.4-2.7-0.7-3.4l-17.6-11.5C78.7,181.6,77.2,181.9,76.5,183z"/>
						<path class="st17" d="M72.4,189.4l21.7,14.1c0.7-1.1,0.4-2.7-0.7-3.4l-17.6-11.4C74.6,187.9,73.1,188.2,72.4,189.4z"/>
						<path class="st17" d="M60.3,208l21.8,14c0.7-1.1,0.4-2.7-0.7-3.4l-17.6-11.5C62.6,206.5,61,206.9,60.3,208z"/>
						<path class="st17" d="M56.2,214.2L78,228.3c0.7-1.1,0.4-2.7-0.7-3.4l-17.6-11.4C58.4,212.8,56.9,213.1,56.2,214.2z"/>
					</g>
					<path class="st16" d="M94.9,211.2l-5.4,8.4c-0.4,0.6-0.2,1.4,0.4,1.8l6.8-10.5C96.1,210.5,95.3,210.7,94.9,211.2z"/>
					<path class="st16" d="M98.2,213.3l-5.4,8.4c-0.4,0.6-0.2,1.4,0.4,1.8L100,213C99.4,212.6,98.6,212.7,98.2,213.3z"/>
					<path class="st16" d="M125.1,230.9l-5.4,8.4c-0.4,0.6-0.2,1.4,0.4,1.8l6.8-10.5C126.3,230.1,125.5,230.3,125.1,230.9z"/>
					<path class="st16" d="M128.4,233l-5.4,8.4c-0.4,0.6-0.2,1.4,0.4,1.8l6.8-10.5C129.6,232.2,128.8,232.4,128.4,233z"/>
					<g>
						<polygon class="st18" points="105.7,230.4 106.4,218.3 103.8,216.6 103.1,228.7 						"/>
						<polygon class="st18" points="108,231.9 108.7,219.8 107.4,218.9 106.7,231.1 						"/>
					</g>
					<g>
						<polygon class="st18" points="115.2,236.6 115.8,224.5 113.3,222.8 112.6,234.9 						"/>
						<polygon class="st18" points="117.5,238.1 118.2,226 116.8,225.1 116.1,237.2 						"/>
					</g>
				</g>
				<rect x="42.8" y="236.2" class="st14" width="41.8" height="7.6"/>
				<polygon class="st15" points="84.6,243.7 42.8,243.7 84.6,236.2 				"/>
				<path class="st16" d="M84.1,236.2H43.3c-1,0-1.8-0.8-1.8-1.8l0,0c0-1,0.8-1.8,1.8-1.8h40.8c1,0,1.8,0.8,1.8,1.8l0,0
					C85.8,235.4,85.1,236.2,84.1,236.2z"/>
				<path class="st16" d="M84.1,247.4H43.3c-1,0-1.8-0.8-1.8-1.8l0,0c0-1,0.8-1.8,1.8-1.8h40.8c1,0,1.8,0.8,1.8,1.8l0,0
					C85.8,246.5,85.1,247.4,84.1,247.4z"/>
				<path class="st17" d="M84.1,232.6H43.3c-1,0-1.8,0.8-1.8,1.8h44.4C85.8,233.4,85.1,232.6,84.1,232.6z"/>
				<path class="st17" d="M84.1,243.7H43.3c-1,0-1.8,0.8-1.8,1.8h44.4C85.8,244.5,85.1,243.7,84.1,243.7z"/>
			</g>
		</g>
		<path class="st3" d="M147.2,94.5v70.3c0.9,0,1.7-0.1,2.5-0.4c5.3-1.8,17.3-6.6,24.3-15.8c4-5.6,4.2-37,4.2-37
			S154.8,109.6,147.2,94.5z"/>
		<g>
			<path class="st19" d="M145.5,122.8l-4.2,16.8c-0.4,1.3,0.5,2.6,1.9,2.6h3.7h3.7c1.4,0,2.3-1.3,1.9-2.6l-4.2-16.8
				C148,121.4,146,121.4,145.5,122.8z"/>
			<path class="st9" d="M152.6,139.7l-4.2-16.8c-0.2-0.7-0.8-1-1.3-1v20.4h3.6C152.1,142.3,153,141,152.6,139.7z"/>
		</g>
		<g>
			<g>
				<path class="st5" d="M152.8,130.6c-3.6-1.9-8-1.9-11.6,0c-0.5-1-1-2-1.5-3c4.6-2.3,10-2.3,14.6,0
					C153.8,128.6,153.3,129.6,152.8,130.6z"/>
			</g>
			<g>
				<circle class="st5" cx="163" cy="128.2" r="11"/>
				<circle class="st3" cx="163" cy="128.2" r="8.5"/>
			</g>
			<g>
				<circle class="st5" cx="131.1" cy="128.2" r="11"/>
				<circle class="st4" cx="131.1" cy="128.2" r="8.5"/>
			</g>
		</g>
	</g>
	<g>
		<rect x="18.3" y="247.2" class="st20" width="257.5" height="14.9"/>
		<rect x="147" y="247.2" class="st15" width="128.8" height="14.9"/>
	</g>
</g>
<g>
	<circle class="st21" cx="52.4" cy="63.5" r="36"/>
	<g>
		<g>
			
				<rect x="50.2" y="43.7" transform="matrix(0.9994 -3.420090e-02 3.420090e-02 0.9994 -2.1433 1.8001)" class="st22" width="2.7" height="39.7"/>
			
				<rect x="51.7" y="43.8" transform="matrix(0.9994 -3.422965e-02 3.422965e-02 0.9994 -2.148 1.8275)" class="st23" width="1.2" height="39.7"/>
		</g>
		<path class="st24" d="M52.9,43.6l-4.3,0.1c-0.3,0-0.6,0.3-0.6,0.6l0,0c0,0.3,0.3,0.6,0.6,0.6l4.3-0.1c0.3,0,0.6-0.3,0.6-0.6l0,0
			C53.6,43.8,53.3,43.6,52.9,43.6z"/>
		<path class="st24" d="M54.3,82.2l-4.2,0.1c-1.3,0-2.3,1.1-2.2,2.4l8.7-0.3C56.6,83.2,55.5,82.2,54.3,82.2z"/>
		<path class="st24" d="M56.8,84.3l-9,0.3c-1.8,0.1-3.1,1.5-3.1,3.3L60,87.5C60,85.7,58.5,84.3,56.8,84.3z"/>
		<g>
			<path class="st24" d="M36.9,53.3c-4.4,0.2-8-1.9-8.1-2c-0.5-0.3-0.7-1-0.4-1.5s0.9-0.7,1.3-0.4c0,0,4.4,2.6,9.1,1.5
				c2.1-0.5,3.6-1.1,5-1.8c2.1-1,4.1-1.9,7.4-2c3.3-0.1,5.3,0.7,7.5,1.5c1.5,0.6,3,1.1,5.1,1.5c4.8,0.7,9-2.1,9-2.1
				c0.5-0.3,1.1-0.2,1.4,0.3s0.2,1.2-0.3,1.5c-0.2,0.1-4.8,3.3-10.3,2.5c-2.3-0.4-4-1-5.5-1.6c-2.1-0.8-3.9-1.4-6.8-1.3
				c-2.9,0.1-4.7,0.9-6.7,1.8c-1.5,0.7-3.1,1.4-5.4,1.9C38.4,53.2,37.6,53.2,36.9,53.3z"/>
			<g>
				
					<rect x="32.2" y="50.1" transform="matrix(0.9994 -3.417974e-02 3.417974e-02 0.9994 -2.1053 1.1454)" class="st25" width="0.5" height="24.1"/>
				
					<rect x="17.3" y="62" transform="matrix(0.305 -0.9524 0.9524 0.305 -39.3313 70.5402)" class="st25" width="22.8" height="0.5"/>
				
					<rect x="36" y="50.7" transform="matrix(0.9292 -0.3695 0.3695 0.9292 -20.3805 17.7951)" class="st25" width="0.5" height="22.8"/>
				<g>
					<path class="st24" d="M23.5,71.4c0,0.2,0,0.3,0,0.5c0.2,5.2,4.5,9.2,9.6,9c5.2-0.2,9.2-4.5,9-9.6c0-0.2,0-0.3,0-0.5L23.5,71.4z
						"/>
					<path class="st25" d="M42.1,70.8l-2.3,0.1c-0.9,4.1-4.4,7.2-8.8,7.3c-2.5,0.1-4.8-0.8-6.5-2.4c1.6,3.1,4.9,5.3,8.6,5.1
						c5.2-0.2,9.2-4.5,9-9.6C42.1,71.2,42.1,70.9,42.1,70.8z"/>
				</g>
				<path class="st24" d="M41.8,69.8l-18.2,0.6c-0.5,0-0.9,0.4-0.8,0.9c0,0.5,0.4,0.9,0.9,0.8l18.2-0.6c0.5,0,0.9-0.4,0.8-0.9
					C42.7,70.2,42.3,69.8,41.8,69.8z"/>
			</g>
			<g>
				
					<rect x="70.8" y="48.9" transform="matrix(0.9994 -3.417974e-02 3.417974e-02 0.9994 -2.0417 2.4641)" class="st25" width="0.5" height="24.1"/>
				
					<rect x="55.9" y="60.6" transform="matrix(0.305 -0.9523 0.9523 0.305 -11.2364 106.3925)" class="st25" width="22.8" height="0.5"/>
				
					<rect x="74.7" y="49.3" transform="matrix(0.9293 -0.3694 0.3694 0.9293 -17.117 31.9853)" class="st25" width="0.5" height="22.8"/>
				<g>
					<path class="st24" d="M62.1,70.2c0,0.2,0,0.3,0,0.5c0.2,5.2,4.5,9.2,9.6,9c5.2-0.2,9.2-4.5,9-9.6c0-0.2,0-0.3,0-0.5L62.1,70.2z
						"/>
					<path class="st25" d="M80.7,69.5l-2.3,0.1c-0.9,4.1-4.4,7.2-8.8,7.3c-2.5,0.1-4.8-0.8-6.5-2.4c1.6,3.1,4.9,5.3,8.6,5.1
						c5.2-0.2,9.2-4.5,9-9.6C80.8,69.8,80.7,69.7,80.7,69.5z"/>
				</g>
				<path class="st24" d="M80.5,68.5l-18.2,0.6c-0.5,0-0.9,0.4-0.8,0.9c0,0.5,0.4,0.9,0.9,0.8l18.2-0.6c0.5,0,0.9-0.4,0.8-0.9
					C81.4,68.9,81,68.5,80.5,68.5z"/>
			</g>
		</g>
		<g>
			
				<ellipse transform="matrix(0.9994 -3.420243e-02 3.420243e-02 0.9994 -1.3691 1.7613)" class="st24" cx="50.8" cy="40.9" rx="2.7" ry="2.7"/>
			<path class="st25" d="M52.3,38.8c0.1,0.3,0.2,0.5,0.2,0.8c0.1,1.5-1.1,2.7-2.6,2.8c-0.6,0-1.2-0.2-1.6-0.5c0.4,1,1.4,1.8,2.6,1.7
				c1.5-0.1,2.6-1.3,2.6-2.8C53.4,39.9,53,39.2,52.3,38.8z"/>
		</g>
		<path class="st25" d="M48,84c-0.1,0.2-0.1,0.4-0.1,0.6l8.7-0.3c0-0.2-0.1-0.4-0.1-0.6L48,84z"/>
	</g>
</g>
<circle class="st21" cx="247.1" cy="63.3" r="34.1"/>
<g>
	<path class="st26" d="M269.5,40.3c0-0.6,0.1-1.2,0.3-1.8H261h-19.7h-8.8c0.2,0.6,0.3,1.2,0.3,1.8c0,3.6-2.9,6.5-6.5,6.5v11.5
		c3.6,0,6.5,2.9,6.5,6.5c0,0.1,0,0.2,0,0.3h8.5H261h8.5c0-0.1,0-0.2,0-0.3c0-3.6,2.9-6.5,6.5-6.5V46.8
		C272.4,46.8,269.5,43.9,269.5,40.3z"/>
	<path class="st27" d="M266.9,41.9c0-0.5,0.1-1.1,0.2-1.5h-7.5h-16.9h-7.5c0.1,0.5,0.2,1,0.2,1.5c0,3.1-2.5,5.6-5.6,5.6v9.9
		c3.1,0,5.6,2.5,5.6,5.6c0,0.1,0,0.2,0,0.2h7.3h16.9h7.3c0-0.1,0-0.2,0-0.2c0-3.1,2.5-5.6,5.6-5.6v-9.9
		C269.4,47.5,266.9,45,266.9,41.9z"/>
	<g>
		<path class="st28" d="M242.4,52.4h-1.3v-3.7H240v-1h3.6v1h-1.2L242.4,52.4L242.4,52.4z"/>
		<path class="st28" d="M244.2,52.4v-4.7h1.3v4.7H244.2z"/>
		<path class="st28" d="M248.6,48.6c-0.3,0-0.5,0.1-0.7,0.4c-0.2,0.2-0.3,0.6-0.3,1c0,0.9,0.3,1.4,1,1.4c0.2,0,0.4,0,0.6-0.1
			c0.2-0.1,0.4-0.1,0.6-0.2v1.1c-0.4,0.2-0.8,0.3-1.3,0.3c-0.7,0-1.3-0.2-1.6-0.6c-0.4-0.4-0.6-1-0.6-1.8c0-0.5,0.1-0.9,0.3-1.3
			c0.2-0.4,0.4-0.7,0.8-0.9c0.3-0.2,0.8-0.3,1.2-0.3c0.5,0,1,0.1,1.5,0.3l-0.4,1c-0.2-0.1-0.3-0.2-0.5-0.2
			C249,48.7,248.8,48.6,248.6,48.6z"/>
		<path class="st28" d="M254.9,52.4h-1.4l-0.9-1.8l-0.4,0.2v1.6h-1.3v-4.7h1.3v2.1c0.1-0.1,0.2-0.3,0.4-0.6l1-1.5h1.4l-1.5,2.1
			L254.9,52.4z"/>
		<path class="st28" d="M258.2,52.4h-2.8v-4.7h2.8v1h-1.5v0.7h1.4v1h-1.4v0.9h1.5V52.4z"/>
		<path class="st28" d="M261.1,52.4h-1.3v-3.7h-1.2v-1h3.6v1H261v3.7H261.1z"/>
	</g>
	<g>
		<polygon class="st28" points="241.6,56.1 242.9,55.4 242.7,56.9 243.7,57.9 242.2,58.1 241.6,59.5 240.9,58.1 239.4,57.9 
			240.5,56.9 240.3,55.4 		"/>
		<polygon class="st28" points="247.9,56.1 249.3,55.4 249,56.9 250.1,57.9 248.6,58.1 247.9,59.5 247.3,58.1 245.8,57.9 
			246.9,56.9 246.6,55.4 		"/>
		<polygon class="st28" points="254.3,56.1 255.6,55.4 255.4,56.9 256.4,57.9 255,58.1 254.3,59.5 253.6,58.1 252.2,57.9 
			253.2,56.9 253,55.4 		"/>
		<polygon class="st28" points="260.7,56.1 262,55.4 261.7,56.9 262.8,57.9 261.3,58.1 260.7,59.5 260,58.1 258.5,57.9 259.6,56.9 
			259.3,55.4 		"/>
	</g>
	<line class="st27" x1="238" y1="53.6" x2="264.3" y2="53.6"/>
</g>
<g>
	<path class="st29" d="M265,69.4c0.3-0.5,0.7-1,1.1-1.4l-7.6-4.4l-17-10l-7.6-4.4c-0.1,0.6-0.4,1.1-0.7,1.7
		c-1.8,3.1-5.8,4.2-8.9,2.3l-5.8,10c3.1,1.8,4.2,5.8,2.3,8.9c0,0.1-0.1,0.2-0.1,0.2l7.4,4.3l17,10l7.4,4.3c0-0.1,0.1-0.2,0.1-0.2
		c1.8-3.1,5.8-4.2,8.9-2.3l5.8-10C264.2,76.6,263.1,72.6,265,69.4z"/>
	<path class="st27" d="M261.8,69.5c0.3-0.5,0.6-0.9,1-1.2l-6.5-3.8L241.8,56l-6.5-3.8c-0.1,0.5-0.3,1-0.6,1.4c-1.6,2.7-5,3.6-7.7,2
		l-5,8.5c2.7,1.6,3.6,5,2,7.7c0,0.1-0.1,0.1-0.1,0.2l6.3,3.7l14.6,8.5l6.3,3.7c0-0.1,0.1-0.1,0.1-0.2c1.6-2.7,5-3.6,7.7-2l5-8.5
		C261.2,75.6,260.3,72.2,261.8,69.5z"/>
	<g>
		<path class="st28" d="M235.4,66.2l-1.1-0.6l1.9-3.2l-1-0.6l0.5-0.9l3.1,1.8l-0.5,0.9l-1-0.6L235.4,66.2z"/>
		<path class="st28" d="M237,67.1l2.4-4.1l1.1,0.6l-2.4,4.1L237,67.1z"/>
		<path class="st28" d="M242.7,66.1c-0.3-0.2-0.5-0.2-0.8,0c-0.3,0.1-0.5,0.4-0.7,0.8c-0.5,0.8-0.4,1.4,0.2,1.7
			c0.2,0.1,0.4,0.2,0.6,0.2c0.2,0,0.4,0.1,0.6,0.1l-0.5,0.9c-0.4,0-0.9-0.2-1.3-0.5c-0.6-0.4-1-0.8-1.1-1.4c-0.1-0.5,0-1.2,0.4-1.8
			c0.2-0.4,0.5-0.7,0.9-1c0.3-0.2,0.7-0.3,1.1-0.3c0.4,0,0.8,0.1,1.2,0.4s0.8,0.6,1.1,1l-0.8,0.7c-0.1-0.2-0.2-0.3-0.3-0.4
			C243,66.3,242.9,66.2,242.7,66.1z"/>
		<path class="st28" d="M246.2,72.5l-1.2-0.7l0.1-2h-0.4l-0.8,1.4l-1.1-0.6l2.4-4.1l1.1,0.6l-1,1.8c0.1-0.1,0.3-0.2,0.6-0.3l1.6-0.7
			l1.2,0.7l-2.4,1.1L246.2,72.5z"/>
		<path class="st28" d="M249.1,74.2l-2.4-1.4l2.4-4.1l2.4,1.4L251,71l-1.3-0.8l-0.4,0.6l1.2,0.7l-0.5,0.9l-1.2-0.7l-0.5,0.8l1.3,0.8
			L249.1,74.2z"/>
		<path class="st28" d="M251.6,75.7l-1.1-0.6l1.9-3.2l-1-0.6l0.5-0.9l3.1,1.8l-0.5,0.9l-1-0.6L251.6,75.7z"/>
	</g>
	<g>
		<polygon class="st28" points="232.9,69 234.4,69.1 233.4,70.2 233.8,71.6 232.4,71.1 231.2,71.9 231.3,70.4 230.1,69.5 
			231.6,69.1 232.1,67.7 		"/>
		<polygon class="st28" points="238.4,72.2 239.9,72.3 238.9,73.4 239.3,74.8 237.9,74.3 236.7,75.1 236.8,73.6 235.6,72.7 
			237,72.3 237.6,70.9 		"/>
		<polygon class="st28" points="243.8,75.4 245.3,75.5 244.4,76.6 244.8,78.1 243.4,77.5 242.1,78.3 242.2,76.8 241.1,75.9 
			242.5,75.5 243.1,74.1 		"/>
		<polygon class="st28" points="249.3,78.6 250.8,78.7 249.9,79.8 250.3,81.3 248.9,80.7 247.6,81.5 247.7,80 246.6,79.1 248,78.7 
			248.5,77.4 		"/>
	</g>
	<line class="st27" x1="231" y1="65" x2="253.7" y2="78.3"/>
</g>
</svg>
