<?xml version="1.0" encoding="utf-8"?>
<!-- Generator: Adobe Illustrator 21.1.0, SVG Export Plug-In . SVG Version: 6.00 Build 0)  -->
<svg version="1.1" id="Layer_1" xmlns="http://www.w3.org/2000/svg" xmlns:xlink="http://www.w3.org/1999/xlink" x="0px" y="0px"
	 viewBox="0 0 620 71" style="enable-background:new 0 0 620 71;" xml:space="preserve">
<style type="text/css">
	.st0{fill:url(#SVGID_1_);}
	.st1{fill:url(#SVGID_2_);}
	.st2{fill:url(#SVGID_3_);}
	.st3{fill:url(#SVGID_4_);}
	.st4{fill:url(#SVGID_5_);}
	.st5{fill:url(#SVGID_6_);}
	.st6{fill:url(#SVGID_7_);}
	.st7{fill:url(#SVGID_8_);}
	.st8{fill:url(#SVGID_9_);}
	.st9{fill:url(#SVGID_10_);}
	.st10{fill:url(#SVGID_11_);}
	.st11{fill:url(#SVGID_12_);}
	.st12{fill:url(#SVGID_13_);}
	.st13{fill:url(#SVGID_14_);}
	.st14{fill:url(#SVGID_15_);}
	.st15{fill:url(#SVGID_16_);}
	.st16{fill:url(#SVGID_17_);}
	.st17{fill:url(#SVGID_18_);}
	.st18{fill:url(#SVGID_19_);}
</style>
<title>2</title>
<desc>Created with Sketch.</desc>
<g id="Page-1">
	<g>
		<g id="_x32__7_" transform="translate(-163.000000, -432.000000)">
			<g>
				<g>
					<linearGradient id="SVGID_1_" gradientUnits="userSpaceOnUse" x1="315.3372" y1="626.6595" x2="624.2889" y2="320.7368">
						<stop  offset="0" style="stop-color:#43DCE2"/>
						<stop  offset="1" style="stop-color:#B78CF3"/>
					</linearGradient>
					<path class="st0" d="M178.8,488.8v-41.2h8.2v14.7h3.9v-14.7h8.2v41.2h-8.2v-18.7H187v18.7H178.8z"/>
					<linearGradient id="SVGID_2_" gradientUnits="userSpaceOnUse" x1="315.3372" y1="626.6595" x2="624.2889" y2="320.7368">
						<stop  offset="0" style="stop-color:#43DCE2"/>
						<stop  offset="1" style="stop-color:#B78CF3"/>
					</linearGradient>
					<path class="st1" d="M208.6,451.3v-5.9h8.4v5.9H208.6z M208.6,488.8v-35.1h8.4v35.1H208.6z"/>
					<linearGradient id="SVGID_3_" gradientUnits="userSpaceOnUse" x1="315.3372" y1="626.6595" x2="624.2889" y2="320.7368">
						<stop  offset="0" style="stop-color:#43DCE2"/>
						<stop  offset="1" style="stop-color:#B78CF3"/>
					</linearGradient>
					<path class="st2" d="M227.4,494.3l1.5-5.5h-3v-7h8.7v6.8l-2.4,5.8H227.4z"/>
					<linearGradient id="SVGID_4_" gradientUnits="userSpaceOnUse" x1="315.3372" y1="626.6595" x2="624.2889" y2="320.7368">
						<stop  offset="0" style="stop-color:#43DCE2"/>
						<stop  offset="1" style="stop-color:#B78CF3"/>
					</linearGradient>
					<path class="st3" d="M261,488.8v-41.2h12.6l3.5,25.2l3.5-25.2h12.7v41.2h-7.5v-29.7l-4.8,29.7h-7.4l-5-29.7v29.7H261z"/>
					<linearGradient id="SVGID_5_" gradientUnits="userSpaceOnUse" x1="315.3372" y1="626.6595" x2="624.2889" y2="320.7368">
						<stop  offset="0" style="stop-color:#43DCE2"/>
						<stop  offset="1" style="stop-color:#B78CF3"/>
					</linearGradient>
					<path class="st4" d="M307.8,488.8v-13.6l-6.6-27.6h8.2l2.3,14l2.3-14h8.2l-6.6,27.6v13.6H307.8z"/>
					<linearGradient id="SVGID_6_" gradientUnits="userSpaceOnUse" x1="315.3372" y1="626.6595" x2="624.2889" y2="320.7368">
						<stop  offset="0" style="stop-color:#43DCE2"/>
						<stop  offset="1" style="stop-color:#B78CF3"/>
					</linearGradient>
					<path class="st5" d="M347.4,488.8v-41.2h8.5l3.8,19.7v-19.7h8v41.2h-8.1l-4.1-20.6v20.6H347.4z"/>
					<linearGradient id="SVGID_7_" gradientUnits="userSpaceOnUse" x1="315.3372" y1="626.6595" x2="624.2889" y2="320.7368">
						<stop  offset="0" style="stop-color:#43DCE2"/>
						<stop  offset="1" style="stop-color:#B78CF3"/>
					</linearGradient>
					<path class="st6" d="M376.2,488.8l4-41.2h14l3.9,41.2h-7.8l-0.6-6.7h-5l-0.5,6.7H376.2z M385.4,475.5h3.7l-1.8-21h-0.4
						L385.4,475.5z"/>
					<linearGradient id="SVGID_8_" gradientUnits="userSpaceOnUse" x1="315.3372" y1="626.6595" x2="624.2889" y2="320.7368">
						<stop  offset="0" style="stop-color:#43DCE2"/>
						<stop  offset="1" style="stop-color:#B78CF3"/>
					</linearGradient>
					<path class="st7" d="M406.6,488.8v-41.2h12.6l3.5,25.2l3.5-25.2h12.7v41.2h-7.5v-29.7l-4.8,29.7h-7.4l-5-29.7v29.7H406.6z"/>
					<linearGradient id="SVGID_9_" gradientUnits="userSpaceOnUse" x1="315.3372" y1="626.6595" x2="624.2889" y2="320.7368">
						<stop  offset="0" style="stop-color:#43DCE2"/>
						<stop  offset="1" style="stop-color:#B78CF3"/>
					</linearGradient>
					<path class="st8" d="M448.4,488.8v-41.2h16.5v8h-8.1v8h7.8v7.8h-7.8v9.5h8.6v8H448.4z"/>
					<linearGradient id="SVGID_10_" gradientUnits="userSpaceOnUse" x1="315.3372" y1="626.6595" x2="624.2889" y2="320.7368">
						<stop  offset="0" style="stop-color:#43DCE2"/>
						<stop  offset="1" style="stop-color:#B78CF3"/>
					</linearGradient>
					<path class="st9" d="M491.1,488.8v-41.2h8v41.2H491.1z"/>
					<linearGradient id="SVGID_11_" gradientUnits="userSpaceOnUse" x1="315.3372" y1="626.6595" x2="624.2889" y2="320.7368">
						<stop  offset="0" style="stop-color:#43DCE2"/>
						<stop  offset="1" style="stop-color:#B78CF3"/>
					</linearGradient>
					<path class="st10" d="M510,486.4c-1.7-1.9-2.5-4.8-2.5-9v-4h8.1v5.1c0,2,0.7,3.1,2,3.1c0.7,0,1.2-0.2,1.5-0.6
						c0.3-0.4,0.4-1.2,0.4-2.2c0-1.3-0.2-2.5-0.5-3.3c-0.3-0.9-0.7-1.6-1.2-2.2c-0.5-0.6-1.4-1.5-2.7-2.8l-3.6-3.6
						c-2.8-2.7-4.1-5.7-4.1-8.9c0-3.5,0.8-6.2,2.4-8c1.6-1.8,4-2.8,7.1-2.8c3.7,0,6.4,1,8,3c1.6,2,2.4,5,2.4,9.2h-8.4l0-2.8
						c0-0.5-0.2-1-0.5-1.3c-0.3-0.3-0.7-0.5-1.3-0.5c-0.6,0-1.1,0.2-1.4,0.5c-0.3,0.4-0.5,0.8-0.5,1.4c0,1.3,0.8,2.7,2.3,4.2
						l4.8,4.6c1.1,1.1,2,2.1,2.8,3.1c0.7,1,1.3,2.1,1.8,3.5c0.4,1.3,0.7,2.9,0.7,4.7c0,4.1-0.7,7.1-2.2,9.2
						c-1.5,2.1-3.9,3.1-7.4,3.1C514.4,489.2,511.7,488.3,510,486.4z"/>
					<linearGradient id="SVGID_12_" gradientUnits="userSpaceOnUse" x1="315.3372" y1="626.6595" x2="624.2889" y2="320.7368">
						<stop  offset="0" style="stop-color:#43DCE2"/>
						<stop  offset="1" style="stop-color:#B78CF3"/>
					</linearGradient>
					<path class="st11" d="M565.4,488.8c-1.2,0.2-1.9,0.3-2.1,0.3c-3.3,0-5.9-1-7.6-2.9s-2.6-4.7-2.6-8.4V458c0-3.6,0.9-6.2,2.6-8.1
						c1.7-1.8,4.3-2.8,7.6-2.8s5.8,0.9,7.6,2.8c1.7,1.8,2.6,4.5,2.6,8.1v19.9c0,3.4-0.8,6.1-2.3,8.1l3.6,2.3l-2.8,4.9L565.4,488.8z
						 M564.8,480.4c0.2-0.8,0.3-1.8,0.3-3v-19.3c0-1.1-0.1-1.9-0.4-2.5c-0.3-0.6-0.8-0.9-1.5-0.9c-1.3,0-2,1.1-2,3.4v19.5
						c0,1.2,0.1,2.1,0.4,2.9c0.3,0.8,0.8,1.1,1.6,1.1C564.1,481.6,564.6,481.2,564.8,480.4z"/>
					<linearGradient id="SVGID_13_" gradientUnits="userSpaceOnUse" x1="315.3372" y1="626.6595" x2="624.2889" y2="320.7368">
						<stop  offset="0" style="stop-color:#43DCE2"/>
						<stop  offset="1" style="stop-color:#B78CF3"/>
					</linearGradient>
					<path class="st12" d="M583,488.8v-41.2h8v41.2H583z"/>
					<linearGradient id="SVGID_14_" gradientUnits="userSpaceOnUse" x1="315.3372" y1="626.6595" x2="624.2889" y2="320.7368">
						<stop  offset="0" style="stop-color:#43DCE2"/>
						<stop  offset="1" style="stop-color:#B78CF3"/>
					</linearGradient>
					<path class="st13" d="M600.3,488.8v-41.2h8.5l3.8,19.7v-19.7h8v41.2h-8.1l-4.1-20.6v20.6H600.3z"/>
					<linearGradient id="SVGID_15_" gradientUnits="userSpaceOnUse" x1="315.3372" y1="626.6595" x2="624.2889" y2="320.7368">
						<stop  offset="0" style="stop-color:#43DCE2"/>
						<stop  offset="1" style="stop-color:#B78CF3"/>
					</linearGradient>
					<path class="st14" d="M632.1,486c-1.5-2.1-2.2-5.3-2.2-9.5v-17.8c0-3.8,0.8-6.7,2.5-8.6c1.7-2,4.2-2.9,7.6-2.9
						c2.7,0,4.8,0.5,6.3,1.6c1.5,1.1,2.5,2.7,3.1,4.8c0.6,2.1,0.9,4.8,0.9,8h-8.1v-3.7c0-1-0.1-1.8-0.4-2.3s-0.8-0.8-1.5-0.8
						c-1.6,0-2.4,1-2.4,3.1v20c0,1.2,0.2,2.2,0.5,2.8c0.3,0.6,0.9,1,1.7,1s1.4-0.3,1.7-1c0.3-0.6,0.5-1.6,0.5-2.8v-5.9h-2.2v-7.1
						h10.1v24h-3.3l-1.4-3.5c-1.5,2.6-3.7,3.8-6.8,3.8C635.7,489.2,633.5,488.1,632.1,486z"/>
					<linearGradient id="SVGID_16_" gradientUnits="userSpaceOnUse" x1="315.3372" y1="626.6595" x2="624.2889" y2="320.7368">
						<stop  offset="0" style="stop-color:#43DCE2"/>
						<stop  offset="1" style="stop-color:#B78CF3"/>
					</linearGradient>
					<path class="st15" d="M678.6,486c-1.5-2.1-2.2-5.3-2.2-9.5v-17.8c0-3.8,0.8-6.7,2.5-8.6c1.7-2,4.2-2.9,7.6-2.9
						c2.7,0,4.8,0.5,6.3,1.6c1.5,1.1,2.5,2.7,3.1,4.8c0.6,2.1,0.9,4.8,0.9,8h-8.1v-3.7c0-1-0.1-1.8-0.4-2.3s-0.8-0.8-1.5-0.8
						c-1.6,0-2.4,1-2.4,3.1v20c0,1.2,0.2,2.2,0.5,2.8c0.3,0.6,0.9,1,1.7,1s1.4-0.3,1.7-1c0.3-0.6,0.5-1.6,0.5-2.8v-5.9h-2.2v-7.1
						h10.1v24h-3.3l-1.4-3.5c-1.5,2.6-3.7,3.8-6.8,3.8C682.2,489.2,680,488.1,678.6,486z"/>
					<linearGradient id="SVGID_17_" gradientUnits="userSpaceOnUse" x1="315.3372" y1="626.6595" x2="624.2889" y2="320.7368">
						<stop  offset="0" style="stop-color:#43DCE2"/>
						<stop  offset="1" style="stop-color:#B78CF3"/>
					</linearGradient>
					<path class="st16" d="M708,486.3c-1.6-1.9-2.5-4.8-2.5-8.5v-30.2h8v29.9c0,1.3,0.1,2.3,0.4,3.1c0.3,0.7,0.8,1.1,1.6,1.1
						s1.4-0.4,1.6-1.1c0.3-0.7,0.4-1.8,0.4-3.1v-29.9h8v30.2c0,3.8-0.8,6.6-2.5,8.5s-4.2,2.9-7.6,2.9
						C712.2,489.2,709.6,488.2,708,486.3z"/>
					<linearGradient id="SVGID_18_" gradientUnits="userSpaceOnUse" x1="315.3372" y1="626.6595" x2="624.2889" y2="320.7368">
						<stop  offset="0" style="stop-color:#43DCE2"/>
						<stop  offset="1" style="stop-color:#B78CF3"/>
					</linearGradient>
					<path class="st17" d="M737,486.1c-1.7-2-2.6-4.9-2.6-8.6v-19.6c0-3.6,0.9-6.2,2.6-8c1.7-1.8,4.3-2.7,7.6-2.7s5.9,0.9,7.6,2.7
						c1.7,1.8,2.6,4.5,2.6,8v19.6c0,3.7-0.9,6.6-2.6,8.6c-1.7,2-4.3,3-7.6,3S738.7,488.2,737,486.1z M746.1,480.6
						c0.3-0.6,0.4-1.5,0.4-2.7v-20.2c0-0.9-0.1-1.6-0.4-2.2c-0.2-0.6-0.7-0.8-1.5-0.8c-1.4,0-2.1,1-2.1,3.1V478
						c0,1.2,0.1,2.1,0.4,2.7c0.3,0.6,0.8,0.9,1.6,0.9C745.3,481.6,745.8,481.3,746.1,480.6z"/>
					<linearGradient id="SVGID_19_" gradientUnits="userSpaceOnUse" x1="315.3372" y1="626.6595" x2="624.2889" y2="320.7368">
						<stop  offset="0" style="stop-color:#43DCE2"/>
						<stop  offset="1" style="stop-color:#B78CF3"/>
					</linearGradient>
					<path class="st18" d="M763.5,488.8v-7h8.4v7H763.5z"/>
				</g>
			</g>
		</g>
	</g>
</g>
</svg>
