<?xml version="1.0" encoding="UTF-8"?>
<svg width="91px" height="122px" viewBox="0 0 91 122" version="1.1" xmlns="http://www.w3.org/2000/svg" xmlns:xlink="http://www.w3.org/1999/xlink">
    <!-- Generator: Sketch 46.2 (44496) - http://www.bohemiancoding.com/sketch -->
    <title>Group</title>
    <desc>Created with Sketch.</desc>
    <defs></defs>
    <g id="Page-1" stroke="#fffff" stroke-width="1" fill="none" fill-rule="evenodd">
        <g id="2" transform="translate(-676.000000, -268.000000)">
            <g id="Group" transform="translate(676.000000, 268.000000)">
                <rect id="Rectangle-2" stroke="#FFFFFF" stroke-width="5" x="2.5" y="2.5" width="86" height="117"></rect>
                <path d="M45.5,29 L45.5,89.8327144" id="Path-4" stroke="#C4C1C1" stroke-width="3"></path>
                <g id="Group-4" transform="translate(19.000000, 45.000000)" fill="none" stroke="#FFFFFF" stroke-width="1"  >
                    <path d="M2.295,25.275 C1.38499545,23.9649935 0.93,21.9800133 0.93,19.32 L0.93,8.22 C0.93,5.8399881 1.4599947,4.0400061 2.52,2.82 C3.5800053,1.5999939 5.1599895,0.99 7.26,0.99 C8.9600085,0.99 10.2799953,1.3299966 11.22,2.01 C12.1600047,2.6900034 12.8099982,3.6799935 13.17,4.98 C13.5300018,6.2800065 13.71,7.9499898 13.71,9.99 L8.67,9.99 L8.67,7.68 C8.67,7.0599969 8.58500085,6.5800017 8.415,6.24 C8.24499915,5.8999983 7.9400022,5.73 7.5,5.73 C6.5199951,5.73 6.03,6.3699936 6.03,7.65 L6.03,20.13 C6.03,20.9100039 6.129999,21.499998 6.33,21.9 C6.530001,22.300002 6.8799975,22.5 7.38,22.5 C7.8800025,22.5 8.229999,22.300002 8.43,21.9 C8.630001,21.499998 8.73,20.9100039 8.73,20.13 L8.73,16.44 L7.35,16.44 L7.35,12 L13.65,12 L13.65,27 L11.58,27 L10.71,24.84 C9.7899954,26.440008 8.3700096,27.24 6.45,27.24 C4.5899907,27.24 3.20500455,26.5850066 2.295,25.275 Z" id="G"></path>
                    <path d="M48.43,27.03 C47.6699962,27.1700007 47.2400005,27.24 47.14,27.24 C45.0599896,27.24 43.4800054,26.645006 42.4,25.455 C41.3199946,24.264994 40.78,22.5200115 40.78,20.22 L40.78,7.77 C40.78,5.5499889 41.3249945,3.86500575 42.415,2.715 C43.5050054,1.56499425 45.0799897,0.99 47.14,0.99 C49.2000103,0.99 50.7749946,1.56499425 51.865,2.715 C52.9550055,3.86500575 53.5,5.5499889 53.5,7.77 L53.5,20.22 C53.5,22.3400106 53.0200048,24.0199938 52.06,25.26 L54.28,26.67 L52.54,29.73 L48.43,27.03 Z M48.1,21.78 C48.2400007,21.2999976 48.31,20.6800038 48.31,19.92 L48.31,7.86 C48.31,7.1999967 48.2250009,6.6800019 48.055,6.3 C47.8849991,5.9199981 47.5700023,5.73 47.11,5.73 C46.2899959,5.73 45.88,6.429993 45.88,7.83 L45.88,20.01 C45.88,20.7300036 45.9599992,21.3249977 46.12,21.795 C46.2800008,22.2650024 46.6199974,22.5 47.14,22.5 C47.6400025,22.5 47.9599993,22.2600024 48.1,21.78 Z" id="Q"></path>
                </g>
            </g>
        </g>
    </g>
</svg>
