<svg id="Layer_1" data-name="Layer 1" xmlns="http://www.w3.org/2000/svg" viewBox="0 0 624 400"><defs><style>.cls-1{fill:#f17871;}.cls-2{fill:#fff;}.cls-3{fill:#0a345a;}.cls-4{fill:#dadbdc;}.cls-5{fill:#f1584f;}.cls-6{fill:#004564;}.cls-7{fill:#019dc3;}.cls-8{fill:#00acd5;}.cls-9{fill:#dbdbdb;}.cls-10{fill:#1a7c57;}.cls-11{fill:#1f865f;}.cls-12{fill:#1e835e;}.cls-13{fill:#fbf49d;}.cls-14{fill:#249067;}.cls-15{fill:#1c825d;}.cls-16{fill:#2a9e71;}.cls-17{fill:#208c64;}.cls-18{fill:#e6e7e8;}.cls-19{fill:#e7e194;}.cls-20{fill:#2e3b52;}.cls-21{fill:#10141f;}.cls-22{fill:#e0e0e0;}.cls-23{fill:#1f2838;}.cls-24{fill:#ffef7f;}.cls-25{fill:#ebebeb;}.cls-26{fill:#0085b1;}.cls-27{fill:#fff845;}.cls-28{fill:#414350;}.cls-29{fill:#343640;}.cls-30{fill:#bdbdbd;}.cls-31{fill:#e6e6e6;}.cls-32{fill:#ccc;}.cls-33{fill:#dedfe0;}.cls-34{fill:#f8ed3c;}.cls-35{fill:#e3db3b;}.cls-36{fill:#63435d;}.cls-37{fill:#b79694;}.cls-38{fill:#f8a693;}.cls-39{fill:#fcc9a1;}.cls-40{fill:#ce7381;}.cls-41{fill:#a55c68;}.cls-42{fill:#8f4f5a;}</style></defs><title>Fan-big</title><rect class="cls-1" x="38.69" y="163.09" width="62" height="81.03"/><path class="cls-2" d="M103.51,246.93H35.87V160.27h67.64Zm-62-5.64H97.88V165.9H41.51Z"/><polygon class="cls-3" points="54.67 163.39 53.4 162.78 68.3 131.87 82.39 162.8 81.1 163.38 68.27 135.19 54.67 163.39"/><path class="cls-2" d="M618.79,145.21h-70v-1.77H619A12.21,12.21,0,0,1,618.79,145.21Z"/><path class="cls-2" d="M619,142.37H548.81V140.6h70A12.25,12.25,0,0,1,619,142.37Z"/><path class="cls-2" d="M617.89,148H548.81v-1.77h69.73A12.19,12.19,0,0,1,617.89,148Z"/><path class="cls-2" d="M618.54,139.54H548.81v-1.77h69.08A12.23,12.23,0,0,1,618.54,139.54Z"/><path class="cls-2" d="M616.1,150.88H548.81v-1.77h68.53A12.67,12.67,0,0,1,616.1,150.88Z"/><path class="cls-2" d="M606.6,155.32H548.81v-3.37h66.27A12.36,12.36,0,0,1,606.6,155.32Z"/><path class="cls-2" d="M548.81,130.5H606.6a12.36,12.36,0,0,1,8.48,3.37H548.81Z"/><path class="cls-2" d="M616.1,134.93a12.53,12.53,0,0,1,1.24,1.77H548.81v-1.77Z"/><path class="cls-4" d="M548.81,133.87h66.27a12.47,12.47,0,0,1,1,1.06H548.81v-1.06Z"/><path class="cls-4" d="M617.89,137.76H548.81V136.7h68.53Q617.64,137.22,617.89,137.76Z"/><path class="cls-4" d="M618.79,140.6h-70v-1.06h69.73C618.63,139.89,618.72,140.24,618.79,140.6Z"/><path class="cls-4" d="M619,142.91c0,.18,0,.35,0,.53H548.81v-1.06H619C619,142.55,619,142.73,619,142.91Z"/><path class="cls-4" d="M618.54,146.27H548.81v-1.06h70C618.72,145.57,618.63,145.93,618.54,146.27Z"/><path class="cls-4" d="M617.34,149.11H548.81V148h69.08Q617.64,148.59,617.34,149.11Z"/><path class="cls-4" d="M615.08,151.95H548.81v-1.06H616.1A12.53,12.53,0,0,1,615.08,151.95Z"/><path class="cls-5" d="M545.62,156.73h61a13.83,13.83,0,0,0,0-27.66h-61a1.42,1.42,0,1,0,0,2.84h61a11,11,0,1,1,0,22h-61a1.42,1.42,0,1,0,0,2.84Z"/><path class="cls-2" d="M618.79,117.55h-70v-1.77H619A12.24,12.24,0,0,1,618.79,117.55Z"/><path class="cls-2" d="M619,114.72H548.81v-1.77h70A12.23,12.23,0,0,1,619,114.72Z"/><path class="cls-2" d="M617.89,120.39H548.81v-1.77h69.73A12.23,12.23,0,0,1,617.89,120.39Z"/><path class="cls-2" d="M618.54,111.88H548.81v-1.77h69.08A12.23,12.23,0,0,1,618.54,111.88Z"/><path class="cls-2" d="M616.1,123.23H548.81v-1.77h68.53A12.68,12.68,0,0,1,616.1,123.23Z"/><path class="cls-2" d="M606.6,127.66H548.81v-3.37h66.27A12.36,12.36,0,0,1,606.6,127.66Z"/><path class="cls-2" d="M548.81,102.84H606.6a12.36,12.36,0,0,1,8.48,3.37H548.81Z"/><path class="cls-2" d="M616.1,107.27a12.6,12.6,0,0,1,1.24,1.77H548.81v-1.77Z"/><path class="cls-4" d="M548.81,106.21h66.27a12.62,12.62,0,0,1,1,1.06H548.81v-1.06Z"/><path class="cls-4" d="M617.89,110.11H548.81V109h68.53Q617.64,109.56,617.89,110.11Z"/><path class="cls-4" d="M618.79,112.95h-70v-1.06h69.73C618.63,112.23,618.72,112.59,618.79,112.95Z"/><path class="cls-4" d="M619,115.25c0,.18,0,.35,0,.53H548.81v-1.06H619C619,114.9,619,115.07,619,115.25Z"/><path class="cls-4" d="M618.54,118.62H548.81v-1.06h70C618.72,117.92,618.63,118.27,618.54,118.62Z"/><path class="cls-4" d="M617.34,121.45H548.81v-1.06h69.08Q617.64,120.94,617.34,121.45Z"/><path class="cls-4" d="M615.08,124.29H548.81v-1.06H616.1A12.6,12.6,0,0,1,615.08,124.29Z"/><path class="cls-6" d="M545.62,129.08h61a13.83,13.83,0,1,0,0-27.65h-61a1.42,1.42,0,0,0,0,2.84h61a11,11,0,1,1,0,22h-61a1.42,1.42,0,1,0,0,2.84Z"/><path class="cls-7" d="M505.57,63.83v85.83s.15,3.18,3.18,3.18h27a5.54,5.54,0,0,1-5.48,4.75H507.64a5.55,5.55,0,0,1-5.55-5.55V69A5.54,5.54,0,0,1,505.57,63.83Z"/><path class="cls-8" d="M505.57,149.66V63.83a5.51,5.51,0,0,1,2.06-.4h22.65A5.55,5.55,0,0,1,535.84,69V152a5.62,5.62,0,0,1-.06.79h-27C505.73,152.84,505.57,149.66,505.57,149.66Z"/><rect class="cls-2" x="508.1" y="74.82" width="22.15" height="7.56"/><rect class="cls-2" x="508.1" y="87.07" width="22.15" height="7.56"/><rect class="cls-2" x="508.1" y="99.32" width="22.15" height="7.56"/><rect class="cls-2" x="3.16" y="371.92" width="615.78" height="12.99"/><rect class="cls-9" x="3.16" y="384.91" width="615.78" height="6.09"/><path class="cls-10" d="M23.44,196.65a45,45,0,0,1,9,18.46l-1.57,1.57-1.57,1.57a36.3,36.3,0,0,1-5.14-1.45A71.6,71.6,0,0,1,7.65,189.4C10.62,188.41,16.07,188.5,23.44,196.65Z"/><path class="cls-11" d="M5.07,190.88a7,7,0,0,1,2.58-1.48,71.61,71.61,0,0,0,16.5,27.41,46.44,46.44,0,0,1-13.31-7.56C-1.91,197.71,5.06,190.89,5.07,190.88Z"/><polygon class="cls-12" points="10.39 196.67 8.68 195.74 10.39 194.8 11.32 193.09 12.26 194.8 13.96 195.74 12.26 196.67 11.32 198.38 10.39 196.67"/><polygon class="cls-12" points="19.61 200.03 18.18 199.25 19.61 198.47 20.39 197.04 21.17 198.47 22.59 199.25 21.17 200.03 20.39 201.46 19.61 200.03"/><polygon class="cls-12" points="16.19 208.05 14.13 206.93 16.19 205.81 17.31 203.75 18.44 205.81 20.49 206.93 18.44 208.05 17.31 210.11 16.19 208.05"/><polygon class="cls-13" points="11.32 193.76 10.62 195.04 9.35 195.74 10.62 196.44 11.32 197.71 12.02 196.44 13.3 195.74 12.02 195.04 11.32 193.76"/><polygon class="cls-13" points="20.39 197.71 19.84 198.71 18.85 199.25 19.84 199.79 20.39 200.79 20.93 199.79 21.93 199.25 20.93 198.71 20.39 197.71"/><polygon class="cls-13" points="17.31 204.42 16.43 206.04 14.8 206.93 16.43 207.82 17.31 209.44 18.2 207.82 19.82 206.93 18.2 206.04 17.31 204.42"/><path class="cls-10" d="M84,221.65a45,45,0,0,0-9,18.46l1.57,1.57,1.57,1.57a36.3,36.3,0,0,0,5.14-1.45,71.6,71.6,0,0,0,16.5-27.41C96.77,213.4,91.32,213.5,84,221.65Z"/><path class="cls-11" d="M102.32,215.88a7,7,0,0,0-2.58-1.48,71.61,71.61,0,0,1-16.5,27.41,46.44,46.44,0,0,0,13.31-7.56C109.3,222.71,102.33,215.89,102.32,215.88Z"/><polygon class="cls-12" points="97 221.67 98.71 220.73 97 219.8 96.07 218.09 95.14 219.8 93.43 220.73 95.13 221.67 96.07 223.38 97 221.67"/><polygon class="cls-12" points="87.78 225.03 89.21 224.25 87.78 223.47 87 222.04 86.22 223.47 84.8 224.25 86.22 225.03 87 226.45 87.78 225.03"/><polygon class="cls-12" points="91.2 233.05 93.26 231.93 91.2 230.8 90.08 228.75 88.96 230.8 86.9 231.93 88.95 233.05 90.08 235.1 91.2 233.05"/><polygon class="cls-13" points="96.07 218.76 96.77 220.03 98.05 220.73 96.77 221.43 96.07 222.71 95.37 221.43 94.09 220.73 95.37 220.03 96.07 218.76"/><polygon class="cls-13" points="87 222.71 87.55 223.7 88.54 224.25 87.55 224.79 87 225.79 86.46 224.79 85.46 224.25 86.46 223.7 87 222.71"/><polygon class="cls-13" points="90.08 229.42 90.97 231.04 92.59 231.93 90.97 232.81 90.08 234.44 89.19 232.81 87.57 231.93 89.19 231.04 90.08 229.42"/><path class="cls-14" d="M105.12,243.65c11.37-1.71,15.37,5.71,15.38,5.73h0s7.81,13.77-17.23,26a74.07,74.07,0,0,1-29.48,5.92C79.64,265.64,90.14,251.08,105.12,243.65Z"/><path class="cls-15" d="M89.3,250.12c6.39-4,11.61-5.84,15.81-6.47-15,7.43-25.48,22-31.33,37.65q-1.64,0-3.3-.18L68.74,278h0L67,274.82C75,259.42,89.3,250.12,89.3,250.12Z"/><path class="cls-10" d="M23.93,236.29a45,45,0,0,1,9,18.46l-1.57,1.57-1.57,1.57a36.3,36.3,0,0,1-5.14-1.45A71.6,71.6,0,0,1,8.14,229C11.11,228,16.56,228.14,23.93,236.29Z"/><path class="cls-11" d="M5.56,230.52A7,7,0,0,1,8.14,229a71.61,71.61,0,0,0,16.5,27.41,46.44,46.44,0,0,1-13.31-7.56C-1.42,237.35,5.55,230.53,5.56,230.52Z"/><path class="cls-16" d="M37.74,192.51c7.74-7.87,16.35-7.77,16.37-7.77h0c.05,0,31.07-.35,28.32,54.28,0,0-2.36,33.44-21.24,61.76h-.85c-13.46-18.17-21.59-39.48-26.78-62A73.5,73.5,0,0,1,37.74,192.51Z"/><path class="cls-17" d="M37.74,192.51a73.5,73.5,0,0,0-4.18,46.23c5.19,22.57,13.32,43.87,26.78,62H47C28.16,272.45,25.8,239,25.8,239,24.49,213.13,30.77,199.59,37.74,192.51Z"/><polygon class="cls-12" points="62.37 282.01 61.2 279.87 59.05 278.69 61.2 277.52 62.37 275.38 63.54 277.52 65.68 278.69 63.54 279.87 62.37 282.01"/><path class="cls-12" d="M46.21,280.27l-1.58,2.88-1.58-2.88-2.88-1.58,2.88-1.58,1.58-2.88,1.58,2.88.24.13q.54,1.15,1.09,2.29Z"/><path class="cls-12" d="M47.54,279.54q-.56-1.14-1.09-2.29l2.64,1.44Z"/><polygon class="cls-12" points="58.14 257.97 55.26 256.39 58.15 254.82 59.72 251.94 61.3 254.82 64.18 256.39 61.3 257.97 59.72 260.85 58.14 257.97"/><polygon class="cls-12" points="70.4 244.49 68.14 243.25 70.4 242.02 71.63 239.76 72.87 242.02 75.12 243.25 72.87 244.49 71.63 246.74 70.4 244.49"/><polygon class="cls-12" points="40.43 242.67 38.11 241.4 40.43 240.13 41.7 237.81 42.97 240.13 45.3 241.4 42.97 242.67 41.7 245 40.43 242.67"/><polygon class="cls-12" points="90.83 258.5 88.95 256.63 91.53 256.05 93.4 254.17 93.98 256.76 95.86 258.62 93.27 259.2 91.41 261.08 90.83 258.5"/><polygon class="cls-12" points="10.88 236.31 9.17 235.38 10.88 234.44 11.81 232.73 12.75 234.44 14.46 235.38 12.75 236.31 11.81 238.02 10.88 236.31"/><polygon class="cls-12" points="20.1 239.67 18.68 238.89 20.1 238.11 20.88 236.69 21.66 238.11 23.08 238.89 21.66 239.67 20.88 241.09 20.1 239.67"/><polygon class="cls-12" points="84.51 274.31 83.1 272.92 85.03 272.49 86.42 271.08 86.86 273.01 88.26 274.4 86.33 274.83 84.94 276.24 84.51 274.31"/><polygon class="cls-12" points="100.18 272.5 98.78 271.11 100.71 270.68 102.1 269.27 102.53 271.2 103.94 272.6 102.01 273.03 100.61 274.43 100.18 272.5"/><polygon class="cls-12" points="16.68 247.69 14.63 246.57 16.68 245.45 17.8 243.39 18.93 245.45 20.98 246.57 18.93 247.69 17.8 249.75 16.68 247.69"/><polygon class="cls-12" points="35.15 221.37 32.27 219.79 35.15 218.21 36.73 215.33 38.31 218.21 41.19 219.79 38.31 221.37 36.73 224.25 35.15 221.37"/><polygon class="cls-12" points="52.86 193.14 50.55 191.87 52.86 190.61 54.12 188.3 55.38 190.61 57.69 191.87 55.38 193.14 54.12 195.45 52.86 193.14"/><polygon class="cls-12" points="109.44 254.15 107.57 252.3 110.14 251.72 112 249.85 112.57 252.42 114.44 254.27 111.87 254.85 110.02 256.72 109.44 254.15"/><polygon class="cls-12" points="58.14 215.61 55.26 214.03 58.15 212.45 59.72 209.57 61.3 212.45 64.18 214.03 61.3 215.61 59.72 218.49 58.14 215.61"/><polygon class="cls-13" points="62.37 281.34 61.43 279.63 59.72 278.69 61.43 277.76 62.37 276.05 63.3 277.76 65.02 278.69 63.3 279.63 62.37 281.34"/><path class="cls-13" d="M46,280l-1.34,2.45L43.29,280l-2.45-1.34,2.45-1.34,1.34-2.45L46,277.35l.71.39.72,1.51Z"/><path class="cls-13" d="M47.4,279.25l-.72-1.51,1.74,1Z"/><polygon class="cls-13" points="59.72 252.6 58.38 255.05 55.93 256.39 58.38 257.74 59.72 260.19 61.06 257.74 63.51 256.39 61.06 255.05 59.72 252.6"/><polygon class="cls-13" points="71.63 240.43 70.63 242.25 68.81 243.25 70.63 244.25 71.63 246.08 72.63 244.25 74.46 243.25 72.63 242.25 71.63 240.43"/><polygon class="cls-13" points="41.7 238.47 40.67 240.37 38.77 241.4 40.67 242.44 41.7 244.33 42.74 242.44 44.63 241.4 42.74 240.37 41.7 238.47"/><polygon class="cls-13" points="93.22 254.81 91.69 256.34 89.59 256.81 91.12 258.33 91.59 260.44 93.11 258.91 95.22 258.44 93.69 256.92 93.22 254.81"/><polygon class="cls-13" points="11.81 233.4 11.11 234.68 9.84 235.38 11.11 236.07 11.81 237.35 12.51 236.07 13.79 235.38 12.51 234.68 11.81 233.4"/><polygon class="cls-13" points="20.88 237.35 20.34 238.35 19.34 238.89 20.34 239.43 20.88 240.43 21.42 239.43 22.42 238.89 21.42 238.35 20.88 237.35"/><polygon class="cls-13" points="86.24 271.72 85.19 272.78 83.74 273.1 84.8 274.15 85.12 275.6 86.17 274.54 87.62 274.22 86.56 273.17 86.24 271.72"/><polygon class="cls-13" points="101.92 269.91 100.87 270.97 99.42 271.29 100.47 272.34 100.8 273.79 101.84 272.74 103.3 272.41 102.24 271.37 101.92 269.91"/><polygon class="cls-13" points="17.8 244.06 16.91 245.68 15.29 246.57 16.91 247.46 17.8 249.08 18.69 247.46 20.31 246.57 18.69 245.68 17.8 244.06"/><polygon class="cls-13" points="36.73 216 35.39 218.45 32.94 219.79 35.39 221.13 36.73 223.58 38.07 221.13 40.52 219.79 38.07 218.45 36.73 216"/><polygon class="cls-13" points="54.12 188.97 53.09 190.85 51.21 191.88 53.09 192.9 54.12 194.78 55.15 192.9 57.02 191.88 55.15 190.85 54.12 188.97"/><polygon class="cls-13" points="111.81 250.49 110.3 252.01 108.22 252.48 109.73 253.99 110.2 256.08 111.71 254.56 113.8 254.09 112.28 252.58 111.81 250.49"/><polygon class="cls-13" points="59.72 210.24 58.38 212.69 55.93 214.03 58.38 215.37 59.72 217.82 61.06 215.37 63.51 214.03 61.06 212.69 59.72 210.24"/><path class="cls-2" d="M30,296.27a9.41,9.41,0,0,1,2.51-.34H75.27a8.73,8.73,0,0,1,8.84,9.76L84,306.9H31.13Z"/><path class="cls-18" d="M30,296.27l1.13,10.63H23.8l-.12-1.2A8.7,8.7,0,0,1,30,296.27Z"/><path class="cls-2" d="M36.73,359.7,33,324.82H82.2l-3.95,39.63a10.11,10.11,0,0,1-.4,2H48.42C37,366.74,36.73,359.7,36.73,359.7Z"/><path class="cls-18" d="M36.73,359.7s.31,7,11.69,6.72H77.86a11.15,11.15,0,0,1-10.38,7.79H40.31a11.1,11.1,0,0,1-10.78-9.76l-3.95-39.63H33Z"/><polygon class="cls-19" points="33.03 324.82 25.58 324.82 23.8 306.9 31.13 306.9 33.03 324.82"/><polygon class="cls-13" points="31.13 306.9 83.99 306.9 82.2 324.82 33.03 324.82 31.13 306.9"/><path class="cls-20" d="M68.14,7.6a52.33,52.33,0,1,0,52.33,52.33A52.39,52.39,0,0,0,68.14,7.6Zm0,100.09A47.76,47.76,0,1,1,115.9,59.93,47.81,47.81,0,0,1,68.14,107.69Z"/><path class="cls-21" d="M68.14,12.17A47.76,47.76,0,1,0,115.9,59.93,47.81,47.81,0,0,0,68.14,12.17Z"/><path class="cls-22" d="M82.64,16.66a45.63,45.63,0,0,1-18.89,86.93,44.65,44.65,0,0,1-14.08-2.27,44.57,44.57,0,0,0,18.89,4.18A45.62,45.62,0,0,0,82.64,16.66Z"/><path class="cls-2" d="M108.87,58A45.58,45.58,0,0,0,82.64,16.66a44.67,44.67,0,0,0-14.08-2.27,45.63,45.63,0,0,0-18.89,86.93,44.65,44.65,0,0,0,14.08,2.27A45.34,45.34,0,0,0,108.87,58Z"/><rect class="cls-23" x="65.8" y="89.95" width="4.68" height="10.71"/><rect class="cls-23" x="85.95" y="84.76" width="3.12" height="11.65" transform="translate(-36.46 68.34) rotate(-35.82)"/><rect class="cls-23" x="99.3" y="70.07" width="3.12" height="13.06" transform="translate(-18.57 118.75) rotate(-56.65)"/><rect class="cls-23" x="99.49" y="58.48" width="11.1" height="4.67"/><polygon class="cls-23" points="96.24 45.7 94.56 43.07 103.13 37.62 104.8 40.25 96.24 45.7"/><rect class="cls-23" x="81.95" y="26.95" width="9.56" height="3.12" transform="translate(15.22 85.27) rotate(-56.64)"/><polygon class="cls-23" points="47.47 96.22 44.94 94.4 51.76 84.95 54.29 86.78 47.47 96.22"/><polygon class="cls-23" points="31.67 81.49 29.96 78.89 40.87 71.71 42.58 74.31 31.67 81.49"/><rect class="cls-23" x="26.54" y="58.48" width="11.1" height="4.67"/><polygon class="cls-23" points="40.89 45.7 32.32 40.25 33.99 37.62 42.56 43.07 40.89 45.7"/><polygon class="cls-23" points="51.72 33.36 46.46 25.38 49.07 23.66 54.33 31.65 51.72 33.36"/><rect class="cls-23" x="65.02" y="19.07" width="4.67" height="9.45"/><polygon class="cls-23" points="57.35 75.85 54.87 73.81 66.19 60.06 58.77 32.88 61.87 32.03 69.73 60.82 57.35 75.85"/><circle class="cls-23" cx="67.96" cy="60.18" r="4.21"/><rect class="cls-24" x="395.35" y="156.18" width="225.08" height="14.97"/><rect class="cls-2" x="412.58" y="171.14" width="190.61" height="13.03"/><rect class="cls-2" x="421.09" y="184.18" width="15.21" height="29.11"/><rect class="cls-2" x="579.48" y="184.18" width="15.21" height="29.11"/><rect class="cls-4" x="412.58" y="171.14" width="190.61" height="2.52"/><rect class="cls-4" x="421.09" y="184.18" width="15.21" height="2.52"/><rect class="cls-4" x="579.48" y="184.18" width="15.21" height="2.52"/><path class="cls-2" d="M506.71,346.41a15.38,15.38,0,1,1,15.38,15.37A15.39,15.39,0,0,1,506.71,346.41Zm3.42,0a12,12,0,1,0,12-12A12,12,0,0,0,510.13,346.41Z"/><path class="cls-25" d="M543,369.08H567.5c.86-.31,1.7-.65,2.53-1a48.73,48.73,0,0,1-25.84-7.89c-12.72-6.74-17-22.67-14.71-36.43h-9.84v11.88A35.65,35.65,0,0,0,543,369.08Z"/><path class="cls-2" d="M590.9,335.62V323.74H529.47c-2.25,13.76,2,29.69,14.71,36.43A48.73,48.73,0,0,0,570,368.06,35.63,35.63,0,0,0,590.9,335.62Z"/><rect class="cls-26" x="561.6" y="328.78" width="14.88" height="16.35"/><rect class="cls-27" x="565.2" y="330.84" width="8.14" height="11.35"/><rect x="568.95" y="323.74" width="0.63" height="5.04"/><path class="cls-25" d="M574.41,370.5a1.42,1.42,0,0,1-1.42,1.42H537.15a1.42,1.42,0,0,1-1.42-1.42h0a1.42,1.42,0,0,1,1.42-1.42H573a1.42,1.42,0,0,1,1.42,1.42Z"/><path class="cls-28" d="M479.88,77H139.63A11,11,0,0,0,128.68,88V307H490.83V88A11,11,0,0,0,479.88,77Z"/><path class="cls-29" d="M136.89,307V88a2.74,2.74,0,0,1,2.74-2.74H479.88A2.74,2.74,0,0,1,482.61,88V307Z"/><rect class="cls-2" x="143.73" y="92.9" width="332.04" height="200.08"/><polygon class="cls-30" points="255.17 379.48 311.12 379.48 367.07 379.48 371.94 375.98 250.31 375.98 255.17 379.48"/><path class="cls-31" d="M268.93,367.17s-.68,6.23-8.59,7.3l-10,1.52H371.94l-10-1.52c-7.91-1.06-8.59-7.3-8.59-7.3l-1.27-12-81.64-1.76Z"/><polygon class="cls-32" points="270.39 353.45 352.04 355.2 350.78 343.45 271.46 343.45 270.39 353.45"/><path class="cls-2" d="M128.68,307V332.5a11,11,0,0,0,10.95,10.95H479.88a11,11,0,0,0,10.95-10.95V307Z"/><path class="cls-29" d="M329.37,325.55a4,4,0,0,1-4,4H296.83a4,4,0,0,1-4-4h0a4,4,0,0,1,4-4h28.58a4,4,0,0,1,4,4Z"/><polygon class="cls-33" points="414.44 343.47 416.58 318.68 424.31 343.47 414.44 343.47"/><path class="cls-34" d="M416.58,318.68a254.34,254.34,0,0,0,5,44.13l45.52-1.94s-7.72-30.75-8-43.89Z"/><polygon class="cls-35" points="420.75 322.46 455.92 320.86 456.41 326.13 421.25 328.03 420.75 322.46"/><polygon class="cls-35" points="421.65 333.84 456.31 332.22 456.8 334.31 421.85 335.92 421.65 333.84"/><polygon class="cls-35" points="422.34 338.94 457.01 337.32 457.5 339.41 422.55 341.02 422.34 338.94"/><path class="cls-36" d="M539.18,243.2l-.25.89-.73,2.45c-.31,1-.69,2.3-1.07,3.71s-.77,3-1,4.67a22.62,22.62,0,0,0-.33,5.14,13.39,13.39,0,0,0,1.2,4.86A16.44,16.44,0,0,0,540,269.3c.32.35.69.7,1,1s.74.69,1.15,1l.6.5.63.49.69.54.73.56c1,.84,2,1.67,3,2.6a32.15,32.15,0,0,1,2.87,3,22.74,22.74,0,0,1,2.47,3.6,21.19,21.19,0,0,1,1,2,17.82,17.82,0,0,1,.71,2.15,16.28,16.28,0,0,1,.55,4.37l-.05,1.06,0,.65-.07.4-.14.8-.22,1-.11.5-.13.45-.27.87c-.2.57-.41,1.12-.64,1.65a22.11,22.11,0,0,1-1.57,2.91,19.21,19.21,0,0,1-3.72,4.26,14.7,14.7,0,0,1-3.61,2.27l-.76.32c-.24.09-.48.15-.69.22a7.16,7.16,0,0,1-1.1.27c-.6.1-.92.14-.92.14l.66-.63a10.61,10.61,0,0,0,.74-.77,13.9,13.9,0,0,0,.9-1.07,17.76,17.76,0,0,0,1.92-3.08,21.12,21.12,0,0,0,1.54-4.23,20.43,20.43,0,0,0,.47-2.44c0-.42.09-.85.12-1.27l0-.64v-.6c0-.19,0-.37,0-.56s0-.53,0-.8l0-.41c0,.05,0-.15,0,.11v-.13l0-.15-.09-.59a10.56,10.56,0,0,0-.74-2.24c-.14-.37-.38-.72-.55-1.08s-.43-.71-.71-1.06a18.49,18.49,0,0,0-1.8-2.13c-.66-.72-1.46-1.41-2.26-2.13s-1.7-1.43-2.57-2.12l-1.46-1.17c-.54-.43-1.06-.88-1.58-1.36a27.54,27.54,0,0,1-2.92-3.1,21.09,21.09,0,0,1-4.06-7.72,18.3,18.3,0,0,1-.34-8.18,22.42,22.42,0,0,1,2.29-6.38,30,30,0,0,1,3-4.5,34.12,34.12,0,0,1,2.7-3c.39-.4.76-.74,1.08-1s.6-.54.82-.73Z"/><path class="cls-36" d="M567.38,249.13l-.11.68c-.07.44-.22,1.08-.37,1.87-.07.4-.16.82-.26,1.28l-.28,1.49c-.19,1-.38,2.2-.49,3.39-.05.6-.08,1.19-.09,1.79a13.93,13.93,0,0,0,.13,1.74,8.2,8.2,0,0,0,1,3,12.57,12.57,0,0,0,2.08,2.71c.2.23.49.44.72.67a9.87,9.87,0,0,0,.76.67c.28.22.56.44.83.67l.2.17.28.22.53.41c.77.62,1.51,1.24,2.25,1.94a23.61,23.61,0,0,1,2.16,2.31,15.57,15.57,0,0,1,3.15,6.1,12.59,12.59,0,0,1,.37,3.46l-.06.83,0,.53-.06.29-.12.58c-.06.27-.12.53-.19.79l-.1.39-.11.34-.23.66c-.17.43-.34.84-.54,1.24a16.21,16.21,0,0,1-1.28,2.16,13.9,13.9,0,0,1-3,3.08,10.56,10.56,0,0,1-2.84,1.53l-.59.19c-.19.06-.37.08-.54.12a5.07,5.07,0,0,1-.84.13c-.46,0-.7,0-.7,0l.44-.53c.15-.16.3-.38.49-.62s.37-.53.57-.85a13.2,13.2,0,0,0,1.15-2.34,15.58,15.58,0,0,0,.81-3,14.22,14.22,0,0,0,.18-1.7q0-.43,0-.87l0-.43V286l0-.18c0-.12,0-.23,0-.34l-.05-.58,0-.3v0c0,.26,0,.07,0,.12v-.07l0-.09-.09-.36a6.92,6.92,0,0,0-.56-1.32c-.09-.21-.26-.42-.38-.63s-.29-.42-.48-.64a13.83,13.83,0,0,0-1.2-1.33c-.45-.46-1-.92-1.54-1.41s-1.18-1-1.79-1.47l-.51-.41-.24-.19-.3-.26c-.4-.34-.79-.69-1.19-1a12.44,12.44,0,0,1-1.14-1.14,14.71,14.71,0,0,1-1.07-1.23,16.37,16.37,0,0,1-3.06-6c-.13-.56-.26-1.11-.33-1.66s-.09-1.11-.11-1.64a15,15,0,0,1,.09-1.57,8.44,8.44,0,0,1,.24-1.48,14.62,14.62,0,0,1,.81-2.62c.16-.4.36-.76.54-1.13a8.81,8.81,0,0,1,.56-1,20.46,20.46,0,0,1,2.41-3.22,22.67,22.67,0,0,1,2.18-2.1,10.9,10.9,0,0,1,.87-.69l.66-.48Z"/><ellipse class="cls-37" cx="233.77" cy="181.48" rx="21.13" ry="2.99"/><ellipse class="cls-37" cx="305.68" cy="181.48" rx="21.13" ry="2.99"/><ellipse class="cls-37" cx="388.26" cy="181.48" rx="21.13" ry="2.99"/><ellipse class="cls-37" cx="392.96" cy="269.01" rx="21.13" ry="2.99"/><ellipse class="cls-37" cx="248.77" cy="269.01" rx="21.13" ry="2.99"/><path class="cls-38" d="M203.93,154.21a29.12,29.12,0,0,0,8.31,18,37.87,37.87,0,0,0,4.32-8.21A16.17,16.17,0,0,1,203.93,154.21Z"/><path class="cls-39" d="M213.23,130.23a29.14,29.14,0,0,0-9.41,21.48c0,.84,0,1.67.11,2.5A16.17,16.17,0,0,0,216.56,164a44.81,44.81,0,0,0,3.09-16.29C219.65,135.69,214.85,131.35,213.23,130.23Z"/><path class="cls-39" d="M250.75,128.48a29.22,29.22,0,0,0-35.16-.2c2.51,2,7.05,7.41,7.05,19.46a47.81,47.81,0,0,1-2.89,16.38,12.52,12.52,0,0,0,2.54-.48c7.1-2.22,13.68-6.28,20.61-8.86a40.36,40.36,0,0,1-.58-6.83C242.32,135.71,247.85,130.41,250.75,128.48Z"/><path class="cls-38" d="M219.76,164.12a39.48,39.48,0,0,1-5.23,10.07l-1.41-1.1a29.21,29.21,0,0,0,38.67,1,41.05,41.05,0,0,1-8.88-19.35c-6.93,2.58-13.51,6.64-20.61,8.86A12.52,12.52,0,0,1,219.76,164.12Z"/><path class="cls-38" d="M245.78,153.8A38.78,38.78,0,0,0,254,172.08a29.12,29.12,0,0,0,8.22-18.57,20.43,20.43,0,0,0-4.19-.88A28.81,28.81,0,0,0,245.78,153.8Z"/><path class="cls-39" d="M253.15,130.52c-1.71.91-7.84,5-7.84,17.42a36.9,36.9,0,0,0,.47,5.86A28.81,28.81,0,0,1,258,152.64a20.43,20.43,0,0,1,4.19.88c0-.6.06-1.2.06-1.81A29.13,29.13,0,0,0,253.15,130.52Z"/><path class="cls-40" d="M251.78,174.13l.14.16,2.2-2-.14-.16A29.39,29.39,0,0,1,251.78,174.13Z"/><path class="cls-40" d="M253.15,130.52a29.37,29.37,0,0,0-2.4-2c-2.9,1.94-8.44,7.23-8.44,19.46a40.36,40.36,0,0,0,.58,6.83c1-.35,1.91-.68,2.88-1a36.9,36.9,0,0,1-.47-5.86C245.31,135.56,251.44,131.43,253.15,130.52Z"/><path class="cls-41" d="M251.78,174.13a29.39,29.39,0,0,0,2.2-2,38.78,38.78,0,0,1-8.19-18.28c-1,.29-1.93.62-2.88,1A41.05,41.05,0,0,0,251.78,174.13Z"/><path class="cls-40" d="M212.24,172.23l-.08.11.95.74Q212.67,172.66,212.24,172.23Z"/><path class="cls-41" d="M216.56,164a37.87,37.87,0,0,1-4.32,8.21q.43.43.87.85l1.41,1.1a39.48,39.48,0,0,0,5.23-10.07A14,14,0,0,1,216.56,164Z"/><path class="cls-40" d="M215.59,128.27a29.37,29.37,0,0,0-2.36,2c1.61,1.12,6.41,5.46,6.41,17.5A44.81,44.81,0,0,1,216.56,164a14,14,0,0,0,3.2.09,47.81,47.81,0,0,0,2.89-16.38C222.64,135.69,218.1,130.32,215.59,128.27Z"/><path class="cls-39" d="M330,138.48a4.83,4.83,0,0,0-3.66-1.28c-2.29,0-5.48.85-9.75,2.6l-.11,0-.12,0a39.69,39.69,0,0,1-7.69.69,34.44,34.44,0,0,1-16.35-3.8,10.25,10.25,0,0,0-1.76-.77,16.91,16.91,0,0,0-.54,2.32c-1.06,5.29-1.27,10.59.85,15.46a13.86,13.86,0,0,0,3.22,4.24q.18-.21.34-.42c2.93-3.86,11.88-4.28,15.59-4.28,1.18,0,11.62.09,13.73,3a4.73,4.73,0,0,0,3.59,1.68c3.09,0,4.88-3.49,4.92-9.58C332.33,143.31,331.59,140,330,138.48Z"/><path class="cls-38" d="M290.9,153.77c-2.12-4.87-1.91-10.16-.85-15.46a16.91,16.91,0,0,1,.54-2.32,7.12,7.12,0,0,0-2.21-.38,6.74,6.74,0,0,0-5.25,2.78c-3.08,3.72-4.47,10.36-3.37,16.13s4.9,6.79,7.06,6.79a10.11,10.11,0,0,0,7.3-3.3A13.86,13.86,0,0,1,290.9,153.77Z"/><path class="cls-39" d="M326.25,130.52a29.22,29.22,0,0,0-20.11-8c-.73,0-1.46,0-2.18.08-5.17,2.38-9.89,5.92-12.35,10.85a13.15,13.15,0,0,1,2.07.92,31.7,31.7,0,0,0,15,3.46,38.6,38.6,0,0,0,7-.61c4.61-1.88,8-2.76,10.67-2.76a8.47,8.47,0,0,1,4,.88A29.37,29.37,0,0,0,326.25,130.52Z"/><path class="cls-38" d="M304,122.58a29.07,29.07,0,0,0-15.26,5.7,29.41,29.41,0,0,0-7.32,7.94,9.33,9.33,0,0,1,7-3.35,9.92,9.92,0,0,1,3.23.57C294.07,128.49,298.78,125,304,122.58Z"/><path class="cls-38" d="M300.85,165a20.81,20.81,0,0,0-4.69-5.14,13,13,0,0,1-9.35,4.21c-4.82,0-8.37-3.1-9.61-8.32a29.13,29.13,0,0,0,8.14,16.49l-.08.11.95.74a29.15,29.15,0,0,0,13.73,7.19l.06,0C305.29,177.49,303.6,169.44,300.85,165Z"/><path class="cls-39" d="M335.36,151.71a29.44,29.44,0,0,0-.32-4.31q0,.52,0,1.07c-.07,11.11-5.39,12.31-7.68,12.31h0a7.51,7.51,0,0,1-5.83-2.83c-.55-.67-4.86-1.89-11.49-1.89s-11.93,1.25-13.4,3.19c-.15.2-.32.4-.49.59a20.81,20.81,0,0,1,4.69,5.14c2.75,4.45,4.45,12.49-.85,15.25l-.06,0a29.26,29.26,0,0,0,24.94-6.14l.14.16,2.2-2-.14-.16a29.12,29.12,0,0,0,8.22-18.57C335.34,152.92,335.36,152.32,335.36,151.71Z"/><path class="cls-41" d="M286.81,161.31c-2.15,0-5.94-.88-7.06-6.79s.29-12.41,3.37-16.13a6.74,6.74,0,0,1,5.25-2.78,7.12,7.12,0,0,1,2.21.38,16.88,16.88,0,0,1,1-2.56,9.92,9.92,0,0,0-3.23-.57,9.33,9.33,0,0,0-7,3.35,29.07,29.07,0,0,0-4.45,15.5c0,.84,0,1.67.11,2.5,0,.52.1,1,.17,1.54,1.24,5.23,4.79,8.32,9.61,8.32a13,13,0,0,0,9.35-4.21c-.69-.61-1.39-1.21-2-1.84A10.11,10.11,0,0,1,286.81,161.31Z"/><path class="cls-40" d="M335,147.4a29,29,0,0,0-4.71-12.08,8.47,8.47,0,0,0-4-.88c-2.67,0-6.06.88-10.67,2.76a38.6,38.6,0,0,1-7,.61,31.7,31.7,0,0,1-15-3.46,13.15,13.15,0,0,0-2.07-.92,16.88,16.88,0,0,0-1,2.56,10.25,10.25,0,0,1,1.76.77,34.44,34.44,0,0,0,16.35,3.8,39.69,39.69,0,0,0,7.69-.69l.12,0,.11,0c4.27-1.75,7.46-2.6,9.75-2.6a4.83,4.83,0,0,1,3.66,1.28c1.56,1.57,2.3,4.83,2.27,10,0,6.09-1.84,9.58-4.92,9.58a4.73,4.73,0,0,1-3.59-1.68c-2.11-3-12.54-3-13.73-3-3.71,0-12.66.42-15.59,4.28q-.16.21-.34.42c.66.63,1.35,1.23,2,1.84.17-.19.34-.39.49-.59,1.47-1.94,6.73-3.19,13.4-3.19S321,157.28,321.54,158a7.51,7.51,0,0,0,5.83,2.83h0c2.28,0,7.6-1.2,7.68-12.31Q335,147.93,335,147.4Z"/><path class="cls-39" d="M383.7,132.38a84,84,0,0,0-10.66-4,2.21,2.21,0,0,0,.11.61c.69,2.08,3.91,6.43,8.51,10.38,4.05,3.48,8.11,5.74,11.52,6.44a10.71,10.71,0,0,0-.59-3.24C390.9,138.1,387.73,134.08,383.7,132.38Z"/><path class="cls-38" d="M400.67,145.09c.37-.29.42-.63.49-1.55a5.44,5.44,0,0,1,.92-3.07,4.78,4.78,0,0,1,2.84-1.91,29.23,29.23,0,0,0-24.23-16c-1.86.6-6.2,2.4-7.38,4.68a2.2,2.2,0,0,0-.27,1.13,84,84,0,0,1,10.66,4c4,1.69,7.2,5.72,8.89,10.16a10.71,10.71,0,0,1,.59,3.24,10.58,10.58,0,0,0,2.35.24C398.87,146,400.17,145.48,400.67,145.09Z"/><path class="cls-38" d="M370.87,126a9,9,0,0,1,2.79-3,29,29,0,0,0-9.86,3.7,40.77,40.77,0,0,1,6.53,1A5.13,5.13,0,0,1,370.87,126Z"/><path class="cls-38" d="M397.71,174.28l2.2-2-.14-.16A29.12,29.12,0,0,0,408,153.52c0-.6.06-1.2.06-1.81a29.44,29.44,0,0,0-.32-4.31,29,29,0,0,0-1.65-6.23,2.17,2.17,0,0,0-1.79.92,3,3,0,0,0-.39,1.63,4.38,4.38,0,0,1-1.54,3.54c-1.26,1-3.35,1.45-6.77,1.52h-.24a13.33,13.33,0,0,1-2.38-.22,56.9,56.9,0,0,1-2.48,8,8.07,8.07,0,0,0-.21,3.18l-.64,1.27c-.85,4.66,1.06,8.47,4.24,11.43a16.58,16.58,0,0,0,3.12,2.2l.59-.48Z"/><path class="cls-39" d="M389.63,161l.64-1.27a8.07,8.07,0,0,1,.21-3.18,56.9,56.9,0,0,0,2.48-8c-9.81-1.78-20.77-13.73-22.43-18.73a4.85,4.85,0,0,1-.21-2.18,40.77,40.77,0,0,0-6.53-1q-1.25.75-2.42,1.62a29.41,29.41,0,0,0-7.32,7.94,29,29,0,0,0-4.17,11.45l.16-.14c3.25-2.59,7.75-1.5,7.94-1.46l.15,0,.14.07c.47.24,11.56,5.87,14.25,14.19,1.66,5.13.54,8.08-.69,9.65-1.67,2.13-4.63,3.17-8.33,2.91-1.21-.08-1.48.31-1.57.44a3.13,3.13,0,0,0-.26,2A29.21,29.21,0,0,0,397,174.6a16.58,16.58,0,0,1-3.12-2.2C390.69,169.44,388.78,165.63,389.63,161Z"/><path class="cls-39" d="M357.19,148.71c-.65-.13-3.5-.57-5.43,1-1.2,1-1.87,2.57-2,4.79,0,.43.09.85.15,1.27A29.13,29.13,0,0,0,358,172.23l-.08.11.95.74.15.13a4.21,4.21,0,0,1,.61-1.4,4.16,4.16,0,0,1,4-1.63c2.77.19,4.89-.47,6-1.86s1.26-4,.24-7.11C367.72,154.47,358.47,149.39,357.19,148.71Z"/><path class="cls-40" d="M358.27,146.17l-.14-.07-.15,0c-.19,0-4.68-1.13-7.94,1.46l-.16.14a29.42,29.42,0,0,0-.28,4c0,.84,0,1.67.11,2.5,0,.09,0,.18,0,.26.14-2.22.82-3.83,2-4.79,1.93-1.54,4.78-1.1,5.43-1,1.28.68,10.53,5.75,12.71,12.5,1,3.15.93,5.61-.24,7.11s-3.21,2.05-6,1.86a4.16,4.16,0,0,0-4,1.63,4.21,4.21,0,0,0-.61,1.4,29.36,29.36,0,0,0,2.62,2.14,3.13,3.13,0,0,1,.26-2c.09-.13.36-.52,1.57-.44,3.71.26,6.67-.78,8.33-2.91,1.23-1.57,2.35-4.53.69-9.65C369.83,152,358.74,146.41,358.27,146.17Z"/><path class="cls-40" d="M393.18,145.79c-3.41-.71-7.47-3-11.52-6.44-4.6-4-7.82-8.3-8.51-10.38a2.21,2.21,0,0,1-.11-.61c-.9-.26-1.8-.5-2.71-.71a4.85,4.85,0,0,0,.21,2.18c1.66,5,12.62,16.95,22.43,18.73A13.75,13.75,0,0,0,393.18,145.79Z"/><path class="cls-41" d="M373.31,127.23c1.18-2.28,5.51-4.07,7.38-4.68q-.92-.06-1.86-.06c-.73,0-1.46,0-2.18.08a29.25,29.25,0,0,0-3,.38,9,9,0,0,0-2.79,3,5.13,5.13,0,0,0-.54,1.69c.91.21,1.81.45,2.71.71A2.2,2.2,0,0,1,373.31,127.23Z"/><path class="cls-41" d="M395.59,148.78c3.42-.07,5.51-.54,6.77-1.52a4.38,4.38,0,0,0,1.54-3.54,3,3,0,0,1,.39-1.63,2.17,2.17,0,0,1,1.79-.92q-.52-1.34-1.16-2.62a4.78,4.78,0,0,0-2.84,1.91,5.44,5.44,0,0,0-.92,3.07c-.06.92-.12,1.27-.49,1.55s-1.8.87-5.14.94a10.58,10.58,0,0,1-2.35-.24,13.75,13.75,0,0,1-.22,2.77,13.33,13.33,0,0,0,2.38.22Z"/><path class="cls-41" d="M422,131.47h-1.37a1,1,0,1,1,0-1.91H422a1,1,0,0,1,0,1.91Zm-8.15,0h-5.51a1,1,0,1,1,0-1.91h5.51a1,1,0,1,1,0,1.91Zm-8.26,0h-6.78a1,1,0,1,1,0-1.91h6.78a1,1,0,0,1,0,1.91Zm-12.28,0H390.6a1,1,0,1,1,0-1.91h2.75a1,1,0,1,1,0,1.91Z"/><path class="cls-40" d="M424.38,158.84H424l-.21,0-.21,0h-7.2a1,1,0,0,1,0-1.91h7.2l.21,0,.21,0h.41a1,1,0,0,1,0,1.91Zm-13.33,0h-.42a1,1,0,1,1,0-1.91h.42a1,1,0,1,1,0,1.91Zm-7.62,0h-5.29l-.21,0-.21,0h-7.2a1,1,0,1,1,0-1.91h7.2l.21,0,.21,0h5.29a1,1,0,1,1,0,1.91Zm-18.21,0h-.42a1,1,0,0,1,0-1.91h.42a1,1,0,0,1,0,1.91Z"/><path class="cls-41" d="M414.46,135.24h-1.37a1,1,0,0,1,0-1.91h1.37a1,1,0,0,1,0,1.91Zm-8.15,0H400.8a1,1,0,1,1,0-1.91h5.51a1,1,0,0,1,0,1.91Zm-8.26,0h-6.78a1,1,0,1,1,0-1.91h6.78a1,1,0,1,1,0,1.91Zm-12.28,0H383a1,1,0,0,1,0-1.91h2.75a1,1,0,0,1,0,1.91Z"/><path class="cls-42" d="M248.14,252.59l-.52-.33-1,.76,3.32,2.43,1-1C250,253.79,249.07,253.16,248.14,252.59Z"/><path class="cls-41" d="M250.92,254.46l-1,1,1.94,1.44q.64-.37,1.26-.77C252.4,255.55,251.66,255,250.92,254.46Z"/><path class="cls-41" d="M258.44,262c.33-.33.67-.66,1-1-1.17-.87-2.31-1.77-3.45-2.67l-1.11.82C256.23,260.22,257.42,261.17,258.44,262Z"/><path class="cls-42" d="M251.87,256.89q1.61,1.21,3,2.3l1.11-.82c-1-.76-1.92-1.52-2.87-2.25Q252.52,256.51,251.87,256.89Z"/><path class="cls-41" d="M242.9,250.34l3.72,2.68,1-.76q-2-1.26-3.74-2.67C243.56,249.84,243.23,250.09,242.9,250.34Z"/><path class="cls-41" d="M254.11,246.78c-2.06,1.93-4.23,3.74-6.49,5.48l.52.33c.93.57,1.86,1.2,2.78,1.87l5.09-5.09Z"/><path class="cls-40" d="M256,249.37l-5.09,5.09c.74.53,1.48,1.09,2.21,1.66a58.26,58.26,0,0,0,5.08-3.78Q257.16,250.92,256,249.37Z"/><path class="cls-40" d="M259.46,261c1.09-1,2.23-2,3.3-2.95-.76-.9-1.6-1.95-2.51-3.12-1.37,1.18-2.79,2.31-4.24,3.39C257.15,259.27,258.29,260.17,259.46,261Z"/><path class="cls-41" d="M253.13,256.11c1,.74,1.91,1.49,2.87,2.25,1.45-1.08,2.87-2.21,4.24-3.39q-1-1.24-2-2.64A58.26,58.26,0,0,1,253.13,256.11Z"/><path class="cls-40" d="M243.88,249.58q1.78,1.41,3.74,2.67c2.26-1.74,4.43-3.54,6.49-5.48-1-1.33-2-2.71-3-4.13A71.23,71.23,0,0,1,243.88,249.58Z"/><path class="cls-38" d="M261.1,262.23q-.83-.58-1.64-1.19c-.35.32-.69.65-1,1,2.62,2.19,4.08,3.71,3.81,4.24-1,2,0,4,.83,5.2a1.16,1.16,0,0,0,1.78.16l3.66-3.66,3.66-3.66a1.16,1.16,0,0,0-.15-1.77h0C268.51,264.14,264.31,264.52,261.1,262.23Z"/><path class="cls-39" d="M266.82,261.68c-.51.26-2-1.11-4.06-3.59-1.07,1-2.21,1.95-3.3,2.95q.81.61,1.64,1.19c3.21,2.29,7.41,1.91,10.91.28C270.8,261.68,268.77,260.7,266.82,261.68Z"/><path class="cls-38" d="M230.85,235.31c-2.16-3.16-4.15-6.81-7.81-8.48-1.66-1-3.16,2.16-3.82,1.83-9.38-5.45-18.21-16.14-16.83-27.67l-.42.41c-5.65,5.65-7.06,11.55-.31,18.75,4,4.26,25.05,18.58,41.23,30.18.33-.25.66-.5,1-.75A67,67,0,0,1,230.85,235.31Z"/><path class="cls-39" d="M251.13,242.65c-11.64-16.22-26.11-37.52-30.41-41.55-7-6.59-12.81-5.41-18.33-.11-1.39,11.53,7.44,22.22,16.83,27.67.66.33,2.16-2.83,3.82-1.83,3.66,1.66,5.65,5.32,7.81,8.48a67,67,0,0,0,13,14.28A71.23,71.23,0,0,0,251.13,242.65Z"/><path class="cls-41" d="M412.06,261.87c-.64.64-2.54-.64-3.18-1.91-.64-1.91,1.69-4,.85-5.08-1.51-2.13-3.68-3.45-5.91-4.74l-6.67,14.93s-5.84,4.84,7.71,3.79c5.65-.44,9.46-4.71,11.93-9.84C415,257.77,413.51,260.42,412.06,261.87Z"/><path class="cls-40" d="M420.74,240.49c-.64-4.22-5.93-5.73-8.22-5.73s-2.26,1-2.26,1l-6.44,14.41c2.23,1.29,4.4,2.61,5.91,4.74.85,1.06-1.48,3.18-.85,5.08.64,1.27,2.54,2.54,3.18,1.91,1.45-1.45,2.89-4.1,4.73-2.85C420.26,251.83,421.11,243,420.74,240.49Z"/><path class="cls-41" d="M356.63,236.25c-.31,1.07-.6,2.15-.85,3.24l4.52,1.52a26.36,26.36,0,0,1,1.12-3.09C359.84,237.31,358.25,236.76,356.63,236.25Z"/><path class="cls-39" d="M359.56,251.19a23.14,23.14,0,0,1,.73-10.18l-4.52-1.52a47.68,47.68,0,0,0-1.45,11.92A39.86,39.86,0,0,1,359.56,251.19Z"/><path class="cls-41" d="M354.33,251.41c0,.79.07,1.55.16,2.28a52.42,52.42,0,0,1,5.62-.17,18.49,18.49,0,0,1-.54-2.33A39.86,39.86,0,0,0,354.33,251.41Z"/><path class="cls-39" d="M354.48,253.69c.57,5,2.67,8.72,7.1,9.52a82.92,82.92,0,0,0,9.15,1.1,5.51,5.51,0,0,0-.81-3.71c-2.12-3.18-7.83-2.12-8.89-4.66a16.81,16.81,0,0,1-.93-2.42A52.42,52.42,0,0,0,354.48,253.69Z"/><path class="cls-39" d="M365.38,231.51c-2-.9-4.07-1.83-6.12-2.72a69.57,69.57,0,0,0-2.62,7.45c1.62.51,3.21,1.06,4.78,1.66A25.81,25.81,0,0,1,365.38,231.51Z"/><path class="cls-41" d="M367.26,229.54c-2.3-1.07-4.58-2.19-6.93-3.15-.37.77-.73,1.58-1.08,2.41,2,.89,4.08,1.82,6.12,2.72A23.65,23.65,0,0,1,367.26,229.54Z"/><path class="cls-39" d="M373.52,225.44c2.32-1,2.82-3.55,2.32-6-3.1-1.25-6.12-2.09-8.36-1.89-2.06.18-4.75,3.77-7.16,8.86,2.35,1,4.63,2.08,6.93,3.15A21.12,21.12,0,0,1,373.52,225.44Z"/><path class="cls-40" d="M387.29,227.56c1.48,1.91,5.29,3.6,5.93,1.06,1.53-6.11-5.56-9.3-11.16-10.33,1,2.28,4.7,5.35,7.93,8.68,0,0-3.15-2.07-7.26-4.28A18.57,18.57,0,0,1,387.29,227.56Z"/><path class="cls-40" d="M390.67,237.51c-9,2.1-11.76,13.36-9.4,21.91-.17-4.87,2.21-9.74,5.38-14.08s8.68-5.29,12.92-8a6.17,6.17,0,0,0,2.55-5.22C399.48,235,394.92,236.61,390.67,237.51Z"/><path class="cls-40" d="M375.85,232.86a52.46,52.46,0,0,1-8.59-3.32,23.65,23.65,0,0,0-1.88,2,92.26,92.26,0,0,0,8.78,3.46c1.27.42,3.18.85,3.6-.64C377.76,233.7,376.7,233.07,375.85,232.86Z"/><path class="cls-40" d="M375.85,256.15c.42-.21-.42-1.48-1.06-1.69a43.46,43.46,0,0,0-15.23-3.27,18.49,18.49,0,0,0,.54,2.33,31.47,31.47,0,0,1,9.4,1.57C371.83,255.73,373.95,256.57,375.85,256.15Z"/><path class="cls-38" d="M398.51,222.06a15.86,15.86,0,0,0-8-5.29c-2.89-.9-5.79.35-8.68.61a3,3,0,0,0,.27.92c5.6,1,12.69,4.21,11.16,10.33-.64,2.54-4.45.85-5.93-1.06a18.57,18.57,0,0,0-4.56-4.87,71.19,71.19,0,0,0-6.88-3.28c.5,2.48,0,5-2.32,6a21.12,21.12,0,0,0-6.26,4.09,52.46,52.46,0,0,0,8.59,3.32c.85.21,1.91.85,1.91,1.48-.42,1.48-2.33,1.06-3.6.64a92.26,92.26,0,0,1-8.78-3.46,25.81,25.81,0,0,0-4,6.4,68.79,68.79,0,0,1,13.59,7c.21.21.42.85,0,1.06a4.15,4.15,0,0,1-3.18-.21A75,75,0,0,0,360.29,241a23.14,23.14,0,0,0-.73,10.18,43.46,43.46,0,0,1,15.23,3.27c.64.21,1.48,1.48,1.06,1.69-1.91.42-4-.42-6.35-1.06a31.47,31.47,0,0,0-9.4-1.57,16.81,16.81,0,0,0,.93,2.42c1.06,2.54,6.78,1.48,8.89,4.66a5.51,5.51,0,0,1,.81,3.71c4.26.28,8.23.26,11.79.19a4.4,4.4,0,0,1-.53-1.15,13.39,13.39,0,0,1-.72-3.92c-2.35-8.56.42-19.81,9.4-21.91,4.25-.9,8.81-2.51,11.44-5.43A17.07,17.07,0,0,0,398.51,222.06Z"/><path class="cls-40" d="M375,246c.42-.21.21-.85,0-1.06a68.79,68.79,0,0,0-13.59-7,26.36,26.36,0,0,0-1.12,3.09,75,75,0,0,1,11.54,4.77A4.15,4.15,0,0,0,375,246Z"/><path class="cls-38" d="M411.21,240.48a3.36,3.36,0,0,0-4.87,1.69c-3.18,8.47-7.62,15.46-15.67,20.33a8.85,8.85,0,0,0-2.41,1.85c3.81-.07,6.85,0,8.89.71,4.46,1.56,18.58-10.44,16.55-22.28A5.18,5.18,0,0,0,411.21,240.48Z"/><path class="cls-39" d="M407.5,233.09s4.07-18.42-14.57-18.74c-8.6-.15-11.34,1-11.14,3,2.89-.25,5.79-1.51,8.68-.61a15.86,15.86,0,0,1,8,5.29c3.18,4,5.72,12.07,1.06,15.25-4.24,2.75-9.74,3.6-12.92,8-4,5.51-6.78,11.86-4.66,18a4.4,4.4,0,0,0,.53,1.15c2.06,0,4-.11,5.74-.14a8.85,8.85,0,0,1,2.41-1.85c8-4.87,12.49-11.86,15.67-20.33a3.36,3.36,0,0,1,4.87-1.69,5.18,5.18,0,0,1,2.49,2.31C413.13,239.44,411.25,236.1,407.5,233.09Z"/><path class="cls-39" d="M330.49,232.25l12-16c-43.41-43.41-73.69,0-73.69,0l11.09,15.25C290.6,223.71,308.37,217,330.49,232.25Z"/><polygon class="cls-41" points="320.11 246.04 305.04 266.06 290.81 246.49 305.68 231.63 320.11 246.04"/><path class="cls-38" d="M330.49,232.25,320.11,246l-14.43-14.41-14.86,14.86-10.89-15C290.6,223.72,308.37,217,330.49,232.25Z"/><path class="cls-38" d="M288.13,254.38a1.7,1.7,0,0,1-1.33-.64l-7.14-9a1.7,1.7,0,0,1,.23-2.36l1.75-1.49a1.71,1.71,0,0,1,2.42.21l7.11,8.55a1.71,1.71,0,0,1,0,2.23l-1.71,1.9A1.71,1.71,0,0,1,288.13,254.38Zm-5.4-12.58a.43.43,0,0,0-.28.1l-1.75,1.49a.43.43,0,0,0-.06.6l7.14,9a.43.43,0,0,0,.66,0l1.71-1.9a.44.44,0,0,0,0-.57L283.07,242A.43.43,0,0,0,282.74,241.8Z"/><path class="cls-38" d="M322.28,254.38h0a1.71,1.71,0,0,1-1.27-.56l-1.71-1.9a1.71,1.71,0,0,1,0-2.23l7.11-8.55a1.71,1.71,0,0,1,2.42-.21l1.75,1.49a1.7,1.7,0,0,1,.23,2.36l-7.14,9A1.7,1.7,0,0,1,322.28,254.38Zm5.4-12.58a.43.43,0,0,0-.33.16l-7.11,8.55a.44.44,0,0,0,0,.57L322,253a.43.43,0,0,0,.66,0l7.14-9a.43.43,0,0,0-.06-.6L328,241.9A.43.43,0,0,0,327.67,241.8Z"/><circle class="cls-39" cx="305.46" cy="247.45" r="3.17"/></svg>