<svg id="Layer_1" data-name="Layer 1" xmlns="http://www.w3.org/2000/svg" viewBox="0 0 300 300"><defs><style>.cls-1{fill:#414350;}.cls-2{fill:#343640;}.cls-3{fill:#fff;}.cls-4{fill:#bdbdbd;}.cls-5{fill:#e6e6e6;}.cls-6{fill:#ccc;}.cls-7{fill:#dedfe0;}.cls-8{fill:#f8ed3c;}.cls-9{fill:#e3db3b;}.cls-10{fill:#b79694;}.cls-11{fill:#f8a693;}.cls-12{fill:#fcc9a1;}.cls-13{fill:#ce7381;}.cls-14{fill:#a55c68;}.cls-15{fill:#8f4f5a;}</style></defs><title>Fan-small</title><path class="cls-1" d="M274.72,47H16a8.32,8.32,0,0,0-8.32,8.32V221.86H283V55.34A8.32,8.32,0,0,0,274.72,47Z"/><path class="cls-2" d="M13.93,221.86V55.34A2.08,2.08,0,0,1,16,53.26H274.72a2.08,2.08,0,0,1,2.08,2.08V221.86Z"/><rect class="cls-3" x="19.13" y="59.09" width="252.47" height="152.13"/><polygon class="cls-4" points="103.86 277 146.4 277 188.94 277 192.64 274.34 100.16 274.34 103.86 277"/><path class="cls-5" d="M114.32,267.64s-.52,4.74-6.53,5.55l-7.63,1.16h92.48L185,273.19c-6-.81-6.53-5.55-6.53-5.55l-1-9.1-62.08-1.34Z"/><polygon class="cls-6" points="115.44 257.2 177.51 258.54 176.56 249.6 116.25 249.6 115.44 257.2"/><path class="cls-3" d="M7.68,221.86v19.42A8.32,8.32,0,0,0,16,249.6H274.72a8.32,8.32,0,0,0,8.32-8.32V221.86Z"/><path class="cls-2" d="M160.28,236a3,3,0,0,1-3,3H135.54a3,3,0,0,1-3-3h0a3,3,0,0,1,3-3h21.73a3,3,0,0,1,3,3Z"/><polygon class="cls-7" points="218.44 242 220.58 217.21 228.31 242 218.44 242"/><path class="cls-8" d="M220.58,217.21a254.34,254.34,0,0,0,5,44.13l45.52-1.94s-7.72-30.75-8-43.89Z"/><polygon class="cls-9" points="224.75 220.99 259.92 219.39 260.41 224.65 225.25 226.56 224.75 220.99"/><polygon class="cls-9" points="225.65 232.37 260.31 230.75 260.8 232.84 225.85 234.45 225.65 232.37"/><polygon class="cls-9" points="226.34 237.47 261.01 235.84 261.5 237.93 226.54 239.54 226.34 237.47"/><ellipse class="cls-10" cx="71.32" cy="127.53" rx="19.72" ry="2.79"/><ellipse class="cls-10" cx="138.42" cy="127.53" rx="19.72" ry="2.79"/><ellipse class="cls-10" cx="214.55" cy="127.53" rx="19.72" ry="2.79"/><ellipse class="cls-10" cx="218.93" cy="209.21" rx="19.72" ry="2.79"/><ellipse class="cls-10" cx="85.31" cy="209.21" rx="19.72" ry="2.79"/><path class="cls-11" d="M43.47,102.09a27.17,27.17,0,0,0,7.76,16.82,35.34,35.34,0,0,0,4-7.66A15.09,15.09,0,0,1,43.47,102.09Z"/><path class="cls-12" d="M52.16,79.72a27.19,27.19,0,0,0-8.78,20c0,.78,0,1.56.1,2.33a15.09,15.09,0,0,0,11.79,9.16A41.81,41.81,0,0,0,58.14,96C58.14,84.81,53.66,80.76,52.16,79.72Z"/><path class="cls-12" d="M87.17,78.08a27.27,27.27,0,0,0-32.81-.19C56.7,79.8,60.94,84.81,60.94,96a44.62,44.62,0,0,1-2.69,15.29,11.68,11.68,0,0,0,2.37-.45c6.63-2.07,12.76-5.86,19.23-8.26a37.66,37.66,0,0,1-.55-6.38C79.29,84.83,84.46,79.88,87.17,78.08Z"/><path class="cls-11" d="M58.24,111.33a36.84,36.84,0,0,1-4.88,9.39l-1.32-1a27.26,27.26,0,0,0,36.08,1,38.31,38.31,0,0,1-8.29-18.06c-6.47,2.41-12.6,6.19-19.23,8.26A11.68,11.68,0,0,1,58.24,111.33Z"/><path class="cls-11" d="M82.53,101.71a36.19,36.19,0,0,0,7.65,17.06,27.17,27.17,0,0,0,7.67-17.32,19.07,19.07,0,0,0-3.91-.82A26.88,26.88,0,0,0,82.53,101.71Z"/><path class="cls-12" d="M89.4,80c-1.6.85-7.31,4.71-7.31,16.26a34.44,34.44,0,0,0,.44,5.47,26.88,26.88,0,0,1,11.41-1.09,19.07,19.07,0,0,1,3.91.82c0-.56.05-1.12.05-1.69A27.19,27.19,0,0,0,89.4,80Z"/><path class="cls-13" d="M88.13,120.67l.13.15,2.05-1.9-.13-.15A27.42,27.42,0,0,1,88.13,120.67Z"/><path class="cls-13" d="M89.4,80a27.41,27.41,0,0,0-2.24-1.91c-2.71,1.81-7.87,6.75-7.87,18.16a37.66,37.66,0,0,0,.55,6.38c.89-.33,1.79-.64,2.69-.91a34.44,34.44,0,0,1-.44-5.47C82.09,84.69,87.81,80.83,89.4,80Z"/><path class="cls-14" d="M88.13,120.67a27.42,27.42,0,0,0,2.05-1.9,36.19,36.19,0,0,1-7.65-17.06c-.9.27-1.8.58-2.69.91A38.31,38.31,0,0,0,88.13,120.67Z"/><path class="cls-13" d="M51.23,118.91l-.07.1.89.69Q51.63,119.31,51.23,118.91Z"/><path class="cls-14" d="M55.26,111.24a35.34,35.34,0,0,1-4,7.66q.4.4.81.79l1.32,1a36.84,36.84,0,0,0,4.88-9.39A13.08,13.08,0,0,1,55.26,111.24Z"/><path class="cls-13" d="M54.36,77.89a27.4,27.4,0,0,0-2.2,1.83c1.51,1,6,5.09,6,16.33a41.81,41.81,0,0,1-2.88,15.2,13.08,13.08,0,0,0,3,.09A44.62,44.62,0,0,0,60.94,96C60.94,84.81,56.7,79.8,54.36,77.89Z"/><path class="cls-12" d="M161.14,87.41a4.51,4.51,0,0,0-3.42-1.2c-2.14,0-5.11.79-9.1,2.43l-.1,0-.11,0a37,37,0,0,1-7.17.65A32.14,32.14,0,0,1,126,85.81a9.56,9.56,0,0,0-1.64-.72,15.78,15.78,0,0,0-.51,2.16c-1,4.94-1.19,9.88.79,14.42a12.93,12.93,0,0,0,3,4l.32-.39c2.74-3.6,11.09-4,14.55-4,1.1,0,10.84.08,12.81,2.84a4.42,4.42,0,0,0,3.35,1.56c2.88,0,4.56-3.26,4.59-8.94C163.29,91.92,162.59,88.87,161.14,87.41Z"/><path class="cls-11" d="M124.62,101.68c-2-4.54-1.78-9.48-.79-14.42a15.78,15.78,0,0,1,.51-2.16,6.65,6.65,0,0,0-2.06-.35,6.29,6.29,0,0,0-4.9,2.59c-2.88,3.47-4.17,9.66-3.15,15.05s4.58,6.34,6.59,6.34a9.43,9.43,0,0,0,6.81-3.08A12.93,12.93,0,0,1,124.62,101.68Z"/><path class="cls-12" d="M157.62,80a27.26,27.26,0,0,0-18.77-7.49c-.69,0-1.36,0-2,.08-4.83,2.22-9.23,5.52-11.52,10.13a12.27,12.27,0,0,1,1.93.86,29.58,29.58,0,0,0,14,3.22,36,36,0,0,0,6.53-.57c4.3-1.75,7.47-2.57,10-2.57a7.9,7.9,0,0,1,3.7.82A27.41,27.41,0,0,0,157.62,80Z"/><path class="cls-11" d="M136.81,72.57a27.12,27.12,0,0,0-14.24,5.32,27.44,27.44,0,0,0-6.83,7.41,8.7,8.7,0,0,1,6.54-3.13,9.25,9.25,0,0,1,3,.53C127.59,78.09,132,74.79,136.81,72.57Z"/><path class="cls-11" d="M133.91,112.15a19.42,19.42,0,0,0-4.37-4.8,12.14,12.14,0,0,1-8.72,3.93c-4.5,0-7.81-2.89-9-7.76a27.18,27.18,0,0,0,7.6,15.38l-.07.1.89.69a27.2,27.2,0,0,0,12.81,6.71l.06,0C138.06,123.81,136.48,116.3,133.91,112.15Z"/><path class="cls-12" d="M166.11,99.76a27.47,27.47,0,0,0-.3-4q0,.49,0,1c-.07,10.37-5,11.49-7.16,11.49h0a7,7,0,0,1-5.44-2.64c-.51-.63-4.54-1.76-10.72-1.76s-11.13,1.17-12.51,3c-.14.19-.3.37-.46.55a19.42,19.42,0,0,1,4.37,4.8c2.57,4.15,4.15,11.66-.79,14.23l-.06,0a27.3,27.3,0,0,0,23.27-5.73l.13.15,2.05-1.9-.13-.15a27.17,27.17,0,0,0,7.67-17.32C166.1,100.89,166.11,100.32,166.11,99.76Z"/><path class="cls-14" d="M120.82,108.72c-2,0-5.54-.82-6.59-6.34s.27-11.58,3.15-15.05a6.29,6.29,0,0,1,4.9-2.59,6.65,6.65,0,0,1,2.06.35,15.75,15.75,0,0,1,1-2.39,9.25,9.25,0,0,0-3-.53,8.7,8.7,0,0,0-6.54,3.13,27.13,27.13,0,0,0-4.15,14.46c0,.78,0,1.56.1,2.33,0,.48.1,1,.16,1.43,1.15,4.88,4.47,7.76,9,7.76a12.14,12.14,0,0,0,8.72-3.93c-.65-.56-1.29-1.13-1.91-1.71A9.43,9.43,0,0,1,120.82,108.72Z"/><path class="cls-13" d="M165.82,95.74a27.1,27.1,0,0,0-4.39-11.27,7.9,7.9,0,0,0-3.7-.82c-2.49,0-5.65.82-10,2.57a36,36,0,0,1-6.53.57,29.58,29.58,0,0,1-14-3.22,12.27,12.27,0,0,0-1.93-.86,15.75,15.75,0,0,0-1,2.39,9.56,9.56,0,0,1,1.64.72,32.14,32.14,0,0,0,15.25,3.54,37,37,0,0,0,7.17-.65l.11,0,.1,0c4-1.63,7-2.43,9.1-2.43a4.51,4.51,0,0,1,3.42,1.2c1.45,1.46,2.15,4.51,2.11,9.31,0,5.68-1.71,8.94-4.59,8.94a4.42,4.42,0,0,1-3.35-1.56c-2-2.76-11.7-2.84-12.81-2.84-3.46,0-11.81.39-14.55,4l-.32.39c.62.59,1.26,1.15,1.91,1.71.16-.18.31-.36.46-.55,1.37-1.81,6.28-3,12.51-3s10.2,1.13,10.72,1.76a7,7,0,0,0,5.44,2.64h0c2.13,0,7.09-1.12,7.16-11.49Q165.83,96.23,165.82,95.74Z"/><path class="cls-12" d="M210.29,81.72a78.41,78.41,0,0,0-10-3.76,2.06,2.06,0,0,0,.11.57c.64,1.94,3.65,6,7.94,9.69,3.78,3.25,7.57,5.35,10.75,6a10,10,0,0,0-.55-3C217,87.06,214,83.3,210.29,81.72Z"/><path class="cls-11" d="M226.12,93.58c.34-.27.39-.59.45-1.45a5.08,5.08,0,0,1,.86-2.87,4.46,4.46,0,0,1,2.65-1.78,27.28,27.28,0,0,0-22.61-14.93c-1.74.56-5.78,2.24-6.88,4.36a2.06,2.06,0,0,0-.25,1.05,78.41,78.41,0,0,1,10,3.76c3.75,1.58,6.72,5.33,8.3,9.48a10,10,0,0,1,.55,3,9.87,9.87,0,0,0,2.19.22C224.44,94.39,225.65,93.94,226.12,93.58Z"/><path class="cls-11" d="M198.31,75.73a8.42,8.42,0,0,1,2.6-2.8,27.1,27.1,0,0,0-9.2,3.45,38,38,0,0,1,6.09.92A4.79,4.79,0,0,1,198.31,75.73Z"/><path class="cls-11" d="M223.36,120.82l2.05-1.9-.13-.15A27.17,27.17,0,0,0,233,101.44c0-.56.05-1.12.05-1.69a27.47,27.47,0,0,0-.3-4,27.07,27.07,0,0,0-1.54-5.81,2,2,0,0,0-1.67.86,2.78,2.78,0,0,0-.37,1.52,4.09,4.09,0,0,1-1.44,3.3c-1.17.91-3.12,1.35-6.32,1.42h-.23a12.44,12.44,0,0,1-2.22-.21,53.1,53.1,0,0,1-2.32,7.43,7.53,7.53,0,0,0-.2,3l-.59,1.19c-.79,4.35,1,7.9,4,10.67a15.47,15.47,0,0,0,2.91,2.05l.55-.45Z"/><path class="cls-12" d="M215.82,108.4l.59-1.19a7.53,7.53,0,0,1,.2-3,53.1,53.1,0,0,0,2.32-7.43C209.78,95.15,199.55,84,198,79.34a4.52,4.52,0,0,1-.2-2,38,38,0,0,0-6.09-.92q-1.17.7-2.26,1.51a27.44,27.44,0,0,0-6.83,7.41A27.1,27.1,0,0,0,178.74,96l.15-.13c3-2.42,7.23-1.4,7.41-1.36l.14,0,.13.06c.44.22,10.78,5.48,13.29,13.24,1.55,4.78.5,7.54-.65,9-1.56,2-4.32,3-7.78,2.72-1.13-.08-1.38.29-1.46.41a2.92,2.92,0,0,0-.24,1.85,27.25,27.25,0,0,0,33-.7,15.47,15.47,0,0,1-2.91-2.05C216.81,116.3,215,112.74,215.82,108.4Z"/><path class="cls-12" d="M185.55,97c-.61-.12-3.27-.53-5.07.91a5.94,5.94,0,0,0-1.88,4.47c0,.4.08.79.14,1.19a27.18,27.18,0,0,0,7.6,15.38l-.07.1.89.69.14.13a3.93,3.93,0,0,1,.57-1.31,3.88,3.88,0,0,1,3.75-1.52c2.58.18,4.56-.44,5.58-1.74s1.18-3.7.23-6.64C195.38,102.33,186.74,97.59,185.55,97Z"/><path class="cls-13" d="M186.56,94.59l-.13-.06-.14,0c-.18,0-4.37-1.06-7.41,1.36l-.15.13a27.45,27.45,0,0,0-.26,3.78c0,.78,0,1.56.1,2.33,0,.08,0,.16,0,.25a5.94,5.94,0,0,1,1.88-4.47c1.8-1.44,4.46-1,5.07-.91,1.2.63,9.83,5.37,11.86,11.66.95,2.94.87,5.23-.23,6.64s-3,1.91-5.58,1.74a3.88,3.88,0,0,0-3.75,1.52,3.93,3.93,0,0,0-.57,1.31,27.4,27.4,0,0,0,2.44,2A2.92,2.92,0,0,1,190,120c.08-.12.34-.49,1.46-.41,3.46.24,6.22-.73,7.78-2.72,1.15-1.47,2.19-4.22.65-9C197.35,100.07,187,94.81,186.56,94.59Z"/><path class="cls-13" d="M219.14,94.23c-3.18-.66-7-2.76-10.75-6-4.29-3.69-7.3-7.75-7.94-9.69a2.06,2.06,0,0,1-.11-.57c-.84-.24-1.68-.47-2.53-.66a4.52,4.52,0,0,0,.2,2c1.55,4.67,11.78,15.82,20.93,17.48A12.83,12.83,0,0,0,219.14,94.23Z"/><path class="cls-14" d="M200.59,76.91c1.1-2.12,5.15-3.8,6.88-4.36q-.86-.05-1.73-.05c-.69,0-1.36,0-2,.08a27.29,27.29,0,0,0-2.79.35,8.42,8.42,0,0,0-2.6,2.8,4.79,4.79,0,0,0-.51,1.58c.85.2,1.69.42,2.53.66A2.06,2.06,0,0,1,200.59,76.91Z"/><path class="cls-14" d="M221.38,97c3.19-.07,5.14-.5,6.32-1.42a4.09,4.09,0,0,0,1.44-3.3,2.78,2.78,0,0,1,.37-1.52,2,2,0,0,1,1.67-.86q-.48-1.25-1.09-2.44a4.46,4.46,0,0,0-2.65,1.78,5.08,5.08,0,0,0-.86,2.87c-.06.86-.11,1.18-.45,1.45s-1.68.81-4.79.88a9.87,9.87,0,0,1-2.19-.22,12.83,12.83,0,0,1-.2,2.58,12.44,12.44,0,0,0,2.22.21Z"/><path class="cls-14" d="M246.07,80.87h-1.28a.89.89,0,0,1,0-1.78h1.28a.89.89,0,0,1,0,1.78Zm-7.61,0h-5.14a.89.89,0,0,1,0-1.78h5.14a.89.89,0,0,1,0,1.78Zm-7.71,0h-6.32a.89.89,0,1,1,0-1.78h6.32a.89.89,0,1,1,0,1.78Zm-11.46,0h-2.57a.89.89,0,1,1,0-1.78h2.57a.89.89,0,1,1,0,1.78Z"/><path class="cls-13" d="M248.25,106.41h-.39l-.2,0-.2,0h-6.72a.89.89,0,0,1,0-1.78h6.72l.2,0,.2,0h.39a.89.89,0,1,1,0,1.78Zm-12.44,0h-.4a.89.89,0,1,1,0-1.78h.4a.89.89,0,1,1,0,1.78Zm-7.11,0h-4.94l-.2,0-.2,0h-6.72a.89.89,0,1,1,0-1.78h6.72l.2,0,.2,0h4.94a.89.89,0,0,1,0,1.78Zm-17,0h-.4a.89.89,0,0,1,0-1.78h.4a.89.89,0,0,1,0,1.78Z"/><path class="cls-14" d="M239,84.39h-1.28a.89.89,0,1,1,0-1.78H239a.89.89,0,0,1,0,1.78Zm-7.61,0h-5.14a.89.89,0,1,1,0-1.78h5.14a.89.89,0,1,1,0,1.78Zm-7.71,0h-6.32a.89.89,0,0,1,0-1.78h6.32a.89.89,0,0,1,0,1.78Zm-11.46,0h-2.57a.89.89,0,0,1,0-1.78h2.57a.89.89,0,0,1,0,1.78Z"/><path class="cls-15" d="M84.73,193.89l-.48-.31-.94.71,3.1,2.27.92-.92C86.46,195,85.6,194.42,84.73,193.89Z"/><path class="cls-14" d="M87.32,195.63l-.92.92,1.81,1.34q.6-.35,1.18-.72C88.7,196.65,88,196.13,87.32,195.63Z"/><path class="cls-14" d="M94.34,202.68c.31-.31.63-.61,1-.91-1.09-.81-2.16-1.65-3.22-2.49L91,200C92.28,201,93.39,201.89,94.34,202.68Z"/><path class="cls-15" d="M88.21,197.9Q89.72,199,91,200l1-.77c-.9-.71-1.79-1.42-2.68-2.1Q88.81,197.55,88.21,197.9Z"/><path class="cls-14" d="M79.84,191.79l3.47,2.5.94-.71q-1.82-1.18-3.49-2.49Z"/><path class="cls-14" d="M90.3,188.46c-1.92,1.8-3.94,3.49-6.05,5.11l.48.31c.87.54,1.74,1.12,2.6,1.74l4.75-4.75Z"/><path class="cls-13" d="M92.07,190.88l-4.75,4.75c.69.5,1.38,1,2.07,1.54a54.36,54.36,0,0,0,4.74-3.53Q93.14,192.33,92.07,190.88Z"/><path class="cls-13" d="M95.29,201.77c1-.93,2.08-1.82,3.08-2.75-.71-.84-1.49-1.82-2.35-2.91-1.28,1.1-2.61,2.15-4,3.17C93.13,200.12,94.2,201,95.29,201.77Z"/><path class="cls-14" d="M89.39,197.18c.89.69,1.78,1.39,2.68,2.1,1.35-1,2.68-2.06,4-3.17q-.9-1.15-1.89-2.47A54.36,54.36,0,0,1,89.39,197.18Z"/><path class="cls-13" d="M80.76,191.08q1.66,1.31,3.49,2.49c2.11-1.62,4.13-3.31,6.05-5.11l-2.78-3.85A66.46,66.46,0,0,1,80.76,191.08Z"/><path class="cls-11" d="M96.82,202.88q-.77-.54-1.53-1.11c-.33.3-.65.6-1,.91,2.45,2,3.8,3.46,3.55,4-.92,1.82,0,3.73.78,4.85a1.09,1.09,0,0,0,1.66.15l3.41-3.41,3.41-3.41a1.08,1.08,0,0,0-.14-1.66h0C103.73,204.67,99.82,205,96.82,202.88Z"/><path class="cls-12" d="M102.16,202.37c-.48.24-1.83-1-3.79-3.35-1,.93-2.07,1.82-3.08,2.75q.76.57,1.53,1.11c3,2.14,6.91,1.78,10.18.26C105.87,202.37,104,201.45,102.16,202.37Z"/><path class="cls-11" d="M68.6,177.76c-2-2.95-3.88-6.36-7.29-7.91-1.55-.93-2.95,2-3.57,1.71-8.76-5.08-17-15.06-15.7-25.82l-.4.39c-5.27,5.27-6.59,10.78-.29,17.5,3.73,4,23.38,17.34,38.48,28.16l.92-.7A62.5,62.5,0,0,1,68.6,177.76Z"/><path class="cls-12" d="M87.52,184.61c-10.86-15.14-24.37-35-28.37-38.77-6.55-6.15-12-5-17.1-.1-1.29,10.76,6.95,20.73,15.7,25.82.62.31,2-2.64,3.57-1.71,3.41,1.55,5.27,5,7.29,7.91a62.5,62.5,0,0,0,12.16,13.32A66.46,66.46,0,0,0,87.52,184.61Z"/><path class="cls-14" d="M236.75,202.54c-.59.59-2.37-.59-3-1.78-.59-1.78,1.58-3.75.79-4.74a16.29,16.29,0,0,0-5.51-4.42l-6.23,13.93s-5.45,4.52,7.19,3.53c5.27-.41,8.82-4.39,11.13-9.18C239.45,198.72,238.1,201.19,236.75,202.54Z"/><path class="cls-13" d="M244.85,182.6c-.59-3.94-5.53-5.35-7.67-5.35s-2.11.91-2.11.91l-6,13.44a16.29,16.29,0,0,1,5.51,4.42c.79,1-1.38,3-.79,4.74.59,1.19,2.37,2.37,3,1.78,1.35-1.35,2.7-3.83,4.42-2.66C244.4,193.18,245.2,184.9,244.85,182.6Z"/><path class="cls-14" d="M185,178.64c-.29,1-.56,2-.8,3l4.22,1.42a24.59,24.59,0,0,1,1-2.88C188,179.63,186.54,179.12,185,178.64Z"/><path class="cls-12" d="M187.77,192.58a21.6,21.6,0,0,1,.68-9.5l-4.22-1.42a44.49,44.49,0,0,0-1.35,11.12A37.19,37.19,0,0,1,187.77,192.58Z"/><path class="cls-14" d="M182.88,192.78c0,.73.07,1.44.15,2.13a48.92,48.92,0,0,1,5.24-.16,17.26,17.26,0,0,1-.5-2.18A37.19,37.19,0,0,0,182.88,192.78Z"/><path class="cls-12" d="M183,194.91c.53,4.67,2.5,8.14,6.62,8.88a77.38,77.38,0,0,0,8.54,1,5.15,5.15,0,0,0-.76-3.47c-2-3-7.31-2-8.3-4.35a15.68,15.68,0,0,1-.87-2.26A48.92,48.92,0,0,0,183,194.91Z"/><path class="cls-12" d="M193.19,174.22c-1.9-.84-3.8-1.7-5.71-2.53a64.92,64.92,0,0,0-2.45,7c1.51.47,3,1,4.46,1.55A24.08,24.08,0,0,1,193.19,174.22Z"/><path class="cls-14" d="M194.95,172.38c-2.15-1-4.28-2-6.47-2.94-.34.72-.68,1.47-1,2.25,1.91.83,3.81,1.7,5.71,2.53A22.07,22.07,0,0,1,194.95,172.38Z"/><path class="cls-12" d="M200.79,168.56c2.17-.93,2.64-3.31,2.17-5.63-2.89-1.17-5.71-2-7.8-1.77-1.92.17-4.43,3.52-6.68,8.27,2.19.9,4.32,1.94,6.47,2.94A19.71,19.71,0,0,1,200.79,168.56Z"/><path class="cls-13" d="M213.64,170.53c1.38,1.78,4.94,3.36,5.53,1,1.43-5.71-5.19-8.68-10.42-9.64,1,2.13,4.38,5,7.4,8.1,0,0-2.94-1.94-6.77-4A17.32,17.32,0,0,1,213.64,170.53Z"/><path class="cls-13" d="M216.8,179.82c-8.39,2-11,12.46-8.78,20.45-.16-4.55,2.06-9.09,5-13.14s8.1-4.94,12.05-7.51a5.76,5.76,0,0,0,2.38-4.87C225,177.48,220.76,179,216.8,179.82Z"/><path class="cls-13" d="M203,175.47a49,49,0,0,1-8-3.1,22.07,22.07,0,0,0-1.76,1.85,86.09,86.09,0,0,0,8.19,3.23c1.19.4,3,.79,3.36-.59C204.74,176.26,203.76,175.67,203,175.47Z"/><path class="cls-13" d="M203,197.21c.4-.2-.4-1.38-1-1.58a40.56,40.56,0,0,0-14.21-3.05,17.26,17.26,0,0,0,.5,2.18,29.36,29.36,0,0,1,8.77,1.47C199.21,196.81,201.19,197.6,203,197.21Z"/><path class="cls-11" d="M224.11,165.4a14.8,14.8,0,0,0-7.51-4.94c-2.7-.84-5.4.33-8.1.57a2.82,2.82,0,0,0,.25.86c5.23,1,11.84,3.93,10.42,9.64-.59,2.37-4.15.79-5.53-1a17.32,17.32,0,0,0-4.26-4.55,66.43,66.43,0,0,0-6.42-3.06c.47,2.32,0,4.7-2.17,5.63a19.71,19.71,0,0,0-5.85,3.82,49,49,0,0,0,8,3.1c.79.2,1.78.79,1.78,1.38-.4,1.38-2.17,1-3.36.59a86.09,86.09,0,0,1-8.19-3.23,24.08,24.08,0,0,0-3.7,6,64.19,64.19,0,0,1,12.68,6.54c.2.2.4.79,0,1a3.88,3.88,0,0,1-3-.2,70,70,0,0,0-10.76-4.45,21.6,21.6,0,0,0-.68,9.5A40.56,40.56,0,0,1,202,195.63c.59.2,1.38,1.38,1,1.58-1.78.4-3.75-.4-5.93-1a29.36,29.36,0,0,0-8.77-1.47,15.68,15.68,0,0,0,.87,2.26c1,2.37,6.32,1.38,8.3,4.35a5.15,5.15,0,0,1,.76,3.47c4,.27,7.68.25,11,.17a4.11,4.11,0,0,1-.49-1.07,12.5,12.5,0,0,1-.67-3.66c-2.2-8,.39-18.48,8.78-20.45,4-.84,8.22-2.34,10.68-5.07A15.93,15.93,0,0,0,224.11,165.4Z"/><path class="cls-13" d="M202.17,187.73c.4-.2.2-.79,0-1a64.19,64.19,0,0,0-12.68-6.54,24.59,24.59,0,0,0-1,2.88,70,70,0,0,1,10.76,4.45A3.88,3.88,0,0,0,202.17,187.73Z"/><path class="cls-11" d="M236,182.59a3.13,3.13,0,0,0-4.54,1.58c-3,7.9-7.11,14.42-14.62,19a8.26,8.26,0,0,0-2.25,1.73c3.55-.07,6.39,0,8.29.67,4.16,1.46,17.34-9.74,15.44-20.79A4.83,4.83,0,0,0,236,182.59Z"/><path class="cls-12" d="M232.49,175.69s3.8-17.19-13.6-17.49c-8-.14-10.59,1-10.4,2.82,2.7-.24,5.4-1.41,8.1-.57a14.8,14.8,0,0,1,7.51,4.94c3,3.75,5.33,11.26,1,14.23-4,2.57-9.09,3.36-12.05,7.51-3.75,5.14-6.32,11.06-4.35,16.8a4.11,4.11,0,0,0,.49,1.07l5.36-.13a8.26,8.26,0,0,1,2.25-1.73c7.51-4.54,11.66-11.06,14.62-19a3.13,3.13,0,0,1,4.54-1.58,4.83,4.83,0,0,1,2.32,2.16C237.75,181.62,236,178.5,232.49,175.69Z"/><path class="cls-12" d="M161.57,174.9,172.8,160c-40.51-40.51-68.76,0-68.76,0l10.35,14.23C124.35,166.94,140.93,160.7,161.57,174.9Z"/><polygon class="cls-14" points="151.88 187.78 137.82 206.46 124.55 188.2 138.42 174.33 151.88 187.78"/><path class="cls-11" d="M161.57,174.9l-9.69,12.87-13.47-13.45L124.55,188.2l-10.16-14C124.35,166.95,140.93,160.7,161.57,174.9Z"/><path class="cls-11" d="M122,195.56a1.58,1.58,0,0,1-1.24-.6l-6.66-8.35a1.58,1.58,0,0,1,.21-2.2L116,183a1.59,1.59,0,0,1,2.26.19l6.63,8a1.6,1.6,0,0,1,0,2.08l-1.6,1.77A1.59,1.59,0,0,1,122,195.56Zm-5-11.74a.4.4,0,0,0-.26.1l-1.63,1.39a.4.4,0,0,0-.05.56l6.66,8.35a.41.41,0,0,0,.62,0l1.6-1.77a.41.41,0,0,0,0-.53l-6.63-8A.41.41,0,0,0,117,183.82Z"/><path class="cls-11" d="M153.91,195.56h0a1.59,1.59,0,0,1-1.18-.53l-1.6-1.77a1.6,1.6,0,0,1,0-2.08l6.63-8A1.59,1.59,0,0,1,160,183l1.63,1.39a1.58,1.58,0,0,1,.21,2.2L155.15,195A1.58,1.58,0,0,1,153.91,195.56Zm5-11.74a.41.41,0,0,0-.31.15l-6.63,8a.41.41,0,0,0,0,.53l1.6,1.77a.41.41,0,0,0,.62,0l6.67-8.36a.4.4,0,0,0-.05-.56l-1.63-1.39A.4.4,0,0,0,158.94,183.82Z"/><circle class="cls-12" cx="138.21" cy="189.09" r="2.95"/></svg>