<?xml version="1.0" encoding="UTF-8"?>
<svg width="32px" height="32px" viewBox="0 0 32 32" version="1.1" xmlns="http://www.w3.org/2000/svg" xmlns:xlink="http://www.w3.org/1999/xlink">
    <!-- Generator: Sketch 46.2 (44496) - http://www.bohemiancoding.com/sketch -->
    <title>github</title>
    <desc>Created with Sketch.</desc>
    <defs></defs>
    <g id="Page-1" stroke="none" stroke-width="1" fill="none" fill-rule="evenodd">
        <g id="2" transform="translate(-599.000000, -883.000000)">
            <g id="github" transform="translate(600.000000, 884.000000)">
                <path d="M3.99050976,0 C1.78661209,0 2.10318753e-08,1.78679466 2.10318753e-08,3.9992748 L2.10318753e-08,26.0007252 C2.10318753e-08,28.2094637 1.79319602,30 3.9901892,30 L9.86301372,30 C10.6849315,30 11.1283212,28.8166013 11.1283212,28.4216668 M18.4639048,28.4216668 C18.4639048,28.8195727 18.4639056,30 19.7260274,30 L25.5879539,30 C27.7976933,30 29.5890411,28.2132053 29.5890411,26.0007252 L29.5890411,3.9992748 C29.5890411,1.79053632 27.8047486,0 25.5985314,0 L3.99050976,0 L3.99050976,0" id="Fill-4" stroke="#FBA145" stroke-width="1.5"></path>
                <path d="M9.86301372,29 C10.6849315,29 11.1283212,27.8166013 11.1283212,27.4216668 C11.1283212,27.0651115 11.1146018,25.887241 11.1082319,24.6378118 C6.99234781,25.5423232 6.12384739,22.8736059 6.12384739,22.8736059 C5.45085123,21.1453031 4.48116863,20.6857429 4.48116863,20.6857429 C3.1388515,19.7577087 4.58235082,19.7767745 4.58235082,19.7767745 C6.06798904,19.8822555 6.85025178,21.3176382 6.85025178,21.3176382 C8.16978493,23.6035538 10.3112696,22.9426885 11.1555156,22.5606295 C11.2883018,21.5942161 11.6717162,20.9345888 12.0948193,20.5611962 C8.80872657,20.183099 5.35432397,18.9009855 5.35432397,13.1715876 C5.35432397,11.539109 5.93226287,10.2052455 6.87867123,9.15811196 C6.72506055,8.78150042 6.21865972,7.26069304 7.02199191,5.20109092 C7.02199191,5.20109092 8.26435191,4.79922342 11.0915725,6.7337835 C12.2717042,6.40248421 13.5373385,6.23633937 14.794643,6.23064437 C16.0519475,6.23633937 17.3185619,6.40248421 18.5008985,6.7337835 C21.3246892,4.79922342 22.5653342,5.20109092 22.5653342,5.20109092 C23.3706263,7.26069304 22.8639805,8.78150042 22.7103699,9.15811196 C23.6589834,10.2052455 24.2330022,11.539109 24.2330022,13.1715876 C24.2330022,18.914604 20.7719844,20.1791372 17.4775623,20.549311 C18.0082175,21.0133281 18.4810541,21.923287 18.4810541,23.3183096 C18.4810541,25.318981 18.4639048,26.9291748 18.4639048,27.4216668 C18.4639048,27.8195727 18.4639056,29 19.7260274,29 M5.60348219,20.4685909 C5.57089808,20.5428732 5.45526123,20.5651579 5.34991438,20.5141507 C5.24260726,20.465372 5.1823389,20.3641003 5.21712781,20.2895704 C5.24897712,20.2130595 5.3648589,20.1917653 5.47192068,20.2430201 C5.57947274,20.2917989 5.64072123,20.3940609 5.60348219,20.4685909 L5.60348219,20.4685909 L5.60348219,20.4685909 L5.60348219,20.4685909 M6.20273507,21.144065 C6.13217712,21.2101763 5.99424616,21.179473 5.9006589,21.0749825 C5.8038863,20.9707395 5.78575685,20.8313363 5.85729493,20.7642346 C5.93005767,20.6981233 6.06382397,20.7290743 6.1608415,20.8333172 C6.2576137,20.9387982 6.27647794,21.0772109 6.20273507,21.144065 L6.20273507,21.144065 L6.20273507,21.144065 Z M6.7860637,22.0052452 C6.69541644,22.0688803 6.54719548,22.0092069 6.45556808,21.8762415 C6.36492082,21.743276 6.36492082,21.5838166 6.45752794,21.5199338 C6.54940027,21.4560509 6.69541644,21.513496 6.78826849,21.6454709 C6.87867123,21.7806648 6.87867123,21.9401243 6.7860637,22.0052452 L6.7860637,22.0052452 L6.7860637,22.0052452 Z M7.58523123,22.8372075 C7.50413835,22.9275844 7.33141849,22.9033188 7.20500178,22.7800101 C7.07564548,22.6594251 7.0396315,22.488328 7.12096931,22.3979512 C7.20304191,22.3073267 7.37674191,22.3328303 7.50413835,22.4551486 C7.63251493,22.575486 7.67171383,22.7478211 7.58523123,22.8372075 L7.58523123,22.8372075 L7.58523123,22.8372075 Z M8.6877,23.3202905 C8.65193096,23.437409 8.48558096,23.4906446 8.31800548,23.4408755 C8.15067534,23.3896206 8.04116342,23.2524459 8.0749726,23.1340893 C8.1097615,23.016228 8.27684671,22.9607638 8.44564685,23.0139995 C8.61273246,23.0650067 8.72248931,23.2011911 8.6877,23.3202905 L8.6877,23.3202905 L8.6877,23.3202905 Z M9.89845602,23.4099245 C9.90262109,23.5332332 9.76052507,23.6354952 9.58461986,23.6377237 C9.40773493,23.6416854 9.26465876,23.5418995 9.2626989,23.4205716 C9.2626989,23.2960249 9.40161,23.1947532 9.57849493,23.191782 C9.75440013,23.1883155 9.89845602,23.2873586 9.89845602,23.4099245 L9.89845602,23.4099245 L9.89845602,23.4099245 Z M11.0251792,23.2160475 C11.0462486,23.3363849 10.923997,23.4599412 10.7493168,23.4928731 C10.5775767,23.5245669 10.4185763,23.4502845 10.3967721,23.3309376 C10.3754577,23.2076288 10.4999141,23.0840725 10.6714093,23.0521311 C10.8463344,23.0214277 11.0028851,23.0937292 11.0251792,23.2160475 L11.0251792,23.2160475 L11.0251792,23.2160475 Z" id="Fill-4" fill="#FBA145"></path>
            </g>
        </g>
    </g>
</svg>