<?xml version="1.0" encoding="utf-8"?>
<!-- Generator: Adobe Illustrator 21.1.0, SVG Export Plug-In . SVG Version: 6.00 Build 0)  -->
<svg version="1.1" id="Layer_1" xmlns="http://www.w3.org/2000/svg" xmlns:xlink="http://www.w3.org/1999/xlink" x="0px" y="0px"
	 viewBox="0 0 662 400" style="enable-background:new 0 0 662 400;" xml:space="preserve">
<style type="text/css">
	.st0{fill:#EFEEEE;}
	.st1{fill:#47E1C5;}
	.st2{fill:#5A6D84;}
	.st3{fill:#FFFFFF;}
	.st4{fill:#CBE7EA;}
	.st5{fill:#64C2CA;}
	.st6{fill:#5FC1CA;}
	.st7{fill:#303947;}
	.st8{fill:#C9E4ED;}
	.st9{fill:#F7D5A4;}
	.st10{fill:#54C3D1;}
	.st11{fill:#464646;}
	.st12{fill:#FFFEFA;}
	.st13{fill:#F5F5F5;}
	.st14{fill:#DBDBDB;}
	.st15{opacity:0.5;}
	.st16{fill:#5BD4E3;}
	.st17{fill:none;stroke:#C9E4ED;stroke-width:0.5;stroke-miterlimit:10;}
</style>
<title>Gui</title>
<polyline class="st0" points="473.1,384.6 452.6,368.6 486.5,325.1 507,341.1 "/>
<polygon class="st1" points="585.8,400 495.5,329.5 459.1,376.3 487.4,400 "/>
<polyline class="st0" points="169.6,346.8 191.4,332.8 221.2,379.1 199.4,393.2 "/>
<polygon class="st1" points="192.5,400 214.1,386.2 182,336.3 75.5,400 "/>
<path class="st2" d="M434,325c0,9.4-7.6,17-17,17H251.2c-9.4,0-17-7.6-17.1-17V100.1c0-9.4,7.6-17.1,17-17.1c0,0,0,0,0,0H417
	c9.4,0,17,7.7,17,17.1V325z"/>
<path class="st2" d="M196.8,14.6c5,0,9,4,9,9v87.3c0,5-4,9-9,9H78.7c-5,0-9-4-9-9V23.6c0-5,4-9,9-9L196.8,14.6z"/>
<path class="st3" d="M186.4,19.4c4.1,0,7.4,3.3,7.4,7.4c0,0,0,0,0,0v71.9c0,4.1-3.3,7.4-7.4,7.4c0,0,0,0,0,0H89.1
	c-4.1,0-7.4-3.3-7.4-7.4V26.8c0-4.1,3.3-7.4,7.4-7.4c0,0,0,0,0,0H186.4z"/>
<path class="st3" d="M412.3,300.5c0,7.4-6,13.4-13.3,13.4H269.2c-7.4,0-13.3-6-13.3-13.4V113.3c0-7.4,6-13.3,13.3-13.3c0,0,0,0,0,0
	h129.7c7.4,0,13.3,6,13.3,13.3c0,0,0,0,0,0V300.5z"/>
<path class="st2" d="M598.2,165.1c5,0,9,4,9,9v87.3c0,5-4,9-9,9H480.1c-5,0-9-4-9-9v-87.3c0-5,4-9,9-9L598.2,165.1z"/>
<path class="st4" d="M593.5,172.2c4.3,0,7.8,3.5,7.8,7.8l0,0v75.5c0,4.3-3.5,7.8-7.8,7.8l0,0H484.8c-4.3,0-7.8-3.5-7.8-7.8V180
	c0-4.3,3.5-7.8,7.8-7.8H593.5z"/>
<path class="st5" d="M387.6,108.1c-0.1-16.9-7.9-30.6-17.5-30.6H298c-9.6,0-17.5,13.7-17.5,30.6H387.6z"/>
<path class="st5" d="M294.9,162h-25.2v-25.2h25.2V162z M274.1,157.5h16.3v-16.3h-16.3V157.5z"/>
<path class="st5" d="M305.7,199.6h-25.2v-25.3h25.2V199.6z M285,195.1h16.3v-16.3H285V195.1z"/>
<path class="st5" d="M316,240.6h-25.2v-25.3H316V240.6z M295.2,236.1h16.3v-16.3h-16.3V236.1z"/>
<path class="st5" d="M328.6,279.3h-25.2V254h25.2V279.3z M307.9,274.8h16.3v-16.3h-16.3V274.8z"/>
<rect x="304.9" y="147.1" class="st5" width="88.4" height="4.5"/>
<rect x="313.2" y="187" class="st5" width="80.1" height="4.5"/>
<rect x="323.7" y="226.8" class="st5" width="69.6" height="4.5"/>
<rect x="335.3" y="266.7" class="st5" width="58" height="4.5"/>
<path class="st6" d="M205.8,33.6v-10c0-5-4-9-9-9H78.7c-5,0-9,4-9,9v10H205.8z"/>
<path class="st3" d="M161.4,24.4c0,1.5-1.2,2.7-2.7,2.7l0,0H88.4c-1.5,0-2.7-1.2-2.7-2.7l0,0c0-1.5,1.2-2.7,2.7-2.7c0,0,0,0,0,0
	h70.3C160.2,21.6,161.4,22.8,161.4,24.4C161.4,24.3,161.4,24.3,161.4,24.4L161.4,24.4z"/>
<circle class="st3" cx="171.1" cy="24.4" r="2.7"/>
<circle class="st3" cx="179" cy="24.4" r="2.7"/>
<circle class="st3" cx="186.9" cy="24.4" r="2.7"/>
<path class="st2" d="M598.2,14.6c5,0,9,4,9,9v87.3c0,5-4,9-9,9H480.1c-5,0-9-4-9-9V23.6c0-5,4-9,9-9L598.2,14.6z"/>
<path class="st6" d="M607.1,33.6v-10c0-5-4-9-9-9H480.1c-5,0-9,4-9,9v10H607.1z"/>
<circle class="st3" cx="489.4" cy="24.4" r="2.7"/>
<circle class="st3" cx="497.3" cy="24.4" r="2.7"/>
<circle class="st3" cx="505.1" cy="24.4" r="2.7"/>
<polygon class="st3" points="583.2,262.9 583.2,175.9 568.2,169.1 561.1,154.8 496.3,154.8 496.3,262.9 "/>
<polygon class="st7" points="561.1,154.8 561.1,175.9 583.1,175.9 "/>
<rect x="505.4" y="246.6" class="st8" width="30.1" height="6.8"/>
<rect x="505.4" y="256.6" class="st8" width="65.2" height="4"/>
<rect x="510.6" y="228" class="st8" width="65.2" height="4"/>
<rect x="510.6" y="236" class="st8" width="60.1" height="4"/>
<rect x="505.4" y="184.5" class="st8" width="60.1" height="6.8"/>
<rect x="510.6" y="194.5" class="st8" width="65.2" height="4"/>
<rect x="510.6" y="201.6" class="st8" width="52.9" height="4"/>
<rect x="501" y="173.9" class="st8" width="50.4" height="4"/>
<rect x="501.1" y="211" class="st8" width="68.8" height="4"/>
<rect x="507.1" y="218.1" class="st8" width="50.4" height="4"/>
<path class="st2" d="M196.8,165.1c5,0,9,4,9,9v87.3c0,5-4,9-9,9H78.7c-5,0-9-4-9-9v-87.3c0-5,4-9,9-9L196.8,165.1z"/>
<path class="st4" d="M192.1,172.2c4.3,0,7.8,3.5,7.8,7.8v75.5c0,4.3-3.5,7.8-7.8,7.8H83.4c-4.3,0-7.8-3.5-7.8-7.8V180
	c0-4.3,3.5-7.8,7.8-7.8H192.1z"/>
<polygon class="st3" points="181.8,262.9 181.8,175.9 166.8,169.1 159.7,154.8 94.9,154.8 94.9,262.9 "/>
<polygon class="st7" points="159.7,154.8 159.7,175.9 181.8,175.9 "/>
<path class="st9" d="M450.1,363.6c0,0-3.7,3.9-16.4-1.4s-52.8-18.4-52.8-18.4l0.4-11.2l29.4,5.8l-49.5-37.4l6.9-10.5l40.6,29.6
	L368,283.7l7-9l45.1,31.8l-37.9-33.6l7.4-8.7l40.2,29l-28.3-26.1l8.6-9.8l67.6,56.8c0,0,3.1,5.5,2.5,11l3.5,3.7l-29.1,37.4
	L450.1,363.6z"/>
<path class="st9" d="M366.9,275.6c1.9-2.6,5.6-3.1,8.2-1.2c2.6,1.9,3.1,5.6,1.2,8.2s-5.6,3.1-8.2,1.2c0,0-0.1,0-0.1-0.1
	C365.5,281.8,365,278.2,366.9,275.6C366.9,275.7,366.9,275.7,366.9,275.6z"/>
<path class="st9" d="M381.2,264.9c1.9-2.6,5.6-3.1,8.2-1.2c2.6,1.9,3.1,5.6,1.2,8.2s-5.6,3.1-8.2,1.2c0,0-0.1,0-0.1-0.1
	C379.7,271.1,379.2,267.5,381.2,264.9C381.2,265,381.2,264.9,381.2,264.9z"/>
<path class="st9" d="M400.3,258c2.2-2.9,6.4-3.5,9.3-1.3c2.9,2.2,3.5,6.4,1.3,9.3c-2.2,2.9-6.4,3.5-9.3,1.3c0,0-0.1-0.1-0.1-0.1
	C398.7,265,398.1,260.9,400.3,258C400.3,258,400.3,258,400.3,258z"/>
<path class="st9" d="M359.5,291.9c2.1-2.8,6.1-3.4,8.9-1.3c2.8,2.1,3.4,6.1,1.3,8.9s-6.1,3.4-8.9,1.3c0,0-0.1,0-0.1-0.1
	C358,298.6,357.4,294.7,359.5,291.9C359.5,291.9,359.5,291.9,359.5,291.9z"/>
<path class="st9" d="M377,334.9c1.9-2.5,5.4-3,7.9-1.1s3,5.4,1.1,7.9c-1.9,2.5-5.4,3-7.9,1.1c0,0-0.1,0-0.1-0.1
	C375.6,340.9,375.1,337.3,377,334.9C377,334.9,377,334.9,377,334.9z"/>
<path class="st9" d="M235.7,342.1v-36.3h0.3v-0.2l-0.5,0.3l16.5-25.1l-10.3-4.6c0,0-27.3,32.3-36.9,42.1s-7.4,14.7-7.4,14.7l-4.1,3
	l23.7,41l4.8-1.8c4.9,2.7,11.1,1.8,11.1,1.8l65.9-35L235.7,342.1z"/>
<path class="st9" d="M251.5,275.9c1.6,2.7,0.7,6.2-1.9,7.8c-2.7,1.6-6.2,0.7-7.8-1.9c-1.6-2.7-0.7-6.2,1.9-7.8c0,0,0.1,0,0.1-0.1
	C246.5,272.3,250,273.2,251.5,275.9z"/>
<path class="st9" d="M230.4,359c-17.6,0.1-17.6-27.2,0-27.3c1.8,0,3.6,0,5.4-0.1v-25.9h0.3v-0.2l-0.5,0.3l16.5-25.1l-10.3-4.6
	c0,0-27.3,32.3-36.9,42.1s-7.4,14.7-7.4,14.7l-4.1,3l23.7,41l4.8-1.8c4.9,2.7,11.1,1.8,11.1,1.8l36.3-19.3
	C256.3,358.2,243.3,359,230.4,359z"/>
<path class="st9" d="M251.5,275.9c1.6,2.7,0.7,6.2-1.9,7.8c-2.7,1.6-6.2,0.7-7.8-1.9c-1.6-2.7-0.7-6.2,1.9-7.8c0,0,0.1,0,0.1-0.1
	C246.5,272.3,250,273.2,251.5,275.9z"/>
<path class="st9" d="M235.7,328.1v4.1c0,0,3.9,10.1,17,9.9l-0.4,4.2l-30.6,1.7"/>
<path class="st10" d="M113.7,93h58c1.5,0,2.8-1.2,2.8-2.8V57.6c0-1.6-1.2-2.8-2.8-2.9H137l-3-5c-0.5-0.8-1.4-1.3-2.4-1.3h-17.9
	c-1.5,0-2.8,1.2-2.8,2.8v39C110.9,91.8,112.1,93,113.7,93z"/>
<path class="st3" d="M126,51.1l-3.1-5h-13.6v33.4h52.9V52.4h-33.8C127.4,52.4,126.5,51.9,126,51.1z"/>
<path class="st11" d="M165,46.8h-35l-3.1-5c-0.5-0.8-1.4-1.3-2.4-1.3h-18c-1.5,0-2.8,1.2-2.8,2.8c0,0,0,0,0,0v39
	c0,1.5,1.3,2.8,2.8,2.8c0,0,0,0,0,0H165c1.5,0,2.8-1.2,2.8-2.8c0,0,0,0,0,0V49.7C167.8,48.1,166.6,46.9,165,46.8z M162.2,79.5h-52.9
	V46.1H123l3.1,5c0.5,0.8,1.4,1.3,2.4,1.3h33.8L162.2,79.5z"/>
<circle class="st12" cx="148.4" cy="321.1" r="3.9"/>
<circle class="st12" cx="97.8" cy="303.7" r="3.9"/>
<circle class="st12" cx="133.8" cy="306.7" r="7.1"/>
<circle class="st12" cx="579.8" cy="297.9" r="3.9"/>
<circle class="st12" cx="524.4" cy="325.5" r="3.9"/>
<circle class="st12" cx="558.5" cy="301.8" r="7.1"/>
<circle class="st12" cx="253.8" cy="29.8" r="3.9"/>
<circle class="st12" cx="306.7" cy="50.8" r="3.9"/>
<circle class="st12" cx="270.3" cy="41.3" r="7.1"/>
<circle class="st12" cx="505.5" cy="112.4" r="2.3"/>
<circle class="st12" cx="588.7" cy="28.9" r="2.3"/>
<rect x="527.8" y="101.1" class="st11" width="31.1" height="8.3"/>
<path class="st11" d="M495.6,94.5V38.9c0-1.2,1-2.1,2.1-2.2h91.1c1.2,0,2.2,1,2.2,2.1c0,0,0,0,0,0v55.6L495.6,94.5z"/>
<path class="st13" d="M588.8,103.1h-91.1c-1.2,0-2.1-1-2.1-2.2v-6.4H591v6.5C591,102.2,590,103.1,588.8,103.1z"/>
<path class="st14" d="M587.3,41v49.3h-87.9V41H587.3z"/>
<path class="st13" d="M563.7,109.4c0,1.3-1,2.3-2.3,2.3l0,0h-36.2c-1.2,0-2.2-1-2.2-2.3l0,0c0-1.3,1-2.3,2.3-2.3l0,0h36.2
	C562.7,107.1,563.7,108.1,563.7,109.4C563.7,109.4,563.7,109.4,563.7,109.4L563.7,109.4z"/>
<rect x="512.3" y="41.3" class="st3" width="62.6" height="49"/>
<g class="st15">
	<rect x="518.2" y="63.6" class="st16" width="50" height="2.9"/>
	<rect x="518.5" y="69.8" class="st16" width="11.6" height="2.9"/>
	<rect x="556.5" y="69.8" class="st16" width="11.8" height="2.9"/>
	<rect x="518.5" y="76" class="st16" width="11.6" height="2.9"/>
	<rect x="556.5" y="76" class="st16" width="11.8" height="2.9"/>
	<rect x="518.1" y="49.2" class="st16" width="50.2" height="11.3"/>
	<rect x="546.9" y="49.2" class="st16" width="21.4" height="4.9"/>
	<rect x="546.9" y="57.2" class="st16" width="21.4" height="3.3"/>
	<rect x="532.9" y="69.8" class="st16" width="21" height="9.1"/>
	<rect x="518.2" y="82.1" class="st16" width="50.2" height="2.9"/>
</g>
<rect x="108.4" y="178" class="st8" width="46.7" height="5.9"/>
<circle class="st8" cx="102.5" cy="180.5" r="3.3"/>
<rect x="116.9" y="190.5" class="st8" width="46.7" height="5.9"/>
<circle class="st8" cx="109.2" cy="193" r="3.3"/>
<rect x="125.1" y="203.7" class="st8" width="46.7" height="5.9"/>
<circle class="st8" cx="117.4" cy="206.3" r="3.3"/>
<rect x="125.1" y="213.8" class="st8" width="46.7" height="5.9"/>
<rect x="131.7" y="223.9" class="st8" width="40.1" height="5.9"/>
<rect x="131.7" y="233.4" class="st8" width="40.1" height="5.9"/>
<rect x="125.1" y="245.1" class="st8" width="46.7" height="5.9"/>
<circle class="st8" cx="117.4" cy="247.7" r="3.3"/>
<polyline class="st17" points="117.4,209.6 117.4,244.3 117.4,262.9 "/>
<polyline class="st17" points="109.2,196.3 109.2,239.7 109.2,262.9 "/>
<polyline class="st17" points="102.5,183.4 102.5,235.2 102.5,262.9 "/>
<line class="st17" x1="105.8" y1="180.5" x2="108.4" y2="180.5"/>
<line class="st17" x1="112.5" y1="193.4" x2="118.1" y2="193.4"/>
<line class="st17" x1="119.5" y1="206.3" x2="125.1" y2="206.3"/>
<line class="st17" x1="119.5" y1="248.1" x2="125.1" y2="248.1"/>
</svg>
