<?xml version="1.0" encoding="UTF-8"?>
<svg width="31px" height="31px" viewBox="0 0 31 31" version="1.1" xmlns="http://www.w3.org/2000/svg" xmlns:xlink="http://www.w3.org/1999/xlink">
    <!-- Generator: Sketch 46.2 (44496) - http://www.bohemiancoding.com/sketch -->
    <title>Fill 88</title>
    <desc>Created with Sketch.</desc>
    <defs></defs>
    <g id="Page-1" stroke="none" stroke-width="1" fill="none" fill-rule="evenodd">
        <g id="2" transform="translate(-700.000000, -883.000000)" stroke="#555" stroke-width="1.5">
            <g id="SINGLE-GREY" transform="translate(700.000000, 884.000000)">
                <path d="M1.62245042,9.67330534 L7.23567894,9.67330534 L7.23567894,29.238 L1.62245042,29.238 L1.62245042,9.67330534 Z M22.5725182,9.48523282 C26.561892,9.48523282 29.6964,12.2994504 29.6964,18.3598511 L29.6964,29.238 L23.331358,29.238 L23.331358,19.1138588 C23.331358,16.4636679 22.3359663,14.6550802 20.1461045,14.6550802 C18.4715044,14.6550802 17.54013,15.8754046 17.1068419,17.0519313 C16.9444564,17.4744504 16.9694388,18.0627137 16.9694388,18.6509771 L16.9694388,29.238 L10.6637299,29.238 C10.6637299,29.238 10.7449226,11.304126 10.6637299,9.67330534 L16.9694388,9.67330534 L16.9694388,12.7442977 C17.3418324,11.4011679 19.3568175,9.48523282 22.5725182,9.48523282 Z M4.32523166,0.438 C6.39642711,0.438 7.66974779,1.89878244 7.71034416,3.82931679 C7.71034416,5.7255 6.39642711,7.22664504 4.28619669,7.22664504 L4.24560033,7.22664504 C2.21422055,7.22664504 0.8964,5.73065267 0.8964,3.83446947 C0.8964,1.90221756 2.25247482,0.438 4.32523166,0.438 Z" id="Fill-88"></path>
            </g>
        </g>
    </g>
</svg>
