<svg id="Layer_1" data-name="Layer 1" xmlns="http://www.w3.org/2000/svg" viewBox="0 0 300 300"><defs><style>.cls-1{fill:#414042;}.cls-2{fill:#fff;}.cls-3{fill:#231f20;}.cls-4{fill:#fbc28f;}.cls-5{fill:#ddd;}.cls-6{fill:#cfdbe5;}.cls-7{fill:#ffd55c;}.cls-8{fill:#586773;}.cls-9{fill:#3d454a;}.cls-10{fill:#f69777;}</style></defs><title>Youpleal-small</title><polygon class="cls-1" points="73.88 63.33 40.83 82.6 40.83 125.19 106.93 125.19 106.93 82.6 73.88 63.33"/><rect class="cls-2" x="65.12" y="78.78" width="17.52" height="46.4"/><polygon class="cls-3" points="50.73 76.83 48.45 98.06 65.12 92.91 65.12 68.44 50.73 76.83"/><polygon class="cls-3" points="97.03 76.83 99.31 98.06 82.64 92.91 82.64 68.44 97.03 76.83"/><circle class="cls-1" cx="73.96" cy="114.96" r="2.63"/><circle class="cls-1" cx="73.96" cy="101.98" r="2.63"/><circle class="cls-1" cx="73.96" cy="89.01" r="2.63"/><rect class="cls-4" x="58.2" y="38.39" width="31.36" height="40.4"/><polygon class="cls-2" points="96.53 59.77 96.53 51.1 96.53 32.73 51.23 32.73 51.23 51.1 51.23 59.77 45.63 59.77 45.63 68.44 51.23 68.44 58.2 68.44 58.2 59.77 58.2 51.1 89.56 51.1 89.56 59.77 89.56 68.44 96.53 68.44 102.13 68.44 102.13 59.77 96.53 59.77"/><g id="paper"><path class="cls-5" d="M30.19,137.51l0,4.74,2,0a2.53,2.53,0,0,1,2.13-1.16,2.57,2.57,0,1,1-2.06,4.08l-2.11,0,0,3.39,2,0a2.52,2.52,0,0,1,2.13-1.16,2.57,2.57,0,1,1-2.06,4.08l-2.11,0,0,3.39,2,0a2.55,2.55,0,0,1,2.14-1.17,2.57,2.57,0,1,1-2.07,4.08l-2.1,0,0,3.39,2,0A2.53,2.53,0,0,1,34.51,160a2.57,2.57,0,1,1,0,5.14,2.62,2.62,0,0,1-2.1-1.06l-2.1,0,0,3.39h2a2.6,2.6,0,0,1,2.16-1.17,2.57,2.57,0,1,1-2.07,4.08l-2.1,0v3.38l2,0a2.62,2.62,0,0,1,2.15-1.17,2.57,2.57,0,1,1-2.06,4.08l-2.11,0,0,3.39,2,0a2.57,2.57,0,1,1,2.17,4A2.51,2.51,0,0,1,32.52,183l-2.12,0v3.39l2,0a2.54,2.54,0,0,1,2.13-1.17,2.57,2.57,0,1,1-2,4.09H30.44v3.39l2,0a2.58,2.58,0,1,1,.09,2.92l-2.13,0,0,3.38,2,0a2.57,2.57,0,1,1,2.15,4,2.58,2.58,0,0,1-2.08-1.05l-2.11,0,0,3.39,2,0a2.55,2.55,0,0,1,2.15-1.17,2.57,2.57,0,1,1-2.06,4.08l-2.11,0,0,3.39h2a2.56,2.56,0,0,1,2.15-1.17,2.57,2.57,0,1,1-2.07,4.08l-2.1,0,0,3.39,2,0a2.57,2.57,0,0,1,4.73,1.38,2.57,2.57,0,0,1-4.65,1.53l-2.1,0,0,3.38h2A2.6,2.6,0,0,1,34.81,223a2.57,2.57,0,1,1,0,5.14,2.61,2.61,0,0,1-2.1-1.05l-2.1,0v3.39l2,0a2.56,2.56,0,1,1,2.17,4,2.52,2.52,0,0,1-2.09-1.05l-2.11,0,0,3.39,2,0a2.55,2.55,0,0,1,2.15-1.17,2.57,2.57,0,1,1,0,5.14,2.54,2.54,0,0,1-2.08-1.06l-2.11,0v3.39l2,0a2.54,2.54,0,0,1,2.13-1.17,2.57,2.57,0,1,1-2,4.09H30.72v3.39l2,0a2.57,2.57,0,1,1,2.16,4,2.57,2.57,0,0,1-2.07-1.05l-2.13,0,0,3.39h2a2.56,2.56,0,1,1,2.15,4,2.58,2.58,0,0,1-2.08-1.05H30.76l0,3.4,2,0A2.56,2.56,0,0,1,35,260.81a2.6,2.6,0,0,1,2.58,2.56A2.57,2.57,0,0,1,35,266a2.6,2.6,0,0,1-2.08-1.05l-2.11,0,0,3.38,2,0a2.57,2.57,0,0,1,4.73,1.39A2.6,2.6,0,0,1,35,272.26a2.65,2.65,0,0,1-2.09-1.05h-2.1l0,5.14,90.42-.14.19-138.55Z"/><path class="cls-2" d="M27.56,137.51l0,4.74,2,0a2.53,2.53,0,0,1,2.13-1.16,2.57,2.57,0,1,1-2.06,4.08l-2.11,0,0,3.39,2,0a2.52,2.52,0,0,1,2.13-1.16,2.57,2.57,0,1,1-2.06,4.08l-2.11,0,0,3.39,2,0a2.55,2.55,0,0,1,2.14-1.17,2.57,2.57,0,1,1-2.07,4.08l-2.1,0,0,3.39,2,0A2.53,2.53,0,0,1,31.87,160a2.57,2.57,0,1,1-2.07,4.08l-2.1,0,0,3.39h2a2.6,2.6,0,0,1,2.16-1.17,2.57,2.57,0,1,1-2.07,4.08l-2.1,0v3.38l2,0a2.61,2.61,0,0,1,2.14-1.17,2.57,2.57,0,1,1-2.06,4.08l-2.11,0,0,3.39,2,0A2.57,2.57,0,1,1,32,184,2.51,2.51,0,0,1,29.89,183l-2.11,0v3.39l2,0A2.54,2.54,0,0,1,32,185.19a2.57,2.57,0,1,1-2,4.09H27.81v3.39l2,0a2.58,2.58,0,1,1,.09,2.92l-2.13,0,0,3.38,2,0a2.57,2.57,0,1,1,2.15,4A2.58,2.58,0,0,1,30,201.88l-2.12,0,0,3.39,2,0a2.55,2.55,0,0,1,2.15-1.17A2.57,2.57,0,1,1,30,208.18l-2.11,0,0,3.39h2a2.56,2.56,0,0,1,2.15-1.17A2.57,2.57,0,1,1,30,214.49l-2.1,0,0,3.39,2,0a2.57,2.57,0,1,1,2.17,4,2.6,2.6,0,0,1-2.09-1.05l-2.1,0,0,3.38h2A2.6,2.6,0,0,1,32.17,223a2.57,2.57,0,1,1,0,5.14,2.61,2.61,0,0,1-2.1-1.05l-2.1,0v3.39l2,0a2.57,2.57,0,1,1,2.18,4,2.52,2.52,0,0,1-2.09-1.05l-2.11,0,0,3.39,2,0a2.55,2.55,0,0,1,2.15-1.17,2.57,2.57,0,1,1,0,5.14,2.54,2.54,0,0,1-2.08-1.06l-2.11,0v3.39l2,0a2.54,2.54,0,0,1,2.13-1.17,2.57,2.57,0,1,1-2,4.09H28.09v3.39l2,0a2.57,2.57,0,1,1,.09,2.91l-2.13,0,0,3.39h2a2.56,2.56,0,1,1,2.15,4,2.58,2.58,0,0,1-2.08-1.05H28.13l0,3.4,2,0a2.56,2.56,0,0,1,2.13-1.18,2.6,2.6,0,0,1,2.58,2.56A2.57,2.57,0,0,1,32.35,266a2.6,2.6,0,0,1-2.08-1.05l-2.11,0,0,3.38,2,0a2.57,2.57,0,0,1,4.73,1.39,2.6,2.6,0,0,1-2.56,2.58,2.65,2.65,0,0,1-2.09-1.05H28.2l0,5.14,90.43-.14.19-138.55Z"/></g><g id="notebook"><path class="cls-5" d="M288,113.51h-.1L288,53a13.58,13.58,0,0,0-13.58-13.61h-6.46v-.1h-11.6v.13l-95.23-.1H146.49l-.07,74.13h-.07L146.28,193h.07l-.07,79.16h13.24v.17h1.55v-.17l95,.09v.09h11.6v-.07h6.46a13.6,13.6,0,0,0,13.61-13.59l.06-65.57h.1Z"/><path class="cls-6" d="M283.35,258.73a13.6,13.6,0,0,1-13.61,13.59l-127.89-.13.21-233,127.87.13A13.58,13.58,0,0,1,283.52,53Z"/><rect class="cls-7" x="172.9" y="82.43" width="79.65" height="141.65" transform="translate(59.25 365.82) rotate(-89.94)"/><rect class="cls-5" x="148.57" y="153.33" width="232.97" height="4.98" transform="translate(108.94 420.7) rotate(-89.94)"/><rect class="cls-8" x="251.79" y="39.21" width="11.6" height="233.17"/><rect class="cls-9" x="258.75" y="39.22" width="2.32" height="233.17"/><rect class="cls-9" x="138.68" y="154.62" width="233.17" height="2.32" transform="translate(99.17 410.85) rotate(-89.93)"/><rect class="cls-5" x="155.09" y="39.24" width="1.55" height="233.14"/></g><g id="scissor"><path class="cls-5" d="M121.06,246.64,85.39,226.18l-2.74-7S82,217,85.5,213.43a8.88,8.88,0,1,0-12.15-.37,9,9,0,0,0,1.5,1.21l0,0c2,1.33,5.2,3.9,5.05,8.88a18.93,18.93,0,0,1-.36,2.88,18,18,0,0,1-2.88.36c-5,.16-7.53-3-8.87-5.05l0,0a9.54,9.54,0,0,0-1.21-1.49,8.35,8.35,0,1,0-11.78,11.79A8.61,8.61,0,0,0,67,232c3.54-3.54,5.79-2.85,5.79-2.85l7,2.74,20.45,35.67c.43.53,1.52,0,1.52,0l-12.58-32,32,12.58S121.59,247.08,121.06,246.64ZM65.28,230.32a6.51,6.51,0,1,1-.27-8.91A6.31,6.31,0,0,1,65.28,230.32Zm9.64-18.84a6.12,6.12,0,1,1,8.91.28A6.31,6.31,0,0,1,74.93,211.47Z"/><g id="scissor-2" data-name="scissor"><path class="cls-8" d="M118.43,246.64,80.78,225A29.38,29.38,0,0,1,74,226.4c-5,.16-7.53-3-8.87-5.05l0,0a9.07,9.07,0,0,0-1.21-1.49,8.35,8.35,0,1,0-11.78,11.79,8.61,8.61,0,0,0,12.16.37c3.54-3.54,5.79-2.85,5.79-2.85l48.32,19S119,247.08,118.43,246.64ZM62.37,221.4a6.12,6.12,0,1,1-8.91-.27A6.31,6.31,0,0,1,62.37,221.4Z"/><path class="cls-9" d="M82.49,201.26A8.35,8.35,0,1,0,70.71,213a9,9,0,0,0,1.5,1.21l0,0c2,1.33,5.2,3.9,5.05,8.88a29.5,29.5,0,0,1-1.35,6.74l21.59,37.65c.43.53,1.52,0,1.52,0L80,219.23s-.69-2.26,2.85-5.8A8.64,8.64,0,0,0,82.49,201.26Zm-1.56,1.57a6.12,6.12,0,1,1-8.9-.26A6.33,6.33,0,0,1,80.92,202.84Z"/><ellipse class="cls-7" cx="80.96" cy="230.09" rx="1.67" ry="1.56" transform="translate(-139 124.67) rotate(-45.01)"/></g></g><g id="pencil"><path class="cls-5" d="M219.6,78.68l.09-13.05h-.06l0-7.94c0-.56-.68-2.76-2.78-2.76l-3.66,0a2.76,2.76,0,0,0-2.78,2.75v4.65l-.07,0-.1,16.4h0l-.73,146.3h0l3.25,13.58h0l1.39,5.82,1.44-5.84L218.94,225h0l.73-146.3h-.07Z"/><path class="cls-10" d="M206.91,57.61l0,7.94,9.21,0,0-7.94c0-.56-.68-2.76-2.78-2.76l-3.66,0A2.77,2.77,0,0,0,206.91,57.61Z"/><path class="cls-9" d="M214,78.68l-5.12,0h-2.16l-.73,146.3a2.49,2.49,0,0,0,2.16-2.08,0,0,0,0,1,0,0h0a2.59,2.59,0,0,0,5.1,0v0a2.54,2.54,0,0,0,2.15,2.11l.73-146.32Z"/><polygon class="cls-7" points="206.73 78.63 216.07 78.69 216.15 65.63 206.81 65.58 206.73 78.63"/><path class="cls-9" d="M212,238.5a8.35,8.35,0,0,0-1.34-.11,8.59,8.59,0,0,0-1.49.13l1.39,5.82Z"/><path class="cls-2" d="M215.4,225a2.51,2.51,0,0,1-2.15-2.09v0a0,0,0,0,0,0,0,2.59,2.59,0,0,1-5.1,0h0a0,0,0,0,0,0,0,2.49,2.49,0,0,1-2.18,2.08l3.25,13.58a8.59,8.59,0,0,1,1.49-.13,8.35,8.35,0,0,1,1.34.11Z"/></g></svg>